M48
;GenerationSoftware,Autodesk,EAGLE,8.6.3*%
;CreationDate,2018-03-24T11:36:10Z*%
FMAT,2
ICI,OFF
METRIC,TZ,000.000
T6C0.203
T5C0.254
T4C0.305
T3C0.356
T2C1.500
T1C1.600
%
G90
M71
T1
X5189Y10596
X9588Y13136
X7729Y6196
X12128Y8736
T2
X8659Y9666
T3
X27277Y20867
X15644Y22442
X13307Y22468
X14323Y22468
X17904Y22468
X16888Y22468
X22502Y25998
X19885Y26582
X6982Y21629
X24051Y20537
X5814Y17997
X18590Y2554
X13307Y19597
X25194Y22747
X4620Y20080
X19073Y23585
X12088Y23966
T4
X10868Y1868
X24864Y2605
X32357Y13552
X23772Y1817
X25651Y27192
X11199Y28741
X2639Y14416
T5
X10945Y26684
T6
X17345Y5780
X29690Y17769
X15771Y11419
X17244Y10987
X25829Y12536
X25829Y13781
X24610Y12536
X24610Y11317
X25829Y11317
X27048Y11317
X27023Y12511
X27023Y13781
X31112Y13400
X23441Y4865
X22095Y5094
X11961Y15762
X24610Y13781
X5687Y14924
X6982Y11469
X8100Y11927
X6042Y8879
X6652Y7812
X9573Y6872
X10691Y7482
X11402Y12562
X12723Y10530
X14323Y10123
X14805Y8472
X2258Y12816
X3045Y11444
X5128Y7863
X7160Y4256
X7871Y2910
X6246Y24373
X12494Y29275
X14120Y29224
X20190Y29376
X22400Y29402
X26870Y26557
X27531Y25262
X26007Y25439
X23924Y26709
X32154Y17845
X32255Y12155
X15898Y2706
X12596Y3900
X22095Y8015
X31061Y11571
X26794Y16041
X7541Y14949
X12113Y954
X14399Y954
X16253Y4611
X2359Y17489
X3172Y18810
X3731Y12562
X5230Y12866
X10564Y21172
X14247Y27446
X15898Y26455
X6754Y12917
X28699Y9260
X14958Y6262
X30299Y19597
X14501Y3646
X9446Y21502
X12799Y6694
X12900Y24982
X29029Y16016
X13408Y2452
X25804Y16143
X28369Y10225
X11351Y17286
X20495Y4586
X19377Y4281
X21486Y9564
X22476Y9590
X26083Y8345
X21282Y2046
X13866Y5272
X10919Y3545
X11148Y5526
X9040Y4230
X23416Y15203
M30