G04 EAGLE Gerber X2 export*
%TF.Part,Single*%
%TF.FileFunction,Copper,L2,Inr,Mixed*%
%TF.FilePolarity,Positive*%
%TF.GenerationSoftware,Autodesk,EAGLE,8.6.3*%
%TF.CreationDate,2018-03-24T11:36:11Z*%
G75*
%MOMM*%
%FSLAX34Y34*%
%LPD*%
%AMOC8*
5,1,8,0,0,1.08239X$1,22.5*%
G01*
%ADD10C,2.400000*%
%ADD11C,2.250000*%
%ADD12C,0.762000*%
%ADD13C,0.609600*%
%ADD14C,0.660400*%
%ADD15C,0.711200*%

G36*
X259023Y778D02*
X259023Y778D01*
X259035Y776D01*
X259132Y798D01*
X259231Y815D01*
X259242Y822D01*
X259254Y825D01*
X259338Y879D01*
X259424Y930D01*
X259432Y939D01*
X259443Y946D01*
X259559Y1093D01*
X345345Y149683D01*
X345350Y149695D01*
X345357Y149705D01*
X345388Y149800D01*
X345421Y149894D01*
X345421Y149907D01*
X345425Y149919D01*
X345420Y150018D01*
X345419Y150118D01*
X345415Y150130D01*
X345414Y150143D01*
X345345Y150317D01*
X262884Y293148D01*
X262883Y293150D01*
X262882Y293153D01*
X259482Y298933D01*
X259475Y298940D01*
X259471Y298949D01*
X259402Y299025D01*
X259336Y299103D01*
X259327Y299108D01*
X259320Y299115D01*
X259228Y299162D01*
X259139Y299211D01*
X259129Y299213D01*
X259120Y299218D01*
X258935Y299245D01*
X87402Y299245D01*
X87389Y299243D01*
X87377Y299245D01*
X87280Y299223D01*
X87181Y299206D01*
X87170Y299199D01*
X87158Y299196D01*
X87074Y299142D01*
X86988Y299091D01*
X86980Y299082D01*
X86969Y299075D01*
X86853Y298928D01*
X1055Y150317D01*
X1050Y150305D01*
X1043Y150295D01*
X1012Y150200D01*
X979Y150106D01*
X979Y150093D01*
X975Y150081D01*
X980Y149982D01*
X981Y149882D01*
X985Y149870D01*
X986Y149857D01*
X1055Y149683D01*
X86841Y1093D01*
X86849Y1083D01*
X86853Y1072D01*
X86921Y998D01*
X86985Y921D01*
X86996Y915D01*
X87005Y906D01*
X87094Y860D01*
X87181Y811D01*
X87193Y809D01*
X87204Y803D01*
X87390Y776D01*
X259010Y776D01*
X259023Y778D01*
G37*
%LPC*%
G36*
X84045Y83885D02*
X84045Y83885D01*
X79350Y85830D01*
X75756Y89424D01*
X73811Y94119D01*
X73811Y99201D01*
X75756Y103896D01*
X79350Y107490D01*
X84045Y109435D01*
X89127Y109435D01*
X93822Y107490D01*
X97416Y103896D01*
X99361Y99201D01*
X99361Y94119D01*
X97416Y89424D01*
X93822Y85830D01*
X89127Y83885D01*
X84045Y83885D01*
G37*
%LPD*%
%LPC*%
G36*
X212962Y91071D02*
X212962Y91071D01*
X210283Y93750D01*
X210283Y97538D01*
X212962Y100217D01*
X216750Y100217D01*
X219233Y97733D01*
X219288Y97696D01*
X219335Y97651D01*
X219379Y97632D01*
X219418Y97605D01*
X219481Y97589D01*
X219542Y97563D01*
X219589Y97561D01*
X219635Y97549D01*
X219700Y97556D01*
X219766Y97553D01*
X219811Y97568D01*
X219858Y97573D01*
X219917Y97602D01*
X219980Y97622D01*
X220024Y97655D01*
X220059Y97672D01*
X220086Y97701D01*
X220130Y97733D01*
X222868Y100471D01*
X226656Y100471D01*
X229335Y97792D01*
X229335Y94004D01*
X226656Y91325D01*
X222868Y91325D01*
X220384Y93809D01*
X220330Y93846D01*
X220283Y93891D01*
X220239Y93910D01*
X220200Y93937D01*
X220137Y93953D01*
X220076Y93979D01*
X220029Y93981D01*
X219983Y93993D01*
X219918Y93986D01*
X219852Y93989D01*
X219807Y93974D01*
X219760Y93969D01*
X219701Y93940D01*
X219638Y93920D01*
X219594Y93887D01*
X219559Y93870D01*
X219532Y93841D01*
X219487Y93809D01*
X216750Y91071D01*
X212962Y91071D01*
G37*
%LPD*%
%LPC*%
G36*
X266048Y155841D02*
X266048Y155841D01*
X263369Y158520D01*
X263369Y158765D01*
X263353Y158853D01*
X263344Y158941D01*
X263334Y158963D01*
X263330Y158986D01*
X263284Y159063D01*
X263245Y159143D01*
X263228Y159159D01*
X263215Y159179D01*
X263146Y159235D01*
X263082Y159296D01*
X263060Y159306D01*
X263041Y159321D01*
X262957Y159349D01*
X262875Y159384D01*
X262851Y159385D01*
X262829Y159393D01*
X262740Y159390D01*
X262651Y159394D01*
X262628Y159387D01*
X262604Y159386D01*
X262522Y159352D01*
X262437Y159325D01*
X262416Y159309D01*
X262397Y159302D01*
X262359Y159268D01*
X262287Y159214D01*
X259930Y156857D01*
X256142Y156857D01*
X253463Y159536D01*
X253463Y163324D01*
X256142Y166003D01*
X259930Y166003D01*
X262609Y163324D01*
X262609Y163079D01*
X262625Y162991D01*
X262634Y162903D01*
X262644Y162881D01*
X262648Y162858D01*
X262694Y162781D01*
X262733Y162701D01*
X262750Y162685D01*
X262763Y162665D01*
X262832Y162609D01*
X262896Y162548D01*
X262918Y162538D01*
X262937Y162523D01*
X263021Y162495D01*
X263103Y162460D01*
X263127Y162459D01*
X263149Y162451D01*
X263238Y162454D01*
X263327Y162450D01*
X263350Y162457D01*
X263374Y162458D01*
X263456Y162492D01*
X263541Y162519D01*
X263562Y162535D01*
X263581Y162542D01*
X263619Y162576D01*
X263691Y162630D01*
X266048Y164987D01*
X269836Y164987D01*
X272515Y162308D01*
X272515Y158520D01*
X269836Y155841D01*
X266048Y155841D01*
G37*
%LPD*%
%LPC*%
G36*
X285098Y88023D02*
X285098Y88023D01*
X282419Y90702D01*
X282419Y94490D01*
X284522Y96593D01*
X284573Y96666D01*
X284629Y96735D01*
X284636Y96757D01*
X284650Y96777D01*
X284672Y96863D01*
X284701Y96947D01*
X284700Y96971D01*
X284706Y96994D01*
X284697Y97083D01*
X284694Y97172D01*
X284685Y97194D01*
X284683Y97217D01*
X284643Y97297D01*
X284610Y97379D01*
X284594Y97397D01*
X284583Y97418D01*
X284518Y97479D01*
X284458Y97545D01*
X284437Y97556D01*
X284420Y97572D01*
X284338Y97607D01*
X284259Y97648D01*
X284232Y97651D01*
X284213Y97660D01*
X284163Y97662D01*
X284073Y97675D01*
X281796Y97675D01*
X279117Y100354D01*
X279117Y104142D01*
X281796Y106821D01*
X285584Y106821D01*
X288263Y104142D01*
X288263Y100354D01*
X286160Y98251D01*
X286109Y98178D01*
X286053Y98109D01*
X286046Y98087D01*
X286032Y98067D01*
X286010Y97981D01*
X285981Y97897D01*
X285982Y97873D01*
X285976Y97850D01*
X285985Y97761D01*
X285988Y97672D01*
X285997Y97650D01*
X285999Y97627D01*
X286039Y97547D01*
X286072Y97465D01*
X286088Y97447D01*
X286099Y97426D01*
X286164Y97365D01*
X286224Y97299D01*
X286245Y97288D01*
X286262Y97272D01*
X286344Y97237D01*
X286423Y97196D01*
X286450Y97193D01*
X286469Y97184D01*
X286519Y97182D01*
X286609Y97169D01*
X288886Y97169D01*
X291565Y94490D01*
X291565Y90702D01*
X288886Y88023D01*
X285098Y88023D01*
G37*
%LPD*%
%LPC*%
G36*
X115135Y100550D02*
X115135Y100550D01*
X115701Y100838D01*
X117878Y101546D01*
X120139Y101904D01*
X122427Y101904D01*
X124688Y101546D01*
X126865Y100838D01*
X128904Y99799D01*
X130756Y98454D01*
X132374Y96836D01*
X133195Y95706D01*
X121748Y89097D01*
X115135Y100550D01*
G37*
%LPD*%
%LPC*%
G36*
X89735Y144544D02*
X89735Y144544D01*
X90301Y144832D01*
X92478Y145540D01*
X94739Y145898D01*
X97027Y145898D01*
X99288Y145540D01*
X101465Y144832D01*
X103504Y143793D01*
X105356Y142448D01*
X106974Y140830D01*
X107795Y139700D01*
X96348Y133091D01*
X89735Y144544D01*
G37*
%LPD*%
%LPC*%
G36*
X45741Y119144D02*
X45741Y119144D01*
X46307Y119432D01*
X48484Y120140D01*
X50745Y120498D01*
X53033Y120498D01*
X55294Y120140D01*
X57471Y119432D01*
X59510Y118393D01*
X61362Y117048D01*
X62980Y115430D01*
X63801Y114300D01*
X52353Y107691D01*
X45741Y119144D01*
G37*
%LPD*%
%LPC*%
G36*
X71141Y75150D02*
X71141Y75150D01*
X71707Y75438D01*
X73884Y76146D01*
X76145Y76504D01*
X78433Y76504D01*
X80694Y76146D01*
X82871Y75438D01*
X84910Y74399D01*
X86762Y73054D01*
X88380Y71436D01*
X89201Y70306D01*
X77753Y63697D01*
X71141Y75150D01*
G37*
%LPD*%
%LPC*%
G36*
X53623Y105492D02*
X53623Y105492D01*
X65076Y112105D01*
X65364Y111539D01*
X66072Y109362D01*
X66430Y107101D01*
X66430Y104813D01*
X66072Y102552D01*
X65364Y100375D01*
X64325Y98336D01*
X62980Y96484D01*
X61362Y94866D01*
X60232Y94045D01*
X53623Y105492D01*
G37*
%LPD*%
%LPC*%
G36*
X97617Y130892D02*
X97617Y130892D01*
X109070Y137505D01*
X109358Y136939D01*
X110066Y134762D01*
X110424Y132501D01*
X110424Y130213D01*
X110066Y127952D01*
X109358Y125775D01*
X108319Y123736D01*
X106974Y121884D01*
X105356Y120266D01*
X104226Y119445D01*
X97617Y130892D01*
G37*
%LPD*%
%LPC*%
G36*
X79023Y61498D02*
X79023Y61498D01*
X90476Y68111D01*
X90764Y67545D01*
X91472Y65368D01*
X91830Y63107D01*
X91830Y60819D01*
X91472Y58558D01*
X90764Y56381D01*
X89725Y54342D01*
X88380Y52490D01*
X86762Y50872D01*
X85632Y50051D01*
X79023Y61498D01*
G37*
%LPD*%
%LPC*%
G36*
X123017Y86898D02*
X123017Y86898D01*
X134470Y93511D01*
X134758Y92945D01*
X135466Y90768D01*
X135824Y88507D01*
X135824Y86219D01*
X135466Y83958D01*
X134758Y81781D01*
X133719Y79742D01*
X132374Y77890D01*
X130756Y76272D01*
X129626Y75451D01*
X123017Y86898D01*
G37*
%LPD*%
%LPC*%
G36*
X82408Y125775D02*
X82408Y125775D01*
X81700Y127952D01*
X81342Y130213D01*
X81342Y132501D01*
X81700Y134762D01*
X82408Y136939D01*
X83447Y138978D01*
X84792Y140830D01*
X86410Y142448D01*
X87540Y143269D01*
X94149Y131822D01*
X82696Y125209D01*
X82408Y125775D01*
G37*
%LPD*%
%LPC*%
G36*
X38414Y100375D02*
X38414Y100375D01*
X37706Y102552D01*
X37348Y104813D01*
X37348Y107101D01*
X37706Y109362D01*
X38414Y111539D01*
X39453Y113578D01*
X40798Y115430D01*
X42416Y117048D01*
X43546Y117869D01*
X50155Y106422D01*
X38702Y99809D01*
X38414Y100375D01*
G37*
%LPD*%
%LPC*%
G36*
X63814Y56381D02*
X63814Y56381D01*
X63106Y58558D01*
X62748Y60819D01*
X62748Y63107D01*
X63106Y65368D01*
X63814Y67545D01*
X64853Y69584D01*
X66198Y71436D01*
X67816Y73054D01*
X68946Y73875D01*
X75555Y62428D01*
X64102Y55815D01*
X63814Y56381D01*
G37*
%LPD*%
%LPC*%
G36*
X107808Y81781D02*
X107808Y81781D01*
X107100Y83958D01*
X106742Y86219D01*
X106742Y88507D01*
X107100Y90768D01*
X107808Y92945D01*
X108847Y94984D01*
X110192Y96836D01*
X111810Y98454D01*
X112940Y99275D01*
X119549Y87828D01*
X108096Y81215D01*
X107808Y81781D01*
G37*
%LPD*%
%LPC*%
G36*
X76145Y47422D02*
X76145Y47422D01*
X73884Y47780D01*
X71707Y48488D01*
X69668Y49527D01*
X67816Y50872D01*
X66198Y52490D01*
X65377Y53620D01*
X76824Y60229D01*
X83437Y48776D01*
X82871Y48488D01*
X80694Y47780D01*
X78433Y47422D01*
X76145Y47422D01*
G37*
%LPD*%
%LPC*%
G36*
X120139Y72822D02*
X120139Y72822D01*
X117878Y73180D01*
X115701Y73888D01*
X113662Y74927D01*
X111810Y76272D01*
X110192Y77890D01*
X109371Y79020D01*
X120818Y85629D01*
X127431Y74176D01*
X126865Y73888D01*
X124688Y73180D01*
X122427Y72822D01*
X120139Y72822D01*
G37*
%LPD*%
%LPC*%
G36*
X50745Y91416D02*
X50745Y91416D01*
X48484Y91774D01*
X46307Y92482D01*
X44268Y93521D01*
X42416Y94866D01*
X40798Y96484D01*
X39977Y97614D01*
X51424Y104223D01*
X58037Y92770D01*
X57471Y92482D01*
X55294Y91774D01*
X53033Y91416D01*
X50745Y91416D01*
G37*
%LPD*%
%LPC*%
G36*
X94739Y116816D02*
X94739Y116816D01*
X92478Y117174D01*
X90301Y117882D01*
X88262Y118921D01*
X86410Y120266D01*
X84792Y121884D01*
X83971Y123014D01*
X95418Y129623D01*
X102031Y118170D01*
X101465Y117882D01*
X99288Y117174D01*
X97027Y116816D01*
X94739Y116816D01*
G37*
%LPD*%
%LPC*%
G36*
X67612Y210959D02*
X67612Y210959D01*
X64487Y214084D01*
X64487Y218504D01*
X67612Y221629D01*
X72032Y221629D01*
X75157Y218504D01*
X75157Y214084D01*
X72032Y210959D01*
X67612Y210959D01*
G37*
%LPD*%
%LPC*%
G36*
X183690Y20205D02*
X183690Y20205D01*
X180565Y23330D01*
X180565Y27750D01*
X183690Y30875D01*
X188110Y30875D01*
X191235Y27750D01*
X191235Y23330D01*
X188110Y20205D01*
X183690Y20205D01*
G37*
%LPD*%
%LPC*%
G36*
X118666Y234327D02*
X118666Y234327D01*
X115541Y237452D01*
X115541Y241872D01*
X118666Y244997D01*
X123086Y244997D01*
X126211Y241872D01*
X126211Y237452D01*
X123086Y234327D01*
X118666Y234327D01*
G37*
%LPD*%
%LPC*%
G36*
X43990Y195465D02*
X43990Y195465D01*
X40865Y198590D01*
X40865Y203010D01*
X43990Y206135D01*
X48410Y206135D01*
X51535Y203010D01*
X51535Y198590D01*
X48410Y195465D01*
X43990Y195465D01*
G37*
%LPD*%
%LPC*%
G36*
X55928Y174637D02*
X55928Y174637D01*
X52803Y177762D01*
X52803Y182182D01*
X55928Y185307D01*
X60348Y185307D01*
X63473Y182182D01*
X63473Y177762D01*
X60348Y174637D01*
X55928Y174637D01*
G37*
%LPD*%
%LPC*%
G36*
X188516Y230517D02*
X188516Y230517D01*
X185391Y233642D01*
X185391Y238062D01*
X188516Y241187D01*
X192936Y241187D01*
X196061Y238062D01*
X196061Y233642D01*
X192936Y230517D01*
X188516Y230517D01*
G37*
%LPD*%
%LPC*%
G36*
X249730Y222135D02*
X249730Y222135D01*
X246605Y225260D01*
X246605Y229680D01*
X249730Y232805D01*
X254150Y232805D01*
X257275Y229680D01*
X257275Y225260D01*
X254150Y222135D01*
X249730Y222135D01*
G37*
%LPD*%
%LPC*%
G36*
X109881Y282333D02*
X109881Y282333D01*
X106905Y285309D01*
X106905Y289519D01*
X109881Y292495D01*
X114091Y292495D01*
X117067Y289519D01*
X117067Y285309D01*
X114091Y282333D01*
X109881Y282333D01*
G37*
%LPD*%
%LPC*%
G36*
X321463Y130441D02*
X321463Y130441D01*
X318487Y133417D01*
X318487Y137627D01*
X321463Y140603D01*
X325673Y140603D01*
X328649Y137627D01*
X328649Y133417D01*
X325673Y130441D01*
X321463Y130441D01*
G37*
%LPD*%
%LPC*%
G36*
X254407Y266839D02*
X254407Y266839D01*
X251431Y269815D01*
X251431Y274025D01*
X254407Y277001D01*
X258617Y277001D01*
X261593Y274025D01*
X261593Y269815D01*
X258617Y266839D01*
X254407Y266839D01*
G37*
%LPD*%
%LPC*%
G36*
X24283Y139077D02*
X24283Y139077D01*
X21307Y142053D01*
X21307Y146263D01*
X24283Y149239D01*
X28493Y149239D01*
X31469Y146263D01*
X31469Y142053D01*
X28493Y139077D01*
X24283Y139077D01*
G37*
%LPD*%
%LPC*%
G36*
X246533Y20967D02*
X246533Y20967D01*
X243557Y23943D01*
X243557Y28153D01*
X246533Y31129D01*
X250743Y31129D01*
X253719Y28153D01*
X253719Y23943D01*
X250743Y20967D01*
X246533Y20967D01*
G37*
%LPD*%
%LPC*%
G36*
X106579Y13601D02*
X106579Y13601D01*
X103603Y16577D01*
X103603Y20787D01*
X106579Y23763D01*
X110789Y23763D01*
X113765Y20787D01*
X113765Y16577D01*
X110789Y13601D01*
X106579Y13601D01*
G37*
%LPD*%
%LPC*%
G36*
X140572Y269887D02*
X140572Y269887D01*
X137893Y272566D01*
X137893Y276354D01*
X140572Y279033D01*
X144360Y279033D01*
X147039Y276354D01*
X147039Y272566D01*
X144360Y269887D01*
X140572Y269887D01*
G37*
%LPD*%
%LPC*%
G36*
X157082Y259981D02*
X157082Y259981D01*
X154403Y262660D01*
X154403Y266448D01*
X157082Y269127D01*
X160870Y269127D01*
X163549Y266448D01*
X163549Y262660D01*
X160870Y259981D01*
X157082Y259981D01*
G37*
%LPD*%
%LPC*%
G36*
X127110Y245249D02*
X127110Y245249D01*
X124431Y247928D01*
X124431Y251716D01*
X127110Y254395D01*
X130898Y254395D01*
X133577Y251716D01*
X133577Y247928D01*
X130898Y245249D01*
X127110Y245249D01*
G37*
%LPD*%
%LPC*%
G36*
X73516Y144919D02*
X73516Y144919D01*
X70837Y147598D01*
X70837Y151386D01*
X73516Y154065D01*
X77304Y154065D01*
X79983Y151386D01*
X79983Y147598D01*
X77304Y144919D01*
X73516Y144919D01*
G37*
%LPD*%
%LPC*%
G36*
X258936Y78879D02*
X258936Y78879D01*
X256257Y81558D01*
X256257Y85346D01*
X258936Y88025D01*
X262724Y88025D01*
X265403Y85346D01*
X265403Y81558D01*
X262724Y78879D01*
X258936Y78879D01*
G37*
%LPD*%
%LPC*%
G36*
X301100Y191401D02*
X301100Y191401D01*
X298421Y194080D01*
X298421Y197868D01*
X301100Y200547D01*
X304888Y200547D01*
X307567Y197868D01*
X307567Y194080D01*
X304888Y191401D01*
X301100Y191401D01*
G37*
%LPD*%
%LPC*%
G36*
X219058Y75577D02*
X219058Y75577D01*
X216379Y78256D01*
X216379Y82044D01*
X219058Y84723D01*
X222846Y84723D01*
X225525Y82044D01*
X225525Y78256D01*
X222846Y75577D01*
X219058Y75577D01*
G37*
%LPD*%
%LPC*%
G36*
X232266Y147459D02*
X232266Y147459D01*
X229587Y150138D01*
X229587Y153926D01*
X232266Y156605D01*
X236054Y156605D01*
X238733Y153926D01*
X238733Y150138D01*
X236054Y147459D01*
X232266Y147459D01*
G37*
%LPD*%
%LPC*%
G36*
X103742Y207149D02*
X103742Y207149D01*
X101063Y209828D01*
X101063Y213616D01*
X103742Y216295D01*
X107530Y216295D01*
X110209Y213616D01*
X110209Y209828D01*
X107530Y207149D01*
X103742Y207149D01*
G37*
%LPD*%
%LPC*%
G36*
X92566Y210451D02*
X92566Y210451D01*
X89887Y213130D01*
X89887Y216918D01*
X92566Y219597D01*
X96354Y219597D01*
X99033Y216918D01*
X99033Y213130D01*
X96354Y210451D01*
X92566Y210451D01*
G37*
%LPD*%
%LPC*%
G36*
X308720Y111137D02*
X308720Y111137D01*
X306041Y113816D01*
X306041Y117604D01*
X308720Y120283D01*
X312508Y120283D01*
X315187Y117604D01*
X315187Y113816D01*
X312508Y111137D01*
X308720Y111137D01*
G37*
%LPD*%
%LPC*%
G36*
X203056Y41287D02*
X203056Y41287D01*
X200377Y43966D01*
X200377Y47754D01*
X203056Y50433D01*
X206844Y50433D01*
X209523Y47754D01*
X209523Y43966D01*
X206844Y41287D01*
X203056Y41287D01*
G37*
%LPD*%
%LPC*%
G36*
X191880Y38239D02*
X191880Y38239D01*
X189201Y40918D01*
X189201Y44706D01*
X191880Y47385D01*
X195668Y47385D01*
X198347Y44706D01*
X198347Y40918D01*
X195668Y38239D01*
X191880Y38239D01*
G37*
%LPD*%
%LPC*%
G36*
X288400Y155587D02*
X288400Y155587D01*
X285721Y158266D01*
X285721Y162054D01*
X288400Y164733D01*
X292188Y164733D01*
X294867Y162054D01*
X294867Y158266D01*
X292188Y155587D01*
X288400Y155587D01*
G37*
%LPD*%
%LPC*%
G36*
X210930Y15887D02*
X210930Y15887D01*
X208251Y18566D01*
X208251Y22354D01*
X210930Y25033D01*
X214718Y25033D01*
X217397Y22354D01*
X217397Y18566D01*
X214718Y15887D01*
X210930Y15887D01*
G37*
%LPD*%
%LPC*%
G36*
X111616Y168287D02*
X111616Y168287D01*
X108937Y170966D01*
X108937Y174754D01*
X111616Y177433D01*
X115404Y177433D01*
X118083Y174754D01*
X118083Y170966D01*
X115404Y168287D01*
X111616Y168287D01*
G37*
%LPD*%
%LPC*%
G36*
X77288Y61963D02*
X77288Y61963D01*
X77289Y61964D01*
X77290Y61963D01*
X77289Y61962D01*
X77288Y61963D01*
G37*
%LPD*%
%LPC*%
G36*
X95882Y131357D02*
X95882Y131357D01*
X95883Y131358D01*
X95884Y131357D01*
X95883Y131356D01*
X95882Y131357D01*
G37*
%LPD*%
%LPC*%
G36*
X121282Y87363D02*
X121282Y87363D01*
X121283Y87364D01*
X121284Y87363D01*
X121283Y87362D01*
X121282Y87363D01*
G37*
%LPD*%
%LPC*%
G36*
X51888Y105957D02*
X51888Y105957D01*
X51889Y105958D01*
X51890Y105957D01*
X51889Y105956D01*
X51888Y105957D01*
G37*
%LPD*%
D10*
X95883Y131357D03*
X51889Y105957D03*
X121283Y87363D03*
X77289Y61963D03*
D11*
X86586Y96660D03*
D12*
X272768Y208674D03*
X156436Y224422D03*
X133068Y224676D03*
X143228Y224676D03*
X179042Y224676D03*
X168882Y224676D03*
X225016Y259982D03*
X198854Y265824D03*
D13*
X173454Y57798D03*
X296898Y177686D03*
X157706Y114186D03*
X172438Y109868D03*
X258290Y125362D03*
X258290Y137808D03*
X246098Y137808D03*
X246098Y125362D03*
X246098Y113170D03*
X258290Y113170D03*
X270482Y113170D03*
X270228Y125108D03*
X270228Y137808D03*
X311122Y133998D03*
X234414Y48654D03*
X220952Y50940D03*
X119606Y157620D03*
D12*
X240510Y205372D03*
D14*
X109446Y266840D03*
D15*
X237716Y18174D03*
D12*
X133068Y195974D03*
D13*
X56868Y149238D03*
X69822Y114694D03*
X80998Y119266D03*
X60424Y88786D03*
X66520Y78118D03*
X95730Y68720D03*
X106906Y74816D03*
X114018Y125616D03*
X127226Y105296D03*
X143228Y101232D03*
X148054Y84722D03*
X22578Y128156D03*
X30452Y114440D03*
X51280Y78626D03*
X71600Y42558D03*
X78712Y29096D03*
X90396Y42304D03*
X111478Y55258D03*
X109192Y35446D03*
X138656Y52718D03*
X127988Y66942D03*
X145006Y36462D03*
X149578Y62624D03*
X67536Y129172D03*
X52296Y128664D03*
X37310Y125616D03*
X125956Y39002D03*
X158976Y27064D03*
X134084Y24524D03*
X121130Y9538D03*
X143990Y9538D03*
X162532Y46114D03*
X23594Y174892D03*
X31722Y188100D03*
X62456Y243726D03*
X124940Y292748D03*
X141196Y292240D03*
X201902Y293764D03*
X224000Y294018D03*
X268704Y265570D03*
X275308Y252616D03*
X260068Y254394D03*
X239240Y267094D03*
X321536Y178448D03*
X322552Y121552D03*
D12*
X120876Y239662D03*
X190726Y235852D03*
D13*
X220952Y80150D03*
X310614Y115710D03*
X267942Y160414D03*
X75410Y149492D03*
D15*
X256512Y271920D03*
X111986Y287414D03*
X26388Y144158D03*
X108684Y18682D03*
X248638Y26048D03*
X323568Y135522D03*
D12*
X46200Y200800D03*
D13*
X105636Y211722D03*
X142466Y274460D03*
X158976Y264554D03*
D12*
X251940Y227470D03*
D13*
X286992Y92596D03*
D12*
X185900Y25540D03*
D13*
X302994Y195974D03*
D12*
X58138Y179972D03*
D13*
X94460Y215024D03*
D12*
X69822Y216294D03*
D13*
X129004Y249822D03*
X290294Y160160D03*
X234160Y152032D03*
X258036Y161430D03*
X283690Y102248D03*
X113510Y172860D03*
X204950Y45860D03*
X193774Y42812D03*
X214856Y95644D03*
X224762Y95898D03*
X260830Y83452D03*
X212824Y20460D03*
M02*
