G04 EAGLE Gerber X2 export*
%TF.Part,Single*%
%TF.FileFunction,Copper,L3,Inr,Mixed*%
%TF.FilePolarity,Positive*%
%TF.GenerationSoftware,Autodesk,EAGLE,8.6.3*%
%TF.CreationDate,2018-03-24T11:36:11Z*%
G75*
%MOMM*%
%FSLAX34Y34*%
%LPD*%
%AMOC8*
5,1,8,0,0,1.08239X$1,22.5*%
G01*
%ADD10C,2.400000*%
%ADD11C,2.250000*%
%ADD12C,0.762000*%
%ADD13C,0.609600*%
%ADD14C,0.660400*%
%ADD15C,0.711200*%

G36*
X258855Y755D02*
X258855Y755D01*
X258859Y755D01*
X258987Y775D01*
X259114Y795D01*
X259118Y796D01*
X259121Y797D01*
X259238Y854D01*
X259354Y910D01*
X259356Y913D01*
X259360Y914D01*
X259369Y925D01*
X259548Y1092D01*
X259590Y1166D01*
X259621Y1199D01*
X325848Y115912D01*
X325855Y115928D01*
X325865Y115942D01*
X325903Y116052D01*
X325945Y116160D01*
X325947Y116177D01*
X325952Y116193D01*
X325956Y116309D01*
X325965Y116425D01*
X325961Y116442D01*
X325962Y116459D01*
X325931Y116571D01*
X325905Y116684D01*
X325896Y116699D01*
X325892Y116715D01*
X325829Y116813D01*
X325771Y116913D01*
X325758Y116925D01*
X325749Y116940D01*
X325660Y117015D01*
X325575Y117093D01*
X325560Y117100D01*
X325546Y117112D01*
X325439Y117157D01*
X325335Y117207D01*
X325318Y117209D01*
X325302Y117216D01*
X325186Y117228D01*
X325072Y117244D01*
X325055Y117242D01*
X325037Y117244D01*
X324924Y117221D01*
X324809Y117202D01*
X324794Y117195D01*
X324777Y117191D01*
X324742Y117169D01*
X324571Y117085D01*
X324518Y117027D01*
X324451Y116984D01*
X324446Y116979D01*
X320658Y116979D01*
X317979Y119658D01*
X317979Y123446D01*
X320658Y126125D01*
X324446Y126125D01*
X327125Y123446D01*
X327125Y121438D01*
X327130Y121404D01*
X327127Y121369D01*
X327150Y121273D01*
X327165Y121175D01*
X327180Y121144D01*
X327187Y121110D01*
X327237Y121025D01*
X327280Y120936D01*
X327304Y120910D01*
X327321Y120881D01*
X327394Y120814D01*
X327462Y120741D01*
X327492Y120724D01*
X327517Y120701D01*
X327606Y120659D01*
X327692Y120609D01*
X327726Y120602D01*
X327757Y120587D01*
X327855Y120573D01*
X327952Y120552D01*
X327986Y120554D01*
X328020Y120550D01*
X328118Y120565D01*
X328217Y120573D01*
X328249Y120586D01*
X328283Y120592D01*
X328372Y120635D01*
X328464Y120672D01*
X328490Y120694D01*
X328521Y120709D01*
X328557Y120748D01*
X328670Y120840D01*
X328746Y120955D01*
X328782Y120994D01*
X345272Y149556D01*
X345274Y149559D01*
X345276Y149562D01*
X345299Y149624D01*
X345320Y149660D01*
X345330Y149702D01*
X345369Y149803D01*
X345369Y149807D01*
X345371Y149811D01*
X345378Y149919D01*
X345378Y149920D01*
X345378Y149921D01*
X345379Y149939D01*
X345388Y150069D01*
X345388Y150072D01*
X345388Y150076D01*
X345384Y150089D01*
X345329Y150327D01*
X345286Y150401D01*
X345272Y150444D01*
X327766Y180766D01*
X327745Y180793D01*
X327730Y180824D01*
X327662Y180897D01*
X327600Y180974D01*
X327572Y180993D01*
X327548Y181018D01*
X327462Y181068D01*
X327380Y181123D01*
X327347Y181133D01*
X327340Y181137D01*
X327342Y181165D01*
X327354Y181282D01*
X327351Y181299D01*
X327352Y181316D01*
X327340Y181356D01*
X327302Y181542D01*
X327260Y181609D01*
X327236Y181684D01*
X259621Y298801D01*
X259618Y298804D01*
X259617Y298808D01*
X259535Y298908D01*
X259455Y299009D01*
X259452Y299011D01*
X259449Y299014D01*
X259340Y299087D01*
X259235Y299158D01*
X259231Y299159D01*
X259228Y299161D01*
X259214Y299164D01*
X258981Y299236D01*
X258896Y299235D01*
X258851Y299245D01*
X227384Y299245D01*
X227333Y299238D01*
X227281Y299239D01*
X227202Y299218D01*
X227121Y299205D01*
X227075Y299183D01*
X227025Y299169D01*
X226956Y299125D01*
X226882Y299090D01*
X226844Y299055D01*
X226801Y299027D01*
X226747Y298964D01*
X226688Y298908D01*
X226662Y298864D01*
X226628Y298824D01*
X226596Y298749D01*
X226556Y298678D01*
X226544Y298627D01*
X226524Y298580D01*
X226516Y298498D01*
X226498Y298418D01*
X226502Y298367D01*
X226497Y298315D01*
X226513Y298235D01*
X226519Y298153D01*
X226539Y298105D01*
X226549Y298055D01*
X226576Y298011D01*
X226618Y297906D01*
X226731Y297767D01*
X226756Y297729D01*
X228573Y295912D01*
X228573Y292124D01*
X225894Y289445D01*
X222106Y289445D01*
X219427Y292124D01*
X219427Y295912D01*
X221244Y297729D01*
X221269Y297762D01*
X221274Y297767D01*
X221277Y297773D01*
X221312Y297806D01*
X221353Y297877D01*
X221402Y297943D01*
X221419Y297992D01*
X221444Y298036D01*
X221462Y298116D01*
X221489Y298194D01*
X221491Y298246D01*
X221502Y298296D01*
X221496Y298378D01*
X221498Y298460D01*
X221485Y298509D01*
X221481Y298561D01*
X221450Y298637D01*
X221428Y298716D01*
X221401Y298760D01*
X221382Y298808D01*
X221330Y298871D01*
X221286Y298940D01*
X221247Y298974D01*
X221214Y299014D01*
X221146Y299059D01*
X221083Y299112D01*
X221036Y299133D01*
X220993Y299161D01*
X220942Y299173D01*
X220839Y299217D01*
X220660Y299235D01*
X220616Y299245D01*
X205032Y299245D01*
X204981Y299238D01*
X204929Y299239D01*
X204850Y299218D01*
X204769Y299205D01*
X204723Y299183D01*
X204673Y299169D01*
X204604Y299125D01*
X204530Y299090D01*
X204492Y299055D01*
X204449Y299027D01*
X204395Y298964D01*
X204336Y298908D01*
X204310Y298864D01*
X204276Y298824D01*
X204244Y298749D01*
X204204Y298678D01*
X204192Y298627D01*
X204172Y298580D01*
X204164Y298498D01*
X204146Y298418D01*
X204150Y298367D01*
X204145Y298315D01*
X204161Y298235D01*
X204167Y298153D01*
X204187Y298105D01*
X204197Y298055D01*
X204224Y298011D01*
X204266Y297906D01*
X204379Y297767D01*
X204404Y297729D01*
X206475Y295658D01*
X206475Y291870D01*
X203796Y289191D01*
X200008Y289191D01*
X197329Y291870D01*
X197329Y295658D01*
X199400Y297729D01*
X199425Y297762D01*
X199430Y297767D01*
X199433Y297773D01*
X199468Y297806D01*
X199509Y297877D01*
X199558Y297943D01*
X199575Y297992D01*
X199600Y298036D01*
X199618Y298116D01*
X199645Y298194D01*
X199647Y298246D01*
X199658Y298296D01*
X199652Y298378D01*
X199654Y298460D01*
X199641Y298509D01*
X199637Y298561D01*
X199606Y298637D01*
X199584Y298716D01*
X199557Y298760D01*
X199538Y298808D01*
X199486Y298871D01*
X199442Y298940D01*
X199403Y298974D01*
X199370Y299014D01*
X199302Y299059D01*
X199239Y299112D01*
X199192Y299133D01*
X199149Y299161D01*
X199098Y299173D01*
X198995Y299217D01*
X198816Y299235D01*
X198772Y299245D01*
X87549Y299245D01*
X87545Y299245D01*
X87541Y299245D01*
X87413Y299225D01*
X87286Y299205D01*
X87282Y299204D01*
X87279Y299203D01*
X87162Y299146D01*
X87046Y299090D01*
X87044Y299087D01*
X87040Y299086D01*
X87031Y299075D01*
X86852Y298908D01*
X86830Y298870D01*
X86809Y298834D01*
X86779Y298801D01*
X56981Y247187D01*
X56975Y247171D01*
X56964Y247157D01*
X56926Y247048D01*
X56884Y246940D01*
X56883Y246922D01*
X56877Y246906D01*
X56873Y246790D01*
X56865Y246675D01*
X56868Y246658D01*
X56868Y246640D01*
X56898Y246528D01*
X56924Y246416D01*
X56933Y246401D01*
X56938Y246384D01*
X56977Y246322D01*
X56890Y246308D01*
X56791Y246300D01*
X56759Y246287D01*
X56725Y246281D01*
X56636Y246238D01*
X56544Y246201D01*
X56518Y246179D01*
X56487Y246164D01*
X56451Y246125D01*
X56338Y246033D01*
X56262Y245918D01*
X56226Y245879D01*
X1128Y150444D01*
X1126Y150441D01*
X1124Y150438D01*
X1078Y150318D01*
X1031Y150197D01*
X1031Y150193D01*
X1029Y150189D01*
X1021Y150061D01*
X1012Y149932D01*
X1012Y149928D01*
X1012Y149924D01*
X1016Y149911D01*
X1042Y149801D01*
X1044Y149777D01*
X1052Y149756D01*
X1071Y149673D01*
X1114Y149599D01*
X1128Y149556D01*
X86779Y1199D01*
X86782Y1196D01*
X86783Y1192D01*
X86865Y1091D01*
X86945Y991D01*
X86948Y989D01*
X86951Y986D01*
X87060Y913D01*
X87165Y842D01*
X87169Y841D01*
X87172Y839D01*
X87186Y836D01*
X87419Y764D01*
X87504Y765D01*
X87549Y755D01*
X258851Y755D01*
X258855Y755D01*
G37*
%LPC*%
G36*
X244204Y133235D02*
X244204Y133235D01*
X241525Y135914D01*
X241525Y137173D01*
X241510Y137275D01*
X241502Y137377D01*
X241490Y137405D01*
X241485Y137436D01*
X241441Y137528D01*
X241403Y137624D01*
X241383Y137647D01*
X241370Y137675D01*
X241300Y137750D01*
X241235Y137830D01*
X241209Y137847D01*
X241188Y137869D01*
X241099Y137920D01*
X241014Y137977D01*
X240990Y137983D01*
X240958Y138001D01*
X240698Y138059D01*
X240660Y138056D01*
X240637Y138061D01*
X216195Y138061D01*
X214855Y139401D01*
X214855Y189047D01*
X216195Y190387D01*
X299970Y190387D01*
X300021Y190394D01*
X300073Y190393D01*
X300152Y190414D01*
X300233Y190427D01*
X300279Y190449D01*
X300329Y190463D01*
X300398Y190507D01*
X300472Y190542D01*
X300510Y190577D01*
X300553Y190605D01*
X300607Y190668D01*
X300666Y190724D01*
X300692Y190768D01*
X300726Y190808D01*
X300758Y190883D01*
X300798Y190954D01*
X300810Y191005D01*
X300830Y191052D01*
X300838Y191134D01*
X300856Y191214D01*
X300852Y191265D01*
X300857Y191317D01*
X300841Y191397D01*
X300835Y191479D01*
X300815Y191527D01*
X300805Y191577D01*
X300778Y191621D01*
X300736Y191726D01*
X300623Y191865D01*
X300598Y191903D01*
X298421Y194080D01*
X298421Y197868D01*
X301100Y200547D01*
X304888Y200547D01*
X307567Y197868D01*
X307567Y194080D01*
X304888Y191401D01*
X303547Y191401D01*
X303496Y191394D01*
X303444Y191395D01*
X303365Y191374D01*
X303284Y191361D01*
X303238Y191339D01*
X303188Y191325D01*
X303119Y191281D01*
X303045Y191246D01*
X303007Y191211D01*
X302964Y191183D01*
X302911Y191120D01*
X302851Y191064D01*
X302825Y191020D01*
X302792Y190980D01*
X302759Y190905D01*
X302719Y190834D01*
X302707Y190783D01*
X302687Y190736D01*
X302679Y190654D01*
X302661Y190574D01*
X302665Y190523D01*
X302660Y190471D01*
X302676Y190391D01*
X302683Y190309D01*
X302702Y190261D01*
X302712Y190211D01*
X302740Y190167D01*
X302782Y190062D01*
X302895Y189923D01*
X302919Y189885D01*
X303757Y189047D01*
X303757Y150577D01*
X302417Y149237D01*
X281219Y149237D01*
X279879Y150577D01*
X279879Y167653D01*
X279864Y167755D01*
X279856Y167857D01*
X279844Y167885D01*
X279839Y167916D01*
X279795Y168008D01*
X279757Y168104D01*
X279737Y168127D01*
X279724Y168155D01*
X279654Y168230D01*
X279589Y168310D01*
X279563Y168327D01*
X279542Y168349D01*
X279453Y168400D01*
X279368Y168457D01*
X279344Y168463D01*
X279312Y168481D01*
X279052Y168539D01*
X279014Y168536D01*
X278991Y168541D01*
X268323Y168541D01*
X268221Y168526D01*
X268119Y168518D01*
X268091Y168506D01*
X268060Y168501D01*
X267968Y168457D01*
X267872Y168419D01*
X267849Y168399D01*
X267821Y168386D01*
X267746Y168316D01*
X267666Y168251D01*
X267649Y168225D01*
X267627Y168204D01*
X267576Y168115D01*
X267519Y168030D01*
X267513Y168006D01*
X267495Y167974D01*
X267437Y167714D01*
X267440Y167676D01*
X267435Y167653D01*
X267435Y143269D01*
X267450Y143167D01*
X267458Y143065D01*
X267470Y143037D01*
X267475Y143006D01*
X267519Y142914D01*
X267557Y142818D01*
X267577Y142795D01*
X267590Y142767D01*
X267660Y142692D01*
X267725Y142612D01*
X267751Y142595D01*
X267772Y142573D01*
X267861Y142522D01*
X267946Y142465D01*
X267970Y142459D01*
X268002Y142441D01*
X268262Y142383D01*
X268300Y142386D01*
X268323Y142381D01*
X272122Y142381D01*
X274801Y139702D01*
X274801Y135914D01*
X272122Y133235D01*
X268334Y133235D01*
X265655Y135914D01*
X265655Y137173D01*
X265640Y137275D01*
X265632Y137377D01*
X265620Y137405D01*
X265615Y137436D01*
X265571Y137528D01*
X265533Y137624D01*
X265513Y137647D01*
X265500Y137675D01*
X265430Y137750D01*
X265365Y137830D01*
X265339Y137847D01*
X265318Y137869D01*
X265229Y137920D01*
X265144Y137977D01*
X265120Y137983D01*
X265088Y138001D01*
X264828Y138059D01*
X264790Y138056D01*
X264767Y138061D01*
X263751Y138061D01*
X263649Y138046D01*
X263547Y138038D01*
X263519Y138026D01*
X263488Y138021D01*
X263396Y137977D01*
X263300Y137939D01*
X263277Y137919D01*
X263249Y137906D01*
X263174Y137836D01*
X263094Y137771D01*
X263077Y137745D01*
X263055Y137724D01*
X263004Y137635D01*
X262947Y137550D01*
X262941Y137526D01*
X262923Y137494D01*
X262865Y137234D01*
X262868Y137196D01*
X262863Y137173D01*
X262863Y135914D01*
X260184Y133235D01*
X256396Y133235D01*
X253717Y135914D01*
X253717Y137173D01*
X253702Y137275D01*
X253694Y137377D01*
X253682Y137405D01*
X253677Y137436D01*
X253633Y137528D01*
X253595Y137624D01*
X253575Y137647D01*
X253562Y137675D01*
X253492Y137750D01*
X253427Y137830D01*
X253401Y137847D01*
X253380Y137869D01*
X253291Y137920D01*
X253206Y137977D01*
X253182Y137983D01*
X253150Y138001D01*
X252890Y138059D01*
X252852Y138056D01*
X252829Y138061D01*
X251559Y138061D01*
X251457Y138046D01*
X251355Y138038D01*
X251327Y138026D01*
X251296Y138021D01*
X251204Y137977D01*
X251108Y137939D01*
X251085Y137919D01*
X251057Y137906D01*
X250982Y137836D01*
X250902Y137771D01*
X250885Y137745D01*
X250863Y137724D01*
X250812Y137635D01*
X250755Y137550D01*
X250749Y137526D01*
X250731Y137494D01*
X250673Y137234D01*
X250676Y137196D01*
X250671Y137173D01*
X250671Y135914D01*
X247992Y133235D01*
X244204Y133235D01*
G37*
%LPD*%
G36*
X241185Y139602D02*
X241185Y139602D01*
X241276Y139609D01*
X241305Y139621D01*
X241337Y139627D01*
X241418Y139669D01*
X241502Y139705D01*
X241534Y139731D01*
X241555Y139742D01*
X241577Y139765D01*
X241633Y139810D01*
X244204Y142381D01*
X247992Y142381D01*
X250563Y139810D01*
X250637Y139757D01*
X250707Y139697D01*
X250737Y139685D01*
X250763Y139666D01*
X250850Y139639D01*
X250935Y139605D01*
X250976Y139601D01*
X250998Y139594D01*
X251030Y139595D01*
X251101Y139587D01*
X253287Y139587D01*
X253377Y139602D01*
X253468Y139609D01*
X253497Y139621D01*
X253529Y139627D01*
X253610Y139669D01*
X253694Y139705D01*
X253726Y139731D01*
X253747Y139742D01*
X253769Y139765D01*
X253825Y139810D01*
X256396Y142381D01*
X260184Y142381D01*
X262755Y139810D01*
X262829Y139757D01*
X262899Y139697D01*
X262929Y139685D01*
X262955Y139666D01*
X263042Y139639D01*
X263127Y139605D01*
X263168Y139601D01*
X263190Y139594D01*
X263222Y139595D01*
X263293Y139587D01*
X265148Y139587D01*
X265168Y139590D01*
X265187Y139588D01*
X265289Y139610D01*
X265391Y139627D01*
X265408Y139636D01*
X265428Y139640D01*
X265517Y139693D01*
X265608Y139742D01*
X265622Y139756D01*
X265639Y139766D01*
X265706Y139845D01*
X265778Y139920D01*
X265786Y139938D01*
X265799Y139953D01*
X265838Y140049D01*
X265881Y140143D01*
X265883Y140163D01*
X265891Y140181D01*
X265909Y140348D01*
X265909Y155665D01*
X265895Y155755D01*
X265887Y155846D01*
X265875Y155875D01*
X265870Y155907D01*
X265827Y155988D01*
X265791Y156072D01*
X265765Y156104D01*
X265754Y156125D01*
X265731Y156147D01*
X265686Y156203D01*
X263369Y158520D01*
X263369Y162308D01*
X265686Y164625D01*
X265739Y164699D01*
X265799Y164769D01*
X265811Y164799D01*
X265830Y164825D01*
X265857Y164912D01*
X265891Y164997D01*
X265895Y165038D01*
X265902Y165060D01*
X265901Y165092D01*
X265909Y165163D01*
X265909Y170067D01*
X281405Y170067D01*
X281405Y151524D01*
X281408Y151504D01*
X281406Y151485D01*
X281428Y151383D01*
X281445Y151281D01*
X281454Y151264D01*
X281458Y151244D01*
X281511Y151155D01*
X281560Y151064D01*
X281574Y151050D01*
X281584Y151033D01*
X281663Y150966D01*
X281738Y150895D01*
X281756Y150886D01*
X281771Y150873D01*
X281867Y150834D01*
X281961Y150791D01*
X281981Y150789D01*
X281999Y150781D01*
X282166Y150763D01*
X301470Y150763D01*
X301490Y150766D01*
X301509Y150764D01*
X301611Y150786D01*
X301713Y150803D01*
X301730Y150812D01*
X301750Y150816D01*
X301839Y150869D01*
X301930Y150918D01*
X301944Y150932D01*
X301961Y150942D01*
X302028Y151021D01*
X302100Y151096D01*
X302108Y151114D01*
X302121Y151129D01*
X302160Y151225D01*
X302203Y151319D01*
X302205Y151339D01*
X302213Y151357D01*
X302231Y151524D01*
X302231Y174715D01*
X302220Y174785D01*
X302218Y174857D01*
X302200Y174906D01*
X302192Y174957D01*
X302158Y175021D01*
X302133Y175088D01*
X302101Y175129D01*
X302076Y175175D01*
X302025Y175224D01*
X301980Y175280D01*
X301936Y175308D01*
X301898Y175344D01*
X301833Y175374D01*
X301773Y175413D01*
X301722Y175426D01*
X301675Y175448D01*
X301604Y175456D01*
X301534Y175473D01*
X301482Y175469D01*
X301431Y175475D01*
X301360Y175460D01*
X301289Y175454D01*
X301241Y175434D01*
X301190Y175423D01*
X301129Y175386D01*
X301063Y175358D01*
X301007Y175313D01*
X300979Y175296D01*
X300964Y175279D01*
X300932Y175253D01*
X298792Y173113D01*
X295004Y173113D01*
X292325Y175792D01*
X292325Y179580D01*
X295004Y182259D01*
X298792Y182259D01*
X300932Y180119D01*
X300990Y180077D01*
X301042Y180028D01*
X301089Y180006D01*
X301131Y179976D01*
X301200Y179955D01*
X301265Y179924D01*
X301317Y179919D01*
X301367Y179903D01*
X301438Y179905D01*
X301509Y179897D01*
X301560Y179908D01*
X301612Y179910D01*
X301680Y179934D01*
X301750Y179949D01*
X301794Y179976D01*
X301843Y179994D01*
X301899Y180039D01*
X301961Y180076D01*
X301995Y180115D01*
X302035Y180148D01*
X302074Y180208D01*
X302121Y180263D01*
X302140Y180311D01*
X302168Y180355D01*
X302186Y180424D01*
X302213Y180491D01*
X302221Y180562D01*
X302229Y180593D01*
X302227Y180616D01*
X302231Y180657D01*
X302231Y188100D01*
X302228Y188120D01*
X302230Y188139D01*
X302208Y188241D01*
X302192Y188343D01*
X302182Y188360D01*
X302178Y188380D01*
X302125Y188469D01*
X302076Y188560D01*
X302062Y188574D01*
X302052Y188591D01*
X301973Y188658D01*
X301898Y188730D01*
X301880Y188738D01*
X301865Y188751D01*
X301769Y188790D01*
X301675Y188833D01*
X301655Y188835D01*
X301637Y188843D01*
X301470Y188861D01*
X217142Y188861D01*
X217122Y188858D01*
X217103Y188860D01*
X217001Y188838D01*
X216899Y188822D01*
X216882Y188812D01*
X216862Y188808D01*
X216773Y188755D01*
X216682Y188706D01*
X216668Y188692D01*
X216651Y188682D01*
X216584Y188603D01*
X216513Y188528D01*
X216504Y188510D01*
X216491Y188495D01*
X216452Y188399D01*
X216409Y188305D01*
X216407Y188285D01*
X216399Y188267D01*
X216381Y188100D01*
X216381Y140348D01*
X216384Y140328D01*
X216382Y140309D01*
X216404Y140207D01*
X216421Y140105D01*
X216430Y140088D01*
X216434Y140068D01*
X216487Y139979D01*
X216536Y139888D01*
X216550Y139874D01*
X216560Y139857D01*
X216639Y139790D01*
X216714Y139719D01*
X216732Y139710D01*
X216747Y139697D01*
X216843Y139658D01*
X216937Y139615D01*
X216957Y139613D01*
X216975Y139605D01*
X217142Y139587D01*
X241095Y139587D01*
X241185Y139602D01*
G37*
%LPC*%
G36*
X105012Y70243D02*
X105012Y70243D01*
X102333Y72922D01*
X102333Y76710D01*
X105012Y79389D01*
X108618Y79389D01*
X108628Y79390D01*
X108638Y79389D01*
X108759Y79410D01*
X108880Y79429D01*
X108890Y79433D01*
X108900Y79435D01*
X109009Y79491D01*
X109120Y79544D01*
X109128Y79552D01*
X109137Y79556D01*
X109224Y79642D01*
X109314Y79726D01*
X109319Y79735D01*
X109327Y79742D01*
X109385Y79850D01*
X109446Y79956D01*
X109448Y79967D01*
X109453Y79976D01*
X109477Y80096D01*
X109504Y80216D01*
X109503Y80226D01*
X109505Y80237D01*
X109500Y80267D01*
X109482Y80481D01*
X109447Y80570D01*
X109438Y80617D01*
X107758Y84673D01*
X107758Y90053D01*
X109817Y95024D01*
X113622Y98829D01*
X118593Y100888D01*
X123023Y100888D01*
X123074Y100895D01*
X123126Y100894D01*
X123205Y100915D01*
X123286Y100927D01*
X123332Y100950D01*
X123382Y100963D01*
X123451Y101008D01*
X123525Y101043D01*
X123563Y101078D01*
X123607Y101106D01*
X123660Y101169D01*
X123720Y101225D01*
X123745Y101269D01*
X123779Y101309D01*
X123811Y101384D01*
X123851Y101455D01*
X123863Y101506D01*
X123883Y101553D01*
X123891Y101635D01*
X123909Y101715D01*
X123905Y101766D01*
X123910Y101818D01*
X123894Y101898D01*
X123888Y101980D01*
X123868Y102028D01*
X123858Y102078D01*
X123831Y102122D01*
X123789Y102226D01*
X123676Y102366D01*
X123651Y102404D01*
X122653Y103402D01*
X122653Y107190D01*
X125332Y109869D01*
X129120Y109869D01*
X131799Y107190D01*
X131799Y103402D01*
X129120Y100723D01*
X128836Y100723D01*
X128744Y100709D01*
X128652Y100704D01*
X128613Y100690D01*
X128573Y100683D01*
X128490Y100643D01*
X128403Y100611D01*
X128371Y100586D01*
X128334Y100568D01*
X128266Y100505D01*
X128193Y100448D01*
X128169Y100414D01*
X128139Y100386D01*
X128093Y100306D01*
X128040Y100231D01*
X128028Y100191D01*
X128007Y100156D01*
X127987Y100065D01*
X127959Y99978D01*
X127958Y99936D01*
X127949Y99896D01*
X127957Y99804D01*
X127956Y99712D01*
X127968Y99672D01*
X127971Y99631D01*
X128005Y99546D01*
X128032Y99457D01*
X128055Y99423D01*
X128070Y99384D01*
X128128Y99313D01*
X128180Y99236D01*
X128205Y99218D01*
X128238Y99178D01*
X128459Y99031D01*
X128479Y99026D01*
X128496Y99014D01*
X128944Y98829D01*
X132749Y95024D01*
X134808Y90053D01*
X134808Y84673D01*
X132749Y79702D01*
X128944Y75897D01*
X123973Y73838D01*
X118593Y73838D01*
X113622Y75897D01*
X112995Y76524D01*
X112954Y76555D01*
X112918Y76592D01*
X112847Y76633D01*
X112781Y76682D01*
X112732Y76699D01*
X112688Y76724D01*
X112608Y76742D01*
X112530Y76769D01*
X112478Y76771D01*
X112428Y76782D01*
X112346Y76775D01*
X112264Y76778D01*
X112215Y76765D01*
X112163Y76761D01*
X112087Y76730D01*
X112008Y76708D01*
X111964Y76681D01*
X111916Y76662D01*
X111853Y76610D01*
X111784Y76566D01*
X111750Y76527D01*
X111710Y76494D01*
X111665Y76426D01*
X111612Y76363D01*
X111591Y76316D01*
X111563Y76273D01*
X111551Y76222D01*
X111507Y76119D01*
X111489Y75940D01*
X111479Y75896D01*
X111479Y72922D01*
X108800Y70243D01*
X105012Y70243D01*
G37*
%LPD*%
%LPC*%
G36*
X79104Y114693D02*
X79104Y114693D01*
X76425Y117372D01*
X76425Y121160D01*
X79104Y123839D01*
X83029Y123839D01*
X83039Y123840D01*
X83050Y123839D01*
X83170Y123860D01*
X83292Y123879D01*
X83301Y123883D01*
X83311Y123885D01*
X83420Y123941D01*
X83531Y123994D01*
X83539Y124001D01*
X83548Y124006D01*
X83636Y124092D01*
X83725Y124176D01*
X83730Y124185D01*
X83738Y124192D01*
X83797Y124300D01*
X83857Y124406D01*
X83859Y124417D01*
X83865Y124426D01*
X83888Y124546D01*
X83915Y124666D01*
X83914Y124676D01*
X83916Y124687D01*
X83911Y124717D01*
X83893Y124931D01*
X83858Y125019D01*
X83849Y125067D01*
X82358Y128667D01*
X82358Y134047D01*
X84417Y139018D01*
X88222Y142823D01*
X93193Y144882D01*
X98573Y144882D01*
X103544Y142823D01*
X107349Y139018D01*
X109408Y134047D01*
X109408Y129617D01*
X109415Y129566D01*
X109414Y129514D01*
X109435Y129435D01*
X109448Y129354D01*
X109470Y129308D01*
X109484Y129258D01*
X109528Y129189D01*
X109563Y129115D01*
X109599Y129077D01*
X109626Y129034D01*
X109689Y128980D01*
X109745Y128921D01*
X109789Y128895D01*
X109829Y128862D01*
X109904Y128829D01*
X109975Y128789D01*
X110026Y128777D01*
X110073Y128757D01*
X110155Y128749D01*
X110235Y128731D01*
X110286Y128735D01*
X110338Y128730D01*
X110418Y128746D01*
X110500Y128752D01*
X110548Y128772D01*
X110598Y128782D01*
X110642Y128809D01*
X110747Y128851D01*
X110886Y128964D01*
X110924Y128989D01*
X112124Y130189D01*
X115912Y130189D01*
X118591Y127510D01*
X118591Y123722D01*
X115912Y121043D01*
X112124Y121043D01*
X109445Y123722D01*
X109445Y124292D01*
X109431Y124383D01*
X109426Y124475D01*
X109412Y124514D01*
X109405Y124555D01*
X109365Y124638D01*
X109333Y124724D01*
X109308Y124757D01*
X109290Y124794D01*
X109227Y124862D01*
X109170Y124935D01*
X109137Y124958D01*
X109108Y124988D01*
X109028Y125034D01*
X108953Y125087D01*
X108913Y125100D01*
X108878Y125120D01*
X108787Y125140D01*
X108700Y125169D01*
X108658Y125169D01*
X108618Y125178D01*
X108526Y125171D01*
X108434Y125172D01*
X108394Y125160D01*
X108353Y125156D01*
X108268Y125122D01*
X108179Y125096D01*
X108145Y125073D01*
X108106Y125057D01*
X108035Y124999D01*
X107958Y124948D01*
X107940Y124922D01*
X107900Y124890D01*
X107753Y124669D01*
X107748Y124649D01*
X107736Y124632D01*
X107349Y123696D01*
X103544Y119891D01*
X98573Y117832D01*
X93193Y117832D01*
X88222Y119891D01*
X87087Y121026D01*
X87046Y121057D01*
X87010Y121095D01*
X86939Y121135D01*
X86873Y121184D01*
X86824Y121201D01*
X86780Y121226D01*
X86700Y121244D01*
X86622Y121271D01*
X86570Y121273D01*
X86520Y121284D01*
X86438Y121278D01*
X86356Y121280D01*
X86307Y121267D01*
X86255Y121263D01*
X86179Y121232D01*
X86100Y121211D01*
X86056Y121183D01*
X86008Y121164D01*
X85945Y121112D01*
X85876Y121068D01*
X85842Y121029D01*
X85802Y120996D01*
X85757Y120928D01*
X85704Y120865D01*
X85683Y120818D01*
X85655Y120775D01*
X85643Y120725D01*
X85599Y120621D01*
X85581Y120443D01*
X85571Y120398D01*
X85571Y117372D01*
X82892Y114693D01*
X79104Y114693D01*
G37*
%LPD*%
%LPC*%
G36*
X74593Y48438D02*
X74593Y48438D01*
X74517Y48457D01*
X74430Y48487D01*
X74389Y48489D01*
X74349Y48499D01*
X74256Y48493D01*
X74164Y48497D01*
X74124Y48486D01*
X74083Y48483D01*
X74053Y48472D01*
X73997Y48541D01*
X73946Y48618D01*
X73920Y48636D01*
X73888Y48676D01*
X73667Y48823D01*
X73646Y48828D01*
X73630Y48840D01*
X69628Y50497D01*
X65823Y54302D01*
X63764Y59273D01*
X63764Y64653D01*
X65823Y69624D01*
X68228Y72029D01*
X68259Y72070D01*
X68296Y72106D01*
X68337Y72177D01*
X68386Y72243D01*
X68403Y72292D01*
X68428Y72336D01*
X68446Y72416D01*
X68473Y72494D01*
X68475Y72546D01*
X68486Y72596D01*
X68480Y72678D01*
X68482Y72760D01*
X68469Y72809D01*
X68465Y72861D01*
X68434Y72937D01*
X68412Y73016D01*
X68385Y73060D01*
X68366Y73108D01*
X68314Y73171D01*
X68270Y73240D01*
X68231Y73274D01*
X68198Y73314D01*
X68130Y73359D01*
X68067Y73412D01*
X68020Y73433D01*
X67977Y73461D01*
X67926Y73473D01*
X67823Y73517D01*
X67644Y73535D01*
X67600Y73545D01*
X64626Y73545D01*
X61947Y76224D01*
X61947Y80012D01*
X64626Y82691D01*
X68414Y82691D01*
X71093Y80012D01*
X71093Y76224D01*
X70514Y75646D01*
X70460Y75571D01*
X70398Y75502D01*
X70381Y75465D01*
X70357Y75432D01*
X70326Y75344D01*
X70288Y75260D01*
X70283Y75219D01*
X70269Y75181D01*
X70266Y75088D01*
X70254Y74997D01*
X70262Y74956D01*
X70260Y74915D01*
X70284Y74826D01*
X70300Y74735D01*
X70319Y74698D01*
X70330Y74658D01*
X70380Y74580D01*
X70422Y74498D01*
X70450Y74469D01*
X70473Y74434D01*
X70543Y74374D01*
X70608Y74308D01*
X70644Y74289D01*
X70675Y74262D01*
X70760Y74226D01*
X70841Y74182D01*
X70882Y74174D01*
X70920Y74158D01*
X71012Y74148D01*
X71102Y74130D01*
X71133Y74135D01*
X71184Y74130D01*
X71445Y74182D01*
X71462Y74193D01*
X71482Y74197D01*
X74599Y75488D01*
X79979Y75488D01*
X84950Y73429D01*
X88755Y69624D01*
X89448Y67949D01*
X89496Y67870D01*
X89536Y67787D01*
X89564Y67757D01*
X89586Y67722D01*
X89655Y67660D01*
X89718Y67593D01*
X89753Y67572D01*
X89784Y67545D01*
X89868Y67507D01*
X89948Y67461D01*
X89989Y67452D01*
X90026Y67435D01*
X90118Y67423D01*
X90208Y67403D01*
X90249Y67406D01*
X90290Y67401D01*
X90381Y67417D01*
X90473Y67425D01*
X90511Y67440D01*
X90552Y67447D01*
X90634Y67489D01*
X90720Y67524D01*
X90752Y67550D01*
X90788Y67568D01*
X90854Y67633D01*
X90926Y67691D01*
X90949Y67726D01*
X90978Y67754D01*
X91022Y67835D01*
X91073Y67912D01*
X91080Y67943D01*
X91105Y67988D01*
X91156Y68249D01*
X91153Y68269D01*
X91157Y68289D01*
X91157Y70614D01*
X93836Y73293D01*
X97624Y73293D01*
X100303Y70614D01*
X100303Y66826D01*
X97624Y64147D01*
X93836Y64147D01*
X92192Y65791D01*
X92118Y65846D01*
X92049Y65908D01*
X92011Y65925D01*
X91978Y65949D01*
X91891Y65979D01*
X91807Y66018D01*
X91766Y66023D01*
X91727Y66036D01*
X91634Y66040D01*
X91543Y66051D01*
X91502Y66044D01*
X91461Y66046D01*
X91372Y66021D01*
X91281Y66005D01*
X91245Y65986D01*
X91205Y65976D01*
X91127Y65926D01*
X91045Y65884D01*
X91015Y65855D01*
X90980Y65833D01*
X90921Y65763D01*
X90855Y65698D01*
X90835Y65662D01*
X90808Y65630D01*
X90772Y65545D01*
X90728Y65464D01*
X90720Y65424D01*
X90704Y65386D01*
X90694Y65294D01*
X90676Y65203D01*
X90682Y65173D01*
X90677Y65122D01*
X90729Y64861D01*
X90740Y64844D01*
X90743Y64823D01*
X90814Y64653D01*
X90814Y59273D01*
X88755Y54302D01*
X84950Y50497D01*
X79979Y48438D01*
X74593Y48438D01*
G37*
%LPD*%
%LPC*%
G36*
X58530Y84213D02*
X58530Y84213D01*
X55851Y86892D01*
X55851Y90680D01*
X56584Y91413D01*
X56639Y91487D01*
X56701Y91557D01*
X56718Y91594D01*
X56742Y91627D01*
X56773Y91714D01*
X56811Y91798D01*
X56816Y91839D01*
X56830Y91878D01*
X56833Y91971D01*
X56844Y92062D01*
X56837Y92103D01*
X56839Y92144D01*
X56814Y92233D01*
X56798Y92324D01*
X56780Y92361D01*
X56769Y92400D01*
X56719Y92478D01*
X56677Y92561D01*
X56648Y92590D01*
X56626Y92625D01*
X56556Y92684D01*
X56491Y92751D01*
X56455Y92770D01*
X56424Y92797D01*
X56339Y92833D01*
X56257Y92877D01*
X56217Y92885D01*
X56179Y92901D01*
X56087Y92911D01*
X55997Y92929D01*
X55966Y92923D01*
X55915Y92929D01*
X55654Y92877D01*
X55637Y92866D01*
X55616Y92862D01*
X54579Y92432D01*
X49199Y92432D01*
X44228Y94491D01*
X40423Y98296D01*
X38364Y103267D01*
X38364Y108647D01*
X40423Y113618D01*
X44228Y117423D01*
X49199Y119482D01*
X54579Y119482D01*
X59550Y117423D01*
X63355Y113618D01*
X63540Y113170D01*
X63570Y113120D01*
X63574Y113112D01*
X63580Y113104D01*
X63588Y113091D01*
X63628Y113007D01*
X63656Y112977D01*
X63678Y112942D01*
X63746Y112881D01*
X63810Y112813D01*
X63846Y112793D01*
X63876Y112765D01*
X63960Y112727D01*
X64040Y112681D01*
X64081Y112672D01*
X64118Y112655D01*
X64210Y112644D01*
X64300Y112623D01*
X64341Y112627D01*
X64382Y112622D01*
X64473Y112638D01*
X64565Y112645D01*
X64603Y112660D01*
X64644Y112668D01*
X64726Y112710D01*
X64812Y112744D01*
X64844Y112770D01*
X64880Y112789D01*
X64946Y112853D01*
X65018Y112912D01*
X65041Y112946D01*
X65070Y112975D01*
X65114Y113056D01*
X65165Y113133D01*
X65172Y113163D01*
X65197Y113209D01*
X65248Y113469D01*
X65245Y113490D01*
X65249Y113510D01*
X65249Y116588D01*
X67928Y119267D01*
X71716Y119267D01*
X74395Y116588D01*
X74395Y112800D01*
X71716Y110121D01*
X67928Y110121D01*
X65751Y112298D01*
X65677Y112353D01*
X65608Y112414D01*
X65570Y112431D01*
X65537Y112456D01*
X65450Y112486D01*
X65366Y112524D01*
X65325Y112530D01*
X65286Y112543D01*
X65194Y112546D01*
X65102Y112558D01*
X65062Y112551D01*
X65020Y112552D01*
X64931Y112528D01*
X64840Y112512D01*
X64804Y112493D01*
X64764Y112482D01*
X64686Y112433D01*
X64604Y112391D01*
X64574Y112362D01*
X64540Y112340D01*
X64480Y112270D01*
X64414Y112205D01*
X64394Y112169D01*
X64368Y112137D01*
X64331Y112052D01*
X64287Y111971D01*
X64279Y111931D01*
X64263Y111893D01*
X64254Y111801D01*
X64236Y111710D01*
X64241Y111680D01*
X64236Y111628D01*
X64288Y111368D01*
X64299Y111350D01*
X64302Y111330D01*
X65414Y108647D01*
X65414Y103267D01*
X63355Y98296D01*
X59934Y94875D01*
X59903Y94834D01*
X59865Y94798D01*
X59825Y94727D01*
X59776Y94661D01*
X59759Y94612D01*
X59734Y94568D01*
X59716Y94488D01*
X59689Y94410D01*
X59687Y94358D01*
X59676Y94308D01*
X59682Y94226D01*
X59680Y94144D01*
X59693Y94095D01*
X59697Y94043D01*
X59728Y93967D01*
X59749Y93888D01*
X59777Y93844D01*
X59796Y93796D01*
X59848Y93733D01*
X59892Y93664D01*
X59931Y93630D01*
X59964Y93590D01*
X60032Y93545D01*
X60095Y93492D01*
X60142Y93471D01*
X60185Y93443D01*
X60235Y93431D01*
X60339Y93387D01*
X60517Y93369D01*
X60562Y93359D01*
X62318Y93359D01*
X64997Y90680D01*
X64997Y86892D01*
X62318Y84213D01*
X58530Y84213D01*
G37*
%LPD*%
%LPC*%
G36*
X84045Y83885D02*
X84045Y83885D01*
X79350Y85830D01*
X75756Y89424D01*
X73811Y94119D01*
X73811Y99201D01*
X75756Y103896D01*
X79350Y107490D01*
X84045Y109435D01*
X89127Y109435D01*
X93822Y107490D01*
X97416Y103896D01*
X99361Y99201D01*
X99361Y94119D01*
X97416Y89424D01*
X93822Y85830D01*
X89127Y83885D01*
X84045Y83885D01*
G37*
%LPD*%
%LPC*%
G36*
X167821Y219341D02*
X167821Y219341D01*
X165860Y220153D01*
X164359Y221654D01*
X163547Y223615D01*
X163547Y225737D01*
X164359Y227698D01*
X165860Y229199D01*
X167821Y230011D01*
X169943Y230011D01*
X171904Y229199D01*
X173334Y227769D01*
X173417Y227708D01*
X173495Y227641D01*
X173523Y227629D01*
X173548Y227611D01*
X173645Y227577D01*
X173739Y227537D01*
X173770Y227534D01*
X173799Y227523D01*
X173902Y227520D01*
X174004Y227509D01*
X174034Y227515D01*
X174065Y227514D01*
X174164Y227541D01*
X174264Y227561D01*
X174285Y227574D01*
X174321Y227584D01*
X174545Y227727D01*
X174570Y227756D01*
X174590Y227769D01*
X176020Y229199D01*
X177981Y230011D01*
X180103Y230011D01*
X182064Y229199D01*
X183565Y227698D01*
X184377Y225737D01*
X184377Y223615D01*
X183565Y221654D01*
X182064Y220153D01*
X180103Y219341D01*
X177981Y219341D01*
X176020Y220153D01*
X174590Y221583D01*
X174507Y221644D01*
X174429Y221711D01*
X174401Y221723D01*
X174376Y221741D01*
X174279Y221775D01*
X174185Y221815D01*
X174154Y221818D01*
X174125Y221829D01*
X174023Y221832D01*
X173920Y221843D01*
X173890Y221837D01*
X173859Y221838D01*
X173760Y221811D01*
X173660Y221791D01*
X173640Y221778D01*
X173603Y221768D01*
X173379Y221625D01*
X173354Y221596D01*
X173334Y221583D01*
X171904Y220153D01*
X169943Y219341D01*
X167821Y219341D01*
G37*
%LPD*%
%LPC*%
G36*
X132007Y219341D02*
X132007Y219341D01*
X130046Y220153D01*
X128545Y221654D01*
X127733Y223615D01*
X127733Y225737D01*
X128545Y227698D01*
X130046Y229199D01*
X132007Y230011D01*
X134129Y230011D01*
X136090Y229199D01*
X137520Y227769D01*
X137603Y227708D01*
X137681Y227641D01*
X137709Y227629D01*
X137734Y227611D01*
X137831Y227577D01*
X137925Y227537D01*
X137956Y227534D01*
X137985Y227523D01*
X138087Y227520D01*
X138190Y227509D01*
X138220Y227515D01*
X138251Y227514D01*
X138350Y227541D01*
X138450Y227561D01*
X138470Y227574D01*
X138507Y227584D01*
X138731Y227727D01*
X138756Y227756D01*
X138776Y227769D01*
X140206Y229199D01*
X142167Y230011D01*
X144289Y230011D01*
X146250Y229199D01*
X147751Y227698D01*
X148563Y225737D01*
X148563Y223615D01*
X147751Y221654D01*
X146250Y220153D01*
X144289Y219341D01*
X142167Y219341D01*
X140206Y220153D01*
X138776Y221583D01*
X138693Y221644D01*
X138615Y221711D01*
X138587Y221723D01*
X138562Y221741D01*
X138465Y221775D01*
X138371Y221815D01*
X138340Y221818D01*
X138311Y221829D01*
X138208Y221832D01*
X138106Y221843D01*
X138076Y221837D01*
X138045Y221838D01*
X137946Y221811D01*
X137846Y221791D01*
X137825Y221778D01*
X137789Y221768D01*
X137565Y221625D01*
X137540Y221596D01*
X137520Y221583D01*
X136090Y220153D01*
X134129Y219341D01*
X132007Y219341D01*
G37*
%LPD*%
%LPC*%
G36*
X212962Y91071D02*
X212962Y91071D01*
X210283Y93750D01*
X210283Y97538D01*
X212962Y100217D01*
X216750Y100217D01*
X219054Y97913D01*
X219137Y97852D01*
X219215Y97786D01*
X219243Y97773D01*
X219268Y97755D01*
X219365Y97721D01*
X219459Y97681D01*
X219490Y97678D01*
X219519Y97668D01*
X219621Y97664D01*
X219724Y97654D01*
X219754Y97660D01*
X219785Y97659D01*
X219884Y97686D01*
X219984Y97706D01*
X220004Y97719D01*
X220041Y97729D01*
X220265Y97871D01*
X220290Y97900D01*
X220310Y97913D01*
X222868Y100471D01*
X226656Y100471D01*
X229335Y97792D01*
X229335Y94004D01*
X226656Y91325D01*
X222868Y91325D01*
X220564Y93629D01*
X220481Y93690D01*
X220403Y93756D01*
X220375Y93769D01*
X220350Y93787D01*
X220253Y93821D01*
X220159Y93861D01*
X220128Y93864D01*
X220099Y93874D01*
X219996Y93878D01*
X219894Y93888D01*
X219864Y93882D01*
X219833Y93883D01*
X219734Y93856D01*
X219634Y93836D01*
X219613Y93823D01*
X219577Y93813D01*
X219353Y93671D01*
X219328Y93642D01*
X219308Y93629D01*
X216750Y91071D01*
X212962Y91071D01*
G37*
%LPD*%
%LPC*%
G36*
X285098Y88023D02*
X285098Y88023D01*
X282419Y90702D01*
X282419Y94490D01*
X284088Y96159D01*
X284119Y96200D01*
X284156Y96236D01*
X284197Y96307D01*
X284246Y96373D01*
X284263Y96422D01*
X284288Y96466D01*
X284306Y96546D01*
X284333Y96624D01*
X284335Y96676D01*
X284346Y96726D01*
X284340Y96808D01*
X284342Y96890D01*
X284329Y96939D01*
X284325Y96991D01*
X284294Y97067D01*
X284272Y97146D01*
X284245Y97190D01*
X284226Y97238D01*
X284174Y97301D01*
X284130Y97370D01*
X284091Y97404D01*
X284058Y97444D01*
X283990Y97489D01*
X283927Y97542D01*
X283880Y97563D01*
X283837Y97591D01*
X283786Y97603D01*
X283683Y97647D01*
X283504Y97665D01*
X283460Y97675D01*
X281796Y97675D01*
X279117Y100354D01*
X279117Y104142D01*
X281796Y106821D01*
X285584Y106821D01*
X288263Y104142D01*
X288263Y100354D01*
X286594Y98685D01*
X286563Y98644D01*
X286526Y98608D01*
X286485Y98537D01*
X286436Y98471D01*
X286419Y98422D01*
X286394Y98378D01*
X286376Y98298D01*
X286349Y98220D01*
X286347Y98168D01*
X286336Y98118D01*
X286342Y98036D01*
X286340Y97954D01*
X286353Y97905D01*
X286357Y97853D01*
X286388Y97777D01*
X286410Y97698D01*
X286437Y97654D01*
X286456Y97606D01*
X286508Y97543D01*
X286552Y97474D01*
X286591Y97440D01*
X286624Y97400D01*
X286692Y97355D01*
X286755Y97302D01*
X286802Y97281D01*
X286845Y97253D01*
X286896Y97241D01*
X286999Y97197D01*
X287178Y97179D01*
X287222Y97169D01*
X288886Y97169D01*
X291565Y94490D01*
X291565Y90702D01*
X288886Y88023D01*
X285098Y88023D01*
G37*
%LPD*%
%LPC*%
G36*
X271707Y203339D02*
X271707Y203339D01*
X269746Y204151D01*
X268245Y205652D01*
X267433Y207613D01*
X267433Y209735D01*
X268245Y211696D01*
X269746Y213197D01*
X271707Y214009D01*
X273829Y214009D01*
X275790Y213197D01*
X277291Y211696D01*
X278103Y209735D01*
X278103Y207613D01*
X277291Y205652D01*
X275790Y204151D01*
X273829Y203339D01*
X271707Y203339D01*
G37*
%LPD*%
%LPC*%
G36*
X239449Y200037D02*
X239449Y200037D01*
X237488Y200849D01*
X235987Y202350D01*
X235175Y204311D01*
X235175Y206433D01*
X235987Y208394D01*
X237488Y209895D01*
X239449Y210707D01*
X241571Y210707D01*
X243532Y209895D01*
X245033Y208394D01*
X245845Y206433D01*
X245845Y204311D01*
X245033Y202350D01*
X243532Y200849D01*
X241571Y200037D01*
X239449Y200037D01*
G37*
%LPD*%
%LPC*%
G36*
X45139Y195465D02*
X45139Y195465D01*
X43178Y196277D01*
X41677Y197778D01*
X40865Y199739D01*
X40865Y201861D01*
X41677Y203822D01*
X43178Y205323D01*
X45139Y206135D01*
X47261Y206135D01*
X49222Y205323D01*
X50723Y203822D01*
X51535Y201861D01*
X51535Y199739D01*
X50723Y197778D01*
X49222Y196277D01*
X47261Y195465D01*
X45139Y195465D01*
G37*
%LPD*%
%LPC*%
G36*
X197793Y260489D02*
X197793Y260489D01*
X195832Y261301D01*
X194331Y262802D01*
X193519Y264763D01*
X193519Y266885D01*
X194331Y268846D01*
X195832Y270347D01*
X197793Y271159D01*
X199915Y271159D01*
X201876Y270347D01*
X203377Y268846D01*
X204189Y266885D01*
X204189Y264763D01*
X203377Y262802D01*
X201876Y261301D01*
X199915Y260489D01*
X197793Y260489D01*
G37*
%LPD*%
%LPC*%
G36*
X132007Y190639D02*
X132007Y190639D01*
X130046Y191451D01*
X128545Y192952D01*
X127733Y194913D01*
X127733Y197035D01*
X128545Y198996D01*
X130046Y200497D01*
X132007Y201309D01*
X134129Y201309D01*
X136090Y200497D01*
X137591Y198996D01*
X138403Y197035D01*
X138403Y194913D01*
X137591Y192952D01*
X136090Y191451D01*
X134129Y190639D01*
X132007Y190639D01*
G37*
%LPD*%
%LPC*%
G36*
X223955Y254647D02*
X223955Y254647D01*
X221994Y255459D01*
X220493Y256960D01*
X219681Y258921D01*
X219681Y261043D01*
X220493Y263004D01*
X221994Y264505D01*
X223955Y265317D01*
X226077Y265317D01*
X228038Y264505D01*
X229539Y263004D01*
X230351Y261043D01*
X230351Y258921D01*
X229539Y256960D01*
X228038Y255459D01*
X226077Y254647D01*
X223955Y254647D01*
G37*
%LPD*%
%LPC*%
G36*
X57077Y174637D02*
X57077Y174637D01*
X55116Y175449D01*
X53615Y176950D01*
X52803Y178911D01*
X52803Y181033D01*
X53615Y182994D01*
X55116Y184495D01*
X57077Y185307D01*
X59199Y185307D01*
X61160Y184495D01*
X62661Y182994D01*
X63473Y181033D01*
X63473Y178911D01*
X62661Y176950D01*
X61160Y175449D01*
X59199Y174637D01*
X57077Y174637D01*
G37*
%LPD*%
%LPC*%
G36*
X250879Y222135D02*
X250879Y222135D01*
X248918Y222947D01*
X247417Y224448D01*
X246605Y226409D01*
X246605Y228531D01*
X247417Y230492D01*
X248918Y231993D01*
X250879Y232805D01*
X253001Y232805D01*
X254962Y231993D01*
X256463Y230492D01*
X257275Y228531D01*
X257275Y226409D01*
X256463Y224448D01*
X254962Y222947D01*
X253001Y222135D01*
X250879Y222135D01*
G37*
%LPD*%
%LPC*%
G36*
X155375Y219087D02*
X155375Y219087D01*
X153414Y219899D01*
X151913Y221400D01*
X151101Y223361D01*
X151101Y225483D01*
X151913Y227444D01*
X153414Y228945D01*
X155375Y229757D01*
X157497Y229757D01*
X159458Y228945D01*
X160959Y227444D01*
X161771Y225483D01*
X161771Y223361D01*
X160959Y221400D01*
X159458Y219899D01*
X157497Y219087D01*
X155375Y219087D01*
G37*
%LPD*%
%LPC*%
G36*
X68761Y210959D02*
X68761Y210959D01*
X66800Y211771D01*
X65299Y213272D01*
X64487Y215233D01*
X64487Y217355D01*
X65299Y219316D01*
X66800Y220817D01*
X68761Y221629D01*
X70883Y221629D01*
X72844Y220817D01*
X74345Y219316D01*
X75157Y217355D01*
X75157Y215233D01*
X74345Y213272D01*
X72844Y211771D01*
X70883Y210959D01*
X68761Y210959D01*
G37*
%LPD*%
%LPC*%
G36*
X184839Y20205D02*
X184839Y20205D01*
X182878Y21017D01*
X181377Y22518D01*
X180565Y24479D01*
X180565Y26601D01*
X181377Y28562D01*
X182878Y30063D01*
X184839Y30875D01*
X186961Y30875D01*
X188922Y30063D01*
X190423Y28562D01*
X191235Y26601D01*
X191235Y24479D01*
X190423Y22518D01*
X188922Y21017D01*
X186961Y20205D01*
X184839Y20205D01*
G37*
%LPD*%
%LPC*%
G36*
X235611Y13093D02*
X235611Y13093D01*
X232635Y16069D01*
X232635Y20279D01*
X235611Y23255D01*
X239821Y23255D01*
X242797Y20279D01*
X242797Y16069D01*
X239821Y13093D01*
X235611Y13093D01*
G37*
%LPD*%
%LPC*%
G36*
X107447Y262013D02*
X107447Y262013D01*
X104619Y264841D01*
X104619Y268839D01*
X107447Y271667D01*
X111445Y271667D01*
X114273Y268839D01*
X114273Y264841D01*
X111445Y262013D01*
X107447Y262013D01*
G37*
%LPD*%
%LPC*%
G36*
X60562Y239153D02*
X60562Y239153D01*
X57883Y241832D01*
X57883Y245435D01*
X57878Y245469D01*
X57881Y245504D01*
X57858Y245600D01*
X57843Y245698D01*
X57828Y245729D01*
X57821Y245763D01*
X57771Y245848D01*
X57767Y245856D01*
X57775Y245858D01*
X57792Y245856D01*
X57906Y245879D01*
X58020Y245897D01*
X58036Y245905D01*
X58052Y245908D01*
X58088Y245930D01*
X58258Y246015D01*
X58305Y246065D01*
X58309Y246067D01*
X58322Y246079D01*
X58378Y246115D01*
X60562Y248299D01*
X64350Y248299D01*
X67029Y245620D01*
X67029Y241832D01*
X64350Y239153D01*
X60562Y239153D01*
G37*
%LPD*%
%LPC*%
G36*
X319642Y173875D02*
X319642Y173875D01*
X316963Y176554D01*
X316963Y180342D01*
X319642Y183021D01*
X323430Y183021D01*
X325839Y180612D01*
X325853Y180602D01*
X325864Y180588D01*
X325959Y180523D01*
X326053Y180454D01*
X326069Y180448D01*
X326083Y180439D01*
X326124Y180427D01*
X326120Y180374D01*
X326109Y180322D01*
X326109Y176554D01*
X323430Y173875D01*
X319642Y173875D01*
G37*
%LPD*%
%LPC*%
G36*
X69706Y37985D02*
X69706Y37985D01*
X67027Y40664D01*
X67027Y44452D01*
X69706Y47131D01*
X73290Y47131D01*
X73381Y47145D01*
X73473Y47150D01*
X73511Y47164D01*
X73611Y47015D01*
X73627Y47004D01*
X73639Y46986D01*
X76173Y44452D01*
X76173Y40664D01*
X73494Y37985D01*
X69706Y37985D01*
G37*
%LPD*%
%LPC*%
G36*
X127110Y245249D02*
X127110Y245249D01*
X124431Y247928D01*
X124431Y251716D01*
X127110Y254395D01*
X130898Y254395D01*
X133577Y251716D01*
X133577Y247928D01*
X130898Y245249D01*
X127110Y245249D01*
G37*
%LPD*%
%LPC*%
G36*
X92566Y210451D02*
X92566Y210451D01*
X89887Y213130D01*
X89887Y216918D01*
X92566Y219597D01*
X96354Y219597D01*
X99033Y216918D01*
X99033Y213130D01*
X96354Y210451D01*
X92566Y210451D01*
G37*
%LPD*%
%LPC*%
G36*
X103742Y207149D02*
X103742Y207149D01*
X101063Y209828D01*
X101063Y213616D01*
X103742Y216295D01*
X107530Y216295D01*
X110209Y213616D01*
X110209Y209828D01*
X107530Y207149D01*
X103742Y207149D01*
G37*
%LPD*%
%LPC*%
G36*
X29828Y183527D02*
X29828Y183527D01*
X27149Y186206D01*
X27149Y189994D01*
X29828Y192673D01*
X33616Y192673D01*
X36295Y189994D01*
X36295Y186206D01*
X33616Y183527D01*
X29828Y183527D01*
G37*
%LPD*%
%LPC*%
G36*
X21700Y170319D02*
X21700Y170319D01*
X19021Y172998D01*
X19021Y176786D01*
X21700Y179465D01*
X25488Y179465D01*
X28167Y176786D01*
X28167Y172998D01*
X25488Y170319D01*
X21700Y170319D01*
G37*
%LPD*%
%LPC*%
G36*
X117712Y153047D02*
X117712Y153047D01*
X115033Y155726D01*
X115033Y159514D01*
X117712Y162193D01*
X121500Y162193D01*
X124179Y159514D01*
X124179Y155726D01*
X121500Y153047D01*
X117712Y153047D01*
G37*
%LPD*%
%LPC*%
G36*
X54974Y144665D02*
X54974Y144665D01*
X52295Y147344D01*
X52295Y151132D01*
X54974Y153811D01*
X58762Y153811D01*
X61441Y151132D01*
X61441Y147344D01*
X58762Y144665D01*
X54974Y144665D01*
G37*
%LPD*%
%LPC*%
G36*
X309228Y129425D02*
X309228Y129425D01*
X306549Y132104D01*
X306549Y135892D01*
X309228Y138571D01*
X313016Y138571D01*
X315695Y135892D01*
X315695Y132104D01*
X313016Y129425D01*
X309228Y129425D01*
G37*
%LPD*%
%LPC*%
G36*
X65642Y124599D02*
X65642Y124599D01*
X62963Y127278D01*
X62963Y131066D01*
X65642Y133745D01*
X69430Y133745D01*
X72109Y131066D01*
X72109Y127278D01*
X69430Y124599D01*
X65642Y124599D01*
G37*
%LPD*%
%LPC*%
G36*
X50402Y124091D02*
X50402Y124091D01*
X47723Y126770D01*
X47723Y130558D01*
X50402Y133237D01*
X54190Y133237D01*
X56869Y130558D01*
X56869Y126770D01*
X54190Y124091D01*
X50402Y124091D01*
G37*
%LPD*%
%LPC*%
G36*
X20684Y123583D02*
X20684Y123583D01*
X18005Y126262D01*
X18005Y130050D01*
X20684Y132729D01*
X24472Y132729D01*
X27151Y130050D01*
X27151Y126262D01*
X24472Y123583D01*
X20684Y123583D01*
G37*
%LPD*%
%LPC*%
G36*
X35416Y121043D02*
X35416Y121043D01*
X32737Y123722D01*
X32737Y127510D01*
X35416Y130189D01*
X39204Y130189D01*
X41883Y127510D01*
X41883Y123722D01*
X39204Y121043D01*
X35416Y121043D01*
G37*
%LPD*%
%LPC*%
G36*
X256396Y120789D02*
X256396Y120789D01*
X253717Y123468D01*
X253717Y127256D01*
X256396Y129935D01*
X260184Y129935D01*
X262863Y127256D01*
X262863Y123468D01*
X260184Y120789D01*
X256396Y120789D01*
G37*
%LPD*%
%LPC*%
G36*
X111616Y168287D02*
X111616Y168287D01*
X108937Y170966D01*
X108937Y174754D01*
X111616Y177433D01*
X115404Y177433D01*
X118083Y174754D01*
X118083Y170966D01*
X115404Y168287D01*
X111616Y168287D01*
G37*
%LPD*%
%LPC*%
G36*
X268334Y120535D02*
X268334Y120535D01*
X265655Y123214D01*
X265655Y127002D01*
X268334Y129681D01*
X272122Y129681D01*
X274801Y127002D01*
X274801Y123214D01*
X272122Y120535D01*
X268334Y120535D01*
G37*
%LPD*%
%LPC*%
G36*
X123046Y288175D02*
X123046Y288175D01*
X120367Y290854D01*
X120367Y294642D01*
X123046Y297321D01*
X126834Y297321D01*
X129513Y294642D01*
X129513Y290854D01*
X126834Y288175D01*
X123046Y288175D01*
G37*
%LPD*%
%LPC*%
G36*
X28558Y109867D02*
X28558Y109867D01*
X25879Y112546D01*
X25879Y116334D01*
X28558Y119013D01*
X32346Y119013D01*
X35025Y116334D01*
X35025Y112546D01*
X32346Y109867D01*
X28558Y109867D01*
G37*
%LPD*%
%LPC*%
G36*
X155812Y109613D02*
X155812Y109613D01*
X153133Y112292D01*
X153133Y116080D01*
X155812Y118759D01*
X159600Y118759D01*
X162279Y116080D01*
X162279Y112292D01*
X159600Y109613D01*
X155812Y109613D01*
G37*
%LPD*%
%LPC*%
G36*
X268588Y108597D02*
X268588Y108597D01*
X265909Y111276D01*
X265909Y115064D01*
X268588Y117743D01*
X272376Y117743D01*
X275055Y115064D01*
X275055Y111276D01*
X272376Y108597D01*
X268588Y108597D01*
G37*
%LPD*%
%LPC*%
G36*
X256396Y108597D02*
X256396Y108597D01*
X253717Y111276D01*
X253717Y115064D01*
X256396Y117743D01*
X260184Y117743D01*
X262863Y115064D01*
X262863Y111276D01*
X260184Y108597D01*
X256396Y108597D01*
G37*
%LPD*%
%LPC*%
G36*
X244204Y108597D02*
X244204Y108597D01*
X241525Y111276D01*
X241525Y115064D01*
X244204Y117743D01*
X247992Y117743D01*
X250671Y115064D01*
X250671Y111276D01*
X247992Y108597D01*
X244204Y108597D01*
G37*
%LPD*%
%LPC*%
G36*
X170544Y105295D02*
X170544Y105295D01*
X167865Y107974D01*
X167865Y111762D01*
X170544Y114441D01*
X174332Y114441D01*
X177011Y111762D01*
X177011Y107974D01*
X174332Y105295D01*
X170544Y105295D01*
G37*
%LPD*%
%LPC*%
G36*
X139302Y287667D02*
X139302Y287667D01*
X136623Y290346D01*
X136623Y294134D01*
X139302Y296813D01*
X143090Y296813D01*
X145769Y294134D01*
X145769Y290346D01*
X143090Y287667D01*
X139302Y287667D01*
G37*
%LPD*%
%LPC*%
G36*
X244204Y120789D02*
X244204Y120789D01*
X241525Y123468D01*
X241525Y127256D01*
X244204Y129935D01*
X247992Y129935D01*
X250671Y127256D01*
X250671Y123468D01*
X247992Y120789D01*
X244204Y120789D01*
G37*
%LPD*%
%LPC*%
G36*
X140572Y269887D02*
X140572Y269887D01*
X137893Y272566D01*
X137893Y276354D01*
X140572Y279033D01*
X144360Y279033D01*
X147039Y276354D01*
X147039Y272566D01*
X144360Y269887D01*
X140572Y269887D01*
G37*
%LPD*%
%LPC*%
G36*
X141334Y96659D02*
X141334Y96659D01*
X138655Y99338D01*
X138655Y103126D01*
X141334Y105805D01*
X145122Y105805D01*
X147801Y103126D01*
X147801Y99338D01*
X145122Y96659D01*
X141334Y96659D01*
G37*
%LPD*%
%LPC*%
G36*
X237346Y262521D02*
X237346Y262521D01*
X234667Y265200D01*
X234667Y268988D01*
X237346Y271667D01*
X241134Y271667D01*
X243813Y268988D01*
X243813Y265200D01*
X241134Y262521D01*
X237346Y262521D01*
G37*
%LPD*%
%LPC*%
G36*
X146160Y80149D02*
X146160Y80149D01*
X143481Y82828D01*
X143481Y86616D01*
X146160Y89295D01*
X149948Y89295D01*
X152627Y86616D01*
X152627Y82828D01*
X149948Y80149D01*
X146160Y80149D01*
G37*
%LPD*%
%LPC*%
G36*
X258936Y78879D02*
X258936Y78879D01*
X256257Y81558D01*
X256257Y85346D01*
X258936Y88025D01*
X262724Y88025D01*
X265403Y85346D01*
X265403Y81558D01*
X262724Y78879D01*
X258936Y78879D01*
G37*
%LPD*%
%LPC*%
G36*
X49386Y74053D02*
X49386Y74053D01*
X46707Y76732D01*
X46707Y80520D01*
X49386Y83199D01*
X53174Y83199D01*
X55853Y80520D01*
X55853Y76732D01*
X53174Y74053D01*
X49386Y74053D01*
G37*
%LPD*%
%LPC*%
G36*
X266810Y260997D02*
X266810Y260997D01*
X264131Y263676D01*
X264131Y267464D01*
X266810Y270143D01*
X270598Y270143D01*
X273277Y267464D01*
X273277Y263676D01*
X270598Y260997D01*
X266810Y260997D01*
G37*
%LPD*%
%LPC*%
G36*
X126094Y62369D02*
X126094Y62369D01*
X123415Y65048D01*
X123415Y68836D01*
X126094Y71515D01*
X129882Y71515D01*
X132561Y68836D01*
X132561Y65048D01*
X129882Y62369D01*
X126094Y62369D01*
G37*
%LPD*%
%LPC*%
G36*
X147684Y58051D02*
X147684Y58051D01*
X145005Y60730D01*
X145005Y64518D01*
X147684Y67197D01*
X151472Y67197D01*
X154151Y64518D01*
X154151Y60730D01*
X151472Y58051D01*
X147684Y58051D01*
G37*
%LPD*%
%LPC*%
G36*
X171560Y53225D02*
X171560Y53225D01*
X168881Y55904D01*
X168881Y59692D01*
X171560Y62371D01*
X175348Y62371D01*
X178027Y59692D01*
X178027Y55904D01*
X175348Y53225D01*
X171560Y53225D01*
G37*
%LPD*%
%LPC*%
G36*
X109584Y50685D02*
X109584Y50685D01*
X106905Y53364D01*
X106905Y57152D01*
X109584Y59831D01*
X113372Y59831D01*
X116051Y57152D01*
X116051Y53364D01*
X113372Y50685D01*
X109584Y50685D01*
G37*
%LPD*%
%LPC*%
G36*
X136762Y48145D02*
X136762Y48145D01*
X134083Y50824D01*
X134083Y54612D01*
X136762Y57291D01*
X140550Y57291D01*
X143229Y54612D01*
X143229Y50824D01*
X140550Y48145D01*
X136762Y48145D01*
G37*
%LPD*%
%LPC*%
G36*
X219058Y46367D02*
X219058Y46367D01*
X216379Y49046D01*
X216379Y52834D01*
X219058Y55513D01*
X222846Y55513D01*
X225525Y52834D01*
X225525Y49046D01*
X222846Y46367D01*
X219058Y46367D01*
G37*
%LPD*%
%LPC*%
G36*
X232520Y44081D02*
X232520Y44081D01*
X229841Y46760D01*
X229841Y50548D01*
X232520Y53227D01*
X236308Y53227D01*
X238987Y50548D01*
X238987Y46760D01*
X236308Y44081D01*
X232520Y44081D01*
G37*
%LPD*%
%LPC*%
G36*
X160638Y41541D02*
X160638Y41541D01*
X157959Y44220D01*
X157959Y48008D01*
X160638Y50687D01*
X164426Y50687D01*
X167105Y48008D01*
X167105Y44220D01*
X164426Y41541D01*
X160638Y41541D01*
G37*
%LPD*%
%LPC*%
G36*
X203056Y41287D02*
X203056Y41287D01*
X200377Y43966D01*
X200377Y47754D01*
X203056Y50433D01*
X206844Y50433D01*
X209523Y47754D01*
X209523Y43966D01*
X206844Y41287D01*
X203056Y41287D01*
G37*
%LPD*%
%LPC*%
G36*
X191880Y38239D02*
X191880Y38239D01*
X189201Y40918D01*
X189201Y44706D01*
X191880Y47385D01*
X195668Y47385D01*
X198347Y44706D01*
X198347Y40918D01*
X195668Y38239D01*
X191880Y38239D01*
G37*
%LPD*%
%LPC*%
G36*
X157082Y259981D02*
X157082Y259981D01*
X154403Y262660D01*
X154403Y266448D01*
X157082Y269127D01*
X160870Y269127D01*
X163549Y266448D01*
X163549Y262660D01*
X160870Y259981D01*
X157082Y259981D01*
G37*
%LPD*%
%LPC*%
G36*
X88502Y37731D02*
X88502Y37731D01*
X85823Y40410D01*
X85823Y44198D01*
X88502Y46877D01*
X92290Y46877D01*
X94969Y44198D01*
X94969Y40410D01*
X92290Y37731D01*
X88502Y37731D01*
G37*
%LPD*%
%LPC*%
G36*
X124062Y34429D02*
X124062Y34429D01*
X121383Y37108D01*
X121383Y40896D01*
X124062Y43575D01*
X127850Y43575D01*
X130529Y40896D01*
X130529Y37108D01*
X127850Y34429D01*
X124062Y34429D01*
G37*
%LPD*%
%LPC*%
G36*
X143112Y31889D02*
X143112Y31889D01*
X140433Y34568D01*
X140433Y38356D01*
X143112Y41035D01*
X146900Y41035D01*
X149579Y38356D01*
X149579Y34568D01*
X146900Y31889D01*
X143112Y31889D01*
G37*
%LPD*%
%LPC*%
G36*
X107298Y30873D02*
X107298Y30873D01*
X104619Y33552D01*
X104619Y37340D01*
X107298Y40019D01*
X111086Y40019D01*
X113765Y37340D01*
X113765Y33552D01*
X111086Y30873D01*
X107298Y30873D01*
G37*
%LPD*%
%LPC*%
G36*
X76818Y24523D02*
X76818Y24523D01*
X74139Y27202D01*
X74139Y30990D01*
X76818Y33669D01*
X80606Y33669D01*
X83285Y30990D01*
X83285Y27202D01*
X80606Y24523D01*
X76818Y24523D01*
G37*
%LPD*%
%LPC*%
G36*
X157082Y22491D02*
X157082Y22491D01*
X154403Y25170D01*
X154403Y28958D01*
X157082Y31637D01*
X160870Y31637D01*
X163549Y28958D01*
X163549Y25170D01*
X160870Y22491D01*
X157082Y22491D01*
G37*
%LPD*%
%LPC*%
G36*
X258174Y249821D02*
X258174Y249821D01*
X255495Y252500D01*
X255495Y256288D01*
X258174Y258967D01*
X261962Y258967D01*
X264641Y256288D01*
X264641Y252500D01*
X261962Y249821D01*
X258174Y249821D01*
G37*
%LPD*%
%LPC*%
G36*
X132190Y19951D02*
X132190Y19951D01*
X129511Y22630D01*
X129511Y26418D01*
X132190Y29097D01*
X135978Y29097D01*
X138657Y26418D01*
X138657Y22630D01*
X135978Y19951D01*
X132190Y19951D01*
G37*
%LPD*%
%LPC*%
G36*
X210930Y15887D02*
X210930Y15887D01*
X208251Y18566D01*
X208251Y22354D01*
X210930Y25033D01*
X214718Y25033D01*
X217397Y22354D01*
X217397Y18566D01*
X214718Y15887D01*
X210930Y15887D01*
G37*
%LPD*%
%LPC*%
G36*
X273414Y248043D02*
X273414Y248043D01*
X270735Y250722D01*
X270735Y254510D01*
X273414Y257189D01*
X277202Y257189D01*
X279881Y254510D01*
X279881Y250722D01*
X277202Y248043D01*
X273414Y248043D01*
G37*
%LPD*%
%LPC*%
G36*
X142096Y4965D02*
X142096Y4965D01*
X139417Y7644D01*
X139417Y11432D01*
X142096Y14111D01*
X145884Y14111D01*
X148563Y11432D01*
X148563Y7644D01*
X145884Y4965D01*
X142096Y4965D01*
G37*
%LPD*%
%LPC*%
G36*
X119236Y4965D02*
X119236Y4965D01*
X116557Y7644D01*
X116557Y11432D01*
X119236Y14111D01*
X123024Y14111D01*
X125703Y11432D01*
X125703Y7644D01*
X123024Y4965D01*
X119236Y4965D01*
G37*
%LPD*%
D10*
X95883Y131357D03*
X51889Y105957D03*
X121283Y87363D03*
X77289Y61963D03*
D11*
X86586Y96660D03*
D12*
X272768Y208674D03*
X156436Y224422D03*
X133068Y224676D03*
X143228Y224676D03*
X179042Y224676D03*
X168882Y224676D03*
X225016Y259982D03*
X198854Y265824D03*
D13*
X173454Y57798D03*
X296898Y177686D03*
X157706Y114186D03*
X172438Y109868D03*
X258290Y125362D03*
X258290Y137808D03*
X246098Y137808D03*
X246098Y125362D03*
X246098Y113170D03*
X258290Y113170D03*
X270482Y113170D03*
X270228Y125108D03*
X270228Y137808D03*
X311122Y133998D03*
X234414Y48654D03*
X220952Y50940D03*
X119606Y157620D03*
D12*
X240510Y205372D03*
D14*
X109446Y266840D03*
D15*
X237716Y18174D03*
D12*
X133068Y195974D03*
D13*
X56868Y149238D03*
X69822Y114694D03*
X80998Y119266D03*
X60424Y88786D03*
X66520Y78118D03*
X95730Y68720D03*
X106906Y74816D03*
X114018Y125616D03*
X127226Y105296D03*
X143228Y101232D03*
X148054Y84722D03*
X22578Y128156D03*
X30452Y114440D03*
X51280Y78626D03*
X71600Y42558D03*
X78712Y29096D03*
X90396Y42304D03*
X111478Y55258D03*
X109192Y35446D03*
X138656Y52718D03*
X127988Y66942D03*
X145006Y36462D03*
X149578Y62624D03*
X67536Y129172D03*
X52296Y128664D03*
X37310Y125616D03*
X125956Y39002D03*
X158976Y27064D03*
X134084Y24524D03*
X121130Y9538D03*
X143990Y9538D03*
X162532Y46114D03*
X23594Y174892D03*
X31722Y188100D03*
X62456Y243726D03*
X124940Y292748D03*
X141196Y292240D03*
X201902Y293764D03*
X224000Y294018D03*
X268704Y265570D03*
X275308Y252616D03*
X260068Y254394D03*
X239240Y267094D03*
X321536Y178448D03*
X322552Y121552D03*
D12*
X120876Y239662D03*
X190726Y235852D03*
D13*
X220952Y80150D03*
X310614Y115710D03*
X267942Y160414D03*
X75410Y149492D03*
D15*
X256512Y271920D03*
X111986Y287414D03*
X26388Y144158D03*
X108684Y18682D03*
X248638Y26048D03*
X323568Y135522D03*
D12*
X46200Y200800D03*
D13*
X105636Y211722D03*
X142466Y274460D03*
X158976Y264554D03*
D12*
X251940Y227470D03*
D13*
X286992Y92596D03*
D12*
X185900Y25540D03*
D13*
X302994Y195974D03*
D12*
X58138Y179972D03*
D13*
X94460Y215024D03*
D12*
X69822Y216294D03*
D13*
X129004Y249822D03*
X290294Y160160D03*
X234160Y152032D03*
X258036Y161430D03*
X283690Y102248D03*
X113510Y172860D03*
X204950Y45860D03*
X193774Y42812D03*
X214856Y95644D03*
X224762Y95898D03*
X260830Y83452D03*
X212824Y20460D03*
M02*
