G04 EAGLE Gerber X2 export*
%TF.Part,Single*%
%TF.FileFunction,Copper,L4,Bot,Mixed*%
%TF.FilePolarity,Positive*%
%TF.GenerationSoftware,Autodesk,EAGLE,8.6.3*%
%TF.CreationDate,2018-03-24T11:36:11Z*%
G75*
%MOMM*%
%FSLAX34Y34*%
%LPD*%
%AMOC8*
5,1,8,0,0,1.08239X$1,22.5*%
G01*
%ADD10R,1.000000X1.100000*%
%ADD11R,1.500000X1.300000*%
%ADD12C,0.124994*%
%ADD13R,5.699988X5.699988*%
%ADD14R,1.399997X0.400000*%
%ADD15R,1.300000X1.500000*%
%ADD16R,1.100000X1.000000*%
%ADD17C,0.499997*%
%ADD18C,0.999997*%
%ADD19C,0.100000*%
%ADD20C,2.400000*%
%ADD21C,2.250000*%
%ADD22C,0.609600*%
%ADD23C,0.254000*%
%ADD24C,0.812800*%
%ADD25C,0.355600*%
%ADD26C,0.457200*%
%ADD27C,0.406400*%
%ADD28C,0.381000*%
%ADD29C,0.508000*%
%ADD30C,0.609600*%
%ADD31C,0.660400*%
%ADD32C,0.635000*%
%ADD33C,0.711200*%
%ADD34C,0.203200*%
%ADD35C,0.152400*%

G36*
X107735Y-492D02*
X107735Y-492D01*
X107772Y-494D01*
X107832Y-472D01*
X107895Y-460D01*
X107925Y-439D01*
X107959Y-427D01*
X108006Y-383D01*
X108059Y-347D01*
X108078Y-317D01*
X108105Y-292D01*
X108131Y-234D01*
X108166Y-180D01*
X108172Y-144D01*
X108187Y-111D01*
X108191Y-28D01*
X108199Y17D01*
X108195Y33D01*
X108196Y55D01*
X108118Y755D01*
X151406Y755D01*
X151524Y770D01*
X151643Y777D01*
X151681Y790D01*
X151722Y795D01*
X151832Y838D01*
X151945Y875D01*
X151980Y897D01*
X152017Y912D01*
X152113Y981D01*
X152214Y1045D01*
X152242Y1075D01*
X152275Y1098D01*
X152351Y1190D01*
X152432Y1277D01*
X152452Y1312D01*
X152477Y1343D01*
X152528Y1451D01*
X152586Y1555D01*
X152596Y1595D01*
X152613Y1631D01*
X152635Y1748D01*
X152665Y1863D01*
X152669Y1923D01*
X152673Y1943D01*
X152671Y1964D01*
X152675Y2024D01*
X152675Y4083D01*
X153721Y6607D01*
X153726Y6625D01*
X153735Y6642D01*
X153752Y6696D01*
X153757Y6708D01*
X153760Y6725D01*
X153782Y6796D01*
X153857Y7108D01*
X153882Y7141D01*
X153991Y7285D01*
X153991Y7286D01*
X153992Y7288D01*
X154062Y7430D01*
X154414Y8279D01*
X154455Y8431D01*
X154497Y8585D01*
X154497Y8586D01*
X154499Y8655D01*
X154664Y8925D01*
X154672Y8942D01*
X154684Y8958D01*
X154755Y9102D01*
X155800Y11626D01*
X157828Y13654D01*
X157858Y13693D01*
X157894Y13726D01*
X157955Y13818D01*
X158022Y13905D01*
X158042Y13951D01*
X158069Y13992D01*
X158070Y13995D01*
X158606Y14453D01*
X158619Y14467D01*
X158635Y14478D01*
X158747Y14594D01*
X159216Y15143D01*
X159246Y15160D01*
X159345Y15209D01*
X159383Y15241D01*
X159425Y15266D01*
X159546Y15372D01*
X161574Y17400D01*
X164098Y18445D01*
X164114Y18455D01*
X164133Y18461D01*
X164275Y18536D01*
X164548Y18703D01*
X164601Y18711D01*
X164768Y18734D01*
X164769Y18735D01*
X164770Y18735D01*
X164771Y18735D01*
X164921Y18786D01*
X165770Y19138D01*
X165906Y19216D01*
X166046Y19295D01*
X166046Y19296D01*
X166047Y19296D01*
X166096Y19344D01*
X166404Y19418D01*
X166422Y19424D01*
X166441Y19427D01*
X166593Y19479D01*
X168606Y20313D01*
X168631Y20327D01*
X168659Y20337D01*
X168769Y20406D01*
X168882Y20470D01*
X168903Y20491D01*
X168928Y20507D01*
X169017Y20601D01*
X169110Y20692D01*
X169126Y20717D01*
X169146Y20738D01*
X169209Y20852D01*
X169277Y20963D01*
X169285Y20991D01*
X169300Y21017D01*
X169332Y21143D01*
X169370Y21267D01*
X169372Y21296D01*
X169379Y21325D01*
X169389Y21485D01*
X169389Y29658D01*
X171622Y31891D01*
X172892Y31891D01*
X172990Y31903D01*
X173089Y31906D01*
X173147Y31923D01*
X173207Y31931D01*
X173299Y31967D01*
X173395Y31995D01*
X173447Y32025D01*
X173503Y32048D01*
X173583Y32106D01*
X173668Y32156D01*
X173744Y32222D01*
X173760Y32234D01*
X173768Y32244D01*
X173789Y32262D01*
X178513Y36986D01*
X178528Y36986D01*
X178586Y37003D01*
X178647Y37011D01*
X178739Y37047D01*
X178834Y37075D01*
X178886Y37105D01*
X178942Y37128D01*
X179022Y37186D01*
X179108Y37236D01*
X179183Y37302D01*
X179200Y37314D01*
X179207Y37324D01*
X179229Y37342D01*
X180889Y39003D01*
X188052Y39003D01*
X188190Y39020D01*
X188329Y39033D01*
X188348Y39040D01*
X188368Y39043D01*
X188497Y39094D01*
X188628Y39141D01*
X188645Y39152D01*
X188663Y39160D01*
X188776Y39241D01*
X188891Y39319D01*
X188904Y39335D01*
X188921Y39346D01*
X189010Y39454D01*
X189102Y39558D01*
X189111Y39576D01*
X189124Y39591D01*
X189183Y39717D01*
X189246Y39841D01*
X189251Y39861D01*
X189259Y39879D01*
X189285Y40015D01*
X189316Y40151D01*
X189315Y40172D01*
X189319Y40191D01*
X189310Y40330D01*
X189306Y40469D01*
X189300Y40489D01*
X189299Y40509D01*
X189256Y40641D01*
X189218Y40775D01*
X189207Y40792D01*
X189201Y40811D01*
X189201Y44706D01*
X191116Y46620D01*
X191176Y46699D01*
X191244Y46771D01*
X191273Y46824D01*
X191310Y46872D01*
X191350Y46963D01*
X191398Y47049D01*
X191413Y47108D01*
X191437Y47163D01*
X191452Y47261D01*
X191477Y47357D01*
X191483Y47457D01*
X191487Y47478D01*
X191485Y47490D01*
X191487Y47518D01*
X191487Y89345D01*
X191475Y89443D01*
X191472Y89542D01*
X191455Y89600D01*
X191447Y89661D01*
X191411Y89753D01*
X191383Y89848D01*
X191353Y89900D01*
X191330Y89956D01*
X191272Y90036D01*
X191222Y90122D01*
X191156Y90197D01*
X191144Y90214D01*
X191134Y90221D01*
X191116Y90243D01*
X189643Y91716D01*
X189564Y91776D01*
X189492Y91844D01*
X189439Y91873D01*
X189391Y91910D01*
X189300Y91950D01*
X189214Y91998D01*
X189155Y92013D01*
X189099Y92037D01*
X189001Y92052D01*
X188906Y92077D01*
X188806Y92083D01*
X188785Y92087D01*
X188773Y92085D01*
X188745Y92087D01*
X159299Y92087D01*
X138655Y112731D01*
X138655Y137859D01*
X138643Y137957D01*
X138640Y138056D01*
X138623Y138114D01*
X138615Y138175D01*
X138579Y138267D01*
X138551Y138362D01*
X138521Y138414D01*
X138498Y138470D01*
X138440Y138550D01*
X138390Y138636D01*
X138324Y138711D01*
X138312Y138728D01*
X138302Y138735D01*
X138284Y138757D01*
X133001Y144040D01*
X132922Y144100D01*
X132850Y144168D01*
X132797Y144197D01*
X132749Y144234D01*
X132658Y144274D01*
X132572Y144322D01*
X132513Y144337D01*
X132457Y144361D01*
X132359Y144376D01*
X132264Y144401D01*
X132164Y144407D01*
X132143Y144411D01*
X132131Y144409D01*
X132103Y144411D01*
X90091Y144411D01*
X89993Y144399D01*
X89894Y144396D01*
X89836Y144379D01*
X89775Y144371D01*
X89683Y144335D01*
X89588Y144307D01*
X89536Y144277D01*
X89480Y144254D01*
X89400Y144196D01*
X89314Y144146D01*
X89239Y144080D01*
X89222Y144068D01*
X89215Y144058D01*
X89193Y144040D01*
X80675Y135521D01*
X48301Y135521D01*
X35277Y148545D01*
X35277Y178125D01*
X49562Y192410D01*
X49635Y192504D01*
X49713Y192593D01*
X49732Y192629D01*
X49757Y192661D01*
X49804Y192770D01*
X49858Y192876D01*
X49867Y192915D01*
X49883Y192953D01*
X49902Y193070D01*
X49928Y193186D01*
X49926Y193227D01*
X49933Y193267D01*
X49922Y193385D01*
X49918Y193504D01*
X49907Y193543D01*
X49903Y193583D01*
X49863Y193696D01*
X49830Y193810D01*
X49809Y193845D01*
X49795Y193883D01*
X49728Y193981D01*
X49668Y194084D01*
X49628Y194129D01*
X49617Y194146D01*
X49601Y194159D01*
X49562Y194205D01*
X48790Y194976D01*
X48767Y194994D01*
X48748Y195016D01*
X48642Y195091D01*
X48539Y195171D01*
X48512Y195182D01*
X48488Y195199D01*
X48366Y195245D01*
X48247Y195297D01*
X48218Y195302D01*
X48190Y195312D01*
X48062Y195326D01*
X47933Y195347D01*
X47904Y195344D01*
X47874Y195347D01*
X47746Y195329D01*
X47617Y195317D01*
X47589Y195307D01*
X47559Y195303D01*
X47407Y195251D01*
X47312Y195211D01*
X45088Y195211D01*
X43034Y196062D01*
X41462Y197634D01*
X40611Y199688D01*
X40611Y201912D01*
X41548Y204172D01*
X41582Y204298D01*
X41622Y204423D01*
X41624Y204451D01*
X41632Y204479D01*
X41634Y204610D01*
X41642Y204740D01*
X41636Y204768D01*
X41637Y204797D01*
X41606Y204925D01*
X41581Y205053D01*
X41569Y205078D01*
X41562Y205106D01*
X41501Y205222D01*
X41445Y205340D01*
X41427Y205362D01*
X41414Y205387D01*
X41326Y205484D01*
X41242Y205585D01*
X41219Y205601D01*
X41200Y205623D01*
X41090Y205695D01*
X40985Y205771D01*
X40958Y205782D01*
X40934Y205797D01*
X40810Y205840D01*
X40689Y205888D01*
X40649Y205895D01*
X40633Y205901D01*
X40612Y205902D01*
X40531Y205918D01*
X40141Y205966D01*
X40136Y205966D01*
X39986Y205975D01*
X39693Y205975D01*
X39599Y206016D01*
X39578Y206020D01*
X39558Y206027D01*
X39400Y206057D01*
X37036Y206349D01*
X35395Y207279D01*
X35289Y207323D01*
X35187Y207373D01*
X35143Y207383D01*
X35100Y207400D01*
X34988Y207416D01*
X34876Y207440D01*
X34831Y207438D01*
X34785Y207444D01*
X34672Y207431D01*
X34558Y207427D01*
X34515Y207414D01*
X34469Y207408D01*
X34363Y207368D01*
X34254Y207335D01*
X34215Y207312D01*
X34172Y207295D01*
X34079Y207230D01*
X33982Y207171D01*
X33950Y207138D01*
X33912Y207112D01*
X33839Y207025D01*
X33759Y206944D01*
X33720Y206886D01*
X33706Y206870D01*
X33698Y206853D01*
X33670Y206810D01*
X10640Y166919D01*
X10000Y167399D01*
X9962Y167417D01*
X9929Y167444D01*
X9873Y167460D01*
X9820Y167485D01*
X9778Y167486D01*
X9738Y167498D01*
X9680Y167491D01*
X9621Y167493D01*
X9582Y167478D01*
X9540Y167473D01*
X9490Y167444D01*
X9435Y167423D01*
X9405Y167394D01*
X9368Y167373D01*
X9323Y167317D01*
X9291Y167286D01*
X9282Y167266D01*
X9264Y167244D01*
X-236Y150244D01*
X-257Y150176D01*
X-287Y150112D01*
X-287Y150082D01*
X-296Y150054D01*
X-290Y149984D01*
X-292Y149913D01*
X-280Y149882D01*
X-278Y149856D01*
X-258Y149819D01*
X-236Y149756D01*
X9264Y132756D01*
X9291Y132725D01*
X9311Y132687D01*
X9356Y132650D01*
X9394Y132606D01*
X9431Y132587D01*
X9464Y132560D01*
X9520Y132543D01*
X9572Y132517D01*
X9614Y132515D01*
X9654Y132503D01*
X9712Y132509D01*
X9771Y132506D01*
X9810Y132520D01*
X9852Y132524D01*
X9916Y132558D01*
X9958Y132572D01*
X9974Y132588D01*
X10000Y132601D01*
X10640Y133081D01*
X76317Y19321D01*
X75497Y18956D01*
X75466Y18934D01*
X75431Y18920D01*
X75386Y18877D01*
X75335Y18841D01*
X75315Y18809D01*
X75288Y18782D01*
X75264Y18725D01*
X75231Y18672D01*
X75225Y18634D01*
X75211Y18599D01*
X75211Y18537D01*
X75201Y18475D01*
X75211Y18438D01*
X75211Y18400D01*
X75240Y18326D01*
X75251Y18282D01*
X75262Y18267D01*
X75263Y18266D01*
X75264Y18262D01*
X75265Y18261D01*
X75271Y18245D01*
X86271Y-255D01*
X86321Y-310D01*
X86365Y-370D01*
X86387Y-383D01*
X86405Y-402D01*
X86472Y-434D01*
X86536Y-472D01*
X86565Y-476D01*
X86585Y-486D01*
X86629Y-487D01*
X86700Y-499D01*
X107700Y-499D01*
X107735Y-492D01*
G37*
G36*
X135244Y152556D02*
X135244Y152556D01*
X135363Y152563D01*
X135401Y152576D01*
X135442Y152581D01*
X135552Y152624D01*
X135665Y152661D01*
X135700Y152683D01*
X135737Y152698D01*
X135833Y152767D01*
X135934Y152831D01*
X135962Y152861D01*
X135995Y152884D01*
X136071Y152976D01*
X136152Y153063D01*
X136172Y153098D01*
X136197Y153129D01*
X136248Y153237D01*
X136306Y153341D01*
X136316Y153381D01*
X136333Y153417D01*
X136355Y153534D01*
X136385Y153649D01*
X136389Y153709D01*
X136393Y153729D01*
X136391Y153750D01*
X136395Y153810D01*
X136395Y162537D01*
X136383Y162635D01*
X136380Y162734D01*
X136363Y162792D01*
X136355Y162852D01*
X136319Y162944D01*
X136291Y163040D01*
X136261Y163092D01*
X136238Y163148D01*
X136180Y163228D01*
X136161Y163260D01*
X136161Y170827D01*
X137421Y172087D01*
X140451Y172087D01*
X140539Y172000D01*
X140633Y171927D01*
X140722Y171848D01*
X140758Y171829D01*
X140790Y171805D01*
X140899Y171757D01*
X141005Y171703D01*
X141045Y171694D01*
X141082Y171678D01*
X141199Y171660D01*
X141315Y171634D01*
X141356Y171635D01*
X141396Y171628D01*
X141515Y171640D01*
X141633Y171643D01*
X141672Y171654D01*
X141712Y171658D01*
X141825Y171699D01*
X141939Y171732D01*
X141974Y171752D01*
X142012Y171766D01*
X142110Y171833D01*
X142213Y171893D01*
X142258Y171933D01*
X142275Y171944D01*
X142288Y171960D01*
X142334Y172000D01*
X142421Y172087D01*
X145451Y172087D01*
X145539Y172000D01*
X145633Y171927D01*
X145722Y171848D01*
X145758Y171829D01*
X145790Y171805D01*
X145899Y171757D01*
X146005Y171703D01*
X146045Y171694D01*
X146082Y171678D01*
X146199Y171660D01*
X146315Y171634D01*
X146356Y171635D01*
X146396Y171628D01*
X146515Y171640D01*
X146633Y171643D01*
X146672Y171654D01*
X146712Y171658D01*
X146825Y171699D01*
X146939Y171732D01*
X146974Y171752D01*
X147012Y171766D01*
X147110Y171833D01*
X147213Y171893D01*
X147258Y171933D01*
X147275Y171944D01*
X147288Y171960D01*
X147334Y172000D01*
X147421Y172087D01*
X150451Y172087D01*
X150539Y172000D01*
X150633Y171927D01*
X150722Y171848D01*
X150758Y171829D01*
X150790Y171805D01*
X150899Y171757D01*
X151005Y171703D01*
X151045Y171694D01*
X151082Y171678D01*
X151199Y171660D01*
X151315Y171634D01*
X151356Y171635D01*
X151396Y171628D01*
X151515Y171640D01*
X151633Y171643D01*
X151672Y171654D01*
X151712Y171658D01*
X151825Y171699D01*
X151939Y171732D01*
X151974Y171752D01*
X152012Y171766D01*
X152110Y171833D01*
X152213Y171893D01*
X152258Y171933D01*
X152275Y171944D01*
X152288Y171960D01*
X152334Y172000D01*
X152421Y172087D01*
X155451Y172087D01*
X155539Y172000D01*
X155633Y171927D01*
X155722Y171848D01*
X155758Y171829D01*
X155790Y171805D01*
X155899Y171757D01*
X156005Y171703D01*
X156045Y171694D01*
X156082Y171678D01*
X156199Y171660D01*
X156315Y171634D01*
X156356Y171635D01*
X156396Y171628D01*
X156515Y171640D01*
X156633Y171643D01*
X156672Y171654D01*
X156712Y171658D01*
X156825Y171699D01*
X156939Y171732D01*
X156974Y171752D01*
X157012Y171766D01*
X157110Y171833D01*
X157213Y171893D01*
X157258Y171933D01*
X157275Y171944D01*
X157288Y171960D01*
X157334Y172000D01*
X157421Y172087D01*
X160451Y172087D01*
X160539Y172000D01*
X160633Y171927D01*
X160722Y171848D01*
X160758Y171829D01*
X160790Y171805D01*
X160899Y171757D01*
X161005Y171703D01*
X161045Y171694D01*
X161082Y171678D01*
X161199Y171660D01*
X161315Y171634D01*
X161356Y171635D01*
X161396Y171628D01*
X161515Y171640D01*
X161633Y171643D01*
X161672Y171654D01*
X161712Y171658D01*
X161825Y171699D01*
X161939Y171732D01*
X161974Y171752D01*
X162012Y171766D01*
X162110Y171833D01*
X162213Y171893D01*
X162258Y171933D01*
X162275Y171944D01*
X162288Y171960D01*
X162334Y172000D01*
X162421Y172087D01*
X165451Y172087D01*
X165539Y172000D01*
X165633Y171927D01*
X165722Y171848D01*
X165758Y171829D01*
X165790Y171805D01*
X165899Y171757D01*
X166005Y171703D01*
X166045Y171694D01*
X166082Y171678D01*
X166199Y171660D01*
X166315Y171634D01*
X166356Y171635D01*
X166396Y171628D01*
X166515Y171640D01*
X166633Y171643D01*
X166672Y171654D01*
X166712Y171658D01*
X166825Y171699D01*
X166939Y171732D01*
X166974Y171752D01*
X167012Y171766D01*
X167110Y171833D01*
X167213Y171893D01*
X167258Y171933D01*
X167275Y171944D01*
X167288Y171960D01*
X167334Y172000D01*
X167421Y172087D01*
X170451Y172087D01*
X170539Y172000D01*
X170633Y171927D01*
X170722Y171848D01*
X170758Y171829D01*
X170790Y171805D01*
X170899Y171757D01*
X171005Y171703D01*
X171045Y171694D01*
X171082Y171678D01*
X171199Y171660D01*
X171315Y171634D01*
X171356Y171635D01*
X171396Y171628D01*
X171515Y171640D01*
X171633Y171643D01*
X171672Y171654D01*
X171712Y171658D01*
X171825Y171699D01*
X171939Y171732D01*
X171974Y171752D01*
X172012Y171766D01*
X172110Y171833D01*
X172213Y171893D01*
X172258Y171933D01*
X172275Y171944D01*
X172288Y171960D01*
X172334Y172000D01*
X172421Y172087D01*
X175451Y172087D01*
X175539Y172000D01*
X175633Y171927D01*
X175722Y171848D01*
X175758Y171829D01*
X175790Y171805D01*
X175899Y171757D01*
X176005Y171703D01*
X176045Y171694D01*
X176082Y171678D01*
X176199Y171660D01*
X176315Y171634D01*
X176356Y171635D01*
X176396Y171628D01*
X176515Y171640D01*
X176633Y171643D01*
X176672Y171654D01*
X176712Y171658D01*
X176825Y171699D01*
X176939Y171732D01*
X176974Y171752D01*
X177012Y171766D01*
X177110Y171833D01*
X177213Y171893D01*
X177258Y171933D01*
X177275Y171944D01*
X177288Y171960D01*
X177334Y172000D01*
X177421Y172087D01*
X180451Y172087D01*
X180539Y172000D01*
X180633Y171927D01*
X180722Y171848D01*
X180758Y171829D01*
X180790Y171805D01*
X180899Y171757D01*
X181005Y171703D01*
X181045Y171694D01*
X181082Y171678D01*
X181199Y171660D01*
X181315Y171634D01*
X181356Y171635D01*
X181396Y171628D01*
X181515Y171640D01*
X181633Y171643D01*
X181672Y171654D01*
X181712Y171658D01*
X181825Y171699D01*
X181939Y171732D01*
X181974Y171752D01*
X182012Y171766D01*
X182110Y171833D01*
X182213Y171893D01*
X182258Y171933D01*
X182275Y171944D01*
X182288Y171960D01*
X182334Y172000D01*
X182421Y172087D01*
X184642Y172087D01*
X184760Y172102D01*
X184879Y172109D01*
X184917Y172121D01*
X184958Y172127D01*
X185068Y172170D01*
X185182Y172207D01*
X185216Y172229D01*
X185253Y172244D01*
X185350Y172313D01*
X185450Y172377D01*
X185478Y172407D01*
X185511Y172430D01*
X185587Y172522D01*
X185668Y172609D01*
X185688Y172644D01*
X185713Y172675D01*
X185764Y172783D01*
X185822Y172887D01*
X185832Y172927D01*
X185849Y172963D01*
X185871Y173080D01*
X185901Y173195D01*
X185905Y173255D01*
X185909Y173275D01*
X185908Y173288D01*
X185909Y173292D01*
X185908Y173304D01*
X185911Y173356D01*
X185911Y175577D01*
X185998Y175665D01*
X186071Y175759D01*
X186150Y175848D01*
X186169Y175884D01*
X186193Y175916D01*
X186241Y176025D01*
X186295Y176131D01*
X186304Y176171D01*
X186320Y176208D01*
X186338Y176325D01*
X186364Y176441D01*
X186363Y176482D01*
X186370Y176522D01*
X186358Y176641D01*
X186355Y176759D01*
X186344Y176798D01*
X186340Y176838D01*
X186299Y176951D01*
X186266Y177065D01*
X186246Y177100D01*
X186232Y177138D01*
X186165Y177236D01*
X186105Y177339D01*
X186065Y177384D01*
X186054Y177401D01*
X186038Y177414D01*
X185998Y177460D01*
X185911Y177547D01*
X185911Y180577D01*
X185998Y180665D01*
X186071Y180759D01*
X186150Y180848D01*
X186169Y180884D01*
X186193Y180916D01*
X186241Y181025D01*
X186295Y181131D01*
X186304Y181171D01*
X186320Y181208D01*
X186338Y181325D01*
X186364Y181441D01*
X186363Y181482D01*
X186370Y181522D01*
X186358Y181641D01*
X186355Y181759D01*
X186344Y181798D01*
X186340Y181838D01*
X186299Y181951D01*
X186266Y182065D01*
X186246Y182100D01*
X186232Y182138D01*
X186165Y182236D01*
X186105Y182339D01*
X186065Y182384D01*
X186054Y182401D01*
X186038Y182414D01*
X185998Y182460D01*
X185911Y182547D01*
X185911Y185577D01*
X185998Y185665D01*
X186071Y185759D01*
X186150Y185848D01*
X186169Y185884D01*
X186193Y185916D01*
X186241Y186025D01*
X186295Y186131D01*
X186304Y186171D01*
X186320Y186208D01*
X186338Y186325D01*
X186364Y186441D01*
X186363Y186482D01*
X186370Y186522D01*
X186358Y186641D01*
X186355Y186759D01*
X186344Y186798D01*
X186340Y186838D01*
X186299Y186951D01*
X186266Y187065D01*
X186246Y187100D01*
X186232Y187138D01*
X186165Y187236D01*
X186105Y187339D01*
X186065Y187384D01*
X186054Y187401D01*
X186038Y187414D01*
X185998Y187460D01*
X185911Y187547D01*
X185911Y190577D01*
X185998Y190665D01*
X186071Y190759D01*
X186150Y190848D01*
X186169Y190884D01*
X186193Y190916D01*
X186241Y191025D01*
X186295Y191131D01*
X186304Y191171D01*
X186320Y191208D01*
X186338Y191325D01*
X186364Y191441D01*
X186363Y191482D01*
X186370Y191522D01*
X186358Y191641D01*
X186355Y191759D01*
X186344Y191798D01*
X186340Y191838D01*
X186299Y191951D01*
X186266Y192065D01*
X186246Y192100D01*
X186232Y192138D01*
X186165Y192236D01*
X186105Y192339D01*
X186065Y192384D01*
X186054Y192401D01*
X186038Y192414D01*
X185998Y192460D01*
X185911Y192547D01*
X185911Y195577D01*
X185998Y195665D01*
X186071Y195759D01*
X186150Y195848D01*
X186169Y195884D01*
X186193Y195916D01*
X186241Y196025D01*
X186295Y196131D01*
X186304Y196171D01*
X186320Y196208D01*
X186338Y196325D01*
X186364Y196441D01*
X186363Y196482D01*
X186370Y196522D01*
X186358Y196641D01*
X186355Y196759D01*
X186344Y196798D01*
X186340Y196838D01*
X186299Y196951D01*
X186266Y197065D01*
X186246Y197100D01*
X186232Y197138D01*
X186165Y197236D01*
X186105Y197339D01*
X186065Y197384D01*
X186054Y197401D01*
X186038Y197414D01*
X185998Y197460D01*
X185911Y197547D01*
X185911Y200577D01*
X185998Y200665D01*
X186071Y200759D01*
X186150Y200848D01*
X186169Y200884D01*
X186193Y200916D01*
X186241Y201025D01*
X186295Y201131D01*
X186304Y201171D01*
X186320Y201208D01*
X186338Y201325D01*
X186364Y201441D01*
X186363Y201482D01*
X186370Y201522D01*
X186358Y201641D01*
X186355Y201759D01*
X186344Y201798D01*
X186340Y201838D01*
X186299Y201951D01*
X186266Y202065D01*
X186246Y202100D01*
X186232Y202138D01*
X186165Y202236D01*
X186105Y202339D01*
X186065Y202384D01*
X186054Y202401D01*
X186038Y202414D01*
X185998Y202460D01*
X185911Y202547D01*
X185911Y205577D01*
X185998Y205665D01*
X186071Y205759D01*
X186150Y205848D01*
X186169Y205884D01*
X186193Y205916D01*
X186241Y206025D01*
X186295Y206131D01*
X186304Y206171D01*
X186320Y206208D01*
X186338Y206325D01*
X186364Y206441D01*
X186363Y206482D01*
X186370Y206522D01*
X186358Y206641D01*
X186355Y206759D01*
X186344Y206798D01*
X186340Y206838D01*
X186299Y206951D01*
X186266Y207065D01*
X186246Y207100D01*
X186232Y207138D01*
X186165Y207236D01*
X186105Y207339D01*
X186065Y207384D01*
X186054Y207401D01*
X186038Y207414D01*
X185998Y207460D01*
X185911Y207547D01*
X185911Y210577D01*
X185998Y210665D01*
X186071Y210759D01*
X186150Y210848D01*
X186169Y210884D01*
X186193Y210916D01*
X186241Y211025D01*
X186295Y211131D01*
X186304Y211171D01*
X186320Y211208D01*
X186338Y211325D01*
X186364Y211441D01*
X186363Y211482D01*
X186370Y211522D01*
X186358Y211641D01*
X186355Y211759D01*
X186344Y211798D01*
X186340Y211838D01*
X186299Y211951D01*
X186266Y212065D01*
X186246Y212100D01*
X186232Y212138D01*
X186165Y212236D01*
X186105Y212339D01*
X186065Y212384D01*
X186054Y212401D01*
X186038Y212414D01*
X185998Y212460D01*
X185911Y212547D01*
X185911Y215577D01*
X185998Y215665D01*
X186071Y215759D01*
X186150Y215848D01*
X186169Y215884D01*
X186193Y215916D01*
X186241Y216025D01*
X186295Y216131D01*
X186304Y216171D01*
X186320Y216208D01*
X186338Y216325D01*
X186364Y216441D01*
X186363Y216482D01*
X186370Y216522D01*
X186358Y216641D01*
X186355Y216759D01*
X186344Y216798D01*
X186340Y216838D01*
X186299Y216951D01*
X186266Y217065D01*
X186246Y217100D01*
X186232Y217138D01*
X186165Y217236D01*
X186105Y217339D01*
X186065Y217384D01*
X186054Y217401D01*
X186038Y217414D01*
X185998Y217460D01*
X185911Y217547D01*
X185911Y220577D01*
X185998Y220665D01*
X186071Y220759D01*
X186150Y220848D01*
X186169Y220884D01*
X186193Y220916D01*
X186241Y221025D01*
X186295Y221131D01*
X186304Y221171D01*
X186320Y221208D01*
X186338Y221325D01*
X186364Y221441D01*
X186363Y221482D01*
X186370Y221522D01*
X186358Y221641D01*
X186355Y221759D01*
X186344Y221798D01*
X186340Y221838D01*
X186299Y221951D01*
X186266Y222065D01*
X186246Y222100D01*
X186232Y222138D01*
X186165Y222236D01*
X186105Y222339D01*
X186065Y222384D01*
X186054Y222401D01*
X186038Y222414D01*
X185998Y222460D01*
X185911Y222547D01*
X185911Y225577D01*
X185998Y225665D01*
X186071Y225759D01*
X186150Y225848D01*
X186169Y225884D01*
X186193Y225916D01*
X186241Y226025D01*
X186295Y226131D01*
X186304Y226171D01*
X186320Y226208D01*
X186338Y226325D01*
X186364Y226441D01*
X186363Y226482D01*
X186370Y226522D01*
X186358Y226641D01*
X186355Y226759D01*
X186344Y226798D01*
X186340Y226838D01*
X186299Y226951D01*
X186266Y227065D01*
X186246Y227100D01*
X186232Y227138D01*
X186165Y227236D01*
X186105Y227339D01*
X186065Y227384D01*
X186054Y227401D01*
X186038Y227414D01*
X185998Y227460D01*
X185911Y227547D01*
X185911Y229768D01*
X185896Y229886D01*
X185889Y230005D01*
X185877Y230043D01*
X185871Y230084D01*
X185828Y230194D01*
X185791Y230308D01*
X185769Y230342D01*
X185754Y230379D01*
X185685Y230476D01*
X185621Y230576D01*
X185591Y230604D01*
X185568Y230637D01*
X185476Y230713D01*
X185389Y230794D01*
X185354Y230814D01*
X185323Y230839D01*
X185215Y230890D01*
X185111Y230948D01*
X185071Y230958D01*
X185035Y230975D01*
X184918Y230997D01*
X184803Y231027D01*
X184743Y231031D01*
X184723Y231035D01*
X184702Y231034D01*
X184642Y231037D01*
X182421Y231037D01*
X181161Y232297D01*
X181161Y234359D01*
X181149Y234457D01*
X181146Y234556D01*
X181141Y234572D01*
X181141Y245850D01*
X181290Y245998D01*
X181350Y246076D01*
X181418Y246148D01*
X181447Y246201D01*
X181484Y246249D01*
X181524Y246340D01*
X181572Y246427D01*
X181587Y246485D01*
X181611Y246541D01*
X181626Y246639D01*
X181651Y246735D01*
X181657Y246835D01*
X181661Y246855D01*
X181659Y246867D01*
X181661Y246895D01*
X181661Y255074D01*
X182554Y255967D01*
X193818Y255967D01*
X194711Y255074D01*
X194711Y242810D01*
X194088Y242188D01*
X194016Y242094D01*
X193937Y242005D01*
X193918Y241969D01*
X193894Y241937D01*
X193846Y241828D01*
X193792Y241722D01*
X193783Y241682D01*
X193767Y241645D01*
X193748Y241527D01*
X193722Y241411D01*
X193724Y241371D01*
X193717Y241331D01*
X193728Y241212D01*
X193732Y241093D01*
X193743Y241055D01*
X193747Y241014D01*
X193787Y240902D01*
X193821Y240788D01*
X193841Y240753D01*
X193855Y240715D01*
X193922Y240616D01*
X193982Y240514D01*
X194022Y240469D01*
X194033Y240452D01*
X194049Y240438D01*
X194088Y240393D01*
X195464Y239018D01*
X196315Y236964D01*
X196315Y235757D01*
X196332Y235620D01*
X196345Y235481D01*
X196352Y235462D01*
X196355Y235442D01*
X196406Y235313D01*
X196453Y235182D01*
X196464Y235165D01*
X196472Y235146D01*
X196553Y235034D01*
X196631Y234919D01*
X196647Y234905D01*
X196658Y234889D01*
X196766Y234800D01*
X196870Y234708D01*
X196888Y234699D01*
X196903Y234686D01*
X197029Y234627D01*
X197153Y234563D01*
X197173Y234559D01*
X197191Y234550D01*
X197327Y234524D01*
X197463Y234494D01*
X197484Y234494D01*
X197503Y234491D01*
X197642Y234499D01*
X197781Y234503D01*
X197801Y234509D01*
X197821Y234510D01*
X197953Y234553D01*
X198087Y234592D01*
X198104Y234602D01*
X198123Y234608D01*
X198241Y234683D01*
X198361Y234753D01*
X198382Y234772D01*
X198392Y234779D01*
X198406Y234793D01*
X198481Y234860D01*
X201450Y237829D01*
X201535Y237938D01*
X201624Y238045D01*
X201633Y238064D01*
X201645Y238080D01*
X201701Y238208D01*
X201760Y238333D01*
X201763Y238353D01*
X201771Y238372D01*
X201793Y238510D01*
X201819Y238646D01*
X201818Y238666D01*
X201821Y238686D01*
X201808Y238825D01*
X201800Y238963D01*
X201793Y238982D01*
X201792Y239002D01*
X201744Y239134D01*
X201702Y239265D01*
X201691Y239283D01*
X201684Y239302D01*
X201606Y239417D01*
X201531Y239534D01*
X201517Y239548D01*
X201505Y239565D01*
X201401Y239657D01*
X201300Y239752D01*
X201282Y239762D01*
X201267Y239775D01*
X201143Y239838D01*
X201021Y239906D01*
X201002Y239911D01*
X200984Y239920D01*
X200848Y239950D01*
X200713Y239985D01*
X200685Y239987D01*
X200673Y239990D01*
X200653Y239989D01*
X200553Y239995D01*
X198954Y239995D01*
X198061Y240888D01*
X198061Y252152D01*
X198954Y253045D01*
X211218Y253045D01*
X212111Y252152D01*
X212111Y240888D01*
X211218Y239995D01*
X209150Y239995D01*
X209032Y239980D01*
X208913Y239973D01*
X208875Y239960D01*
X208834Y239955D01*
X208724Y239912D01*
X208611Y239875D01*
X208576Y239853D01*
X208539Y239838D01*
X208443Y239769D01*
X208342Y239705D01*
X208314Y239675D01*
X208281Y239652D01*
X208205Y239560D01*
X208124Y239473D01*
X208104Y239438D01*
X208079Y239407D01*
X208028Y239299D01*
X207970Y239195D01*
X207960Y239155D01*
X207943Y239119D01*
X207921Y239002D01*
X207891Y238887D01*
X207887Y238827D01*
X207883Y238807D01*
X207885Y238786D01*
X207881Y238726D01*
X207881Y236354D01*
X200910Y229383D01*
X200825Y229274D01*
X200736Y229167D01*
X200727Y229148D01*
X200715Y229132D01*
X200659Y229004D01*
X200600Y228879D01*
X200597Y228859D01*
X200589Y228840D01*
X200567Y228702D01*
X200541Y228566D01*
X200542Y228546D01*
X200539Y228526D01*
X200552Y228387D01*
X200560Y228249D01*
X200567Y228230D01*
X200568Y228210D01*
X200616Y228078D01*
X200658Y227947D01*
X200669Y227929D01*
X200676Y227910D01*
X200754Y227795D01*
X200829Y227678D01*
X200843Y227664D01*
X200855Y227647D01*
X200959Y227555D01*
X201060Y227460D01*
X201078Y227450D01*
X201093Y227437D01*
X201217Y227373D01*
X201339Y227306D01*
X201358Y227301D01*
X201376Y227292D01*
X201512Y227262D01*
X201647Y227227D01*
X201675Y227225D01*
X201687Y227222D01*
X201707Y227223D01*
X201807Y227217D01*
X203552Y227217D01*
X203651Y227229D01*
X203750Y227232D01*
X203808Y227249D01*
X203868Y227257D01*
X203960Y227293D01*
X204055Y227321D01*
X204107Y227351D01*
X204164Y227374D01*
X204244Y227432D01*
X204329Y227482D01*
X204404Y227548D01*
X204421Y227560D01*
X204429Y227570D01*
X204450Y227588D01*
X205378Y228517D01*
X220641Y228517D01*
X221534Y227624D01*
X221534Y222360D01*
X220641Y221467D01*
X205300Y221467D01*
X205248Y221490D01*
X205161Y221538D01*
X205103Y221553D01*
X205047Y221577D01*
X204949Y221592D01*
X204853Y221617D01*
X204753Y221623D01*
X204733Y221627D01*
X204721Y221625D01*
X204692Y221627D01*
X203839Y221627D01*
X203741Y221615D01*
X203642Y221612D01*
X203584Y221595D01*
X203524Y221587D01*
X203432Y221551D01*
X203337Y221523D01*
X203284Y221493D01*
X203228Y221470D01*
X203148Y221412D01*
X203063Y221362D01*
X202987Y221296D01*
X202971Y221284D01*
X202963Y221274D01*
X202942Y221256D01*
X201512Y219826D01*
X201452Y219748D01*
X201384Y219676D01*
X201355Y219623D01*
X201318Y219575D01*
X201278Y219484D01*
X201230Y219397D01*
X201215Y219339D01*
X201191Y219283D01*
X201176Y219185D01*
X201151Y219089D01*
X201145Y218989D01*
X201141Y218969D01*
X201143Y218957D01*
X201141Y218929D01*
X201141Y210564D01*
X199600Y209023D01*
X199515Y208914D01*
X199426Y208807D01*
X199417Y208788D01*
X199405Y208772D01*
X199349Y208644D01*
X199290Y208519D01*
X199287Y208499D01*
X199279Y208480D01*
X199257Y208342D01*
X199231Y208206D01*
X199232Y208186D01*
X199229Y208166D01*
X199242Y208027D01*
X199250Y207889D01*
X199257Y207870D01*
X199258Y207850D01*
X199306Y207718D01*
X199348Y207587D01*
X199359Y207569D01*
X199366Y207550D01*
X199444Y207435D01*
X199519Y207318D01*
X199533Y207304D01*
X199545Y207287D01*
X199649Y207195D01*
X199750Y207100D01*
X199768Y207090D01*
X199783Y207077D01*
X199907Y207013D01*
X200029Y206946D01*
X200048Y206941D01*
X200066Y206932D01*
X200202Y206902D01*
X200337Y206867D01*
X200365Y206865D01*
X200377Y206862D01*
X200397Y206863D01*
X200497Y206857D01*
X203354Y206857D01*
X205322Y204889D01*
X205400Y204828D01*
X205472Y204760D01*
X205525Y204731D01*
X205573Y204694D01*
X205664Y204654D01*
X205751Y204606D01*
X205809Y204591D01*
X205865Y204567D01*
X205963Y204552D01*
X206059Y204527D01*
X206159Y204521D01*
X206179Y204517D01*
X206191Y204519D01*
X206219Y204517D01*
X220641Y204517D01*
X220816Y204341D01*
X220926Y204256D01*
X221033Y204168D01*
X221052Y204159D01*
X221068Y204147D01*
X221196Y204091D01*
X221321Y204032D01*
X221341Y204028D01*
X221360Y204020D01*
X221498Y203998D01*
X221634Y203972D01*
X221654Y203974D01*
X221674Y203970D01*
X221813Y203983D01*
X221951Y203992D01*
X221970Y203998D01*
X221990Y204000D01*
X222121Y204047D01*
X222253Y204090D01*
X222271Y204101D01*
X222290Y204108D01*
X222404Y204186D01*
X222522Y204260D01*
X222536Y204275D01*
X222553Y204286D01*
X222645Y204390D01*
X222740Y204492D01*
X222750Y204510D01*
X222763Y204525D01*
X222826Y204649D01*
X222894Y204770D01*
X222899Y204790D01*
X222908Y204808D01*
X222938Y204944D01*
X222973Y205078D01*
X222975Y205106D01*
X222978Y205118D01*
X222977Y205139D01*
X222983Y205239D01*
X222983Y205260D01*
X233109Y215385D01*
X233182Y215479D01*
X233260Y215568D01*
X233279Y215604D01*
X233304Y215636D01*
X233351Y215746D01*
X233405Y215852D01*
X233414Y215891D01*
X233430Y215928D01*
X233449Y216046D01*
X233475Y216162D01*
X233474Y216202D01*
X233480Y216242D01*
X233469Y216361D01*
X233465Y216480D01*
X233454Y216519D01*
X233450Y216559D01*
X233410Y216671D01*
X233377Y216785D01*
X233356Y216820D01*
X233342Y216858D01*
X233276Y216957D01*
X233215Y217059D01*
X233175Y217104D01*
X233164Y217121D01*
X233149Y217135D01*
X233109Y217180D01*
X232370Y217918D01*
X232370Y230182D01*
X233263Y231075D01*
X244527Y231075D01*
X245204Y230398D01*
X245243Y230367D01*
X245277Y230330D01*
X245369Y230270D01*
X245455Y230203D01*
X245501Y230183D01*
X245543Y230155D01*
X245647Y230120D01*
X245747Y230076D01*
X245796Y230068D01*
X245844Y230052D01*
X245953Y230044D01*
X246061Y230026D01*
X246111Y230031D01*
X246161Y230027D01*
X246269Y230046D01*
X246378Y230056D01*
X246425Y230073D01*
X246474Y230082D01*
X246574Y230127D01*
X246677Y230164D01*
X246718Y230192D01*
X246764Y230212D01*
X246849Y230281D01*
X246940Y230342D01*
X246973Y230380D01*
X247012Y230411D01*
X247078Y230499D01*
X247151Y230581D01*
X247154Y230588D01*
X248774Y232208D01*
X250828Y233059D01*
X253052Y233059D01*
X255106Y232208D01*
X256678Y230636D01*
X257082Y229660D01*
X257097Y229635D01*
X257106Y229607D01*
X257175Y229497D01*
X257239Y229384D01*
X257260Y229363D01*
X257276Y229338D01*
X257370Y229249D01*
X257461Y229156D01*
X257486Y229140D01*
X257507Y229120D01*
X257621Y229057D01*
X257732Y228989D01*
X257760Y228981D01*
X257786Y228966D01*
X257912Y228934D01*
X258036Y228896D01*
X258065Y228894D01*
X258094Y228887D01*
X258255Y228877D01*
X269980Y228877D01*
X282952Y215904D01*
X283860Y214996D01*
X283976Y214907D01*
X284091Y214814D01*
X284102Y214809D01*
X284111Y214802D01*
X284246Y214743D01*
X284380Y214682D01*
X284392Y214680D01*
X284403Y214675D01*
X284549Y214652D01*
X284693Y214626D01*
X284705Y214627D01*
X284717Y214625D01*
X284864Y214639D01*
X285011Y214650D01*
X285022Y214654D01*
X285034Y214655D01*
X285172Y214705D01*
X285312Y214752D01*
X285322Y214759D01*
X285333Y214763D01*
X285455Y214845D01*
X285578Y214926D01*
X285586Y214935D01*
X285596Y214941D01*
X285694Y215052D01*
X285793Y215160D01*
X285799Y215171D01*
X285807Y215180D01*
X285873Y215310D01*
X285943Y215441D01*
X285946Y215452D01*
X285951Y215463D01*
X285983Y215607D01*
X286018Y215750D01*
X286018Y215762D01*
X286021Y215773D01*
X286016Y215921D01*
X286015Y216068D01*
X286012Y216079D01*
X286011Y216091D01*
X285970Y216234D01*
X285932Y216375D01*
X285925Y216389D01*
X285923Y216397D01*
X285915Y216411D01*
X285862Y216520D01*
X284549Y218836D01*
X283610Y226442D01*
X284129Y228320D01*
X284142Y228410D01*
X284152Y228446D01*
X284155Y228453D01*
X284198Y228577D01*
X284203Y228588D01*
X284204Y228594D01*
X284208Y228605D01*
X285653Y233829D01*
X290368Y239872D01*
X291722Y240640D01*
X291821Y240714D01*
X291925Y240782D01*
X291948Y240809D01*
X291977Y240830D01*
X292055Y240926D01*
X292138Y241019D01*
X292154Y241050D01*
X292176Y241077D01*
X292228Y241190D01*
X292285Y241300D01*
X292293Y241335D01*
X292308Y241367D01*
X292330Y241489D01*
X292358Y241610D01*
X292358Y241645D01*
X292364Y241680D01*
X292354Y241804D01*
X292352Y241928D01*
X292343Y241962D01*
X292340Y241997D01*
X292300Y242114D01*
X292267Y242234D01*
X292244Y242281D01*
X292238Y242298D01*
X292226Y242316D01*
X292195Y242378D01*
X269409Y281846D01*
X269885Y282036D01*
X269921Y282060D01*
X269962Y282075D01*
X270004Y282114D01*
X270052Y282146D01*
X270076Y282181D01*
X270107Y282211D01*
X270130Y282263D01*
X270162Y282311D01*
X270170Y282353D01*
X270188Y282393D01*
X270189Y282450D01*
X270199Y282506D01*
X270190Y282549D01*
X270191Y282592D01*
X270166Y282658D01*
X270157Y282701D01*
X270144Y282720D01*
X270133Y282748D01*
X260133Y300248D01*
X260082Y300307D01*
X260035Y300370D01*
X260017Y300381D01*
X260002Y300397D01*
X259931Y300432D01*
X259864Y300472D01*
X259841Y300476D01*
X259823Y300484D01*
X259778Y300486D01*
X259700Y300499D01*
X239700Y300499D01*
X239665Y300492D01*
X239628Y300494D01*
X239568Y300472D01*
X239505Y300460D01*
X239475Y300439D01*
X239441Y300427D01*
X239394Y300383D01*
X239341Y300347D01*
X239322Y300317D01*
X239295Y300292D01*
X239269Y300234D01*
X239234Y300180D01*
X239228Y300144D01*
X239213Y300111D01*
X239209Y300028D01*
X239201Y299983D01*
X239205Y299967D01*
X239204Y299945D01*
X239282Y299245D01*
X193994Y299245D01*
X193876Y299230D01*
X193757Y299223D01*
X193719Y299210D01*
X193678Y299205D01*
X193568Y299162D01*
X193455Y299125D01*
X193420Y299103D01*
X193383Y299088D01*
X193287Y299019D01*
X193186Y298955D01*
X193158Y298925D01*
X193125Y298902D01*
X193049Y298810D01*
X192968Y298723D01*
X192948Y298688D01*
X192923Y298657D01*
X192872Y298549D01*
X192814Y298445D01*
X192804Y298405D01*
X192787Y298369D01*
X192765Y298252D01*
X192735Y298137D01*
X192731Y298077D01*
X192727Y298057D01*
X192729Y298036D01*
X192725Y297976D01*
X192725Y297840D01*
X192728Y297816D01*
X192725Y297770D01*
X192725Y296116D01*
X191733Y293722D01*
X191728Y293703D01*
X191719Y293686D01*
X191671Y293532D01*
X191593Y293206D01*
X191551Y293151D01*
X191454Y293021D01*
X191453Y293020D01*
X191453Y293019D01*
X191383Y292877D01*
X191094Y292180D01*
X191047Y292006D01*
X191010Y291874D01*
X191010Y291873D01*
X191009Y291797D01*
X190835Y291512D01*
X190827Y291495D01*
X190815Y291479D01*
X190744Y291335D01*
X189752Y288940D01*
X188583Y287771D01*
X188573Y287758D01*
X188567Y287751D01*
X188534Y287721D01*
X187865Y287053D01*
X187835Y287014D01*
X187798Y286981D01*
X187738Y286889D01*
X187670Y286802D01*
X187651Y286757D01*
X187624Y286715D01*
X187623Y286712D01*
X187086Y286254D01*
X187074Y286240D01*
X187058Y286229D01*
X186946Y286114D01*
X186476Y285564D01*
X186447Y285547D01*
X186348Y285498D01*
X186310Y285466D01*
X186268Y285441D01*
X186147Y285335D01*
X185479Y284666D01*
X185464Y284648D01*
X185429Y284617D01*
X184260Y283448D01*
X181865Y282456D01*
X181848Y282446D01*
X181830Y282441D01*
X181688Y282365D01*
X181330Y282146D01*
X181229Y282066D01*
X181125Y281990D01*
X181105Y281966D01*
X181082Y281947D01*
X181004Y281844D01*
X180922Y281745D01*
X180909Y281717D01*
X180891Y281693D01*
X180841Y281574D01*
X180786Y281457D01*
X180781Y281427D01*
X180769Y281399D01*
X180751Y281271D01*
X180727Y281144D01*
X180728Y281114D01*
X180724Y281084D01*
X180738Y280956D01*
X180746Y280827D01*
X180756Y280798D01*
X180759Y280768D01*
X180805Y280647D01*
X180844Y280525D01*
X180860Y280499D01*
X180871Y280471D01*
X180945Y280365D01*
X181014Y280256D01*
X181036Y280235D01*
X181054Y280210D01*
X181152Y280126D01*
X181246Y280038D01*
X181273Y280023D01*
X181295Y280004D01*
X181412Y279947D01*
X181525Y279884D01*
X181554Y279877D01*
X181581Y279864D01*
X181707Y279837D01*
X181833Y279805D01*
X181876Y279802D01*
X181892Y279799D01*
X181914Y279800D01*
X181993Y279795D01*
X196710Y279795D01*
X196829Y279810D01*
X196947Y279817D01*
X196986Y279830D01*
X197026Y279835D01*
X197137Y279878D01*
X197250Y279915D01*
X197284Y279937D01*
X197322Y279952D01*
X197418Y280021D01*
X197518Y280085D01*
X197546Y280115D01*
X197579Y280138D01*
X197655Y280230D01*
X197736Y280317D01*
X197756Y280352D01*
X197782Y280383D01*
X197832Y280491D01*
X197890Y280595D01*
X197900Y280635D01*
X197917Y280671D01*
X197940Y280788D01*
X197969Y280903D01*
X197973Y280963D01*
X197977Y280983D01*
X197976Y281004D01*
X197980Y281064D01*
X197980Y286942D01*
X198873Y287835D01*
X210136Y287835D01*
X211029Y286942D01*
X211029Y274678D01*
X210136Y273785D01*
X198873Y273785D01*
X198317Y274342D01*
X198238Y274402D01*
X198166Y274470D01*
X198113Y274499D01*
X198065Y274536D01*
X197974Y274576D01*
X197888Y274624D01*
X197829Y274639D01*
X197773Y274663D01*
X197675Y274678D01*
X197580Y274703D01*
X197480Y274709D01*
X197459Y274713D01*
X197447Y274711D01*
X197419Y274713D01*
X182144Y274713D01*
X182046Y274701D01*
X181947Y274698D01*
X181889Y274681D01*
X181829Y274673D01*
X181737Y274637D01*
X181641Y274609D01*
X181589Y274579D01*
X181533Y274556D01*
X181453Y274498D01*
X181368Y274448D01*
X181292Y274382D01*
X181276Y274370D01*
X181268Y274360D01*
X181247Y274342D01*
X168918Y262013D01*
X165827Y262013D01*
X165689Y261996D01*
X165550Y261983D01*
X165531Y261976D01*
X165511Y261973D01*
X165382Y261922D01*
X165251Y261875D01*
X165234Y261864D01*
X165216Y261856D01*
X165103Y261775D01*
X164988Y261697D01*
X164975Y261681D01*
X164958Y261670D01*
X164869Y261562D01*
X164777Y261458D01*
X164768Y261440D01*
X164755Y261425D01*
X164696Y261299D01*
X164633Y261175D01*
X164628Y261155D01*
X164620Y261137D01*
X164594Y261000D01*
X164563Y260865D01*
X164564Y260844D01*
X164560Y260825D01*
X164569Y260686D01*
X164573Y260547D01*
X164579Y260527D01*
X164580Y260507D01*
X164623Y260375D01*
X164661Y260241D01*
X164672Y260224D01*
X164678Y260205D01*
X164752Y260087D01*
X164823Y259967D01*
X164841Y259946D01*
X164848Y259936D01*
X164863Y259922D01*
X164929Y259847D01*
X165755Y259021D01*
X165755Y249807D01*
X165767Y249709D01*
X165770Y249610D01*
X165787Y249552D01*
X165795Y249492D01*
X165831Y249400D01*
X165859Y249305D01*
X165889Y249252D01*
X165912Y249196D01*
X165970Y249116D01*
X166020Y249031D01*
X166086Y248955D01*
X166098Y248939D01*
X166108Y248931D01*
X166126Y248910D01*
X166731Y248306D01*
X166731Y242356D01*
X166746Y242238D01*
X166753Y242119D01*
X166766Y242081D01*
X166771Y242041D01*
X166814Y241930D01*
X166851Y241817D01*
X166873Y241782D01*
X166888Y241745D01*
X166957Y241649D01*
X167021Y241548D01*
X167051Y241520D01*
X167074Y241487D01*
X167166Y241412D01*
X167253Y241330D01*
X167288Y241310D01*
X167319Y241285D01*
X167427Y241234D01*
X167531Y241176D01*
X167571Y241166D01*
X167607Y241149D01*
X167724Y241127D01*
X167839Y241097D01*
X167899Y241093D01*
X167919Y241089D01*
X167940Y241091D01*
X168000Y241087D01*
X170451Y241087D01*
X170538Y241000D01*
X170622Y240935D01*
X170674Y240886D01*
X170686Y240879D01*
X170722Y240848D01*
X170758Y240830D01*
X170790Y240805D01*
X170899Y240757D01*
X171005Y240703D01*
X171044Y240694D01*
X171082Y240678D01*
X171199Y240660D01*
X171315Y240634D01*
X171356Y240635D01*
X171396Y240629D01*
X171514Y240640D01*
X171633Y240643D01*
X171672Y240655D01*
X171712Y240658D01*
X171824Y240699D01*
X171939Y240732D01*
X171974Y240752D01*
X172012Y240766D01*
X172060Y240799D01*
X172062Y240800D01*
X172073Y240808D01*
X172110Y240833D01*
X172213Y240893D01*
X172258Y240933D01*
X172275Y240945D01*
X172288Y240960D01*
X172315Y240983D01*
X172320Y240987D01*
X172322Y240989D01*
X172333Y241000D01*
X172421Y241087D01*
X175451Y241087D01*
X176711Y239828D01*
X176711Y232297D01*
X175451Y231037D01*
X172421Y231037D01*
X172333Y231124D01*
X172239Y231197D01*
X172150Y231276D01*
X172114Y231295D01*
X172082Y231319D01*
X171973Y231367D01*
X171867Y231421D01*
X171827Y231430D01*
X171790Y231446D01*
X171673Y231464D01*
X171557Y231490D01*
X171516Y231489D01*
X171476Y231496D01*
X171357Y231484D01*
X171239Y231481D01*
X171200Y231470D01*
X171160Y231466D01*
X171047Y231425D01*
X170933Y231392D01*
X170898Y231372D01*
X170860Y231358D01*
X170762Y231291D01*
X170659Y231231D01*
X170614Y231191D01*
X170597Y231180D01*
X170584Y231164D01*
X170538Y231124D01*
X170451Y231037D01*
X167421Y231037D01*
X167333Y231124D01*
X167239Y231197D01*
X167150Y231276D01*
X167114Y231295D01*
X167082Y231319D01*
X166973Y231367D01*
X166867Y231421D01*
X166827Y231430D01*
X166790Y231446D01*
X166673Y231464D01*
X166557Y231490D01*
X166516Y231489D01*
X166476Y231496D01*
X166357Y231484D01*
X166239Y231481D01*
X166200Y231470D01*
X166160Y231466D01*
X166047Y231425D01*
X165933Y231392D01*
X165898Y231372D01*
X165860Y231358D01*
X165762Y231291D01*
X165659Y231231D01*
X165614Y231191D01*
X165597Y231180D01*
X165584Y231164D01*
X165538Y231124D01*
X165451Y231037D01*
X162421Y231037D01*
X162333Y231124D01*
X162239Y231197D01*
X162150Y231276D01*
X162114Y231295D01*
X162082Y231319D01*
X161973Y231367D01*
X161867Y231421D01*
X161827Y231430D01*
X161790Y231446D01*
X161673Y231464D01*
X161557Y231490D01*
X161516Y231489D01*
X161476Y231496D01*
X161357Y231484D01*
X161239Y231481D01*
X161200Y231470D01*
X161160Y231466D01*
X161047Y231425D01*
X160933Y231392D01*
X160898Y231372D01*
X160860Y231358D01*
X160762Y231291D01*
X160659Y231231D01*
X160614Y231191D01*
X160597Y231180D01*
X160584Y231164D01*
X160538Y231124D01*
X160451Y231037D01*
X157421Y231037D01*
X157333Y231124D01*
X157239Y231197D01*
X157150Y231276D01*
X157114Y231295D01*
X157082Y231319D01*
X156973Y231367D01*
X156867Y231421D01*
X156827Y231430D01*
X156790Y231446D01*
X156673Y231464D01*
X156557Y231490D01*
X156516Y231489D01*
X156476Y231496D01*
X156357Y231484D01*
X156239Y231481D01*
X156200Y231470D01*
X156160Y231466D01*
X156047Y231425D01*
X155933Y231392D01*
X155898Y231372D01*
X155860Y231358D01*
X155762Y231291D01*
X155659Y231231D01*
X155614Y231191D01*
X155597Y231180D01*
X155584Y231164D01*
X155538Y231124D01*
X155451Y231037D01*
X152421Y231037D01*
X152333Y231124D01*
X152239Y231197D01*
X152150Y231276D01*
X152114Y231295D01*
X152082Y231319D01*
X151973Y231367D01*
X151867Y231421D01*
X151827Y231430D01*
X151790Y231446D01*
X151673Y231464D01*
X151557Y231490D01*
X151516Y231489D01*
X151476Y231496D01*
X151357Y231484D01*
X151239Y231481D01*
X151200Y231470D01*
X151160Y231466D01*
X151047Y231425D01*
X150933Y231392D01*
X150898Y231372D01*
X150860Y231358D01*
X150762Y231291D01*
X150659Y231231D01*
X150614Y231191D01*
X150597Y231180D01*
X150584Y231164D01*
X150538Y231124D01*
X150451Y231037D01*
X147421Y231037D01*
X147333Y231124D01*
X147239Y231197D01*
X147150Y231276D01*
X147114Y231295D01*
X147082Y231319D01*
X146973Y231367D01*
X146867Y231421D01*
X146827Y231430D01*
X146790Y231446D01*
X146673Y231464D01*
X146557Y231490D01*
X146516Y231489D01*
X146476Y231496D01*
X146357Y231484D01*
X146239Y231481D01*
X146200Y231470D01*
X146160Y231466D01*
X146047Y231425D01*
X145933Y231392D01*
X145898Y231372D01*
X145860Y231358D01*
X145762Y231291D01*
X145659Y231231D01*
X145614Y231191D01*
X145597Y231180D01*
X145584Y231164D01*
X145538Y231124D01*
X145451Y231037D01*
X142421Y231037D01*
X142333Y231124D01*
X142239Y231197D01*
X142150Y231276D01*
X142114Y231295D01*
X142082Y231319D01*
X141973Y231367D01*
X141867Y231421D01*
X141827Y231430D01*
X141790Y231446D01*
X141673Y231464D01*
X141557Y231490D01*
X141516Y231489D01*
X141476Y231496D01*
X141357Y231484D01*
X141239Y231481D01*
X141200Y231470D01*
X141160Y231466D01*
X141047Y231425D01*
X140933Y231392D01*
X140898Y231372D01*
X140860Y231358D01*
X140762Y231291D01*
X140659Y231231D01*
X140614Y231191D01*
X140597Y231180D01*
X140584Y231164D01*
X140538Y231124D01*
X140451Y231037D01*
X137421Y231037D01*
X137333Y231124D01*
X137239Y231197D01*
X137150Y231276D01*
X137114Y231295D01*
X137082Y231319D01*
X136973Y231367D01*
X136867Y231421D01*
X136827Y231430D01*
X136790Y231446D01*
X136673Y231464D01*
X136557Y231490D01*
X136516Y231489D01*
X136476Y231496D01*
X136357Y231484D01*
X136239Y231481D01*
X136200Y231470D01*
X136160Y231466D01*
X136047Y231425D01*
X135933Y231392D01*
X135898Y231372D01*
X135860Y231358D01*
X135762Y231291D01*
X135659Y231231D01*
X135614Y231191D01*
X135597Y231180D01*
X135584Y231164D01*
X135538Y231124D01*
X135451Y231037D01*
X132421Y231037D01*
X132333Y231124D01*
X132239Y231197D01*
X132150Y231276D01*
X132114Y231295D01*
X132082Y231319D01*
X131973Y231367D01*
X131867Y231421D01*
X131827Y231430D01*
X131790Y231446D01*
X131673Y231464D01*
X131557Y231490D01*
X131516Y231489D01*
X131476Y231496D01*
X131357Y231484D01*
X131239Y231481D01*
X131200Y231470D01*
X131160Y231466D01*
X131047Y231425D01*
X130933Y231392D01*
X130898Y231372D01*
X130860Y231358D01*
X130762Y231291D01*
X130659Y231231D01*
X130614Y231191D01*
X130597Y231180D01*
X130584Y231164D01*
X130538Y231124D01*
X130451Y231037D01*
X128230Y231037D01*
X128112Y231022D01*
X127993Y231015D01*
X127955Y231003D01*
X127914Y230997D01*
X127804Y230954D01*
X127690Y230917D01*
X127656Y230895D01*
X127619Y230880D01*
X127522Y230811D01*
X127422Y230747D01*
X127394Y230717D01*
X127361Y230694D01*
X127285Y230602D01*
X127204Y230515D01*
X127184Y230480D01*
X127159Y230449D01*
X127108Y230341D01*
X127050Y230237D01*
X127040Y230197D01*
X127023Y230161D01*
X127001Y230044D01*
X126971Y229929D01*
X126967Y229869D01*
X126963Y229849D01*
X126964Y229828D01*
X126961Y229768D01*
X126961Y227547D01*
X125701Y226287D01*
X123639Y226287D01*
X123541Y226275D01*
X123442Y226272D01*
X123426Y226267D01*
X109998Y226267D01*
X109168Y227098D01*
X109090Y227158D01*
X109018Y227226D01*
X108965Y227255D01*
X108917Y227292D01*
X108826Y227332D01*
X108739Y227380D01*
X108681Y227395D01*
X108625Y227419D01*
X108527Y227434D01*
X108431Y227459D01*
X108331Y227465D01*
X108311Y227469D01*
X108299Y227467D01*
X108271Y227469D01*
X106282Y227469D01*
X104906Y228846D01*
X104827Y228906D01*
X104755Y228974D01*
X104702Y229003D01*
X104654Y229040D01*
X104563Y229080D01*
X104477Y229128D01*
X104418Y229143D01*
X104363Y229167D01*
X104265Y229182D01*
X104169Y229207D01*
X104069Y229213D01*
X104048Y229217D01*
X104036Y229215D01*
X104008Y229217D01*
X103814Y229217D01*
X102921Y230110D01*
X102921Y230391D01*
X102906Y230509D01*
X102899Y230628D01*
X102886Y230666D01*
X102881Y230707D01*
X102838Y230817D01*
X102801Y230930D01*
X102779Y230965D01*
X102764Y231002D01*
X102695Y231098D01*
X102631Y231199D01*
X102601Y231227D01*
X102578Y231260D01*
X102486Y231336D01*
X102399Y231417D01*
X102364Y231437D01*
X102333Y231462D01*
X102225Y231513D01*
X102121Y231571D01*
X102081Y231581D01*
X102045Y231598D01*
X101928Y231620D01*
X101813Y231650D01*
X101753Y231654D01*
X101733Y231658D01*
X101712Y231656D01*
X101652Y231660D01*
X94545Y231660D01*
X93325Y232880D01*
X93247Y232941D01*
X93175Y233009D01*
X93122Y233038D01*
X93074Y233075D01*
X92983Y233115D01*
X92896Y233162D01*
X92838Y233177D01*
X92782Y233202D01*
X92684Y233217D01*
X92588Y233242D01*
X92488Y233248D01*
X92468Y233251D01*
X92456Y233250D01*
X92428Y233252D01*
X80486Y233252D01*
X79593Y234145D01*
X79593Y248408D01*
X80486Y249302D01*
X96750Y249302D01*
X97643Y248408D01*
X97643Y242381D01*
X97655Y242283D01*
X97658Y242184D01*
X97675Y242126D01*
X97683Y242066D01*
X97719Y241974D01*
X97747Y241879D01*
X97777Y241827D01*
X97800Y241770D01*
X97858Y241690D01*
X97908Y241605D01*
X97974Y241529D01*
X97986Y241513D01*
X97996Y241505D01*
X98014Y241484D01*
X98067Y241431D01*
X98145Y241371D01*
X98217Y241303D01*
X98270Y241274D01*
X98318Y241237D01*
X98409Y241197D01*
X98496Y241149D01*
X98554Y241134D01*
X98610Y241110D01*
X98708Y241095D01*
X98804Y241070D01*
X98904Y241064D01*
X98924Y241060D01*
X98936Y241062D01*
X98964Y241060D01*
X101652Y241060D01*
X101770Y241075D01*
X101889Y241082D01*
X101927Y241095D01*
X101968Y241100D01*
X102078Y241143D01*
X102191Y241180D01*
X102226Y241202D01*
X102263Y241217D01*
X102359Y241286D01*
X102460Y241350D01*
X102488Y241380D01*
X102521Y241403D01*
X102597Y241495D01*
X102678Y241582D01*
X102698Y241617D01*
X102723Y241648D01*
X102774Y241756D01*
X102832Y241860D01*
X102842Y241900D01*
X102859Y241936D01*
X102881Y242053D01*
X102911Y242168D01*
X102915Y242228D01*
X102919Y242248D01*
X102917Y242269D01*
X102921Y242329D01*
X102921Y242374D01*
X103814Y243267D01*
X115109Y243267D01*
X115113Y243263D01*
X115149Y243244D01*
X115181Y243220D01*
X115290Y243172D01*
X115396Y243118D01*
X115436Y243109D01*
X115473Y243093D01*
X115590Y243075D01*
X115707Y243048D01*
X115747Y243050D01*
X115787Y243043D01*
X115905Y243054D01*
X116025Y243058D01*
X116063Y243069D01*
X116104Y243073D01*
X116216Y243113D01*
X116330Y243147D01*
X116365Y243167D01*
X116403Y243181D01*
X116501Y243248D01*
X116604Y243308D01*
X116649Y243348D01*
X116666Y243359D01*
X116680Y243375D01*
X116725Y243414D01*
X117710Y244400D01*
X119764Y245251D01*
X121988Y245251D01*
X124042Y244400D01*
X124296Y244145D01*
X124406Y244060D01*
X124513Y243971D01*
X124532Y243963D01*
X124548Y243950D01*
X124675Y243895D01*
X124801Y243836D01*
X124821Y243832D01*
X124840Y243824D01*
X124977Y243802D01*
X125114Y243776D01*
X125134Y243777D01*
X125154Y243774D01*
X125293Y243787D01*
X125431Y243796D01*
X125450Y243802D01*
X125470Y243804D01*
X125602Y243851D01*
X125733Y243894D01*
X125750Y243904D01*
X125770Y243911D01*
X125885Y243990D01*
X126002Y244064D01*
X126016Y244079D01*
X126033Y244090D01*
X126125Y244194D01*
X126220Y244295D01*
X126230Y244313D01*
X126243Y244328D01*
X126307Y244452D01*
X126374Y244574D01*
X126379Y244594D01*
X126388Y244612D01*
X126418Y244748D01*
X126453Y244882D01*
X126455Y244910D01*
X126458Y244922D01*
X126457Y244942D01*
X126463Y245043D01*
X126463Y245370D01*
X126451Y245468D01*
X126448Y245567D01*
X126431Y245626D01*
X126423Y245686D01*
X126387Y245778D01*
X126359Y245873D01*
X126329Y245925D01*
X126306Y245981D01*
X126248Y246061D01*
X126198Y246147D01*
X126132Y246222D01*
X126120Y246239D01*
X126110Y246247D01*
X126092Y246268D01*
X124431Y247928D01*
X124431Y251716D01*
X127110Y254395D01*
X130898Y254395D01*
X133577Y251716D01*
X133577Y247928D01*
X131916Y246268D01*
X131856Y246189D01*
X131788Y246117D01*
X131759Y246064D01*
X131722Y246016D01*
X131682Y245925D01*
X131634Y245839D01*
X131619Y245780D01*
X131595Y245725D01*
X131580Y245627D01*
X131555Y245531D01*
X131549Y245431D01*
X131545Y245410D01*
X131547Y245398D01*
X131545Y245370D01*
X131545Y242356D01*
X131560Y242238D01*
X131567Y242119D01*
X131580Y242081D01*
X131585Y242041D01*
X131628Y241930D01*
X131665Y241817D01*
X131687Y241782D01*
X131702Y241745D01*
X131771Y241649D01*
X131835Y241548D01*
X131865Y241520D01*
X131888Y241487D01*
X131980Y241412D01*
X132067Y241330D01*
X132102Y241310D01*
X132133Y241285D01*
X132241Y241234D01*
X132345Y241176D01*
X132385Y241166D01*
X132421Y241149D01*
X132538Y241127D01*
X132653Y241097D01*
X132713Y241093D01*
X132733Y241089D01*
X132754Y241091D01*
X132814Y241087D01*
X135126Y241087D01*
X135244Y241102D01*
X135363Y241109D01*
X135401Y241122D01*
X135442Y241127D01*
X135552Y241170D01*
X135665Y241207D01*
X135700Y241229D01*
X135737Y241244D01*
X135833Y241314D01*
X135934Y241377D01*
X135962Y241407D01*
X135995Y241431D01*
X136071Y241522D01*
X136152Y241609D01*
X136172Y241644D01*
X136197Y241675D01*
X136248Y241783D01*
X136306Y241887D01*
X136316Y241927D01*
X136333Y241963D01*
X136355Y242080D01*
X136385Y242195D01*
X136389Y242256D01*
X136393Y242276D01*
X136391Y242296D01*
X136395Y242356D01*
X136395Y271982D01*
X137522Y273109D01*
X137582Y273187D01*
X137650Y273259D01*
X137679Y273312D01*
X137716Y273360D01*
X137756Y273451D01*
X137804Y273538D01*
X137819Y273596D01*
X137843Y273652D01*
X137858Y273750D01*
X137883Y273845D01*
X137889Y273946D01*
X137893Y273966D01*
X137891Y273978D01*
X137893Y274006D01*
X137893Y276354D01*
X140572Y279033D01*
X144360Y279033D01*
X147039Y276354D01*
X147039Y272355D01*
X147056Y272218D01*
X147061Y272137D01*
X147065Y272126D01*
X147069Y272079D01*
X147076Y272060D01*
X147079Y272040D01*
X147130Y271911D01*
X147177Y271780D01*
X147188Y271763D01*
X147196Y271744D01*
X147277Y271632D01*
X147355Y271517D01*
X147371Y271503D01*
X147382Y271487D01*
X147490Y271398D01*
X147594Y271306D01*
X147612Y271297D01*
X147627Y271284D01*
X147753Y271225D01*
X147877Y271161D01*
X147897Y271157D01*
X147915Y271148D01*
X148051Y271122D01*
X148187Y271092D01*
X148208Y271092D01*
X148227Y271089D01*
X148366Y271097D01*
X148505Y271101D01*
X148525Y271107D01*
X148545Y271108D01*
X148677Y271151D01*
X148811Y271190D01*
X148828Y271200D01*
X148847Y271206D01*
X148930Y271259D01*
X148938Y271262D01*
X148960Y271277D01*
X148965Y271281D01*
X149085Y271351D01*
X149106Y271370D01*
X149116Y271377D01*
X149130Y271392D01*
X149194Y271447D01*
X149195Y271449D01*
X149196Y271450D01*
X149205Y271458D01*
X155302Y277554D01*
X155362Y277632D01*
X155430Y277704D01*
X155459Y277757D01*
X155496Y277805D01*
X155536Y277896D01*
X155584Y277983D01*
X155599Y278041D01*
X155623Y278097D01*
X155638Y278195D01*
X155663Y278291D01*
X155669Y278391D01*
X155673Y278411D01*
X155671Y278423D01*
X155673Y278451D01*
X155673Y278981D01*
X160233Y283541D01*
X160288Y283612D01*
X160351Y283676D01*
X160385Y283737D01*
X160428Y283792D01*
X160464Y283875D01*
X160508Y283952D01*
X160527Y284020D01*
X160555Y284084D01*
X160569Y284173D01*
X160592Y284259D01*
X160593Y284329D01*
X160604Y284398D01*
X160596Y284488D01*
X160597Y284577D01*
X160581Y284645D01*
X160575Y284715D01*
X160544Y284799D01*
X160523Y284886D01*
X160491Y284948D01*
X160467Y285014D01*
X160417Y285089D01*
X160375Y285168D01*
X160328Y285219D01*
X160288Y285277D01*
X160221Y285337D01*
X160161Y285403D01*
X160103Y285442D01*
X160050Y285488D01*
X159970Y285529D01*
X159933Y285553D01*
X159454Y286114D01*
X159440Y286126D01*
X159429Y286142D01*
X159314Y286254D01*
X158764Y286724D01*
X158747Y286753D01*
X158698Y286852D01*
X158666Y286890D01*
X158641Y286932D01*
X158535Y287053D01*
X157866Y287721D01*
X157848Y287736D01*
X157817Y287771D01*
X156648Y288940D01*
X155656Y291335D01*
X155646Y291351D01*
X155641Y291370D01*
X155565Y291512D01*
X155390Y291798D01*
X155382Y291859D01*
X155358Y292028D01*
X155357Y292029D01*
X155357Y292030D01*
X155306Y292180D01*
X155017Y292877D01*
X154940Y293013D01*
X154860Y293152D01*
X154860Y293153D01*
X154807Y293207D01*
X154729Y293532D01*
X154722Y293550D01*
X154719Y293569D01*
X154667Y293722D01*
X153675Y296116D01*
X153675Y297770D01*
X153673Y297785D01*
X153673Y297796D01*
X153675Y297840D01*
X153675Y297976D01*
X153660Y298094D01*
X153653Y298213D01*
X153640Y298251D01*
X153635Y298292D01*
X153592Y298402D01*
X153555Y298515D01*
X153533Y298550D01*
X153518Y298587D01*
X153449Y298683D01*
X153385Y298784D01*
X153355Y298812D01*
X153332Y298845D01*
X153240Y298921D01*
X153153Y299002D01*
X153118Y299022D01*
X153087Y299047D01*
X152979Y299098D01*
X152875Y299156D01*
X152835Y299166D01*
X152799Y299183D01*
X152682Y299205D01*
X152567Y299235D01*
X152507Y299239D01*
X152487Y299243D01*
X152466Y299241D01*
X152406Y299245D01*
X107089Y299245D01*
X107193Y299924D01*
X107191Y299968D01*
X107194Y299987D01*
X107194Y299988D01*
X107199Y300017D01*
X107187Y300069D01*
X107184Y300123D01*
X107164Y300165D01*
X107153Y300210D01*
X107121Y300253D01*
X107098Y300302D01*
X107063Y300333D01*
X107035Y300370D01*
X106989Y300398D01*
X106948Y300433D01*
X106904Y300448D01*
X106864Y300472D01*
X106800Y300482D01*
X106760Y300496D01*
X106734Y300494D01*
X106700Y300499D01*
X86700Y300499D01*
X86623Y300484D01*
X86545Y300475D01*
X86526Y300464D01*
X86505Y300460D01*
X86440Y300415D01*
X86372Y300376D01*
X86357Y300358D01*
X86341Y300347D01*
X86317Y300309D01*
X86267Y300248D01*
X76267Y282748D01*
X76255Y282712D01*
X76235Y282681D01*
X76224Y282619D01*
X76204Y282559D01*
X76207Y282522D01*
X76201Y282485D01*
X76215Y282424D01*
X76221Y282361D01*
X76238Y282328D01*
X76246Y282292D01*
X76284Y282241D01*
X76313Y282185D01*
X76342Y282161D01*
X76363Y282131D01*
X76432Y282087D01*
X76467Y282059D01*
X76484Y282053D01*
X76503Y282041D01*
X76984Y281835D01*
X54205Y242379D01*
X54156Y242264D01*
X54102Y242153D01*
X54095Y242118D01*
X54081Y242085D01*
X54063Y241962D01*
X54038Y241841D01*
X54040Y241806D01*
X54035Y241771D01*
X54048Y241647D01*
X54054Y241523D01*
X54064Y241490D01*
X54068Y241454D01*
X54111Y241338D01*
X54148Y241220D01*
X54166Y241189D01*
X54179Y241156D01*
X54250Y241054D01*
X54315Y240949D01*
X54340Y240924D01*
X54360Y240895D01*
X54454Y240814D01*
X54543Y240728D01*
X54586Y240700D01*
X54601Y240687D01*
X54620Y240678D01*
X54678Y240640D01*
X56032Y239872D01*
X60747Y233829D01*
X61897Y229672D01*
X61938Y229573D01*
X61971Y229471D01*
X61999Y229426D01*
X62019Y229378D01*
X62084Y229292D01*
X62141Y229202D01*
X62180Y229166D01*
X62211Y229124D01*
X62295Y229057D01*
X62373Y228984D01*
X62419Y228959D01*
X62460Y228926D01*
X62558Y228882D01*
X62652Y228830D01*
X62702Y228817D01*
X62750Y228796D01*
X62856Y228778D01*
X62960Y228751D01*
X63042Y228746D01*
X63063Y228742D01*
X63080Y228743D01*
X63120Y228741D01*
X75867Y228741D01*
X77951Y226657D01*
X77951Y225387D01*
X77963Y225289D01*
X77966Y225190D01*
X77983Y225132D01*
X77991Y225071D01*
X78027Y224979D01*
X78055Y224884D01*
X78085Y224832D01*
X78108Y224776D01*
X78166Y224696D01*
X78216Y224610D01*
X78282Y224535D01*
X78294Y224518D01*
X78304Y224511D01*
X78322Y224489D01*
X87721Y215091D01*
X87830Y215006D01*
X87937Y214918D01*
X87956Y214909D01*
X87972Y214896D01*
X88100Y214841D01*
X88225Y214782D01*
X88245Y214778D01*
X88264Y214770D01*
X88402Y214748D01*
X88538Y214722D01*
X88558Y214723D01*
X88578Y214720D01*
X88717Y214733D01*
X88855Y214742D01*
X88874Y214748D01*
X88894Y214750D01*
X89026Y214797D01*
X89157Y214840D01*
X89175Y214851D01*
X89194Y214858D01*
X89309Y214936D01*
X89426Y215010D01*
X89440Y215025D01*
X89457Y215036D01*
X89549Y215141D01*
X89644Y215242D01*
X89654Y215259D01*
X89667Y215275D01*
X89731Y215399D01*
X89798Y215520D01*
X89803Y215540D01*
X89812Y215558D01*
X89842Y215694D01*
X89877Y215828D01*
X89879Y215856D01*
X89882Y215868D01*
X89881Y215889D01*
X89887Y215989D01*
X89887Y216918D01*
X92566Y219597D01*
X94914Y219597D01*
X95012Y219609D01*
X95111Y219612D01*
X95169Y219629D01*
X95229Y219637D01*
X95321Y219673D01*
X95417Y219701D01*
X95469Y219731D01*
X95525Y219754D01*
X95605Y219812D01*
X95690Y219862D01*
X95766Y219928D01*
X95782Y219940D01*
X95790Y219950D01*
X95811Y219968D01*
X97446Y221603D01*
X117411Y221603D01*
X117509Y221615D01*
X117608Y221618D01*
X117666Y221635D01*
X117726Y221643D01*
X117818Y221679D01*
X117914Y221707D01*
X117966Y221737D01*
X118022Y221760D01*
X118102Y221818D01*
X118134Y221837D01*
X125701Y221837D01*
X126961Y220577D01*
X126961Y217547D01*
X126874Y217460D01*
X126801Y217365D01*
X126722Y217276D01*
X126703Y217240D01*
X126679Y217208D01*
X126631Y217099D01*
X126577Y216993D01*
X126568Y216954D01*
X126552Y216916D01*
X126534Y216799D01*
X126508Y216683D01*
X126509Y216642D01*
X126502Y216602D01*
X126514Y216484D01*
X126517Y216365D01*
X126528Y216326D01*
X126532Y216286D01*
X126573Y216174D01*
X126606Y216059D01*
X126626Y216024D01*
X126640Y215986D01*
X126707Y215888D01*
X126767Y215785D01*
X126807Y215740D01*
X126818Y215723D01*
X126834Y215710D01*
X126874Y215665D01*
X126961Y215577D01*
X126961Y212547D01*
X126874Y212459D01*
X126801Y212365D01*
X126722Y212276D01*
X126703Y212240D01*
X126679Y212208D01*
X126631Y212099D01*
X126577Y211993D01*
X126568Y211953D01*
X126552Y211916D01*
X126534Y211799D01*
X126508Y211683D01*
X126509Y211642D01*
X126502Y211602D01*
X126514Y211483D01*
X126517Y211365D01*
X126528Y211326D01*
X126532Y211286D01*
X126573Y211173D01*
X126606Y211059D01*
X126626Y211024D01*
X126640Y210986D01*
X126707Y210888D01*
X126767Y210785D01*
X126807Y210740D01*
X126818Y210723D01*
X126834Y210710D01*
X126874Y210664D01*
X126961Y210577D01*
X126961Y207547D01*
X126874Y207459D01*
X126801Y207365D01*
X126722Y207276D01*
X126703Y207240D01*
X126679Y207208D01*
X126631Y207099D01*
X126577Y206993D01*
X126568Y206953D01*
X126552Y206916D01*
X126534Y206799D01*
X126508Y206683D01*
X126509Y206642D01*
X126502Y206602D01*
X126514Y206483D01*
X126517Y206365D01*
X126528Y206326D01*
X126532Y206286D01*
X126573Y206173D01*
X126606Y206059D01*
X126626Y206024D01*
X126640Y205986D01*
X126707Y205888D01*
X126767Y205785D01*
X126807Y205740D01*
X126818Y205723D01*
X126834Y205710D01*
X126874Y205664D01*
X126961Y205577D01*
X126961Y202547D01*
X126874Y202459D01*
X126801Y202365D01*
X126722Y202276D01*
X126703Y202240D01*
X126679Y202208D01*
X126631Y202099D01*
X126577Y201993D01*
X126568Y201953D01*
X126552Y201916D01*
X126534Y201799D01*
X126508Y201683D01*
X126509Y201642D01*
X126502Y201602D01*
X126514Y201483D01*
X126517Y201365D01*
X126528Y201326D01*
X126532Y201286D01*
X126573Y201173D01*
X126606Y201059D01*
X126626Y201024D01*
X126640Y200986D01*
X126707Y200888D01*
X126767Y200785D01*
X126807Y200740D01*
X126818Y200723D01*
X126834Y200710D01*
X126874Y200664D01*
X126961Y200577D01*
X126961Y197547D01*
X126874Y197459D01*
X126801Y197365D01*
X126722Y197276D01*
X126703Y197240D01*
X126679Y197208D01*
X126631Y197099D01*
X126577Y196993D01*
X126568Y196953D01*
X126552Y196916D01*
X126534Y196799D01*
X126508Y196683D01*
X126509Y196642D01*
X126502Y196602D01*
X126514Y196483D01*
X126517Y196365D01*
X126528Y196326D01*
X126532Y196286D01*
X126573Y196173D01*
X126606Y196059D01*
X126626Y196024D01*
X126640Y195986D01*
X126707Y195888D01*
X126767Y195785D01*
X126807Y195740D01*
X126818Y195723D01*
X126834Y195710D01*
X126874Y195664D01*
X126961Y195577D01*
X126961Y192547D01*
X126874Y192459D01*
X126801Y192365D01*
X126722Y192276D01*
X126703Y192240D01*
X126679Y192208D01*
X126631Y192099D01*
X126577Y191993D01*
X126568Y191953D01*
X126552Y191916D01*
X126534Y191799D01*
X126508Y191683D01*
X126509Y191642D01*
X126502Y191602D01*
X126514Y191483D01*
X126517Y191365D01*
X126528Y191326D01*
X126532Y191286D01*
X126573Y191173D01*
X126606Y191059D01*
X126626Y191024D01*
X126640Y190986D01*
X126707Y190888D01*
X126767Y190785D01*
X126807Y190740D01*
X126818Y190723D01*
X126834Y190710D01*
X126874Y190664D01*
X126961Y190577D01*
X126961Y187547D01*
X126874Y187459D01*
X126801Y187365D01*
X126722Y187276D01*
X126703Y187240D01*
X126679Y187208D01*
X126631Y187099D01*
X126577Y186993D01*
X126568Y186953D01*
X126552Y186916D01*
X126534Y186799D01*
X126508Y186683D01*
X126509Y186642D01*
X126502Y186602D01*
X126514Y186483D01*
X126517Y186365D01*
X126528Y186326D01*
X126532Y186286D01*
X126573Y186173D01*
X126606Y186059D01*
X126626Y186024D01*
X126640Y185986D01*
X126707Y185888D01*
X126767Y185785D01*
X126807Y185740D01*
X126818Y185723D01*
X126834Y185710D01*
X126874Y185664D01*
X126961Y185577D01*
X126961Y182547D01*
X126874Y182459D01*
X126801Y182365D01*
X126722Y182276D01*
X126703Y182240D01*
X126679Y182208D01*
X126631Y182099D01*
X126577Y181993D01*
X126568Y181953D01*
X126552Y181916D01*
X126534Y181799D01*
X126508Y181683D01*
X126509Y181642D01*
X126502Y181602D01*
X126514Y181483D01*
X126517Y181365D01*
X126528Y181326D01*
X126532Y181286D01*
X126573Y181173D01*
X126606Y181059D01*
X126626Y181024D01*
X126640Y180986D01*
X126707Y180888D01*
X126767Y180785D01*
X126807Y180740D01*
X126818Y180723D01*
X126834Y180710D01*
X126874Y180664D01*
X126961Y180577D01*
X126961Y177547D01*
X126874Y177459D01*
X126801Y177365D01*
X126722Y177276D01*
X126703Y177240D01*
X126679Y177208D01*
X126631Y177099D01*
X126577Y176993D01*
X126568Y176953D01*
X126552Y176916D01*
X126534Y176799D01*
X126508Y176683D01*
X126509Y176642D01*
X126502Y176602D01*
X126514Y176483D01*
X126517Y176365D01*
X126528Y176326D01*
X126532Y176286D01*
X126573Y176173D01*
X126606Y176059D01*
X126626Y176024D01*
X126640Y175986D01*
X126707Y175888D01*
X126767Y175785D01*
X126807Y175740D01*
X126818Y175723D01*
X126834Y175710D01*
X126874Y175664D01*
X126961Y175577D01*
X126961Y173356D01*
X126976Y173238D01*
X126983Y173119D01*
X126995Y173081D01*
X127001Y173040D01*
X127044Y172930D01*
X127081Y172816D01*
X127103Y172782D01*
X127118Y172745D01*
X127187Y172648D01*
X127251Y172548D01*
X127281Y172520D01*
X127304Y172487D01*
X127396Y172411D01*
X127483Y172330D01*
X127518Y172310D01*
X127549Y172285D01*
X127657Y172234D01*
X127761Y172176D01*
X127801Y172166D01*
X127837Y172149D01*
X127954Y172127D01*
X128069Y172097D01*
X128129Y172093D01*
X128149Y172089D01*
X128170Y172090D01*
X128230Y172087D01*
X130451Y172087D01*
X131711Y170827D01*
X131711Y168765D01*
X131723Y168667D01*
X131726Y168567D01*
X131731Y168552D01*
X131731Y165557D01*
X131721Y165519D01*
X131715Y165420D01*
X131711Y165400D01*
X131712Y165387D01*
X131711Y165359D01*
X131711Y163296D01*
X130451Y162037D01*
X127421Y162037D01*
X126155Y163303D01*
X126146Y163370D01*
X126139Y163489D01*
X126127Y163527D01*
X126121Y163567D01*
X126078Y163678D01*
X126041Y163791D01*
X126019Y163826D01*
X126004Y163863D01*
X125935Y163959D01*
X125871Y164060D01*
X125841Y164088D01*
X125818Y164121D01*
X125726Y164196D01*
X125639Y164278D01*
X125604Y164298D01*
X125573Y164323D01*
X125465Y164374D01*
X125361Y164432D01*
X125321Y164442D01*
X125285Y164459D01*
X125168Y164481D01*
X125053Y164511D01*
X124993Y164515D01*
X124973Y164519D01*
X124952Y164517D01*
X124892Y164521D01*
X124022Y164521D01*
X123924Y164509D01*
X123825Y164506D01*
X123767Y164489D01*
X123707Y164481D01*
X123614Y164445D01*
X123519Y164417D01*
X123467Y164387D01*
X123411Y164364D01*
X123331Y164306D01*
X123245Y164256D01*
X123170Y164189D01*
X123154Y164177D01*
X123146Y164168D01*
X123125Y164149D01*
X121674Y162699D01*
X112535Y162699D01*
X112437Y162687D01*
X112338Y162684D01*
X112280Y162667D01*
X112220Y162659D01*
X112128Y162623D01*
X112033Y162595D01*
X111980Y162565D01*
X111924Y162542D01*
X111844Y162484D01*
X111759Y162434D01*
X111683Y162368D01*
X111667Y162356D01*
X111659Y162346D01*
X111638Y162328D01*
X111121Y161810D01*
X108279Y161810D01*
X100698Y169392D01*
X100620Y169452D01*
X100548Y169520D01*
X100495Y169549D01*
X100447Y169586D01*
X100356Y169626D01*
X100269Y169674D01*
X100211Y169689D01*
X100155Y169713D01*
X100057Y169728D01*
X99961Y169753D01*
X99861Y169759D01*
X99841Y169763D01*
X99829Y169761D01*
X99801Y169763D01*
X91931Y169763D01*
X91833Y169751D01*
X91734Y169748D01*
X91676Y169731D01*
X91616Y169723D01*
X91524Y169687D01*
X91429Y169659D01*
X91377Y169629D01*
X91320Y169606D01*
X91240Y169548D01*
X91155Y169498D01*
X91079Y169432D01*
X91063Y169420D01*
X91055Y169410D01*
X91034Y169392D01*
X85307Y163665D01*
X84162Y162520D01*
X84102Y162442D01*
X84034Y162370D01*
X84005Y162317D01*
X83968Y162269D01*
X83928Y162178D01*
X83880Y162091D01*
X83865Y162033D01*
X83841Y161977D01*
X83826Y161879D01*
X83801Y161783D01*
X83795Y161683D01*
X83791Y161663D01*
X83793Y161651D01*
X83791Y161623D01*
X83791Y153810D01*
X83806Y153692D01*
X83813Y153573D01*
X83826Y153535D01*
X83831Y153494D01*
X83874Y153384D01*
X83911Y153271D01*
X83933Y153236D01*
X83948Y153199D01*
X84017Y153103D01*
X84081Y153002D01*
X84111Y152974D01*
X84134Y152941D01*
X84226Y152865D01*
X84313Y152784D01*
X84348Y152764D01*
X84379Y152739D01*
X84487Y152688D01*
X84591Y152630D01*
X84631Y152620D01*
X84667Y152603D01*
X84784Y152581D01*
X84899Y152551D01*
X84959Y152547D01*
X84979Y152543D01*
X85000Y152545D01*
X85060Y152541D01*
X135126Y152541D01*
X135244Y152556D01*
G37*
G36*
X259778Y-483D02*
X259778Y-483D01*
X259856Y-474D01*
X259874Y-464D01*
X259895Y-460D01*
X259960Y-415D01*
X260029Y-375D01*
X260044Y-357D01*
X260059Y-347D01*
X260083Y-309D01*
X260134Y-246D01*
X270634Y18254D01*
X270644Y18283D01*
X270650Y18293D01*
X270651Y18296D01*
X270665Y18319D01*
X270676Y18382D01*
X270696Y18443D01*
X270693Y18479D01*
X270699Y18515D01*
X270684Y18577D01*
X270679Y18641D01*
X270662Y18673D01*
X270654Y18708D01*
X270616Y18760D01*
X270586Y18817D01*
X270558Y18839D01*
X270537Y18869D01*
X270467Y18914D01*
X270432Y18942D01*
X270415Y18947D01*
X270397Y18959D01*
X269978Y19138D01*
X291865Y57050D01*
X291911Y57159D01*
X291964Y57264D01*
X291972Y57305D01*
X291989Y57343D01*
X292006Y57460D01*
X292031Y57574D01*
X292029Y57616D01*
X292035Y57658D01*
X292023Y57775D01*
X292018Y57892D01*
X292006Y57932D01*
X292002Y57974D01*
X291961Y58084D01*
X291928Y58197D01*
X291906Y58233D01*
X291891Y58272D01*
X291824Y58369D01*
X291764Y58470D01*
X291734Y58499D01*
X291710Y58534D01*
X291621Y58610D01*
X291537Y58693D01*
X291485Y58728D01*
X291469Y58742D01*
X291451Y58750D01*
X291404Y58782D01*
X289752Y59741D01*
X288103Y61901D01*
X288083Y61922D01*
X288068Y61946D01*
X288061Y61952D01*
X288037Y61988D01*
X287082Y63238D01*
X287079Y63241D01*
X287077Y63245D01*
X286993Y63341D01*
X286915Y63458D01*
X284936Y66049D01*
X283814Y70280D01*
X283779Y70367D01*
X283753Y70457D01*
X283719Y70514D01*
X283695Y70575D01*
X283675Y70601D01*
X283675Y70637D01*
X283665Y70721D01*
X283664Y70805D01*
X283637Y70944D01*
X283635Y70953D01*
X283634Y70956D01*
X283633Y70963D01*
X283453Y71641D01*
X283450Y71647D01*
X283408Y71778D01*
X283381Y71913D01*
X282882Y73791D01*
X282840Y73897D01*
X282804Y74005D01*
X282780Y74044D01*
X282763Y74086D01*
X282695Y74178D01*
X282634Y74274D01*
X282601Y74305D01*
X282574Y74342D01*
X282486Y74414D01*
X282403Y74492D01*
X282363Y74514D01*
X282327Y74543D01*
X282224Y74591D01*
X282124Y74646D01*
X282080Y74657D01*
X282039Y74676D01*
X281926Y74697D01*
X281816Y74725D01*
X281747Y74729D01*
X281726Y74733D01*
X281707Y74732D01*
X281656Y74735D01*
X281070Y74735D01*
X273529Y82276D01*
X273529Y83906D01*
X273517Y84004D01*
X273514Y84103D01*
X273497Y84161D01*
X273489Y84221D01*
X273453Y84313D01*
X273425Y84409D01*
X273395Y84461D01*
X273372Y84517D01*
X273314Y84597D01*
X273264Y84682D01*
X273198Y84758D01*
X273186Y84774D01*
X273176Y84782D01*
X273158Y84803D01*
X263451Y94510D01*
X263373Y94570D01*
X263301Y94638D01*
X263248Y94667D01*
X263200Y94704D01*
X263109Y94744D01*
X263022Y94792D01*
X262964Y94807D01*
X262908Y94831D01*
X262810Y94846D01*
X262715Y94871D01*
X262614Y94877D01*
X262594Y94881D01*
X262582Y94879D01*
X262554Y94881D01*
X253518Y94881D01*
X253381Y94864D01*
X253242Y94851D01*
X253223Y94844D01*
X253203Y94841D01*
X253074Y94790D01*
X252942Y94743D01*
X252926Y94732D01*
X252907Y94724D01*
X252794Y94643D01*
X252679Y94565D01*
X252666Y94549D01*
X252650Y94538D01*
X252561Y94430D01*
X252469Y94326D01*
X252460Y94308D01*
X252447Y94293D01*
X252387Y94167D01*
X252324Y94043D01*
X252320Y94023D01*
X252311Y94005D01*
X252285Y93868D01*
X252255Y93733D01*
X252255Y93712D01*
X252251Y93693D01*
X252260Y93554D01*
X252264Y93415D01*
X252270Y93395D01*
X252271Y93375D01*
X252314Y93243D01*
X252353Y93109D01*
X252363Y93092D01*
X252369Y93073D01*
X252444Y92955D01*
X252514Y92835D01*
X252533Y92814D01*
X252539Y92804D01*
X252554Y92790D01*
X252621Y92715D01*
X253973Y91362D01*
X253973Y86126D01*
X253990Y85988D01*
X254003Y85849D01*
X254010Y85830D01*
X254013Y85810D01*
X254064Y85681D01*
X254111Y85550D01*
X254122Y85533D01*
X254130Y85515D01*
X254211Y85402D01*
X254289Y85287D01*
X254305Y85274D01*
X254316Y85257D01*
X254424Y85168D01*
X254528Y85077D01*
X254546Y85067D01*
X254561Y85054D01*
X254687Y84995D01*
X254811Y84932D01*
X254831Y84927D01*
X254849Y84919D01*
X254985Y84893D01*
X255121Y84862D01*
X255142Y84863D01*
X255161Y84859D01*
X255300Y84868D01*
X255439Y84872D01*
X255459Y84878D01*
X255479Y84879D01*
X255611Y84922D01*
X255745Y84960D01*
X255762Y84971D01*
X255781Y84977D01*
X255899Y85051D01*
X256019Y85122D01*
X256040Y85140D01*
X256050Y85147D01*
X256064Y85162D01*
X256139Y85228D01*
X258936Y88025D01*
X262724Y88025D01*
X265403Y85346D01*
X265403Y81558D01*
X263488Y79644D01*
X263428Y79565D01*
X263360Y79493D01*
X263331Y79440D01*
X263294Y79392D01*
X263254Y79301D01*
X263206Y79215D01*
X263191Y79156D01*
X263167Y79101D01*
X263152Y79003D01*
X263127Y78907D01*
X263121Y78807D01*
X263117Y78786D01*
X263119Y78774D01*
X263117Y78746D01*
X263117Y48977D01*
X247435Y33295D01*
X247350Y33186D01*
X247262Y33079D01*
X247253Y33060D01*
X247240Y33044D01*
X247185Y32916D01*
X247126Y32791D01*
X247122Y32771D01*
X247114Y32752D01*
X247092Y32614D01*
X247066Y32478D01*
X247067Y32458D01*
X247064Y32438D01*
X247077Y32299D01*
X247086Y32161D01*
X247092Y32142D01*
X247094Y32122D01*
X247141Y31990D01*
X247184Y31859D01*
X247195Y31841D01*
X247202Y31822D01*
X247280Y31707D01*
X247354Y31590D01*
X247369Y31576D01*
X247380Y31559D01*
X247484Y31467D01*
X247586Y31372D01*
X247604Y31362D01*
X247619Y31349D01*
X247743Y31285D01*
X247864Y31218D01*
X247884Y31213D01*
X247902Y31204D01*
X248038Y31174D01*
X248172Y31139D01*
X248200Y31137D01*
X248212Y31134D01*
X248233Y31135D01*
X248333Y31129D01*
X249649Y31129D01*
X251516Y30355D01*
X252945Y28926D01*
X253719Y27059D01*
X253719Y25037D01*
X252945Y23170D01*
X251516Y21741D01*
X249649Y20967D01*
X247627Y20967D01*
X245760Y21741D01*
X244331Y23170D01*
X243557Y25037D01*
X243557Y27059D01*
X243779Y27594D01*
X243792Y27642D01*
X243813Y27687D01*
X243834Y27795D01*
X243863Y27901D01*
X243864Y27951D01*
X243873Y28000D01*
X243866Y28109D01*
X243868Y28219D01*
X243857Y28267D01*
X243853Y28317D01*
X243820Y28421D01*
X243794Y28528D01*
X243771Y28572D01*
X243755Y28619D01*
X243697Y28712D01*
X243645Y28809D01*
X243612Y28846D01*
X243585Y28888D01*
X243505Y28963D01*
X243431Y29045D01*
X243390Y29072D01*
X243354Y29106D01*
X243257Y29159D01*
X243166Y29219D01*
X243119Y29236D01*
X243075Y29260D01*
X242969Y29287D01*
X242865Y29323D01*
X242815Y29327D01*
X242767Y29339D01*
X242607Y29349D01*
X225473Y29349D01*
X225375Y29337D01*
X225276Y29334D01*
X225218Y29317D01*
X225157Y29309D01*
X225065Y29273D01*
X224970Y29245D01*
X224918Y29215D01*
X224862Y29192D01*
X224782Y29134D01*
X224696Y29084D01*
X224621Y29018D01*
X224604Y29006D01*
X224597Y28996D01*
X224575Y28978D01*
X219292Y23695D01*
X219232Y23616D01*
X219164Y23544D01*
X219135Y23491D01*
X219098Y23443D01*
X219058Y23352D01*
X219010Y23266D01*
X218995Y23207D01*
X218971Y23151D01*
X218956Y23053D01*
X218937Y22979D01*
X217768Y21811D01*
X217708Y21733D01*
X217640Y21661D01*
X217611Y21608D01*
X217574Y21560D01*
X217534Y21469D01*
X217486Y21382D01*
X217471Y21324D01*
X217447Y21268D01*
X217432Y21170D01*
X217407Y21075D01*
X217401Y20974D01*
X217397Y20954D01*
X217399Y20942D01*
X217397Y20914D01*
X217397Y18566D01*
X214718Y15887D01*
X210930Y15887D01*
X208251Y18566D01*
X208251Y22354D01*
X210930Y25033D01*
X213278Y25033D01*
X213376Y25045D01*
X213475Y25048D01*
X213533Y25065D01*
X213593Y25073D01*
X213685Y25109D01*
X213781Y25137D01*
X213833Y25167D01*
X213889Y25190D01*
X213969Y25248D01*
X214054Y25298D01*
X214130Y25364D01*
X214146Y25376D01*
X214154Y25386D01*
X214175Y25404D01*
X215343Y26572D01*
X215358Y26572D01*
X215416Y26589D01*
X215477Y26597D01*
X215569Y26633D01*
X215664Y26661D01*
X215716Y26691D01*
X215772Y26714D01*
X215852Y26772D01*
X215938Y26822D01*
X216013Y26888D01*
X216030Y26900D01*
X216037Y26910D01*
X216059Y26928D01*
X221342Y32211D01*
X221342Y32212D01*
X221647Y32516D01*
X221732Y32626D01*
X221820Y32733D01*
X221829Y32752D01*
X221842Y32768D01*
X221897Y32896D01*
X221956Y33021D01*
X221960Y33041D01*
X221968Y33060D01*
X221990Y33197D01*
X222016Y33334D01*
X222015Y33354D01*
X222018Y33374D01*
X222005Y33512D01*
X221996Y33651D01*
X221990Y33670D01*
X221988Y33690D01*
X221941Y33821D01*
X221898Y33953D01*
X221887Y33971D01*
X221880Y33990D01*
X221802Y34105D01*
X221728Y34222D01*
X221713Y34236D01*
X221702Y34253D01*
X221598Y34345D01*
X221496Y34440D01*
X221479Y34450D01*
X221463Y34463D01*
X221340Y34526D01*
X221218Y34594D01*
X221198Y34599D01*
X221180Y34608D01*
X221044Y34638D01*
X220910Y34673D01*
X220882Y34675D01*
X220870Y34678D01*
X220849Y34677D01*
X220749Y34683D01*
X218869Y34683D01*
X218771Y34671D01*
X218672Y34668D01*
X218614Y34651D01*
X218553Y34643D01*
X218461Y34607D01*
X218366Y34579D01*
X218314Y34549D01*
X218258Y34526D01*
X218178Y34468D01*
X218092Y34418D01*
X218017Y34352D01*
X218000Y34340D01*
X217993Y34330D01*
X217971Y34312D01*
X215295Y31635D01*
X204645Y31635D01*
X204547Y31623D01*
X204448Y31620D01*
X204390Y31603D01*
X204329Y31595D01*
X204237Y31559D01*
X204142Y31531D01*
X204090Y31501D01*
X204034Y31478D01*
X203954Y31420D01*
X203868Y31370D01*
X203793Y31304D01*
X203776Y31292D01*
X203769Y31282D01*
X203747Y31264D01*
X202595Y30111D01*
X194231Y30111D01*
X194133Y30099D01*
X194034Y30096D01*
X193976Y30079D01*
X193915Y30071D01*
X193823Y30035D01*
X193728Y30007D01*
X193676Y29977D01*
X193620Y29954D01*
X193540Y29896D01*
X193454Y29846D01*
X193379Y29780D01*
X193362Y29768D01*
X193355Y29758D01*
X193333Y29740D01*
X192623Y29029D01*
X192562Y28950D01*
X192494Y28878D01*
X192465Y28825D01*
X192428Y28777D01*
X192388Y28686D01*
X192340Y28600D01*
X192325Y28541D01*
X192301Y28485D01*
X192286Y28387D01*
X192267Y28313D01*
X191830Y27876D01*
X191811Y27853D01*
X191789Y27834D01*
X191714Y27728D01*
X191635Y27625D01*
X191623Y27598D01*
X191606Y27574D01*
X191560Y27452D01*
X191508Y27333D01*
X191504Y27304D01*
X191493Y27276D01*
X191479Y27147D01*
X191458Y27019D01*
X191461Y26990D01*
X191458Y26960D01*
X191476Y26832D01*
X191488Y26703D01*
X191489Y26701D01*
X191489Y24428D01*
X190638Y22374D01*
X189066Y20802D01*
X187012Y19951D01*
X185048Y19951D01*
X184979Y19943D01*
X184909Y19944D01*
X184822Y19923D01*
X184732Y19911D01*
X184668Y19886D01*
X184600Y19869D01*
X184520Y19827D01*
X184437Y19794D01*
X184380Y19753D01*
X184319Y19721D01*
X184252Y19660D01*
X184179Y19608D01*
X184135Y19554D01*
X184083Y19507D01*
X184034Y19432D01*
X183977Y19363D01*
X183947Y19299D01*
X183909Y19241D01*
X183879Y19156D01*
X183841Y19075D01*
X183828Y19006D01*
X183805Y18940D01*
X183798Y18851D01*
X183781Y18763D01*
X183786Y18693D01*
X183780Y18623D01*
X183795Y18535D01*
X183801Y18445D01*
X183823Y18379D01*
X183834Y18310D01*
X183871Y18228D01*
X183899Y18143D01*
X183936Y18084D01*
X183965Y18020D01*
X184021Y17950D01*
X184069Y17874D01*
X184120Y17826D01*
X184164Y17772D01*
X184235Y17717D01*
X184301Y17656D01*
X184362Y17622D01*
X184418Y17580D01*
X184562Y17509D01*
X184826Y17400D01*
X186854Y15372D01*
X186893Y15342D01*
X186926Y15306D01*
X187018Y15245D01*
X187105Y15178D01*
X187151Y15158D01*
X187192Y15131D01*
X187195Y15130D01*
X187653Y14594D01*
X187667Y14581D01*
X187678Y14565D01*
X187794Y14453D01*
X188343Y13984D01*
X188360Y13954D01*
X188409Y13855D01*
X188441Y13817D01*
X188466Y13775D01*
X188572Y13654D01*
X190600Y11626D01*
X191645Y9102D01*
X191655Y9086D01*
X191661Y9067D01*
X191736Y8925D01*
X191903Y8652D01*
X191911Y8599D01*
X191934Y8432D01*
X191935Y8431D01*
X191935Y8430D01*
X191935Y8429D01*
X191986Y8279D01*
X192338Y7430D01*
X192421Y7285D01*
X192495Y7154D01*
X192496Y7154D01*
X192496Y7153D01*
X192544Y7104D01*
X192618Y6796D01*
X192624Y6778D01*
X192627Y6759D01*
X192679Y6607D01*
X193725Y4083D01*
X193725Y2024D01*
X193740Y1906D01*
X193747Y1787D01*
X193760Y1749D01*
X193765Y1708D01*
X193808Y1598D01*
X193845Y1485D01*
X193867Y1450D01*
X193882Y1413D01*
X193951Y1317D01*
X194015Y1216D01*
X194045Y1188D01*
X194068Y1155D01*
X194160Y1079D01*
X194247Y998D01*
X194282Y978D01*
X194313Y953D01*
X194421Y902D01*
X194525Y844D01*
X194565Y834D01*
X194601Y817D01*
X194718Y795D01*
X194833Y765D01*
X194893Y761D01*
X194913Y757D01*
X194934Y759D01*
X194994Y755D01*
X238282Y755D01*
X238204Y55D01*
X238207Y19D01*
X238201Y-17D01*
X238216Y-79D01*
X238222Y-143D01*
X238239Y-175D01*
X238247Y-210D01*
X238285Y-262D01*
X238315Y-318D01*
X238344Y-341D01*
X238365Y-370D01*
X238420Y-403D01*
X238470Y-443D01*
X238505Y-453D01*
X238536Y-472D01*
X238618Y-485D01*
X238661Y-498D01*
X238679Y-496D01*
X238700Y-499D01*
X259700Y-499D01*
X259778Y-483D01*
G37*
G36*
X282594Y95144D02*
X282594Y95144D01*
X282649Y95141D01*
X282751Y95163D01*
X282856Y95177D01*
X282906Y95197D01*
X282960Y95208D01*
X283108Y95271D01*
X283128Y95285D01*
X283151Y95294D01*
X283260Y95373D01*
X283372Y95448D01*
X283389Y95466D01*
X283409Y95480D01*
X283495Y95584D01*
X283584Y95684D01*
X283596Y95706D01*
X283612Y95725D01*
X283669Y95847D01*
X283731Y95967D01*
X283737Y95991D01*
X283747Y96013D01*
X283772Y96145D01*
X283803Y96276D01*
X283802Y96301D01*
X283807Y96326D01*
X283799Y96460D01*
X283795Y96594D01*
X283789Y96618D01*
X283787Y96643D01*
X283746Y96771D01*
X283709Y96900D01*
X283697Y96922D01*
X283689Y96945D01*
X283617Y97059D01*
X283550Y97176D01*
X283532Y97193D01*
X283519Y97214D01*
X283421Y97306D01*
X283327Y97402D01*
X283305Y97415D01*
X283287Y97432D01*
X283169Y97497D01*
X283054Y97567D01*
X283031Y97574D01*
X283009Y97586D01*
X282878Y97619D01*
X282750Y97658D01*
X282725Y97659D01*
X282701Y97665D01*
X282540Y97675D01*
X281796Y97675D01*
X279117Y100354D01*
X279117Y104142D01*
X281796Y106821D01*
X281989Y106821D01*
X282087Y106833D01*
X282186Y106836D01*
X282244Y106853D01*
X282304Y106861D01*
X282396Y106897D01*
X282491Y106925D01*
X282543Y106955D01*
X282600Y106978D01*
X282680Y107036D01*
X282765Y107086D01*
X282841Y107152D01*
X282857Y107164D01*
X282865Y107174D01*
X282886Y107192D01*
X286486Y110792D01*
X286546Y110870D01*
X286614Y110942D01*
X286643Y110995D01*
X286680Y111043D01*
X286720Y111134D01*
X286768Y111221D01*
X286783Y111279D01*
X286807Y111335D01*
X286822Y111433D01*
X286847Y111529D01*
X286853Y111629D01*
X286857Y111649D01*
X286855Y111661D01*
X286857Y111689D01*
X286857Y114358D01*
X287750Y115251D01*
X304049Y115251D01*
X304091Y115216D01*
X304110Y115207D01*
X304126Y115195D01*
X304253Y115140D01*
X304379Y115080D01*
X304399Y115077D01*
X304418Y115069D01*
X304555Y115047D01*
X304692Y115021D01*
X304712Y115022D01*
X304732Y115019D01*
X304870Y115032D01*
X305009Y115040D01*
X305028Y115047D01*
X305048Y115048D01*
X305179Y115096D01*
X305311Y115138D01*
X305329Y115149D01*
X305348Y115156D01*
X305462Y115234D01*
X305580Y115309D01*
X305594Y115323D01*
X305611Y115335D01*
X305702Y115439D01*
X305798Y115540D01*
X305808Y115558D01*
X305821Y115573D01*
X305884Y115697D01*
X305952Y115819D01*
X305957Y115838D01*
X305966Y115856D01*
X305996Y115992D01*
X306031Y116127D01*
X306033Y116155D01*
X306036Y116167D01*
X306035Y116187D01*
X306041Y116287D01*
X306041Y117165D01*
X306024Y117302D01*
X306011Y117441D01*
X306004Y117460D01*
X306001Y117480D01*
X305950Y117609D01*
X305903Y117740D01*
X305892Y117757D01*
X305884Y117776D01*
X305803Y117888D01*
X305725Y118004D01*
X305709Y118017D01*
X305698Y118033D01*
X305590Y118122D01*
X305486Y118214D01*
X305468Y118223D01*
X305453Y118236D01*
X305327Y118295D01*
X305203Y118359D01*
X305183Y118363D01*
X305165Y118372D01*
X305028Y118398D01*
X304893Y118428D01*
X304872Y118428D01*
X304853Y118431D01*
X304714Y118423D01*
X304575Y118419D01*
X304555Y118413D01*
X304535Y118412D01*
X304403Y118369D01*
X304269Y118330D01*
X304252Y118320D01*
X304233Y118314D01*
X304115Y118239D01*
X304051Y118201D01*
X287750Y118201D01*
X286857Y119094D01*
X286857Y128079D01*
X286845Y128177D01*
X286842Y128276D01*
X286825Y128334D01*
X286817Y128394D01*
X286781Y128486D01*
X286753Y128581D01*
X286723Y128633D01*
X286700Y128690D01*
X286642Y128770D01*
X286592Y128855D01*
X286526Y128931D01*
X286514Y128947D01*
X286504Y128955D01*
X286486Y128976D01*
X286254Y129207D01*
X286254Y138436D01*
X286239Y138554D01*
X286232Y138673D01*
X286219Y138711D01*
X286214Y138752D01*
X286171Y138862D01*
X286134Y138975D01*
X286112Y139010D01*
X286097Y139047D01*
X286028Y139143D01*
X285964Y139244D01*
X285934Y139272D01*
X285911Y139305D01*
X285819Y139381D01*
X285732Y139462D01*
X285697Y139482D01*
X285666Y139507D01*
X285558Y139558D01*
X285454Y139616D01*
X285414Y139626D01*
X285378Y139643D01*
X285261Y139665D01*
X285146Y139695D01*
X285086Y139699D01*
X285066Y139703D01*
X285045Y139701D01*
X284985Y139705D01*
X283822Y139705D01*
X282929Y140598D01*
X282929Y148783D01*
X282912Y148921D01*
X282899Y149059D01*
X282892Y149078D01*
X282889Y149099D01*
X282838Y149228D01*
X282791Y149359D01*
X282780Y149376D01*
X282772Y149394D01*
X282691Y149507D01*
X282613Y149622D01*
X282597Y149635D01*
X282586Y149652D01*
X282478Y149740D01*
X282374Y149832D01*
X282356Y149842D01*
X282341Y149854D01*
X282215Y149914D01*
X282091Y149977D01*
X282071Y149981D01*
X282053Y149990D01*
X281916Y150016D01*
X281781Y150047D01*
X281760Y150046D01*
X281741Y150050D01*
X281602Y150041D01*
X281463Y150037D01*
X281443Y150031D01*
X281423Y150030D01*
X281291Y149987D01*
X281157Y149949D01*
X281140Y149938D01*
X281121Y149932D01*
X281003Y149858D01*
X280883Y149787D01*
X280862Y149768D01*
X280852Y149762D01*
X280838Y149747D01*
X280763Y149681D01*
X279694Y148612D01*
X279693Y148612D01*
X277779Y146697D01*
X261138Y146697D01*
X261040Y146685D01*
X260941Y146682D01*
X260883Y146665D01*
X260823Y146657D01*
X260731Y146621D01*
X260635Y146593D01*
X260583Y146563D01*
X260527Y146540D01*
X260447Y146482D01*
X260381Y146443D01*
X247422Y146443D01*
X247324Y146431D01*
X247225Y146428D01*
X247167Y146411D01*
X247107Y146403D01*
X247015Y146367D01*
X246919Y146339D01*
X246867Y146309D01*
X246811Y146286D01*
X246731Y146228D01*
X246646Y146178D01*
X246570Y146112D01*
X246554Y146100D01*
X246546Y146090D01*
X246525Y146072D01*
X242578Y142125D01*
X226250Y142125D01*
X217731Y150644D01*
X217653Y150704D01*
X217581Y150772D01*
X217528Y150801D01*
X217480Y150838D01*
X217389Y150878D01*
X217302Y150926D01*
X217244Y150941D01*
X217188Y150965D01*
X217090Y150980D01*
X216995Y151005D01*
X216894Y151011D01*
X216874Y151015D01*
X216862Y151013D01*
X216834Y151015D01*
X205676Y151015D01*
X196567Y160124D01*
X196567Y170089D01*
X196550Y170227D01*
X196537Y170365D01*
X196530Y170384D01*
X196527Y170404D01*
X196476Y170533D01*
X196429Y170665D01*
X196418Y170681D01*
X196410Y170700D01*
X196329Y170812D01*
X196250Y170928D01*
X196235Y170941D01*
X196224Y170957D01*
X196116Y171046D01*
X196012Y171138D01*
X195994Y171147D01*
X195979Y171160D01*
X195853Y171219D01*
X195729Y171283D01*
X195709Y171287D01*
X195691Y171296D01*
X195555Y171322D01*
X195418Y171352D01*
X195398Y171352D01*
X195379Y171356D01*
X195240Y171347D01*
X195101Y171343D01*
X195081Y171337D01*
X195061Y171336D01*
X194929Y171293D01*
X194851Y171271D01*
X194763Y171265D01*
X194725Y171253D01*
X194685Y171247D01*
X194574Y171204D01*
X194461Y171167D01*
X194426Y171145D01*
X194389Y171130D01*
X194293Y171061D01*
X194192Y170997D01*
X194164Y170967D01*
X194131Y170944D01*
X194056Y170852D01*
X193974Y170765D01*
X193954Y170730D01*
X193929Y170699D01*
X193878Y170591D01*
X193820Y170487D01*
X193810Y170447D01*
X193793Y170411D01*
X193771Y170294D01*
X193741Y170179D01*
X193737Y170119D01*
X193733Y170099D01*
X193735Y170078D01*
X193731Y170018D01*
X193731Y160803D01*
X193720Y160792D01*
X193691Y160739D01*
X193654Y160691D01*
X193614Y160600D01*
X193566Y160513D01*
X193551Y160455D01*
X193527Y160399D01*
X193512Y160301D01*
X193487Y160205D01*
X193481Y160105D01*
X193477Y160085D01*
X193479Y160073D01*
X193477Y160045D01*
X193477Y140700D01*
X193489Y140602D01*
X193492Y140503D01*
X193509Y140445D01*
X193517Y140385D01*
X193553Y140292D01*
X193581Y140197D01*
X193611Y140145D01*
X193634Y140089D01*
X193692Y140009D01*
X193742Y139923D01*
X193809Y139848D01*
X193821Y139832D01*
X193830Y139824D01*
X193849Y139803D01*
X202075Y131576D01*
X202153Y131516D01*
X202225Y131448D01*
X202278Y131419D01*
X202326Y131382D01*
X202417Y131342D01*
X202504Y131294D01*
X202562Y131279D01*
X202618Y131255D01*
X202716Y131240D01*
X202811Y131215D01*
X202912Y131209D01*
X202932Y131205D01*
X202944Y131207D01*
X202972Y131205D01*
X212352Y131205D01*
X226205Y117352D01*
X226283Y117292D01*
X226355Y117224D01*
X226408Y117195D01*
X226456Y117158D01*
X226547Y117118D01*
X226634Y117070D01*
X226692Y117055D01*
X226748Y117031D01*
X226846Y117016D01*
X226941Y116991D01*
X227042Y116985D01*
X227062Y116981D01*
X227074Y116983D01*
X227102Y116981D01*
X234345Y116981D01*
X242355Y108970D01*
X242434Y108910D01*
X242506Y108842D01*
X242559Y108813D01*
X242607Y108776D01*
X242698Y108736D01*
X242784Y108688D01*
X242843Y108673D01*
X242899Y108649D01*
X242997Y108634D01*
X243092Y108609D01*
X243192Y108603D01*
X243213Y108599D01*
X243225Y108601D01*
X243253Y108599D01*
X249585Y108599D01*
X253277Y104906D01*
X253356Y104846D01*
X253428Y104778D01*
X253481Y104749D01*
X253529Y104712D01*
X253620Y104672D01*
X253706Y104624D01*
X253765Y104609D01*
X253821Y104585D01*
X253919Y104570D01*
X254014Y104545D01*
X254114Y104539D01*
X254135Y104535D01*
X254147Y104537D01*
X254175Y104535D01*
X268994Y104535D01*
X278021Y95508D01*
X278099Y95448D01*
X278171Y95380D01*
X278224Y95351D01*
X278272Y95314D01*
X278363Y95274D01*
X278450Y95226D01*
X278508Y95211D01*
X278564Y95187D01*
X278662Y95172D01*
X278757Y95147D01*
X278858Y95141D01*
X278878Y95137D01*
X278890Y95139D01*
X278918Y95137D01*
X282540Y95137D01*
X282594Y95144D01*
G37*
G36*
X292967Y92527D02*
X292967Y92527D01*
X293071Y92533D01*
X293123Y92550D01*
X293177Y92558D01*
X293274Y92599D01*
X293373Y92631D01*
X293420Y92660D01*
X293470Y92682D01*
X293604Y92771D01*
X294249Y93264D01*
X301920Y95299D01*
X309785Y94243D01*
X311346Y93337D01*
X311457Y93290D01*
X311565Y93236D01*
X311603Y93228D01*
X311639Y93213D01*
X311758Y93195D01*
X311876Y93170D01*
X311915Y93172D01*
X311953Y93166D01*
X312073Y93178D01*
X312194Y93183D01*
X312231Y93194D01*
X312270Y93198D01*
X312383Y93240D01*
X312498Y93275D01*
X312532Y93295D01*
X312568Y93308D01*
X312667Y93377D01*
X312771Y93439D01*
X312798Y93467D01*
X312830Y93489D01*
X312909Y93580D01*
X312993Y93666D01*
X313025Y93714D01*
X313038Y93729D01*
X313048Y93748D01*
X313083Y93800D01*
X335760Y133081D01*
X336400Y132601D01*
X336438Y132583D01*
X336471Y132556D01*
X336527Y132540D01*
X336580Y132515D01*
X336622Y132514D01*
X336662Y132502D01*
X336720Y132509D01*
X336779Y132507D01*
X336818Y132522D01*
X336860Y132527D01*
X336910Y132556D01*
X336965Y132577D01*
X336995Y132606D01*
X337032Y132627D01*
X337077Y132683D01*
X337109Y132714D01*
X337118Y132734D01*
X337136Y132756D01*
X346636Y149756D01*
X346645Y149784D01*
X346652Y149795D01*
X346656Y149818D01*
X346657Y149824D01*
X346687Y149888D01*
X346687Y149918D01*
X346696Y149946D01*
X346690Y150016D01*
X346692Y150087D01*
X346680Y150118D01*
X346678Y150144D01*
X346658Y150181D01*
X346636Y150244D01*
X337136Y167244D01*
X337118Y167265D01*
X337106Y167291D01*
X337053Y167340D01*
X337006Y167394D01*
X336981Y167407D01*
X336960Y167426D01*
X336893Y167451D01*
X336828Y167483D01*
X336800Y167484D01*
X336774Y167494D01*
X336701Y167490D01*
X336630Y167494D01*
X336603Y167485D01*
X336575Y167483D01*
X336481Y167442D01*
X336442Y167428D01*
X336435Y167421D01*
X336423Y167415D01*
X335738Y166959D01*
X315269Y202412D01*
X315181Y202528D01*
X315096Y202646D01*
X315085Y202655D01*
X315077Y202666D01*
X314963Y202756D01*
X314851Y202849D01*
X314838Y202855D01*
X314828Y202863D01*
X314694Y202923D01*
X314563Y202985D01*
X314550Y202987D01*
X314537Y202993D01*
X314392Y203017D01*
X314250Y203044D01*
X314237Y203043D01*
X314224Y203046D01*
X314078Y203034D01*
X313933Y203025D01*
X313920Y203020D01*
X313907Y203019D01*
X313769Y202971D01*
X313631Y202927D01*
X313619Y202919D01*
X313606Y202915D01*
X313485Y202834D01*
X313362Y202756D01*
X313353Y202747D01*
X313341Y202739D01*
X313244Y202631D01*
X313144Y202525D01*
X313137Y202513D01*
X313128Y202503D01*
X313061Y202374D01*
X312990Y202246D01*
X312987Y202233D01*
X312981Y202221D01*
X312947Y202079D01*
X312911Y201938D01*
X312910Y201920D01*
X312908Y201912D01*
X312908Y201895D01*
X312901Y201778D01*
X312901Y174094D01*
X303523Y164716D01*
X303508Y164716D01*
X303450Y164699D01*
X303389Y164691D01*
X303297Y164655D01*
X303202Y164627D01*
X303150Y164597D01*
X303094Y164574D01*
X303014Y164516D01*
X302948Y164477D01*
X295508Y164477D01*
X295370Y164460D01*
X295231Y164447D01*
X295212Y164440D01*
X295192Y164437D01*
X295063Y164386D01*
X294932Y164339D01*
X294915Y164328D01*
X294897Y164320D01*
X294784Y164239D01*
X294669Y164161D01*
X294656Y164145D01*
X294639Y164134D01*
X294550Y164026D01*
X294459Y163922D01*
X294449Y163904D01*
X294436Y163889D01*
X294377Y163763D01*
X294314Y163639D01*
X294309Y163619D01*
X294301Y163601D01*
X294275Y163464D01*
X294244Y163329D01*
X294245Y163308D01*
X294241Y163289D01*
X294250Y163150D01*
X294254Y163011D01*
X294260Y162991D01*
X294261Y162971D01*
X294304Y162839D01*
X294342Y162705D01*
X294353Y162688D01*
X294359Y162669D01*
X294433Y162551D01*
X294504Y162431D01*
X294522Y162410D01*
X294529Y162400D01*
X294544Y162386D01*
X294610Y162310D01*
X294867Y162054D01*
X294867Y159024D01*
X294882Y158906D01*
X294889Y158787D01*
X294902Y158749D01*
X294907Y158708D01*
X294950Y158598D01*
X294987Y158485D01*
X295009Y158450D01*
X295024Y158413D01*
X295093Y158317D01*
X295157Y158216D01*
X295187Y158188D01*
X295210Y158155D01*
X295302Y158079D01*
X295389Y157998D01*
X295424Y157978D01*
X295455Y157953D01*
X295563Y157902D01*
X295667Y157844D01*
X295707Y157834D01*
X295743Y157817D01*
X295860Y157795D01*
X295975Y157765D01*
X296035Y157761D01*
X296055Y157757D01*
X296076Y157759D01*
X296136Y157755D01*
X298086Y157755D01*
X298979Y156862D01*
X298979Y140598D01*
X298086Y139705D01*
X296923Y139705D01*
X296805Y139690D01*
X296686Y139683D01*
X296648Y139670D01*
X296607Y139665D01*
X296497Y139622D01*
X296384Y139585D01*
X296349Y139563D01*
X296312Y139548D01*
X296216Y139479D01*
X296115Y139415D01*
X296087Y139385D01*
X296054Y139362D01*
X295978Y139270D01*
X295897Y139183D01*
X295877Y139148D01*
X295852Y139117D01*
X295801Y139009D01*
X295743Y138905D01*
X295733Y138865D01*
X295716Y138829D01*
X295694Y138712D01*
X295664Y138597D01*
X295660Y138537D01*
X295656Y138517D01*
X295658Y138496D01*
X295654Y138436D01*
X295654Y135520D01*
X295669Y135402D01*
X295676Y135283D01*
X295689Y135245D01*
X295694Y135204D01*
X295737Y135094D01*
X295774Y134981D01*
X295796Y134946D01*
X295811Y134909D01*
X295880Y134813D01*
X295944Y134712D01*
X295974Y134684D01*
X295997Y134651D01*
X296089Y134575D01*
X296176Y134494D01*
X296211Y134474D01*
X296242Y134449D01*
X296350Y134398D01*
X296454Y134340D01*
X296494Y134330D01*
X296530Y134313D01*
X296647Y134291D01*
X296762Y134261D01*
X296822Y134257D01*
X296842Y134253D01*
X296863Y134255D01*
X296923Y134251D01*
X304014Y134251D01*
X304907Y133358D01*
X304907Y119534D01*
X304924Y119396D01*
X304937Y119257D01*
X304944Y119238D01*
X304947Y119218D01*
X304998Y119089D01*
X305045Y118958D01*
X305056Y118941D01*
X305064Y118923D01*
X305145Y118810D01*
X305223Y118695D01*
X305239Y118682D01*
X305250Y118665D01*
X305358Y118576D01*
X305462Y118485D01*
X305480Y118475D01*
X305495Y118462D01*
X305621Y118403D01*
X305745Y118340D01*
X305765Y118335D01*
X305783Y118327D01*
X305920Y118301D01*
X306055Y118270D01*
X306076Y118271D01*
X306095Y118267D01*
X306234Y118276D01*
X306373Y118280D01*
X306393Y118286D01*
X306413Y118287D01*
X306545Y118330D01*
X306679Y118368D01*
X306696Y118379D01*
X306715Y118385D01*
X306833Y118459D01*
X306953Y118530D01*
X306974Y118548D01*
X306984Y118555D01*
X306998Y118570D01*
X307073Y118636D01*
X308720Y120283D01*
X312508Y120283D01*
X315187Y117604D01*
X315187Y113816D01*
X312508Y111137D01*
X308720Y111137D01*
X307073Y112784D01*
X306964Y112869D01*
X306857Y112958D01*
X306838Y112966D01*
X306822Y112979D01*
X306694Y113034D01*
X306569Y113093D01*
X306549Y113097D01*
X306530Y113105D01*
X306392Y113127D01*
X306256Y113153D01*
X306236Y113152D01*
X306216Y113155D01*
X306077Y113142D01*
X305939Y113133D01*
X305920Y113127D01*
X305900Y113125D01*
X305768Y113078D01*
X305637Y113035D01*
X305619Y113024D01*
X305600Y113017D01*
X305485Y112939D01*
X305368Y112865D01*
X305354Y112850D01*
X305337Y112839D01*
X305245Y112735D01*
X305150Y112633D01*
X305140Y112616D01*
X305127Y112600D01*
X305063Y112476D01*
X304996Y112355D01*
X304991Y112335D01*
X304982Y112317D01*
X304952Y112181D01*
X304917Y112047D01*
X304915Y112019D01*
X304912Y112007D01*
X304913Y111986D01*
X304907Y111886D01*
X304907Y100094D01*
X304014Y99201D01*
X289918Y99201D01*
X289780Y99184D01*
X289641Y99171D01*
X289622Y99164D01*
X289602Y99161D01*
X289473Y99110D01*
X289342Y99063D01*
X289325Y99052D01*
X289307Y99044D01*
X289194Y98963D01*
X289079Y98885D01*
X289066Y98869D01*
X289049Y98858D01*
X288960Y98750D01*
X288869Y98646D01*
X288859Y98628D01*
X288846Y98613D01*
X288787Y98487D01*
X288724Y98363D01*
X288719Y98343D01*
X288711Y98325D01*
X288685Y98189D01*
X288654Y98053D01*
X288655Y98032D01*
X288651Y98013D01*
X288660Y97874D01*
X288664Y97735D01*
X288670Y97715D01*
X288671Y97695D01*
X288714Y97563D01*
X288752Y97429D01*
X288763Y97412D01*
X288769Y97393D01*
X288843Y97275D01*
X288914Y97155D01*
X288932Y97134D01*
X288939Y97124D01*
X288954Y97110D01*
X289020Y97035D01*
X291565Y94490D01*
X291565Y93780D01*
X291572Y93725D01*
X291569Y93671D01*
X291591Y93568D01*
X291605Y93464D01*
X291625Y93413D01*
X291636Y93360D01*
X291683Y93266D01*
X291722Y93169D01*
X291754Y93124D01*
X291778Y93075D01*
X291847Y92996D01*
X291908Y92911D01*
X291951Y92876D01*
X291987Y92835D01*
X292073Y92775D01*
X292153Y92709D01*
X292203Y92685D01*
X292248Y92654D01*
X292346Y92618D01*
X292441Y92573D01*
X292495Y92563D01*
X292546Y92544D01*
X292651Y92533D01*
X292753Y92513D01*
X292808Y92517D01*
X292863Y92511D01*
X292967Y92527D01*
G37*
G36*
X210941Y41047D02*
X210941Y41047D01*
X211040Y41050D01*
X211099Y41067D01*
X211159Y41075D01*
X211251Y41111D01*
X211346Y41139D01*
X211398Y41169D01*
X211454Y41192D01*
X211534Y41250D01*
X211620Y41300D01*
X211695Y41366D01*
X211712Y41378D01*
X211719Y41388D01*
X211741Y41406D01*
X212198Y41863D01*
X212198Y41864D01*
X213909Y43575D01*
X235481Y43575D01*
X235579Y43587D01*
X235678Y43590D01*
X235736Y43607D01*
X235797Y43615D01*
X235889Y43651D01*
X235984Y43679D01*
X236036Y43709D01*
X236092Y43732D01*
X236172Y43790D01*
X236258Y43840D01*
X236333Y43906D01*
X236350Y43918D01*
X236357Y43928D01*
X236379Y43946D01*
X243186Y50753D01*
X243246Y50832D01*
X243314Y50904D01*
X243343Y50957D01*
X243380Y51005D01*
X243420Y51096D01*
X243468Y51182D01*
X243483Y51241D01*
X243507Y51297D01*
X243522Y51395D01*
X243547Y51490D01*
X243553Y51590D01*
X243557Y51611D01*
X243555Y51623D01*
X243557Y51651D01*
X243557Y72461D01*
X243540Y72599D01*
X243527Y72737D01*
X243520Y72756D01*
X243517Y72776D01*
X243466Y72906D01*
X243419Y73036D01*
X243408Y73053D01*
X243400Y73072D01*
X243319Y73185D01*
X243241Y73300D01*
X243225Y73313D01*
X243214Y73329D01*
X243106Y73418D01*
X243002Y73510D01*
X242984Y73519D01*
X242969Y73532D01*
X242843Y73591D01*
X242719Y73655D01*
X242699Y73659D01*
X242681Y73668D01*
X242544Y73694D01*
X242409Y73724D01*
X242388Y73724D01*
X242369Y73727D01*
X242230Y73719D01*
X242091Y73715D01*
X242071Y73709D01*
X242051Y73708D01*
X241919Y73665D01*
X241785Y73626D01*
X241768Y73616D01*
X241749Y73610D01*
X241631Y73535D01*
X241511Y73465D01*
X241490Y73446D01*
X241480Y73439D01*
X241466Y73425D01*
X241391Y73358D01*
X241022Y72989D01*
X224758Y72989D01*
X223865Y73882D01*
X223865Y74308D01*
X223850Y74426D01*
X223843Y74545D01*
X223830Y74583D01*
X223825Y74624D01*
X223782Y74734D01*
X223745Y74847D01*
X223723Y74882D01*
X223708Y74919D01*
X223639Y75015D01*
X223575Y75116D01*
X223545Y75144D01*
X223522Y75177D01*
X223430Y75253D01*
X223343Y75334D01*
X223308Y75354D01*
X223277Y75379D01*
X223169Y75430D01*
X223065Y75488D01*
X223025Y75498D01*
X222989Y75515D01*
X222872Y75537D01*
X222757Y75567D01*
X222697Y75571D01*
X222677Y75575D01*
X222656Y75573D01*
X222596Y75577D01*
X219058Y75577D01*
X216379Y78256D01*
X216379Y82044D01*
X217144Y82809D01*
X217228Y82918D01*
X217318Y83025D01*
X217326Y83044D01*
X217339Y83060D01*
X217394Y83187D01*
X217453Y83313D01*
X217457Y83333D01*
X217465Y83352D01*
X217487Y83490D01*
X217513Y83626D01*
X217512Y83646D01*
X217515Y83666D01*
X217502Y83805D01*
X217493Y83943D01*
X217487Y83962D01*
X217485Y83982D01*
X217438Y84114D01*
X217395Y84245D01*
X217384Y84263D01*
X217377Y84282D01*
X217299Y84397D01*
X217225Y84514D01*
X217210Y84528D01*
X217199Y84545D01*
X217095Y84637D01*
X216993Y84732D01*
X216976Y84742D01*
X216960Y84755D01*
X216837Y84818D01*
X216715Y84886D01*
X216695Y84891D01*
X216677Y84900D01*
X216541Y84930D01*
X216407Y84965D01*
X216379Y84967D01*
X216367Y84970D01*
X216346Y84969D01*
X216246Y84975D01*
X208216Y84975D01*
X206356Y86835D01*
X202799Y90391D01*
X202690Y90477D01*
X202583Y90565D01*
X202564Y90574D01*
X202548Y90586D01*
X202420Y90642D01*
X202295Y90701D01*
X202275Y90705D01*
X202256Y90713D01*
X202118Y90735D01*
X201982Y90761D01*
X201962Y90759D01*
X201942Y90763D01*
X201803Y90749D01*
X201665Y90741D01*
X201646Y90735D01*
X201626Y90733D01*
X201494Y90686D01*
X201363Y90643D01*
X201345Y90632D01*
X201326Y90625D01*
X201211Y90547D01*
X201094Y90473D01*
X201080Y90458D01*
X201063Y90447D01*
X200971Y90342D01*
X200876Y90241D01*
X200866Y90223D01*
X200853Y90208D01*
X200789Y90084D01*
X200722Y89963D01*
X200717Y89943D01*
X200708Y89925D01*
X200678Y89789D01*
X200643Y89655D01*
X200641Y89627D01*
X200638Y89615D01*
X200639Y89594D01*
X200633Y89494D01*
X200633Y51074D01*
X200650Y50936D01*
X200663Y50797D01*
X200670Y50778D01*
X200673Y50758D01*
X200724Y50629D01*
X200771Y50498D01*
X200782Y50481D01*
X200790Y50463D01*
X200871Y50350D01*
X200949Y50235D01*
X200965Y50222D01*
X200976Y50205D01*
X201084Y50116D01*
X201188Y50025D01*
X201206Y50015D01*
X201221Y50002D01*
X201347Y49943D01*
X201471Y49880D01*
X201491Y49875D01*
X201509Y49867D01*
X201646Y49841D01*
X201781Y49810D01*
X201802Y49811D01*
X201821Y49807D01*
X201960Y49816D01*
X202099Y49820D01*
X202119Y49826D01*
X202139Y49827D01*
X202271Y49870D01*
X202405Y49908D01*
X202422Y49919D01*
X202441Y49925D01*
X202559Y49999D01*
X202679Y50070D01*
X202700Y50088D01*
X202710Y50095D01*
X202724Y50110D01*
X202800Y50176D01*
X203056Y50433D01*
X206844Y50433D01*
X209523Y47754D01*
X209523Y43966D01*
X208758Y43201D01*
X208674Y43092D01*
X208584Y42985D01*
X208576Y42966D01*
X208563Y42950D01*
X208508Y42823D01*
X208449Y42697D01*
X208445Y42677D01*
X208437Y42658D01*
X208415Y42520D01*
X208389Y42384D01*
X208390Y42364D01*
X208387Y42344D01*
X208400Y42205D01*
X208409Y42067D01*
X208415Y42048D01*
X208417Y42028D01*
X208464Y41896D01*
X208507Y41765D01*
X208518Y41747D01*
X208525Y41728D01*
X208603Y41613D01*
X208677Y41496D01*
X208692Y41482D01*
X208703Y41465D01*
X208807Y41373D01*
X208909Y41278D01*
X208926Y41268D01*
X208942Y41255D01*
X209065Y41192D01*
X209187Y41124D01*
X209207Y41119D01*
X209225Y41110D01*
X209361Y41080D01*
X209495Y41045D01*
X209523Y41043D01*
X209535Y41040D01*
X209556Y41041D01*
X209656Y41035D01*
X210843Y41035D01*
X210941Y41047D01*
G37*
G36*
X252293Y158599D02*
X252293Y158599D01*
X252431Y158608D01*
X252450Y158614D01*
X252470Y158616D01*
X252602Y158663D01*
X252733Y158706D01*
X252751Y158717D01*
X252770Y158724D01*
X252885Y158802D01*
X253002Y158876D01*
X253016Y158891D01*
X253033Y158902D01*
X253125Y159007D01*
X253220Y159108D01*
X253230Y159125D01*
X253243Y159141D01*
X253307Y159265D01*
X253374Y159386D01*
X253379Y159406D01*
X253388Y159424D01*
X253418Y159560D01*
X253453Y159694D01*
X253455Y159722D01*
X253458Y159734D01*
X253457Y159755D01*
X253463Y159855D01*
X253463Y163324D01*
X256142Y166003D01*
X259930Y166003D01*
X262346Y163587D01*
X262425Y163526D01*
X262493Y163462D01*
X262526Y163444D01*
X262562Y163413D01*
X262581Y163405D01*
X262597Y163392D01*
X262700Y163348D01*
X262771Y163308D01*
X262802Y163300D01*
X262850Y163278D01*
X262870Y163274D01*
X262889Y163266D01*
X263010Y163247D01*
X263079Y163229D01*
X263119Y163226D01*
X263163Y163218D01*
X263183Y163219D01*
X263203Y163216D01*
X263234Y163219D01*
X263240Y163219D01*
X263243Y163219D01*
X263281Y163224D01*
X263342Y163229D01*
X263480Y163238D01*
X263499Y163244D01*
X263519Y163246D01*
X263552Y163258D01*
X263559Y163259D01*
X263600Y163275D01*
X263651Y163293D01*
X263782Y163336D01*
X263800Y163347D01*
X263819Y163354D01*
X263847Y163373D01*
X263854Y163376D01*
X263899Y163408D01*
X263934Y163432D01*
X264051Y163506D01*
X264065Y163521D01*
X264082Y163532D01*
X264103Y163556D01*
X264112Y163562D01*
X264158Y163618D01*
X264174Y163636D01*
X264269Y163738D01*
X264279Y163755D01*
X264292Y163771D01*
X264306Y163797D01*
X264314Y163807D01*
X264354Y163892D01*
X264356Y163895D01*
X264423Y164016D01*
X264428Y164036D01*
X264437Y164054D01*
X264443Y164080D01*
X264450Y164095D01*
X264470Y164200D01*
X264502Y164324D01*
X264504Y164352D01*
X264507Y164364D01*
X264506Y164385D01*
X264506Y164389D01*
X264510Y164407D01*
X264509Y164426D01*
X264512Y164485D01*
X264512Y170217D01*
X268993Y174697D01*
X269053Y174775D01*
X269121Y174847D01*
X269150Y174900D01*
X269187Y174948D01*
X269227Y175039D01*
X269275Y175126D01*
X269290Y175184D01*
X269314Y175240D01*
X269329Y175338D01*
X269354Y175434D01*
X269360Y175534D01*
X269364Y175554D01*
X269363Y175566D01*
X269364Y175594D01*
X269364Y187628D01*
X270257Y188521D01*
X274895Y188521D01*
X275033Y188538D01*
X275172Y188551D01*
X275191Y188558D01*
X275211Y188561D01*
X275340Y188612D01*
X275471Y188659D01*
X275488Y188670D01*
X275506Y188678D01*
X275619Y188759D01*
X275734Y188837D01*
X275747Y188853D01*
X275764Y188864D01*
X275853Y188972D01*
X275945Y189076D01*
X275954Y189094D01*
X275967Y189109D01*
X276026Y189235D01*
X276089Y189359D01*
X276094Y189379D01*
X276102Y189397D01*
X276128Y189533D01*
X276159Y189669D01*
X276158Y189690D01*
X276162Y189709D01*
X276153Y189848D01*
X276149Y189987D01*
X276143Y190007D01*
X276142Y190027D01*
X276099Y190159D01*
X276061Y190293D01*
X276050Y190310D01*
X276044Y190329D01*
X275970Y190447D01*
X275899Y190567D01*
X275881Y190588D01*
X275874Y190598D01*
X275859Y190612D01*
X275793Y190687D01*
X273403Y193077D01*
X273403Y201411D01*
X275761Y203769D01*
X278102Y203769D01*
X278220Y203784D01*
X278339Y203791D01*
X278377Y203803D01*
X278418Y203809D01*
X278528Y203852D01*
X278641Y203889D01*
X278676Y203911D01*
X278713Y203926D01*
X278809Y203995D01*
X278910Y204059D01*
X278938Y204089D01*
X278971Y204112D01*
X279047Y204204D01*
X279128Y204291D01*
X279148Y204326D01*
X279173Y204357D01*
X279224Y204465D01*
X279282Y204569D01*
X279292Y204609D01*
X279309Y204645D01*
X279331Y204762D01*
X279361Y204877D01*
X279365Y204937D01*
X279369Y204957D01*
X279367Y204978D01*
X279371Y205038D01*
X279371Y211055D01*
X279359Y211153D01*
X279356Y211252D01*
X279339Y211310D01*
X279331Y211370D01*
X279295Y211462D01*
X279267Y211557D01*
X279237Y211610D01*
X279214Y211666D01*
X279156Y211746D01*
X279106Y211831D01*
X279040Y211907D01*
X279028Y211923D01*
X279018Y211931D01*
X279000Y211952D01*
X268036Y222916D01*
X267958Y222976D01*
X267886Y223044D01*
X267833Y223073D01*
X267785Y223110D01*
X267694Y223150D01*
X267607Y223198D01*
X267549Y223213D01*
X267493Y223237D01*
X267395Y223252D01*
X267299Y223277D01*
X267199Y223283D01*
X267179Y223287D01*
X267167Y223285D01*
X267139Y223287D01*
X256187Y223287D01*
X256088Y223275D01*
X255989Y223272D01*
X255931Y223255D01*
X255871Y223247D01*
X255779Y223211D01*
X255684Y223183D01*
X255632Y223153D01*
X255575Y223130D01*
X255495Y223072D01*
X255410Y223022D01*
X255335Y222956D01*
X255318Y222944D01*
X255310Y222934D01*
X255289Y222915D01*
X255106Y222732D01*
X253052Y221881D01*
X252625Y221881D01*
X252527Y221869D01*
X252428Y221866D01*
X252370Y221849D01*
X252310Y221841D01*
X252218Y221805D01*
X252123Y221777D01*
X252071Y221747D01*
X252014Y221724D01*
X251934Y221666D01*
X251849Y221616D01*
X251773Y221550D01*
X251757Y221538D01*
X251749Y221528D01*
X251728Y221510D01*
X250204Y219985D01*
X246689Y219985D01*
X246571Y219970D01*
X246452Y219963D01*
X246414Y219950D01*
X246374Y219945D01*
X246263Y219902D01*
X246150Y219865D01*
X246115Y219843D01*
X246078Y219828D01*
X245982Y219759D01*
X245881Y219695D01*
X245853Y219665D01*
X245820Y219642D01*
X245745Y219550D01*
X245663Y219463D01*
X245643Y219428D01*
X245618Y219397D01*
X245567Y219289D01*
X245509Y219185D01*
X245499Y219145D01*
X245482Y219109D01*
X245460Y218992D01*
X245430Y218877D01*
X245426Y218817D01*
X245422Y218797D01*
X245424Y218776D01*
X245420Y218716D01*
X245420Y217918D01*
X244527Y217025D01*
X242959Y217025D01*
X242841Y217010D01*
X242722Y217003D01*
X242684Y216990D01*
X242644Y216985D01*
X242533Y216942D01*
X242420Y216905D01*
X242385Y216883D01*
X242348Y216868D01*
X242252Y216799D01*
X242151Y216735D01*
X242123Y216705D01*
X242090Y216682D01*
X242015Y216590D01*
X241933Y216503D01*
X241913Y216468D01*
X241888Y216437D01*
X241837Y216329D01*
X241779Y216225D01*
X241769Y216185D01*
X241752Y216149D01*
X241746Y216118D01*
X228944Y203316D01*
X228884Y203238D01*
X228816Y203166D01*
X228787Y203113D01*
X228750Y203065D01*
X228710Y202974D01*
X228662Y202887D01*
X228647Y202829D01*
X228623Y202773D01*
X228608Y202675D01*
X228583Y202579D01*
X228577Y202479D01*
X228573Y202459D01*
X228575Y202447D01*
X228573Y202419D01*
X228573Y200129D01*
X228562Y200118D01*
X228533Y200065D01*
X228496Y200017D01*
X228456Y199926D01*
X228408Y199839D01*
X228393Y199781D01*
X228369Y199725D01*
X228354Y199627D01*
X228329Y199531D01*
X228323Y199431D01*
X228319Y199411D01*
X228321Y199399D01*
X228319Y199371D01*
X228319Y197567D01*
X228336Y197429D01*
X228349Y197291D01*
X228356Y197272D01*
X228359Y197252D01*
X228410Y197123D01*
X228457Y196992D01*
X228468Y196975D01*
X228476Y196956D01*
X228557Y196844D01*
X228635Y196729D01*
X228651Y196715D01*
X228662Y196699D01*
X228770Y196610D01*
X228874Y196518D01*
X228892Y196509D01*
X228907Y196496D01*
X229033Y196437D01*
X229157Y196373D01*
X229177Y196369D01*
X229195Y196360D01*
X229332Y196334D01*
X229467Y196304D01*
X229488Y196304D01*
X229507Y196301D01*
X229646Y196309D01*
X229785Y196313D01*
X229805Y196319D01*
X229825Y196320D01*
X229957Y196363D01*
X230091Y196402D01*
X230108Y196412D01*
X230127Y196418D01*
X230245Y196493D01*
X230365Y196563D01*
X230386Y196582D01*
X230396Y196589D01*
X230410Y196604D01*
X230485Y196670D01*
X231440Y197625D01*
X241323Y197625D01*
X241421Y197637D01*
X241520Y197640D01*
X241578Y197657D01*
X241638Y197665D01*
X241730Y197701D01*
X241825Y197729D01*
X241877Y197759D01*
X241934Y197782D01*
X242014Y197840D01*
X242099Y197890D01*
X242175Y197956D01*
X242191Y197968D01*
X242199Y197978D01*
X242220Y197997D01*
X246040Y201817D01*
X251520Y201817D01*
X251638Y201832D01*
X251757Y201839D01*
X251795Y201852D01*
X251836Y201857D01*
X251946Y201900D01*
X252059Y201937D01*
X252094Y201959D01*
X252131Y201974D01*
X252227Y202043D01*
X252328Y202107D01*
X252356Y202137D01*
X252389Y202160D01*
X252465Y202252D01*
X252546Y202339D01*
X252566Y202374D01*
X252591Y202405D01*
X252642Y202513D01*
X252700Y202617D01*
X252710Y202657D01*
X252727Y202693D01*
X252749Y202810D01*
X252779Y202925D01*
X252783Y202985D01*
X252787Y203005D01*
X252785Y203026D01*
X252789Y203086D01*
X252789Y204282D01*
X253682Y205175D01*
X265946Y205175D01*
X266839Y204282D01*
X266839Y193018D01*
X265946Y192125D01*
X253682Y192125D01*
X252492Y193316D01*
X252414Y193376D01*
X252342Y193444D01*
X252289Y193473D01*
X252241Y193510D01*
X252150Y193550D01*
X252063Y193598D01*
X252005Y193613D01*
X251949Y193637D01*
X251851Y193652D01*
X251755Y193677D01*
X251655Y193683D01*
X251635Y193687D01*
X251623Y193685D01*
X251595Y193687D01*
X249933Y193687D01*
X249835Y193675D01*
X249736Y193672D01*
X249678Y193655D01*
X249618Y193647D01*
X249526Y193611D01*
X249431Y193583D01*
X249378Y193553D01*
X249322Y193530D01*
X249242Y193472D01*
X249157Y193422D01*
X249081Y193356D01*
X249065Y193344D01*
X249061Y193339D01*
X249058Y193337D01*
X249053Y193330D01*
X249036Y193316D01*
X248968Y193248D01*
X248908Y193170D01*
X248840Y193098D01*
X248811Y193045D01*
X248774Y192997D01*
X248734Y192906D01*
X248686Y192819D01*
X248671Y192761D01*
X248647Y192705D01*
X248632Y192607D01*
X248607Y192511D01*
X248601Y192411D01*
X248597Y192391D01*
X248598Y192379D01*
X248597Y192351D01*
X248597Y182183D01*
X248614Y182045D01*
X248627Y181907D01*
X248634Y181888D01*
X248637Y181867D01*
X248688Y181738D01*
X248735Y181607D01*
X248746Y181590D01*
X248754Y181572D01*
X248835Y181459D01*
X248913Y181344D01*
X248929Y181331D01*
X248940Y181314D01*
X249048Y181226D01*
X249152Y181134D01*
X249170Y181124D01*
X249185Y181112D01*
X249311Y181052D01*
X249435Y180989D01*
X249455Y180985D01*
X249473Y180976D01*
X249610Y180950D01*
X249745Y180919D01*
X249766Y180920D01*
X249785Y180916D01*
X249924Y180925D01*
X250063Y180929D01*
X250083Y180935D01*
X250103Y180936D01*
X250235Y180979D01*
X250369Y181017D01*
X250386Y181028D01*
X250405Y181034D01*
X250523Y181108D01*
X250643Y181179D01*
X250664Y181198D01*
X250674Y181204D01*
X250688Y181219D01*
X250763Y181285D01*
X251993Y182515D01*
X252053Y182593D01*
X252121Y182665D01*
X252150Y182718D01*
X252187Y182766D01*
X252227Y182857D01*
X252275Y182943D01*
X252290Y183002D01*
X252314Y183058D01*
X252329Y183156D01*
X252354Y183251D01*
X252360Y183351D01*
X252364Y183372D01*
X252363Y183384D01*
X252364Y183412D01*
X252364Y187628D01*
X253257Y188521D01*
X264521Y188521D01*
X265414Y187628D01*
X265414Y175364D01*
X264521Y174471D01*
X254535Y174471D01*
X254437Y174459D01*
X254338Y174456D01*
X254280Y174439D01*
X254219Y174431D01*
X254127Y174395D01*
X254032Y174367D01*
X253980Y174337D01*
X253924Y174314D01*
X253844Y174256D01*
X253758Y174206D01*
X253683Y174140D01*
X253666Y174128D01*
X253659Y174118D01*
X253637Y174100D01*
X251127Y171589D01*
X249866Y171589D01*
X249748Y171574D01*
X249629Y171567D01*
X249591Y171554D01*
X249550Y171549D01*
X249440Y171506D01*
X249327Y171469D01*
X249292Y171447D01*
X249255Y171432D01*
X249158Y171363D01*
X249058Y171299D01*
X249030Y171269D01*
X248997Y171246D01*
X248921Y171154D01*
X248840Y171067D01*
X248820Y171032D01*
X248795Y171001D01*
X248744Y170893D01*
X248686Y170789D01*
X248676Y170749D01*
X248659Y170713D01*
X248637Y170596D01*
X248607Y170481D01*
X248603Y170421D01*
X248599Y170401D01*
X248601Y170380D01*
X248597Y170320D01*
X248597Y163468D01*
X248218Y163089D01*
X248133Y162980D01*
X248044Y162873D01*
X248035Y162854D01*
X248023Y162838D01*
X247967Y162710D01*
X247908Y162585D01*
X247905Y162565D01*
X247896Y162546D01*
X247874Y162408D01*
X247849Y162272D01*
X247850Y162252D01*
X247847Y162232D01*
X247860Y162093D01*
X247868Y161955D01*
X247874Y161936D01*
X247876Y161916D01*
X247924Y161784D01*
X247966Y161653D01*
X247977Y161635D01*
X247984Y161616D01*
X248062Y161502D01*
X248136Y161384D01*
X248151Y161370D01*
X248163Y161353D01*
X248267Y161261D01*
X248368Y161166D01*
X248386Y161156D01*
X248401Y161143D01*
X248525Y161080D01*
X248647Y161012D01*
X248666Y161007D01*
X248684Y160998D01*
X248820Y160968D01*
X248955Y160933D01*
X248983Y160931D01*
X248995Y160928D01*
X249015Y160929D01*
X249115Y160923D01*
X249331Y160923D01*
X251297Y158957D01*
X251406Y158872D01*
X251513Y158784D01*
X251532Y158775D01*
X251548Y158762D01*
X251676Y158707D01*
X251801Y158648D01*
X251821Y158644D01*
X251840Y158636D01*
X251978Y158614D01*
X252114Y158588D01*
X252134Y158589D01*
X252154Y158586D01*
X252293Y158599D01*
G37*
G36*
X71096Y144430D02*
X71096Y144430D01*
X71235Y144443D01*
X71254Y144450D01*
X71274Y144453D01*
X71403Y144504D01*
X71534Y144551D01*
X71551Y144562D01*
X71569Y144570D01*
X71682Y144651D01*
X71797Y144729D01*
X71810Y144745D01*
X71827Y144756D01*
X71916Y144864D01*
X72007Y144968D01*
X72017Y144986D01*
X72030Y145001D01*
X72089Y145127D01*
X72152Y145251D01*
X72157Y145271D01*
X72165Y145289D01*
X72191Y145426D01*
X72222Y145561D01*
X72221Y145582D01*
X72225Y145601D01*
X72216Y145740D01*
X72212Y145879D01*
X72206Y145899D01*
X72205Y145919D01*
X72162Y146051D01*
X72124Y146185D01*
X72113Y146202D01*
X72107Y146221D01*
X72033Y146339D01*
X71962Y146459D01*
X71944Y146480D01*
X71937Y146490D01*
X71922Y146504D01*
X71856Y146579D01*
X70837Y147598D01*
X70837Y151390D01*
X70822Y151508D01*
X70815Y151627D01*
X70802Y151665D01*
X70797Y151706D01*
X70754Y151816D01*
X70717Y151929D01*
X70695Y151964D01*
X70680Y152001D01*
X70611Y152097D01*
X70547Y152198D01*
X70517Y152226D01*
X70494Y152259D01*
X70402Y152335D01*
X70315Y152416D01*
X70280Y152436D01*
X70249Y152461D01*
X70141Y152512D01*
X70037Y152570D01*
X69997Y152580D01*
X69961Y152597D01*
X69844Y152619D01*
X69729Y152649D01*
X69669Y152653D01*
X69649Y152657D01*
X69628Y152655D01*
X69568Y152659D01*
X68634Y152659D01*
X67741Y153552D01*
X67741Y169816D01*
X68634Y170709D01*
X78533Y170709D01*
X78631Y170721D01*
X78730Y170724D01*
X78788Y170741D01*
X78848Y170749D01*
X78940Y170785D01*
X79035Y170812D01*
X79087Y170843D01*
X79144Y170866D01*
X79224Y170924D01*
X79309Y170974D01*
X79385Y171040D01*
X79401Y171052D01*
X79409Y171062D01*
X79430Y171080D01*
X79630Y171280D01*
X79715Y171390D01*
X79804Y171497D01*
X79813Y171516D01*
X79825Y171532D01*
X79880Y171660D01*
X79940Y171785D01*
X79943Y171805D01*
X79951Y171824D01*
X79973Y171961D01*
X79999Y172098D01*
X79998Y172118D01*
X80001Y172138D01*
X79988Y172276D01*
X79980Y172415D01*
X79973Y172434D01*
X79971Y172454D01*
X79924Y172585D01*
X79882Y172717D01*
X79871Y172735D01*
X79864Y172754D01*
X79786Y172869D01*
X79711Y172986D01*
X79697Y173000D01*
X79685Y173017D01*
X79581Y173109D01*
X79480Y173204D01*
X79462Y173214D01*
X79447Y173227D01*
X79323Y173290D01*
X79201Y173358D01*
X79182Y173363D01*
X79164Y173372D01*
X79028Y173402D01*
X78893Y173437D01*
X78865Y173439D01*
X78853Y173442D01*
X78833Y173441D01*
X78733Y173447D01*
X64941Y173447D01*
X63126Y175262D01*
X63032Y175335D01*
X62943Y175414D01*
X62907Y175432D01*
X62875Y175457D01*
X62766Y175504D01*
X62660Y175558D01*
X62620Y175567D01*
X62583Y175583D01*
X62465Y175602D01*
X62349Y175628D01*
X62309Y175627D01*
X62269Y175633D01*
X62150Y175622D01*
X62032Y175618D01*
X61993Y175607D01*
X61953Y175603D01*
X61840Y175563D01*
X61726Y175530D01*
X61691Y175509D01*
X61653Y175496D01*
X61555Y175429D01*
X61452Y175368D01*
X61407Y175328D01*
X61390Y175317D01*
X61377Y175302D01*
X61331Y175262D01*
X61304Y175234D01*
X59250Y174383D01*
X57026Y174383D01*
X54972Y175234D01*
X53400Y176806D01*
X52549Y178860D01*
X52549Y181039D01*
X52532Y181177D01*
X52519Y181315D01*
X52512Y181335D01*
X52509Y181355D01*
X52458Y181484D01*
X52411Y181615D01*
X52400Y181632D01*
X52392Y181650D01*
X52311Y181763D01*
X52233Y181878D01*
X52217Y181891D01*
X52206Y181908D01*
X52098Y181996D01*
X51994Y182088D01*
X51976Y182098D01*
X51961Y182110D01*
X51835Y182170D01*
X51711Y182233D01*
X51691Y182237D01*
X51673Y182246D01*
X51537Y182272D01*
X51401Y182303D01*
X51380Y182302D01*
X51361Y182306D01*
X51222Y182297D01*
X51083Y182293D01*
X51063Y182287D01*
X51043Y182286D01*
X50911Y182243D01*
X50777Y182205D01*
X50760Y182194D01*
X50741Y182188D01*
X50623Y182113D01*
X50503Y182043D01*
X50482Y182024D01*
X50472Y182018D01*
X50458Y182003D01*
X50383Y181937D01*
X45048Y176603D01*
X44988Y176524D01*
X44920Y176452D01*
X44891Y176399D01*
X44854Y176351D01*
X44814Y176260D01*
X44766Y176174D01*
X44751Y176115D01*
X44727Y176059D01*
X44712Y175961D01*
X44687Y175866D01*
X44681Y175766D01*
X44677Y175745D01*
X44679Y175733D01*
X44677Y175705D01*
X44677Y153251D01*
X44689Y153153D01*
X44692Y153054D01*
X44709Y152996D01*
X44717Y152935D01*
X44753Y152843D01*
X44781Y152748D01*
X44811Y152696D01*
X44834Y152640D01*
X44892Y152560D01*
X44942Y152474D01*
X45008Y152399D01*
X45020Y152382D01*
X45030Y152375D01*
X45048Y152353D01*
X52617Y144784D01*
X52696Y144724D01*
X52768Y144656D01*
X52821Y144627D01*
X52869Y144590D01*
X52960Y144550D01*
X53046Y144502D01*
X53105Y144487D01*
X53161Y144463D01*
X53259Y144448D01*
X53354Y144423D01*
X53454Y144417D01*
X53475Y144413D01*
X53487Y144415D01*
X53515Y144413D01*
X70958Y144413D01*
X71096Y144430D01*
G37*
G36*
X186492Y100742D02*
X186492Y100742D01*
X186630Y100755D01*
X186649Y100762D01*
X186669Y100765D01*
X186799Y100816D01*
X186930Y100863D01*
X186946Y100874D01*
X186965Y100882D01*
X187078Y100963D01*
X187193Y101041D01*
X187206Y101057D01*
X187222Y101068D01*
X187311Y101176D01*
X187403Y101280D01*
X187412Y101298D01*
X187425Y101313D01*
X187485Y101439D01*
X187548Y101563D01*
X187552Y101583D01*
X187561Y101601D01*
X187587Y101738D01*
X187617Y101873D01*
X187617Y101894D01*
X187621Y101913D01*
X187612Y102052D01*
X187608Y102191D01*
X187602Y102211D01*
X187601Y102231D01*
X187558Y102363D01*
X187519Y102497D01*
X187509Y102514D01*
X187503Y102533D01*
X187428Y102651D01*
X187358Y102771D01*
X187339Y102792D01*
X187333Y102802D01*
X187318Y102816D01*
X187251Y102891D01*
X186544Y103599D01*
X149967Y140175D01*
X149858Y140261D01*
X149751Y140349D01*
X149732Y140358D01*
X149716Y140370D01*
X149588Y140426D01*
X149463Y140485D01*
X149443Y140489D01*
X149424Y140497D01*
X149286Y140519D01*
X149150Y140545D01*
X149130Y140543D01*
X149110Y140547D01*
X148971Y140533D01*
X148833Y140525D01*
X148814Y140519D01*
X148794Y140517D01*
X148662Y140470D01*
X148531Y140427D01*
X148513Y140416D01*
X148494Y140409D01*
X148379Y140331D01*
X148262Y140257D01*
X148248Y140242D01*
X148231Y140231D01*
X148139Y140126D01*
X148044Y140025D01*
X148034Y140007D01*
X148021Y139992D01*
X147957Y139868D01*
X147890Y139747D01*
X147885Y139727D01*
X147876Y139709D01*
X147846Y139573D01*
X147811Y139439D01*
X147809Y139411D01*
X147806Y139399D01*
X147807Y139378D01*
X147801Y139278D01*
X147801Y116929D01*
X147813Y116831D01*
X147816Y116732D01*
X147833Y116674D01*
X147841Y116613D01*
X147877Y116521D01*
X147905Y116426D01*
X147935Y116374D01*
X147958Y116318D01*
X148016Y116238D01*
X148066Y116152D01*
X148132Y116077D01*
X148144Y116060D01*
X148154Y116053D01*
X148172Y116031D01*
X163107Y101096D01*
X163186Y101036D01*
X163258Y100968D01*
X163311Y100939D01*
X163359Y100902D01*
X163450Y100862D01*
X163536Y100814D01*
X163595Y100799D01*
X163651Y100775D01*
X163749Y100760D01*
X163844Y100735D01*
X163944Y100729D01*
X163965Y100725D01*
X163977Y100727D01*
X164005Y100725D01*
X186354Y100725D01*
X186492Y100742D01*
G37*
G36*
X191728Y-494D02*
X191728Y-494D01*
X191756Y-496D01*
X191824Y-474D01*
X191895Y-460D01*
X191918Y-444D01*
X191945Y-435D01*
X191999Y-388D01*
X192059Y-347D01*
X192074Y-323D01*
X192095Y-305D01*
X192127Y-240D01*
X192166Y-180D01*
X192171Y-152D01*
X192183Y-127D01*
X192192Y-25D01*
X192199Y17D01*
X192197Y27D01*
X192198Y39D01*
X191970Y2933D01*
X191961Y2965D01*
X191958Y3011D01*
X191280Y5833D01*
X191266Y5864D01*
X191256Y5908D01*
X190145Y8590D01*
X190126Y8617D01*
X190109Y8660D01*
X188593Y11135D01*
X188570Y11159D01*
X188546Y11198D01*
X186661Y13406D01*
X186635Y13426D01*
X186606Y13461D01*
X184398Y15346D01*
X184369Y15363D01*
X184335Y15393D01*
X181860Y16909D01*
X181829Y16921D01*
X181790Y16945D01*
X179108Y18056D01*
X179075Y18062D01*
X179033Y18080D01*
X176211Y18758D01*
X176177Y18759D01*
X176133Y18770D01*
X173239Y18998D01*
X173206Y18994D01*
X173161Y18998D01*
X170267Y18770D01*
X170235Y18761D01*
X170189Y18758D01*
X167367Y18080D01*
X167336Y18066D01*
X167292Y18056D01*
X164610Y16945D01*
X164597Y16936D01*
X164593Y16935D01*
X164577Y16924D01*
X164540Y16909D01*
X162065Y15393D01*
X162041Y15370D01*
X162002Y15346D01*
X159794Y13461D01*
X159774Y13435D01*
X159739Y13406D01*
X157854Y11198D01*
X157837Y11169D01*
X157808Y11135D01*
X156291Y8660D01*
X156279Y8629D01*
X156255Y8590D01*
X155144Y5908D01*
X155138Y5875D01*
X155120Y5833D01*
X154442Y3011D01*
X154441Y2977D01*
X154430Y2933D01*
X154202Y39D01*
X154206Y11D01*
X154201Y-17D01*
X154218Y-87D01*
X154226Y-158D01*
X154241Y-183D01*
X154247Y-210D01*
X154290Y-268D01*
X154326Y-330D01*
X154348Y-347D01*
X154365Y-370D01*
X154427Y-407D01*
X154484Y-450D01*
X154512Y-457D01*
X154536Y-472D01*
X154637Y-489D01*
X154677Y-499D01*
X154687Y-497D01*
X154700Y-499D01*
X191700Y-499D01*
X191728Y-494D01*
G37*
G36*
X298212Y173381D02*
X298212Y173381D01*
X298311Y173384D01*
X298369Y173401D01*
X298429Y173409D01*
X298521Y173445D01*
X298617Y173473D01*
X298669Y173503D01*
X298725Y173526D01*
X298805Y173584D01*
X298891Y173634D01*
X298966Y173700D01*
X298982Y173712D01*
X298985Y173715D01*
X298986Y173716D01*
X298993Y173724D01*
X299011Y173740D01*
X302622Y177351D01*
X302682Y177429D01*
X302750Y177501D01*
X302779Y177554D01*
X302816Y177602D01*
X302856Y177693D01*
X302904Y177780D01*
X302919Y177838D01*
X302943Y177894D01*
X302958Y177992D01*
X302983Y178087D01*
X302989Y178188D01*
X302993Y178208D01*
X302991Y178220D01*
X302993Y178248D01*
X302993Y184998D01*
X302981Y185096D01*
X302978Y185195D01*
X302961Y185253D01*
X302953Y185313D01*
X302917Y185405D01*
X302889Y185501D01*
X302859Y185553D01*
X302836Y185609D01*
X302778Y185689D01*
X302728Y185774D01*
X302662Y185850D01*
X302650Y185866D01*
X302640Y185874D01*
X302622Y185895D01*
X300453Y188064D01*
X300453Y191522D01*
X300441Y191620D01*
X300438Y191719D01*
X300421Y191778D01*
X300413Y191838D01*
X300377Y191930D01*
X300349Y192025D01*
X300319Y192077D01*
X300296Y192133D01*
X300238Y192213D01*
X300188Y192299D01*
X300122Y192374D01*
X300110Y192391D01*
X300100Y192399D01*
X300082Y192420D01*
X298421Y194080D01*
X298421Y197868D01*
X301100Y200547D01*
X303535Y200547D01*
X303673Y200564D01*
X303811Y200577D01*
X303831Y200584D01*
X303851Y200587D01*
X303980Y200638D01*
X304111Y200685D01*
X304128Y200696D01*
X304146Y200704D01*
X304259Y200785D01*
X304374Y200863D01*
X304387Y200879D01*
X304404Y200890D01*
X304492Y200998D01*
X304584Y201102D01*
X304594Y201120D01*
X304606Y201135D01*
X304666Y201261D01*
X304729Y201385D01*
X304733Y201405D01*
X304742Y201423D01*
X304768Y201559D01*
X304799Y201695D01*
X304798Y201716D01*
X304802Y201735D01*
X304793Y201874D01*
X304789Y202013D01*
X304783Y202033D01*
X304782Y202053D01*
X304739Y202185D01*
X304701Y202319D01*
X304690Y202336D01*
X304684Y202355D01*
X304610Y202473D01*
X304539Y202593D01*
X304520Y202614D01*
X304514Y202624D01*
X304499Y202638D01*
X304433Y202713D01*
X301965Y205182D01*
X301896Y205235D01*
X301833Y205296D01*
X301770Y205332D01*
X301713Y205376D01*
X301633Y205411D01*
X301558Y205455D01*
X301433Y205498D01*
X301421Y205503D01*
X301416Y205504D01*
X301405Y205507D01*
X299880Y205929D01*
X299790Y205942D01*
X299754Y205952D01*
X299747Y205955D01*
X299623Y205998D01*
X299612Y206003D01*
X299606Y206004D01*
X299595Y206008D01*
X294371Y207453D01*
X293270Y208312D01*
X293174Y208369D01*
X293121Y208406D01*
X293103Y208429D01*
X292983Y208536D01*
X288328Y212168D01*
X287334Y213921D01*
X287244Y214042D01*
X287156Y214164D01*
X287149Y214169D01*
X287144Y214176D01*
X287027Y214270D01*
X286911Y214367D01*
X286903Y214370D01*
X286896Y214375D01*
X286759Y214438D01*
X286623Y214502D01*
X286615Y214504D01*
X286607Y214507D01*
X286458Y214534D01*
X286310Y214562D01*
X286302Y214561D01*
X286294Y214563D01*
X286144Y214552D01*
X285993Y214542D01*
X285985Y214540D01*
X285977Y214539D01*
X285834Y214491D01*
X285691Y214444D01*
X285684Y214440D01*
X285676Y214437D01*
X285549Y214355D01*
X285422Y214274D01*
X285416Y214268D01*
X285409Y214263D01*
X285308Y214153D01*
X285204Y214042D01*
X285200Y214035D01*
X285194Y214029D01*
X285123Y213896D01*
X285050Y213764D01*
X285048Y213756D01*
X285044Y213748D01*
X285008Y213601D01*
X284971Y213456D01*
X284970Y213445D01*
X284969Y213439D01*
X284969Y213427D01*
X284961Y213295D01*
X284961Y205038D01*
X284976Y204920D01*
X284983Y204801D01*
X284996Y204763D01*
X285001Y204722D01*
X285044Y204612D01*
X285081Y204499D01*
X285103Y204464D01*
X285118Y204427D01*
X285187Y204330D01*
X285251Y204230D01*
X285281Y204202D01*
X285304Y204169D01*
X285396Y204093D01*
X285483Y204012D01*
X285518Y203992D01*
X285549Y203967D01*
X285657Y203916D01*
X285761Y203858D01*
X285801Y203848D01*
X285837Y203831D01*
X285954Y203809D01*
X286069Y203779D01*
X286129Y203775D01*
X286149Y203771D01*
X286170Y203773D01*
X286230Y203769D01*
X290095Y203769D01*
X292453Y201411D01*
X292453Y193077D01*
X290095Y190719D01*
X282386Y190719D01*
X282248Y190702D01*
X282110Y190689D01*
X282091Y190682D01*
X282071Y190679D01*
X281942Y190628D01*
X281811Y190581D01*
X281794Y190570D01*
X281775Y190562D01*
X281663Y190481D01*
X281547Y190403D01*
X281534Y190387D01*
X281518Y190376D01*
X281429Y190268D01*
X281337Y190164D01*
X281328Y190146D01*
X281315Y190131D01*
X281256Y190005D01*
X281192Y189881D01*
X281188Y189861D01*
X281179Y189843D01*
X281153Y189706D01*
X281123Y189571D01*
X281123Y189550D01*
X281120Y189531D01*
X281128Y189392D01*
X281132Y189253D01*
X281138Y189233D01*
X281139Y189213D01*
X281182Y189081D01*
X281221Y188947D01*
X281231Y188930D01*
X281237Y188911D01*
X281312Y188793D01*
X281382Y188673D01*
X281401Y188652D01*
X281408Y188642D01*
X281423Y188628D01*
X281489Y188553D01*
X282414Y187628D01*
X282414Y175322D01*
X282411Y175319D01*
X282402Y175300D01*
X282390Y175284D01*
X282335Y175156D01*
X282275Y175031D01*
X282272Y175011D01*
X282264Y174992D01*
X282242Y174855D01*
X282216Y174718D01*
X282217Y174698D01*
X282214Y174678D01*
X282227Y174540D01*
X282235Y174401D01*
X282242Y174382D01*
X282243Y174362D01*
X282290Y174231D01*
X282333Y174099D01*
X282344Y174081D01*
X282351Y174062D01*
X282429Y173948D01*
X282504Y173830D01*
X282518Y173816D01*
X282530Y173799D01*
X282634Y173707D01*
X282735Y173612D01*
X282753Y173602D01*
X282768Y173589D01*
X282892Y173525D01*
X283014Y173458D01*
X283033Y173453D01*
X283051Y173444D01*
X283187Y173414D01*
X283322Y173379D01*
X283350Y173377D01*
X283362Y173374D01*
X283382Y173375D01*
X283482Y173369D01*
X298114Y173369D01*
X298212Y173381D01*
G37*
G36*
X294209Y59009D02*
X294209Y59009D01*
X294263Y59005D01*
X294306Y59019D01*
X294352Y59024D01*
X294400Y59051D01*
X294452Y59069D01*
X294486Y59099D01*
X294525Y59121D01*
X294568Y59173D01*
X294600Y59201D01*
X294611Y59224D01*
X294632Y59249D01*
X312632Y90249D01*
X312651Y90306D01*
X312679Y90358D01*
X312682Y90399D01*
X312695Y90438D01*
X312691Y90497D01*
X312696Y90556D01*
X312683Y90595D01*
X312680Y90636D01*
X312653Y90689D01*
X312635Y90745D01*
X312608Y90776D01*
X312589Y90813D01*
X312544Y90851D01*
X312505Y90895D01*
X312463Y90918D01*
X312436Y90940D01*
X312402Y90950D01*
X312358Y90974D01*
X309358Y91974D01*
X309341Y91976D01*
X309321Y91984D01*
X305321Y92984D01*
X305276Y92986D01*
X305200Y92999D01*
X302700Y92999D01*
X302670Y92993D01*
X302629Y92994D01*
X299129Y92494D01*
X299095Y92482D01*
X299042Y92474D01*
X297542Y91974D01*
X297531Y91967D01*
X297515Y91964D01*
X295015Y90964D01*
X294986Y90945D01*
X294943Y90928D01*
X292443Y89428D01*
X292422Y89409D01*
X292388Y89390D01*
X289888Y87390D01*
X289860Y87356D01*
X289794Y87290D01*
X287294Y83790D01*
X287276Y83750D01*
X287236Y83685D01*
X286236Y81185D01*
X286231Y81157D01*
X286229Y81152D01*
X286226Y81147D01*
X286225Y81143D01*
X286216Y81121D01*
X285216Y77121D01*
X285214Y77076D01*
X285201Y77000D01*
X285201Y71500D01*
X285203Y71489D01*
X285201Y71477D01*
X285236Y71315D01*
X287236Y66315D01*
X287250Y66294D01*
X287253Y66280D01*
X287263Y66267D01*
X287272Y66243D01*
X288772Y63743D01*
X288802Y63710D01*
X288847Y63647D01*
X291347Y61147D01*
X291361Y61138D01*
X291369Y61127D01*
X291378Y61121D01*
X291388Y61110D01*
X293888Y59110D01*
X293929Y59089D01*
X293964Y59060D01*
X294016Y59044D01*
X294065Y59019D01*
X294111Y59016D01*
X294154Y59003D01*
X294209Y59009D01*
G37*
G36*
X175977Y282218D02*
X175977Y282218D01*
X176009Y282227D01*
X176054Y282230D01*
X178724Y282871D01*
X178755Y282885D01*
X178799Y282895D01*
X181336Y283946D01*
X181363Y283965D01*
X181406Y283982D01*
X183747Y285417D01*
X183771Y285439D01*
X183811Y285463D01*
X185899Y287246D01*
X185919Y287272D01*
X185954Y287301D01*
X187737Y289390D01*
X187754Y289419D01*
X187784Y289453D01*
X189218Y291794D01*
X189230Y291825D01*
X189254Y291864D01*
X190305Y294401D01*
X190311Y294434D01*
X190329Y294476D01*
X190970Y297146D01*
X190971Y297179D01*
X190982Y297223D01*
X191198Y299961D01*
X191195Y299981D01*
X191197Y299990D01*
X191196Y299996D01*
X191199Y300017D01*
X191182Y300087D01*
X191174Y300158D01*
X191159Y300183D01*
X191153Y300210D01*
X191110Y300268D01*
X191074Y300330D01*
X191052Y300347D01*
X191035Y300370D01*
X190973Y300407D01*
X190916Y300450D01*
X190888Y300457D01*
X190864Y300472D01*
X190763Y300489D01*
X190723Y300499D01*
X190713Y300497D01*
X190700Y300499D01*
X155700Y300499D01*
X155672Y300494D01*
X155644Y300496D01*
X155576Y300474D01*
X155505Y300460D01*
X155482Y300444D01*
X155455Y300435D01*
X155401Y300388D01*
X155341Y300347D01*
X155326Y300323D01*
X155305Y300305D01*
X155273Y300240D01*
X155234Y300180D01*
X155229Y300152D01*
X155217Y300127D01*
X155208Y300025D01*
X155201Y299983D01*
X155203Y299973D01*
X155202Y299961D01*
X155418Y297223D01*
X155427Y297191D01*
X155430Y297146D01*
X156071Y294476D01*
X156085Y294446D01*
X156095Y294401D01*
X157146Y291864D01*
X157165Y291837D01*
X157182Y291794D01*
X158617Y289453D01*
X158639Y289429D01*
X158663Y289390D01*
X160446Y287301D01*
X160472Y287281D01*
X160501Y287246D01*
X162590Y285463D01*
X162619Y285446D01*
X162653Y285417D01*
X164994Y283982D01*
X165025Y283970D01*
X165064Y283946D01*
X167601Y282895D01*
X167634Y282889D01*
X167676Y282871D01*
X170346Y282230D01*
X170379Y282229D01*
X170423Y282218D01*
X173161Y282002D01*
X173194Y282006D01*
X173239Y282002D01*
X175977Y282218D01*
G37*
%LPC*%
G36*
X84045Y83885D02*
X84045Y83885D01*
X79350Y85830D01*
X75756Y89424D01*
X73811Y94119D01*
X73811Y99201D01*
X75756Y103896D01*
X79350Y107490D01*
X84045Y109435D01*
X89127Y109435D01*
X93822Y107490D01*
X97416Y103896D01*
X99361Y99201D01*
X99361Y94119D01*
X97416Y89424D01*
X93822Y85830D01*
X89127Y83885D01*
X84045Y83885D01*
G37*
%LPD*%
G36*
X305239Y207509D02*
X305239Y207509D01*
X305298Y207510D01*
X307798Y208010D01*
X307829Y208024D01*
X307875Y208033D01*
X311875Y209533D01*
X311881Y209536D01*
X311887Y209537D01*
X311918Y209559D01*
X311960Y209574D01*
X311999Y209610D01*
X312044Y209638D01*
X312071Y209677D01*
X312106Y209709D01*
X312128Y209758D01*
X312158Y209801D01*
X312168Y209847D01*
X312187Y209891D01*
X312188Y209944D01*
X312199Y209995D01*
X312190Y210042D01*
X312191Y210090D01*
X312169Y210150D01*
X312161Y210191D01*
X312146Y210213D01*
X312134Y210246D01*
X295134Y240246D01*
X295117Y240266D01*
X295106Y240291D01*
X295052Y240341D01*
X295004Y240396D01*
X294980Y240408D01*
X294960Y240426D01*
X294891Y240451D01*
X294825Y240483D01*
X294799Y240485D01*
X294774Y240494D01*
X294700Y240490D01*
X294627Y240494D01*
X294602Y240485D01*
X294575Y240483D01*
X294477Y240440D01*
X294440Y240426D01*
X294433Y240420D01*
X294423Y240415D01*
X292923Y239415D01*
X292895Y239387D01*
X292847Y239353D01*
X290347Y236853D01*
X290334Y236833D01*
X290310Y236812D01*
X288310Y234312D01*
X288291Y234275D01*
X288253Y234223D01*
X286753Y231223D01*
X286744Y231187D01*
X286720Y231137D01*
X285720Y227637D01*
X285717Y227594D01*
X285701Y227500D01*
X285701Y224500D01*
X285707Y224471D01*
X285705Y224459D01*
X285706Y224451D01*
X285706Y224429D01*
X286206Y220929D01*
X286218Y220895D01*
X286226Y220842D01*
X287226Y217842D01*
X287242Y217816D01*
X287253Y217777D01*
X288253Y215777D01*
X288276Y215748D01*
X288301Y215700D01*
X289801Y213700D01*
X289823Y213680D01*
X289847Y213647D01*
X291847Y211647D01*
X291864Y211636D01*
X291872Y211624D01*
X291880Y211620D01*
X291888Y211610D01*
X294388Y209610D01*
X294413Y209597D01*
X294525Y209533D01*
X298525Y208033D01*
X298533Y208031D01*
X298539Y208028D01*
X298559Y208024D01*
X298579Y208016D01*
X300579Y207516D01*
X300624Y207514D01*
X300700Y207501D01*
X305200Y207501D01*
X305239Y207509D01*
G37*
G36*
X45244Y207510D02*
X45244Y207510D01*
X45321Y207516D01*
X49321Y208516D01*
X49355Y208532D01*
X49389Y208539D01*
X49411Y208554D01*
X49457Y208572D01*
X54457Y211572D01*
X54461Y211575D01*
X54466Y211577D01*
X54526Y211631D01*
X54549Y211647D01*
X54556Y211658D01*
X54590Y211688D01*
X58590Y216688D01*
X58597Y216703D01*
X58669Y216829D01*
X60669Y222329D01*
X60670Y222333D01*
X60672Y222336D01*
X60699Y222500D01*
X60699Y227000D01*
X60695Y227022D01*
X60674Y227158D01*
X58674Y233158D01*
X58666Y233172D01*
X58665Y233172D01*
X58664Y233174D01*
X58662Y233177D01*
X58599Y233300D01*
X55599Y237300D01*
X55568Y237328D01*
X55525Y237379D01*
X52025Y240379D01*
X51975Y240407D01*
X51932Y240442D01*
X51890Y240454D01*
X51851Y240476D01*
X51795Y240482D01*
X51741Y240498D01*
X51697Y240492D01*
X51653Y240497D01*
X51599Y240481D01*
X51543Y240474D01*
X51505Y240452D01*
X51463Y240440D01*
X51420Y240403D01*
X51371Y240375D01*
X51338Y240335D01*
X51310Y240312D01*
X51295Y240282D01*
X51266Y240246D01*
X34266Y210246D01*
X34253Y210206D01*
X34231Y210170D01*
X34222Y210112D01*
X34204Y210057D01*
X34208Y210015D01*
X34201Y209973D01*
X34216Y209917D01*
X34221Y209859D01*
X34241Y209822D01*
X34251Y209781D01*
X34287Y209735D01*
X34314Y209683D01*
X34347Y209657D01*
X34373Y209623D01*
X34434Y209585D01*
X34468Y209558D01*
X34490Y209552D01*
X34515Y209536D01*
X37015Y208536D01*
X37030Y208534D01*
X37041Y208527D01*
X37052Y208525D01*
X37063Y208520D01*
X40563Y207520D01*
X40606Y207517D01*
X40700Y207501D01*
X45200Y207501D01*
X45244Y207510D01*
G37*
%LPC*%
G36*
X110975Y282333D02*
X110975Y282333D01*
X109108Y283107D01*
X107679Y284536D01*
X106905Y286403D01*
X106905Y288425D01*
X107679Y290292D01*
X109108Y291721D01*
X110975Y292495D01*
X112997Y292495D01*
X114864Y291721D01*
X116293Y290292D01*
X117067Y288425D01*
X117067Y286403D01*
X116293Y284536D01*
X114864Y283107D01*
X112997Y282333D01*
X110975Y282333D01*
G37*
%LPD*%
%LPC*%
G36*
X255501Y266839D02*
X255501Y266839D01*
X253634Y267613D01*
X252205Y269042D01*
X251431Y270909D01*
X251431Y272931D01*
X252205Y274798D01*
X253634Y276227D01*
X255501Y277001D01*
X257523Y277001D01*
X259390Y276227D01*
X260819Y274798D01*
X261593Y272931D01*
X261593Y270909D01*
X260819Y269042D01*
X259390Y267613D01*
X257523Y266839D01*
X255501Y266839D01*
G37*
%LPD*%
%LPC*%
G36*
X25377Y139077D02*
X25377Y139077D01*
X23510Y139851D01*
X22081Y141280D01*
X21307Y143147D01*
X21307Y145169D01*
X22081Y147036D01*
X23510Y148465D01*
X25377Y149239D01*
X27399Y149239D01*
X29266Y148465D01*
X30695Y147036D01*
X31469Y145169D01*
X31469Y143147D01*
X30695Y141280D01*
X29266Y139851D01*
X27399Y139077D01*
X25377Y139077D01*
G37*
%LPD*%
%LPC*%
G36*
X322557Y130441D02*
X322557Y130441D01*
X320690Y131215D01*
X319261Y132644D01*
X318487Y134511D01*
X318487Y136533D01*
X319261Y138400D01*
X320690Y139829D01*
X322557Y140603D01*
X324579Y140603D01*
X326446Y139829D01*
X327875Y138400D01*
X328649Y136533D01*
X328649Y134511D01*
X327875Y132644D01*
X326446Y131215D01*
X324579Y130441D01*
X322557Y130441D01*
G37*
%LPD*%
%LPC*%
G36*
X107673Y13601D02*
X107673Y13601D01*
X105806Y14375D01*
X104377Y15804D01*
X103603Y17671D01*
X103603Y19693D01*
X104377Y21560D01*
X105806Y22989D01*
X107673Y23763D01*
X109695Y23763D01*
X111562Y22989D01*
X112991Y21560D01*
X113765Y19693D01*
X113765Y17671D01*
X112991Y15804D01*
X111562Y14375D01*
X109695Y13601D01*
X107673Y13601D01*
G37*
%LPD*%
D10*
X238895Y224050D03*
X238895Y241050D03*
D11*
X239572Y170600D03*
X239572Y189600D03*
D10*
X258889Y181496D03*
X275889Y181496D03*
D12*
X188061Y228437D02*
X188061Y229687D01*
X193811Y229687D01*
X193811Y228437D01*
X188061Y228437D01*
X188061Y229686D02*
X193811Y229686D01*
X188061Y224687D02*
X188061Y223437D01*
X188061Y224687D02*
X193811Y224687D01*
X193811Y223437D01*
X188061Y223437D01*
X188061Y224686D02*
X193811Y224686D01*
X188061Y219687D02*
X188061Y218437D01*
X188061Y219687D02*
X193811Y219687D01*
X193811Y218437D01*
X188061Y218437D01*
X188061Y219686D02*
X193811Y219686D01*
X188061Y214687D02*
X188061Y213437D01*
X188061Y214687D02*
X193811Y214687D01*
X193811Y213437D01*
X188061Y213437D01*
X188061Y214686D02*
X193811Y214686D01*
X188061Y209687D02*
X188061Y208437D01*
X188061Y209687D02*
X193811Y209687D01*
X193811Y208437D01*
X188061Y208437D01*
X188061Y209686D02*
X193811Y209686D01*
X188061Y204687D02*
X188061Y203437D01*
X188061Y204687D02*
X193811Y204687D01*
X193811Y203437D01*
X188061Y203437D01*
X188061Y204686D02*
X193811Y204686D01*
X188061Y199687D02*
X188061Y198437D01*
X188061Y199687D02*
X193811Y199687D01*
X193811Y198437D01*
X188061Y198437D01*
X188061Y199686D02*
X193811Y199686D01*
X188061Y194687D02*
X188061Y193437D01*
X188061Y194687D02*
X193811Y194687D01*
X193811Y193437D01*
X188061Y193437D01*
X188061Y194686D02*
X193811Y194686D01*
X188061Y189687D02*
X188061Y188437D01*
X188061Y189687D02*
X193811Y189687D01*
X193811Y188437D01*
X188061Y188437D01*
X188061Y189686D02*
X193811Y189686D01*
X188061Y184687D02*
X188061Y183437D01*
X188061Y184687D02*
X193811Y184687D01*
X193811Y183437D01*
X188061Y183437D01*
X188061Y184686D02*
X193811Y184686D01*
X188061Y179687D02*
X188061Y178437D01*
X188061Y179687D02*
X193811Y179687D01*
X193811Y178437D01*
X188061Y178437D01*
X188061Y179686D02*
X193811Y179686D01*
X188061Y174687D02*
X188061Y173437D01*
X188061Y174687D02*
X193811Y174687D01*
X193811Y173437D01*
X188061Y173437D01*
X188061Y174686D02*
X193811Y174686D01*
X184561Y169937D02*
X183311Y169937D01*
X184561Y169937D02*
X184561Y164187D01*
X183311Y164187D01*
X183311Y169937D01*
X183311Y165436D02*
X184561Y165436D01*
X184561Y166685D02*
X183311Y166685D01*
X183311Y167934D02*
X184561Y167934D01*
X184561Y169183D02*
X183311Y169183D01*
X179561Y169937D02*
X178311Y169937D01*
X179561Y169937D02*
X179561Y164187D01*
X178311Y164187D01*
X178311Y169937D01*
X178311Y165436D02*
X179561Y165436D01*
X179561Y166685D02*
X178311Y166685D01*
X178311Y167934D02*
X179561Y167934D01*
X179561Y169183D02*
X178311Y169183D01*
X174561Y169937D02*
X173311Y169937D01*
X174561Y169937D02*
X174561Y164187D01*
X173311Y164187D01*
X173311Y169937D01*
X173311Y165436D02*
X174561Y165436D01*
X174561Y166685D02*
X173311Y166685D01*
X173311Y167934D02*
X174561Y167934D01*
X174561Y169183D02*
X173311Y169183D01*
X169561Y169937D02*
X168311Y169937D01*
X169561Y169937D02*
X169561Y164187D01*
X168311Y164187D01*
X168311Y169937D01*
X168311Y165436D02*
X169561Y165436D01*
X169561Y166685D02*
X168311Y166685D01*
X168311Y167934D02*
X169561Y167934D01*
X169561Y169183D02*
X168311Y169183D01*
X164561Y169937D02*
X163311Y169937D01*
X164561Y169937D02*
X164561Y164187D01*
X163311Y164187D01*
X163311Y169937D01*
X163311Y165436D02*
X164561Y165436D01*
X164561Y166685D02*
X163311Y166685D01*
X163311Y167934D02*
X164561Y167934D01*
X164561Y169183D02*
X163311Y169183D01*
X159561Y169937D02*
X158311Y169937D01*
X159561Y169937D02*
X159561Y164187D01*
X158311Y164187D01*
X158311Y169937D01*
X158311Y165436D02*
X159561Y165436D01*
X159561Y166685D02*
X158311Y166685D01*
X158311Y167934D02*
X159561Y167934D01*
X159561Y169183D02*
X158311Y169183D01*
X154561Y169937D02*
X153311Y169937D01*
X154561Y169937D02*
X154561Y164187D01*
X153311Y164187D01*
X153311Y169937D01*
X153311Y165436D02*
X154561Y165436D01*
X154561Y166685D02*
X153311Y166685D01*
X153311Y167934D02*
X154561Y167934D01*
X154561Y169183D02*
X153311Y169183D01*
X149561Y169937D02*
X148311Y169937D01*
X149561Y169937D02*
X149561Y164187D01*
X148311Y164187D01*
X148311Y169937D01*
X148311Y165436D02*
X149561Y165436D01*
X149561Y166685D02*
X148311Y166685D01*
X148311Y167934D02*
X149561Y167934D01*
X149561Y169183D02*
X148311Y169183D01*
X144561Y169937D02*
X143311Y169937D01*
X144561Y169937D02*
X144561Y164187D01*
X143311Y164187D01*
X143311Y169937D01*
X143311Y165436D02*
X144561Y165436D01*
X144561Y166685D02*
X143311Y166685D01*
X143311Y167934D02*
X144561Y167934D01*
X144561Y169183D02*
X143311Y169183D01*
X139561Y169937D02*
X138311Y169937D01*
X139561Y169937D02*
X139561Y164187D01*
X138311Y164187D01*
X138311Y169937D01*
X138311Y165436D02*
X139561Y165436D01*
X139561Y166685D02*
X138311Y166685D01*
X138311Y167934D02*
X139561Y167934D01*
X139561Y169183D02*
X138311Y169183D01*
X134561Y169937D02*
X133311Y169937D01*
X134561Y169937D02*
X134561Y164187D01*
X133311Y164187D01*
X133311Y169937D01*
X133311Y165436D02*
X134561Y165436D01*
X134561Y166685D02*
X133311Y166685D01*
X133311Y167934D02*
X134561Y167934D01*
X134561Y169183D02*
X133311Y169183D01*
X129561Y169937D02*
X128311Y169937D01*
X129561Y169937D02*
X129561Y164187D01*
X128311Y164187D01*
X128311Y169937D01*
X128311Y165436D02*
X129561Y165436D01*
X129561Y166685D02*
X128311Y166685D01*
X128311Y167934D02*
X129561Y167934D01*
X129561Y169183D02*
X128311Y169183D01*
X124811Y173437D02*
X124811Y174687D01*
X124811Y173437D02*
X119061Y173437D01*
X119061Y174687D01*
X124811Y174687D01*
X124811Y174686D02*
X119061Y174686D01*
X124811Y178437D02*
X124811Y179687D01*
X124811Y178437D02*
X119061Y178437D01*
X119061Y179687D01*
X124811Y179687D01*
X124811Y179686D02*
X119061Y179686D01*
X124811Y183437D02*
X124811Y184687D01*
X124811Y183437D02*
X119061Y183437D01*
X119061Y184687D01*
X124811Y184687D01*
X124811Y184686D02*
X119061Y184686D01*
X124811Y188437D02*
X124811Y189687D01*
X124811Y188437D02*
X119061Y188437D01*
X119061Y189687D01*
X124811Y189687D01*
X124811Y189686D02*
X119061Y189686D01*
X124811Y193437D02*
X124811Y194687D01*
X124811Y193437D02*
X119061Y193437D01*
X119061Y194687D01*
X124811Y194687D01*
X124811Y194686D02*
X119061Y194686D01*
X124811Y198437D02*
X124811Y199687D01*
X124811Y198437D02*
X119061Y198437D01*
X119061Y199687D01*
X124811Y199687D01*
X124811Y199686D02*
X119061Y199686D01*
X124811Y203437D02*
X124811Y204687D01*
X124811Y203437D02*
X119061Y203437D01*
X119061Y204687D01*
X124811Y204687D01*
X124811Y204686D02*
X119061Y204686D01*
X124811Y208437D02*
X124811Y209687D01*
X124811Y208437D02*
X119061Y208437D01*
X119061Y209687D01*
X124811Y209687D01*
X124811Y209686D02*
X119061Y209686D01*
X124811Y213437D02*
X124811Y214687D01*
X124811Y213437D02*
X119061Y213437D01*
X119061Y214687D01*
X124811Y214687D01*
X124811Y214686D02*
X119061Y214686D01*
X124811Y218437D02*
X124811Y219687D01*
X124811Y218437D02*
X119061Y218437D01*
X119061Y219687D01*
X124811Y219687D01*
X124811Y219686D02*
X119061Y219686D01*
X124811Y223437D02*
X124811Y224687D01*
X124811Y223437D02*
X119061Y223437D01*
X119061Y224687D01*
X124811Y224687D01*
X124811Y224686D02*
X119061Y224686D01*
X124811Y228437D02*
X124811Y229687D01*
X124811Y228437D02*
X119061Y228437D01*
X119061Y229687D01*
X124811Y229687D01*
X124811Y229686D02*
X119061Y229686D01*
X128311Y233187D02*
X129561Y233187D01*
X128311Y233187D02*
X128311Y238937D01*
X129561Y238937D01*
X129561Y233187D01*
X129561Y234436D02*
X128311Y234436D01*
X128311Y235685D02*
X129561Y235685D01*
X129561Y236934D02*
X128311Y236934D01*
X128311Y238183D02*
X129561Y238183D01*
X133311Y233187D02*
X134561Y233187D01*
X133311Y233187D02*
X133311Y238937D01*
X134561Y238937D01*
X134561Y233187D01*
X134561Y234436D02*
X133311Y234436D01*
X133311Y235685D02*
X134561Y235685D01*
X134561Y236934D02*
X133311Y236934D01*
X133311Y238183D02*
X134561Y238183D01*
X138311Y233187D02*
X139561Y233187D01*
X138311Y233187D02*
X138311Y238937D01*
X139561Y238937D01*
X139561Y233187D01*
X139561Y234436D02*
X138311Y234436D01*
X138311Y235685D02*
X139561Y235685D01*
X139561Y236934D02*
X138311Y236934D01*
X138311Y238183D02*
X139561Y238183D01*
X143311Y233187D02*
X144561Y233187D01*
X143311Y233187D02*
X143311Y238937D01*
X144561Y238937D01*
X144561Y233187D01*
X144561Y234436D02*
X143311Y234436D01*
X143311Y235685D02*
X144561Y235685D01*
X144561Y236934D02*
X143311Y236934D01*
X143311Y238183D02*
X144561Y238183D01*
X148311Y233187D02*
X149561Y233187D01*
X148311Y233187D02*
X148311Y238937D01*
X149561Y238937D01*
X149561Y233187D01*
X149561Y234436D02*
X148311Y234436D01*
X148311Y235685D02*
X149561Y235685D01*
X149561Y236934D02*
X148311Y236934D01*
X148311Y238183D02*
X149561Y238183D01*
X153311Y233187D02*
X154561Y233187D01*
X153311Y233187D02*
X153311Y238937D01*
X154561Y238937D01*
X154561Y233187D01*
X154561Y234436D02*
X153311Y234436D01*
X153311Y235685D02*
X154561Y235685D01*
X154561Y236934D02*
X153311Y236934D01*
X153311Y238183D02*
X154561Y238183D01*
X158311Y233187D02*
X159561Y233187D01*
X158311Y233187D02*
X158311Y238937D01*
X159561Y238937D01*
X159561Y233187D01*
X159561Y234436D02*
X158311Y234436D01*
X158311Y235685D02*
X159561Y235685D01*
X159561Y236934D02*
X158311Y236934D01*
X158311Y238183D02*
X159561Y238183D01*
X163311Y233187D02*
X164561Y233187D01*
X163311Y233187D02*
X163311Y238937D01*
X164561Y238937D01*
X164561Y233187D01*
X164561Y234436D02*
X163311Y234436D01*
X163311Y235685D02*
X164561Y235685D01*
X164561Y236934D02*
X163311Y236934D01*
X163311Y238183D02*
X164561Y238183D01*
X168311Y233187D02*
X169561Y233187D01*
X168311Y233187D02*
X168311Y238937D01*
X169561Y238937D01*
X169561Y233187D01*
X169561Y234436D02*
X168311Y234436D01*
X168311Y235685D02*
X169561Y235685D01*
X169561Y236934D02*
X168311Y236934D01*
X168311Y238183D02*
X169561Y238183D01*
X173311Y233187D02*
X174561Y233187D01*
X173311Y233187D02*
X173311Y238937D01*
X174561Y238937D01*
X174561Y233187D01*
X174561Y234436D02*
X173311Y234436D01*
X173311Y235685D02*
X174561Y235685D01*
X174561Y236934D02*
X173311Y236934D01*
X173311Y238183D02*
X174561Y238183D01*
X178311Y233187D02*
X179561Y233187D01*
X178311Y233187D02*
X178311Y238937D01*
X179561Y238937D01*
X179561Y233187D01*
X179561Y234436D02*
X178311Y234436D01*
X178311Y235685D02*
X179561Y235685D01*
X179561Y236934D02*
X178311Y236934D01*
X178311Y238183D02*
X179561Y238183D01*
X183311Y233187D02*
X184561Y233187D01*
X183311Y233187D02*
X183311Y238937D01*
X184561Y238937D01*
X184561Y233187D01*
X184561Y234436D02*
X183311Y234436D01*
X183311Y235685D02*
X184561Y235685D01*
X184561Y236934D02*
X183311Y236934D01*
X183311Y238183D02*
X184561Y238183D01*
D13*
X156436Y201562D03*
D14*
X213010Y224992D03*
X213010Y212992D03*
X213010Y200992D03*
D10*
X221504Y280810D03*
X204504Y280810D03*
D11*
X88618Y241277D03*
X88618Y260277D03*
D15*
X75766Y161684D03*
X56766Y161684D03*
D10*
X218920Y169086D03*
X218920Y186086D03*
X109446Y236242D03*
X109446Y253242D03*
X95730Y176788D03*
X95730Y159788D03*
X188186Y248942D03*
X188186Y265942D03*
D16*
X205086Y246520D03*
X222086Y246520D03*
X259814Y215650D03*
X259814Y198650D03*
D17*
X77608Y182472D02*
X66608Y182472D01*
X77608Y182472D02*
X77608Y177472D01*
X66608Y177472D01*
X66608Y182472D01*
X66608Y182471D02*
X77608Y182471D01*
X77608Y207872D02*
X66608Y207872D01*
X77608Y207872D02*
X77608Y202872D01*
X66608Y202872D01*
X66608Y207872D01*
X66608Y207871D02*
X77608Y207871D01*
X161730Y246354D02*
X161730Y257354D01*
X161730Y246354D02*
X156730Y246354D01*
X156730Y257354D01*
X161730Y257354D01*
X161730Y251353D02*
X156730Y251353D01*
X156730Y256352D02*
X161730Y256352D01*
X277428Y199744D02*
X288428Y199744D01*
X288428Y194744D01*
X277428Y194744D01*
X277428Y199744D01*
X277428Y199743D02*
X288428Y199743D01*
D11*
X232890Y81014D03*
X232890Y62014D03*
X295882Y107226D03*
X295882Y126226D03*
D15*
X290954Y148730D03*
X309954Y148730D03*
D18*
X336500Y149800D03*
X296500Y78800D03*
X255500Y7800D03*
X173500Y7800D03*
X91500Y7800D03*
X9500Y149800D03*
X50500Y220800D03*
X91500Y291800D03*
X173500Y291800D03*
X255500Y292800D03*
X296500Y220800D03*
D19*
X311700Y210000D02*
X311332Y209797D01*
X310960Y209604D01*
X310582Y209420D01*
X310201Y209244D01*
X309815Y209079D01*
X309425Y208922D01*
X309032Y208775D01*
X308635Y208638D01*
X308235Y208511D01*
X307832Y208393D01*
X307426Y208285D01*
X307018Y208187D01*
X306608Y208099D01*
X306195Y208021D01*
X305781Y207953D01*
X305365Y207895D01*
X304948Y207848D01*
X304529Y207810D01*
X304110Y207783D01*
X303691Y207766D01*
X303271Y207759D01*
X302851Y207763D01*
X302432Y207776D01*
X302012Y207800D01*
X301594Y207834D01*
X301176Y207878D01*
X300760Y207933D01*
X300345Y207997D01*
X299932Y208072D01*
X299521Y208156D01*
X299112Y208251D01*
X298705Y208355D01*
X298301Y208470D01*
X297900Y208594D01*
X297502Y208728D01*
X297107Y208871D01*
X296717Y209024D01*
X296329Y209187D01*
X295946Y209359D01*
X295568Y209540D01*
X295194Y209731D01*
X294824Y209930D01*
X294460Y210139D01*
X294100Y210356D01*
X293746Y210582D01*
X293398Y210816D01*
X293056Y211059D01*
X292719Y211310D01*
X292389Y211570D01*
X292065Y211837D01*
X291748Y212112D01*
X291437Y212395D01*
X291134Y212685D01*
X290838Y212982D01*
X290549Y213287D01*
X290267Y213598D01*
X289993Y213917D01*
X289727Y214242D01*
X289469Y214573D01*
X289220Y214910D01*
X288978Y215254D01*
X288745Y215603D01*
X288520Y215958D01*
X288305Y216318D01*
X288098Y216683D01*
X287900Y217053D01*
X287711Y217428D01*
X287531Y217808D01*
X287360Y218192D01*
X287199Y218579D01*
X287048Y218971D01*
X286906Y219366D01*
X286773Y219764D01*
X286651Y220166D01*
X286538Y220570D01*
X286435Y220977D01*
X286342Y221387D01*
X286259Y221798D01*
X286186Y222212D01*
X286123Y222627D01*
X286070Y223044D01*
X286028Y223461D01*
X285995Y223880D01*
X285973Y224299D01*
X285961Y224719D01*
X285960Y225139D01*
X285968Y225559D01*
X285987Y225978D01*
X286016Y226397D01*
X286055Y226815D01*
X286104Y227232D01*
X286163Y227648D01*
X286233Y228062D01*
X286313Y228474D01*
X286402Y228884D01*
X286502Y229292D01*
X286611Y229697D01*
X286731Y230100D01*
X286860Y230499D01*
X286998Y230896D01*
X287147Y231288D01*
X287305Y231677D01*
X287472Y232063D01*
X287649Y232443D01*
X287834Y232820D01*
X288029Y233192D01*
X288233Y233559D01*
X288446Y233921D01*
X288668Y234277D01*
X288898Y234628D01*
X289137Y234974D01*
X289384Y235313D01*
X289639Y235647D01*
X289902Y235974D01*
X290174Y236294D01*
X290452Y236608D01*
X290739Y236915D01*
X291033Y237215D01*
X291334Y237508D01*
X291642Y237793D01*
X291957Y238071D01*
X292278Y238341D01*
X292607Y238603D01*
X292941Y238857D01*
X293281Y239102D01*
X293628Y239340D01*
X293980Y239568D01*
X294337Y239789D01*
X294700Y240000D01*
X312200Y90500D02*
X311820Y90714D01*
X311434Y90919D01*
X311044Y91115D01*
X310650Y91301D01*
X310250Y91478D01*
X309847Y91645D01*
X309440Y91802D01*
X309029Y91949D01*
X308614Y92086D01*
X308197Y92212D01*
X307776Y92329D01*
X307353Y92435D01*
X306927Y92531D01*
X306499Y92617D01*
X306069Y92692D01*
X305637Y92757D01*
X305204Y92811D01*
X304770Y92854D01*
X304335Y92887D01*
X303899Y92909D01*
X303462Y92921D01*
X303026Y92922D01*
X302590Y92913D01*
X302154Y92892D01*
X301718Y92862D01*
X301284Y92820D01*
X300850Y92768D01*
X300418Y92706D01*
X299988Y92633D01*
X299560Y92549D01*
X299133Y92456D01*
X298709Y92351D01*
X298288Y92237D01*
X297870Y92112D01*
X297455Y91977D01*
X297043Y91832D01*
X296635Y91677D01*
X296231Y91513D01*
X295831Y91338D01*
X295435Y91154D01*
X295044Y90960D01*
X294658Y90757D01*
X294277Y90544D01*
X293901Y90322D01*
X293531Y90091D01*
X293166Y89851D01*
X292807Y89602D01*
X292455Y89345D01*
X292109Y89079D01*
X291769Y88805D01*
X291436Y88522D01*
X291111Y88232D01*
X290792Y87933D01*
X290481Y87628D01*
X290177Y87314D01*
X289881Y86993D01*
X289593Y86665D01*
X289313Y86331D01*
X289041Y85989D01*
X288778Y85641D01*
X288523Y85287D01*
X288277Y84926D01*
X288039Y84560D01*
X287811Y84188D01*
X287592Y83810D01*
X287382Y83428D01*
X287182Y83040D01*
X286990Y82648D01*
X286809Y82251D01*
X286637Y81849D01*
X286475Y81444D01*
X286324Y81035D01*
X286182Y80622D01*
X286050Y80206D01*
X285928Y79787D01*
X285817Y79365D01*
X285715Y78940D01*
X285625Y78513D01*
X285544Y78084D01*
X285474Y77653D01*
X285415Y77221D01*
X285366Y76787D01*
X285328Y76352D01*
X285300Y75917D01*
X285283Y75481D01*
X285277Y75044D01*
X285281Y74608D01*
X285296Y74172D01*
X285322Y73736D01*
X285358Y73301D01*
X285404Y72867D01*
X285462Y72434D01*
X285529Y72003D01*
X285608Y71574D01*
X285696Y71146D01*
X285795Y70721D01*
X285905Y70299D01*
X286024Y69879D01*
X286154Y69462D01*
X286294Y69049D01*
X286444Y68639D01*
X286604Y68233D01*
X286773Y67830D01*
X286953Y67433D01*
X287142Y67039D01*
X287341Y66650D01*
X287549Y66267D01*
X287766Y65888D01*
X287992Y65515D01*
X288228Y65148D01*
X288472Y64786D01*
X288725Y64430D01*
X288987Y64081D01*
X289257Y63738D01*
X289535Y63402D01*
X289822Y63073D01*
X290116Y62750D01*
X290419Y62435D01*
X290728Y62128D01*
X291045Y61828D01*
X291370Y61536D01*
X291701Y61252D01*
X292039Y60976D01*
X292384Y60708D01*
X292735Y60449D01*
X293093Y60199D01*
X293456Y59957D01*
X293825Y59724D01*
X294200Y59500D01*
X191700Y0D02*
X191695Y450D01*
X191678Y901D01*
X191651Y1350D01*
X191612Y1799D01*
X191563Y2247D01*
X191503Y2694D01*
X191432Y3139D01*
X191350Y3582D01*
X191257Y4022D01*
X191154Y4461D01*
X191040Y4897D01*
X190916Y5330D01*
X190781Y5760D01*
X190635Y6186D01*
X190479Y6609D01*
X190313Y7028D01*
X190137Y7442D01*
X189951Y7852D01*
X189755Y8258D01*
X189549Y8659D01*
X189333Y9054D01*
X189108Y9444D01*
X188873Y9829D01*
X188629Y10208D01*
X188376Y10580D01*
X188114Y10947D01*
X187843Y11307D01*
X187563Y11660D01*
X187275Y12006D01*
X186978Y12345D01*
X186674Y12677D01*
X186361Y13002D01*
X186040Y13318D01*
X185712Y13627D01*
X185377Y13928D01*
X185034Y14220D01*
X184684Y14504D01*
X184328Y14779D01*
X183964Y15046D01*
X183595Y15304D01*
X183219Y15552D01*
X182837Y15791D01*
X182450Y16021D01*
X182057Y16242D01*
X181659Y16453D01*
X181256Y16654D01*
X180848Y16845D01*
X180435Y17026D01*
X180019Y17198D01*
X179598Y17358D01*
X179173Y17509D01*
X178745Y17649D01*
X178314Y17779D01*
X177879Y17898D01*
X177442Y18007D01*
X177002Y18105D01*
X176560Y18192D01*
X176116Y18269D01*
X175671Y18334D01*
X175223Y18389D01*
X174775Y18433D01*
X174326Y18466D01*
X173876Y18488D01*
X173425Y18499D01*
X172975Y18499D01*
X172524Y18488D01*
X172074Y18466D01*
X171625Y18433D01*
X171177Y18389D01*
X170729Y18334D01*
X170284Y18269D01*
X169840Y18192D01*
X169398Y18105D01*
X168958Y18007D01*
X168521Y17898D01*
X168086Y17779D01*
X167655Y17649D01*
X167227Y17509D01*
X166802Y17358D01*
X166381Y17198D01*
X165965Y17026D01*
X165552Y16845D01*
X165144Y16654D01*
X164741Y16453D01*
X164343Y16242D01*
X163950Y16021D01*
X163563Y15791D01*
X163181Y15552D01*
X162805Y15304D01*
X162436Y15046D01*
X162072Y14779D01*
X161716Y14504D01*
X161366Y14220D01*
X161023Y13928D01*
X160688Y13627D01*
X160360Y13318D01*
X160039Y13002D01*
X159726Y12677D01*
X159422Y12345D01*
X159125Y12006D01*
X158837Y11660D01*
X158557Y11307D01*
X158286Y10947D01*
X158024Y10580D01*
X157771Y10208D01*
X157527Y9829D01*
X157292Y9444D01*
X157067Y9054D01*
X156851Y8659D01*
X156645Y8258D01*
X156449Y7852D01*
X156263Y7442D01*
X156087Y7028D01*
X155921Y6609D01*
X155765Y6186D01*
X155619Y5760D01*
X155484Y5330D01*
X155360Y4897D01*
X155246Y4461D01*
X155143Y4022D01*
X155050Y3582D01*
X154968Y3139D01*
X154897Y2694D01*
X154837Y2247D01*
X154788Y1799D01*
X154749Y1350D01*
X154722Y901D01*
X154705Y450D01*
X154700Y0D01*
X34700Y210000D02*
X35068Y209797D01*
X35440Y209604D01*
X35818Y209420D01*
X36199Y209244D01*
X36585Y209079D01*
X36975Y208922D01*
X37368Y208775D01*
X37765Y208638D01*
X38165Y208511D01*
X38568Y208393D01*
X38974Y208285D01*
X39382Y208187D01*
X39792Y208099D01*
X40205Y208021D01*
X40619Y207953D01*
X41035Y207895D01*
X41452Y207848D01*
X41871Y207810D01*
X42290Y207783D01*
X42709Y207766D01*
X43129Y207759D01*
X43549Y207763D01*
X43968Y207776D01*
X44388Y207800D01*
X44806Y207834D01*
X45224Y207878D01*
X45640Y207933D01*
X46055Y207997D01*
X46468Y208072D01*
X46879Y208156D01*
X47288Y208251D01*
X47695Y208355D01*
X48099Y208470D01*
X48500Y208594D01*
X48898Y208728D01*
X49293Y208871D01*
X49683Y209024D01*
X50071Y209187D01*
X50454Y209359D01*
X50832Y209540D01*
X51206Y209731D01*
X51576Y209930D01*
X51940Y210139D01*
X52300Y210356D01*
X52654Y210582D01*
X53002Y210816D01*
X53344Y211059D01*
X53681Y211310D01*
X54011Y211570D01*
X54335Y211837D01*
X54652Y212112D01*
X54963Y212395D01*
X55266Y212685D01*
X55562Y212982D01*
X55851Y213287D01*
X56133Y213598D01*
X56407Y213917D01*
X56673Y214242D01*
X56931Y214573D01*
X57180Y214910D01*
X57422Y215254D01*
X57655Y215603D01*
X57880Y215958D01*
X58095Y216318D01*
X58302Y216683D01*
X58500Y217053D01*
X58689Y217428D01*
X58869Y217808D01*
X59040Y218192D01*
X59201Y218579D01*
X59352Y218971D01*
X59494Y219366D01*
X59627Y219764D01*
X59749Y220166D01*
X59862Y220570D01*
X59965Y220977D01*
X60058Y221387D01*
X60141Y221798D01*
X60214Y222212D01*
X60277Y222627D01*
X60330Y223044D01*
X60372Y223461D01*
X60405Y223880D01*
X60427Y224299D01*
X60439Y224719D01*
X60440Y225139D01*
X60432Y225559D01*
X60413Y225978D01*
X60384Y226397D01*
X60345Y226815D01*
X60296Y227232D01*
X60237Y227648D01*
X60167Y228062D01*
X60087Y228474D01*
X59998Y228884D01*
X59898Y229292D01*
X59789Y229697D01*
X59669Y230100D01*
X59540Y230499D01*
X59402Y230896D01*
X59253Y231288D01*
X59095Y231677D01*
X58928Y232063D01*
X58751Y232443D01*
X58566Y232820D01*
X58371Y233192D01*
X58167Y233559D01*
X57954Y233921D01*
X57732Y234277D01*
X57502Y234628D01*
X57263Y234974D01*
X57016Y235313D01*
X56761Y235647D01*
X56498Y235974D01*
X56226Y236294D01*
X55948Y236608D01*
X55661Y236915D01*
X55367Y237215D01*
X55066Y237508D01*
X54758Y237793D01*
X54443Y238071D01*
X54122Y238341D01*
X53793Y238603D01*
X53459Y238857D01*
X53119Y239102D01*
X52772Y239340D01*
X52420Y239568D01*
X52063Y239789D01*
X51700Y240000D01*
X155700Y300000D02*
X155705Y299574D01*
X155721Y299148D01*
X155747Y298723D01*
X155783Y298298D01*
X155830Y297874D01*
X155886Y297452D01*
X155954Y297031D01*
X156031Y296612D01*
X156119Y296195D01*
X156216Y295780D01*
X156324Y295368D01*
X156442Y294958D01*
X156570Y294552D01*
X156707Y294148D01*
X156855Y293748D01*
X157012Y293352D01*
X157178Y292960D01*
X157355Y292572D01*
X157540Y292188D01*
X157735Y291809D01*
X157939Y291435D01*
X158152Y291066D01*
X158374Y290702D01*
X158605Y290344D01*
X158844Y289992D01*
X159092Y289645D01*
X159349Y289304D01*
X159613Y288970D01*
X159886Y288643D01*
X160166Y288322D01*
X160455Y288008D01*
X160751Y287701D01*
X161054Y287402D01*
X161364Y287110D01*
X161681Y286825D01*
X162006Y286549D01*
X162337Y286280D01*
X162674Y286020D01*
X163017Y285767D01*
X163367Y285524D01*
X163722Y285289D01*
X164084Y285062D01*
X164450Y284845D01*
X164822Y284636D01*
X165198Y284437D01*
X165580Y284246D01*
X165965Y284065D01*
X166356Y283894D01*
X166750Y283732D01*
X167148Y283580D01*
X167550Y283437D01*
X167955Y283305D01*
X168363Y283182D01*
X168774Y283069D01*
X169187Y282966D01*
X169603Y282874D01*
X170021Y282791D01*
X170441Y282719D01*
X170863Y282657D01*
X171286Y282605D01*
X171710Y282564D01*
X172135Y282532D01*
X172561Y282512D01*
X172987Y282501D01*
X173413Y282501D01*
X173839Y282512D01*
X174265Y282532D01*
X174690Y282564D01*
X175114Y282605D01*
X175537Y282657D01*
X175959Y282719D01*
X176379Y282791D01*
X176797Y282874D01*
X177213Y282966D01*
X177626Y283069D01*
X178037Y283182D01*
X178445Y283305D01*
X178850Y283437D01*
X179252Y283580D01*
X179650Y283732D01*
X180044Y283894D01*
X180435Y284065D01*
X180820Y284246D01*
X181202Y284437D01*
X181578Y284636D01*
X181950Y284845D01*
X182316Y285062D01*
X182678Y285289D01*
X183033Y285524D01*
X183383Y285767D01*
X183726Y286020D01*
X184063Y286280D01*
X184394Y286549D01*
X184719Y286825D01*
X185036Y287110D01*
X185346Y287402D01*
X185649Y287701D01*
X185945Y288008D01*
X186234Y288322D01*
X186514Y288643D01*
X186787Y288970D01*
X187051Y289304D01*
X187308Y289645D01*
X187556Y289992D01*
X187795Y290344D01*
X188026Y290702D01*
X188248Y291066D01*
X188461Y291435D01*
X188665Y291809D01*
X188860Y292188D01*
X189045Y292572D01*
X189222Y292960D01*
X189388Y293352D01*
X189545Y293748D01*
X189693Y294148D01*
X189830Y294552D01*
X189958Y294958D01*
X190076Y295368D01*
X190184Y295780D01*
X190281Y296195D01*
X190369Y296612D01*
X190446Y297031D01*
X190514Y297452D01*
X190570Y297874D01*
X190617Y298298D01*
X190653Y298723D01*
X190679Y299148D01*
X190695Y299574D01*
X190700Y300000D01*
D20*
X95883Y131357D03*
X51889Y105957D03*
X121283Y87363D03*
X77289Y61963D03*
D21*
X86586Y96660D03*
D22*
X83325Y257991D02*
X88618Y260277D01*
D23*
X83898Y224062D02*
X121936Y224062D01*
D24*
X272768Y208674D03*
D22*
X222476Y239662D02*
X222476Y240932D01*
X225016Y240932D01*
X227556Y240932D01*
X233171Y240932D01*
X238895Y241050D01*
D25*
X221206Y212992D02*
X213010Y212992D01*
D26*
X221206Y212992D02*
X225016Y216802D01*
X225016Y238392D01*
X227556Y240932D01*
D23*
X178936Y236062D02*
X178936Y224062D01*
X133068Y206388D01*
X133936Y167062D02*
X133936Y161028D01*
D26*
X225406Y240542D02*
X238895Y241050D01*
X225406Y240542D02*
X225016Y240932D01*
X225016Y259982D01*
D22*
X144244Y206388D02*
X133068Y206388D01*
X156436Y212992D01*
D24*
X156436Y224422D03*
D22*
X146276Y224422D01*
D23*
X133216Y224062D02*
X121936Y224062D01*
X133068Y224676D02*
X133216Y224062D01*
D24*
X133068Y224676D03*
X143228Y224676D03*
D23*
X146276Y224422D01*
D26*
X177116Y224062D02*
X178936Y224062D01*
X179042Y224676D02*
X177116Y224062D01*
D24*
X179042Y224676D03*
X168882Y224676D03*
D26*
X164056Y224422D01*
D23*
X133936Y181602D02*
X133936Y167062D01*
X133936Y181602D02*
X135608Y218580D01*
X150086Y183782D01*
X144244Y206388D01*
D24*
X225016Y259982D03*
D27*
X199870Y265942D02*
X188186Y265942D01*
X199870Y265942D02*
X199870Y265824D01*
D24*
X198854Y265824D03*
D28*
X259814Y215650D02*
X265792Y215650D01*
X272768Y208674D01*
D29*
X74140Y235090D02*
X74140Y248806D01*
X83325Y257991D01*
D27*
X224552Y259982D02*
X225016Y259982D01*
D30*
X173454Y57798D03*
X296898Y177686D03*
X157706Y114186D03*
X172438Y109868D03*
X258290Y125362D03*
X258290Y137808D03*
X246098Y137808D03*
X246098Y125362D03*
X246098Y113170D03*
X258290Y113170D03*
X270482Y113170D03*
X270228Y125108D03*
X270228Y137808D03*
X311122Y133998D03*
D26*
X308176Y136944D01*
D30*
X234414Y48654D03*
X220952Y50940D03*
D26*
X230604Y59728D02*
X232890Y62014D01*
D28*
X233954Y59728D02*
X230604Y59728D01*
X233954Y59728D02*
X234287Y60061D01*
X234287Y48781D01*
X234414Y48654D01*
D30*
X119606Y157620D03*
D24*
X240510Y205372D03*
D31*
X109446Y266840D03*
D32*
X109446Y253242D01*
D23*
X83898Y224062D02*
X74140Y233820D01*
X74140Y235090D01*
D27*
X248090Y7800D02*
X255500Y7800D01*
X248090Y7800D02*
X239240Y16650D01*
D28*
X237716Y18174D01*
D33*
X237716Y18174D03*
D29*
X97898Y157620D02*
X95730Y159788D01*
X97898Y157620D02*
X119606Y157620D01*
D24*
X133068Y195974D03*
D27*
X56868Y161684D02*
X56766Y161684D01*
X56868Y161684D02*
X56868Y149238D01*
D30*
X56868Y149238D03*
D29*
X308176Y146952D02*
X308176Y136944D01*
X308176Y146952D02*
X309954Y148730D01*
D30*
X69822Y114694D03*
X80998Y119266D03*
X60424Y88786D03*
X66520Y78118D03*
X95730Y68720D03*
X106906Y74816D03*
X114018Y125616D03*
X127226Y105296D03*
X143228Y101232D03*
X148054Y84722D03*
X22578Y128156D03*
X30452Y114440D03*
X51280Y78626D03*
X71600Y42558D03*
X78712Y29096D03*
X90396Y42304D03*
X111478Y55258D03*
X109192Y35446D03*
X138656Y52718D03*
X127988Y66942D03*
X145006Y36462D03*
X149578Y62624D03*
X67536Y129172D03*
X52296Y128664D03*
X37310Y125616D03*
X125956Y39002D03*
X158976Y27064D03*
X134084Y24524D03*
X121130Y9538D03*
X143990Y9538D03*
X162532Y46114D03*
X23594Y174892D03*
X31722Y188100D03*
X62456Y243726D03*
X124940Y292748D03*
X141196Y292240D03*
X201902Y293764D03*
X224000Y294018D03*
X268704Y265570D03*
X275308Y252616D03*
X260068Y254394D03*
X239240Y267094D03*
X321536Y178448D03*
X322552Y121552D03*
D23*
X121936Y229062D02*
X111156Y229062D01*
X109446Y230772D02*
X109446Y236242D01*
X109446Y230772D02*
X111156Y229062D01*
D22*
X109446Y233312D02*
X109446Y236242D01*
X109446Y233312D02*
X108176Y232042D01*
D23*
X118776Y229062D02*
X121936Y229062D01*
X118776Y229062D02*
X118336Y229502D01*
X118336Y232042D01*
D22*
X120876Y234582D01*
X120876Y239662D01*
D24*
X120876Y239662D03*
D23*
X183936Y236062D02*
X190516Y236062D01*
X190726Y235852D01*
D24*
X190726Y235852D03*
D23*
X190936Y235642D02*
X190936Y229062D01*
X190936Y235642D02*
X190726Y235852D01*
X205086Y237512D02*
X205086Y246520D01*
X205086Y237512D02*
X197076Y229502D01*
X191376Y229502D01*
X190936Y229062D01*
X183936Y236062D02*
X183936Y244692D01*
X188186Y248942D01*
D28*
X90233Y240424D02*
X88618Y241277D01*
X90233Y240424D02*
X86332Y240424D01*
D30*
X220952Y80150D03*
X310614Y115710D03*
X267942Y160414D03*
D26*
X232890Y81014D02*
X232280Y80150D01*
X220952Y80150D01*
D23*
X128936Y167062D02*
X127778Y167062D01*
D30*
X75410Y149492D03*
D29*
X75410Y158788D01*
X75766Y161684D01*
D34*
X109700Y165240D02*
X120622Y165240D01*
X122444Y167062D01*
X128936Y167062D01*
D28*
X109700Y165240D02*
X98152Y176788D01*
X95730Y176788D01*
D32*
X91784Y176788D01*
X80236Y165240D01*
X79322Y165240D01*
X75766Y161684D01*
X88618Y241277D02*
X91575Y241277D01*
X96492Y236360D01*
X109328Y236360D01*
X109446Y236242D01*
D33*
X256512Y271920D03*
X111986Y287414D03*
X26388Y144158D03*
X108684Y18682D03*
X248638Y26048D03*
X323568Y135522D03*
D28*
X275889Y176743D02*
X275889Y181496D01*
X275889Y176743D02*
X267942Y168796D01*
X267942Y160414D01*
D24*
X46200Y200800D03*
D23*
X121896Y199022D02*
X121936Y199062D01*
D35*
X110248Y199062D01*
X106144Y194958D01*
X52042Y194958D01*
X46200Y200800D01*
D23*
X121896Y204102D02*
X121936Y204062D01*
D35*
X88150Y204062D01*
X85570Y206642D01*
X85570Y214008D01*
X74394Y225184D01*
D27*
X54884Y225184D01*
X50500Y220800D01*
D30*
X105636Y211722D03*
D23*
X121816Y209182D02*
X121936Y209062D01*
D34*
X121816Y209182D02*
X108176Y209182D01*
X105636Y211722D01*
D22*
X232216Y170102D02*
X239572Y170600D01*
X241806Y171362D01*
D23*
X199162Y189062D02*
X190936Y189062D01*
X199162Y189062D02*
X218122Y170102D01*
X218920Y169086D01*
D22*
X218920Y170102D02*
X232216Y170102D01*
X218920Y170102D02*
X218920Y169086D01*
D27*
X241806Y171362D02*
X245590Y175146D01*
X249654Y175146D01*
X256004Y181496D01*
X258889Y181496D01*
D23*
X138936Y236062D02*
X138910Y236088D01*
D34*
X138936Y236062D02*
X138936Y270930D01*
X142466Y274460D01*
D30*
X142466Y274460D03*
D23*
X143936Y241894D02*
X143936Y236062D01*
X143936Y241894D02*
X143990Y241948D01*
X143936Y241894D02*
X143936Y262236D01*
X159208Y277508D01*
X159230Y277508D01*
D27*
X173500Y291778D01*
X173500Y291800D01*
D23*
X190936Y209062D02*
X195686Y209062D01*
X198346Y211722D01*
X198346Y220612D01*
X202156Y224422D01*
X212440Y224422D01*
X213010Y224992D01*
X202196Y204062D02*
X190936Y204062D01*
X202196Y204062D02*
X204696Y201562D01*
X212440Y201562D01*
X213010Y200992D01*
X159230Y251854D02*
X158976Y252108D01*
X158976Y264554D01*
D30*
X158976Y264554D03*
D23*
X163936Y247148D02*
X163936Y236062D01*
X163936Y247148D02*
X159230Y251854D01*
D34*
X204504Y278586D02*
X204504Y280810D01*
X204504Y278586D02*
X203172Y277254D01*
X180566Y277254D01*
X167866Y264554D01*
X158976Y264554D01*
D23*
X251940Y227470D02*
X252312Y226082D01*
D24*
X251940Y227470D03*
D26*
X282928Y197244D02*
X285468Y197244D01*
X288008Y194704D01*
D34*
X200846Y199062D02*
X190936Y199062D01*
X200846Y199062D02*
X204188Y195720D01*
X222984Y195720D01*
X225778Y198514D01*
X225778Y201308D01*
D29*
X238895Y224050D02*
X248520Y224050D01*
X251940Y227470D01*
D23*
X225778Y204102D02*
X225778Y201308D01*
X225778Y204102D02*
X238895Y217219D01*
X238895Y224050D01*
X252312Y226082D02*
X268822Y226082D01*
X282166Y212738D01*
X282166Y198006D01*
X282928Y197244D01*
D22*
X239572Y189600D02*
X235406Y190362D01*
D34*
X200258Y194062D02*
X190936Y194062D01*
X200258Y194062D02*
X203934Y190386D01*
X216144Y190386D01*
X218920Y186086D01*
D22*
X259814Y198650D02*
X260576Y197752D01*
D29*
X239572Y186086D02*
X218920Y186086D01*
X239572Y186086D02*
X239572Y189600D01*
X247724Y197752D02*
X260576Y197752D01*
X247724Y197752D02*
X239572Y189600D01*
D23*
X190936Y174062D02*
X190936Y161982D01*
D34*
X190936Y139122D01*
X201394Y128664D01*
X211300Y128664D01*
X225270Y114694D01*
D35*
X233398Y114694D01*
X241780Y106312D01*
X248638Y106312D01*
X252956Y101994D01*
D34*
X267942Y101994D01*
X277340Y92596D01*
X286992Y92596D01*
D30*
X286992Y92596D03*
D24*
X185900Y25540D03*
D34*
X178936Y136136D02*
X178936Y167062D01*
X178936Y136136D02*
X196822Y118250D01*
X251432Y90310D02*
X251432Y47638D01*
X215110Y110376D02*
X207236Y118250D01*
X196822Y118250D01*
D35*
X215110Y110376D02*
X215364Y110376D01*
X220190Y105550D01*
X237716Y98184D02*
X243558Y98184D01*
X251432Y90310D01*
X230350Y105550D02*
X220190Y105550D01*
X230350Y105550D02*
X237716Y98184D01*
D34*
X189710Y29350D02*
X185900Y25540D01*
D35*
X240764Y36970D02*
X251432Y47638D01*
X240764Y36970D02*
X217396Y36970D01*
X214348Y33922D01*
X203172Y33922D01*
X201648Y32398D01*
X192758Y32398D01*
X189710Y29350D01*
D23*
X183936Y158822D02*
X183936Y167062D01*
D34*
X183936Y158822D02*
X183936Y138756D01*
X199108Y123584D01*
X209522Y123584D01*
X217142Y115964D01*
D29*
X293676Y78800D02*
X296500Y78800D01*
D35*
X223746Y109360D02*
X217142Y115964D01*
X223746Y109360D02*
X232128Y109360D01*
X239240Y102248D01*
X246606Y102248D01*
X251432Y97422D01*
D34*
X264132Y97422D01*
X277594Y83960D01*
D29*
X282754Y78800D01*
X296500Y78800D01*
D26*
X173200Y28080D02*
X173200Y8100D01*
D27*
X173500Y8100D01*
D34*
X173936Y134278D02*
X173936Y167062D01*
X173936Y134278D02*
X194536Y113678D01*
X203934Y113678D01*
X212062Y105550D01*
X246098Y88786D02*
X246098Y50432D01*
D35*
X215618Y101994D02*
X212062Y105550D01*
X215618Y101994D02*
X228064Y101994D01*
X235938Y94120D01*
X240764Y94120D01*
X246098Y88786D01*
D34*
X179550Y34430D02*
X173200Y28080D01*
D35*
X179550Y34430D02*
X181836Y36716D01*
X199108Y36716D01*
X201140Y38748D01*
X212316Y38748D01*
X214856Y41288D01*
X236954Y41288D01*
X246098Y50432D01*
D28*
X173500Y7800D02*
X173200Y8100D01*
D23*
X204950Y173622D02*
X204950Y176162D01*
X204950Y173622D02*
X204950Y164478D01*
D34*
X197304Y184062D02*
X190936Y184062D01*
X197304Y184062D02*
X204950Y176416D01*
X204950Y173622D01*
X204950Y164478D02*
X210792Y158636D01*
X245082Y158636D01*
D30*
X302994Y195974D03*
D34*
X302994Y189116D02*
X305534Y186576D01*
X302994Y189116D02*
X302994Y195974D01*
X305534Y176670D02*
X299946Y171082D01*
X305534Y176670D02*
X305534Y186576D01*
D35*
X248384Y158636D02*
X245082Y158636D01*
X248384Y158636D02*
X253464Y153556D01*
X272260Y153556D01*
X274800Y156096D01*
X274800Y159906D01*
X277086Y162192D01*
X277086Y167780D01*
X280388Y171082D01*
X299946Y171082D01*
D34*
X195954Y179062D02*
X190936Y179062D01*
X195954Y179062D02*
X199108Y175908D01*
X199108Y161176D01*
D23*
X296500Y220800D02*
X296644Y220656D01*
D34*
X206728Y153556D02*
X199108Y161176D01*
X206728Y153556D02*
X218412Y153556D01*
X227302Y144666D01*
X241526Y144666D01*
X245844Y148984D01*
X259306Y148984D01*
X310360Y201816D02*
X307820Y204356D01*
X310360Y201816D02*
X310360Y175146D01*
X302486Y167272D01*
D35*
X276832Y148984D02*
X259306Y148984D01*
X283182Y166764D02*
X301978Y166764D01*
X302486Y167272D01*
X279118Y151270D02*
X276832Y148984D01*
X279118Y151270D02*
X279118Y158382D01*
X281150Y160414D01*
X281150Y164732D01*
X283182Y166764D01*
D27*
X307820Y204356D02*
X296500Y215676D01*
X296500Y220800D01*
D24*
X58138Y179972D03*
D27*
X72108Y179972D01*
D30*
X94460Y215024D03*
D34*
X98498Y219062D01*
X121936Y219062D01*
D24*
X69822Y216294D03*
D27*
X69822Y205372D01*
X72108Y205372D01*
D30*
X129004Y249822D03*
D34*
X129004Y236130D01*
X128936Y236062D01*
D30*
X290294Y160160D03*
D28*
X290954Y159500D02*
X290954Y148730D01*
X290954Y159500D02*
X290294Y160160D01*
D30*
X234160Y152032D03*
X258036Y161430D03*
D32*
X290954Y148730D02*
X290954Y131154D01*
X295882Y126226D01*
D30*
X283690Y102248D03*
D29*
X289176Y107734D01*
D23*
X295882Y107226D01*
D35*
X121936Y174062D02*
X114712Y174062D01*
X113510Y172860D01*
D30*
X113510Y172860D03*
D34*
X110864Y179062D02*
X121936Y179062D01*
X110864Y179062D02*
X107922Y182004D01*
D35*
X42390Y177178D02*
X42390Y151778D01*
X52042Y142126D01*
X78204Y142126D01*
X86332Y150254D01*
X135862Y150254D01*
X145514Y140602D01*
X145514Y115456D01*
X162532Y98438D01*
X194282Y98438D01*
X198346Y94374D01*
D30*
X204950Y45860D03*
D35*
X201140Y45860D01*
X198346Y48654D01*
X198346Y94374D01*
X52804Y187592D02*
X42390Y177178D01*
X52804Y187592D02*
X102334Y187592D01*
X107922Y182004D01*
D34*
X113738Y184062D02*
X121936Y184062D01*
X113738Y184062D02*
X111478Y186322D01*
D35*
X37564Y177178D02*
X37564Y149492D01*
X49248Y137808D01*
X79728Y137808D01*
X88618Y146698D01*
X133576Y146698D01*
X140942Y139332D01*
X140942Y113678D01*
X160246Y94374D01*
X190218Y94374D01*
X193774Y90818D01*
X193774Y42812D01*
D30*
X193774Y42812D03*
D35*
X111478Y186322D02*
X106652Y191148D01*
X51534Y191148D01*
X37564Y177178D01*
D34*
X143936Y167062D02*
X143936Y156150D01*
X191488Y108598D01*
D30*
X214856Y95644D03*
D34*
X201394Y108598D02*
X191488Y108598D01*
X201394Y108598D02*
X213840Y96152D01*
X214856Y95644D01*
X138936Y154800D02*
X138936Y167062D01*
X138936Y154800D02*
X189456Y104280D01*
X198346Y104280D01*
D30*
X224762Y95898D03*
D34*
X204442Y98184D02*
X198346Y104280D01*
X204442Y98184D02*
X204442Y92342D01*
X209268Y87516D01*
X216380Y87516D01*
X224762Y95898D01*
D30*
X260830Y83452D03*
X212824Y20460D03*
D23*
X213078Y20714D01*
D35*
X260830Y49924D02*
X260830Y83452D01*
D34*
X216380Y24016D02*
X213078Y20714D01*
D35*
X216380Y24016D02*
X224000Y31636D01*
X242542Y31636D01*
X260830Y49924D01*
M02*
