G04 EAGLE Gerber X2 export*
%TF.Part,Single*%
%TF.FileFunction,Other,Other*%
%TF.FilePolarity,Positive*%
%TF.GenerationSoftware,Autodesk,EAGLE,8.6.3*%
%TF.CreationDate,2018-03-24T11:36:11Z*%
G75*
%MOMM*%
%FSLAX34Y34*%
%LPD*%
%AMOC8*
5,1,8,0,0,1.08239X$1,22.5*%
G01*
%ADD10C,0.152400*%


D10*
X406969Y411874D02*
X406969Y428144D01*
X401546Y428144D02*
X412393Y428144D01*
X420629Y411874D02*
X426053Y411874D01*
X428764Y414586D01*
X428764Y420009D01*
X426053Y422721D01*
X420629Y422721D01*
X417918Y420009D01*
X417918Y414586D01*
X420629Y411874D01*
X437001Y414586D02*
X437001Y425432D01*
X437001Y414586D02*
X439712Y411874D01*
X439712Y422721D02*
X434289Y422721D01*
X447915Y422721D02*
X453338Y422721D01*
X456050Y420009D01*
X456050Y411874D01*
X447915Y411874D01*
X445204Y414586D01*
X447915Y417297D01*
X456050Y417297D01*
X461575Y428144D02*
X464287Y428144D01*
X464287Y411874D01*
X466998Y411874D02*
X461575Y411874D01*
X494284Y411874D02*
X494284Y428144D01*
X488861Y428144D02*
X499708Y428144D01*
X505233Y428144D02*
X505233Y411874D01*
X505233Y420009D02*
X507944Y422721D01*
X513368Y422721D01*
X516079Y420009D01*
X516079Y411874D01*
X521604Y422721D02*
X524316Y422721D01*
X524316Y411874D01*
X527027Y411874D02*
X521604Y411874D01*
X524316Y428144D02*
X524316Y430856D01*
X535230Y422721D02*
X543365Y422721D01*
X535230Y422721D02*
X532519Y420009D01*
X532519Y414586D01*
X535230Y411874D01*
X543365Y411874D01*
X548890Y411874D02*
X548890Y428144D01*
X548890Y417297D02*
X557025Y411874D01*
X548890Y417297D02*
X557025Y422721D01*
X562533Y422721D02*
X562533Y411874D01*
X562533Y422721D02*
X570668Y422721D01*
X573380Y420009D01*
X573380Y411874D01*
X581616Y411874D02*
X587040Y411874D01*
X581616Y411874D02*
X578905Y414586D01*
X578905Y420009D01*
X581616Y422721D01*
X587040Y422721D01*
X589751Y420009D01*
X589751Y417297D01*
X578905Y417297D01*
X595276Y411874D02*
X603411Y411874D01*
X606123Y414586D01*
X603411Y417297D01*
X597988Y417297D01*
X595276Y420009D01*
X597988Y422721D01*
X606123Y422721D01*
X611648Y411874D02*
X619783Y411874D01*
X622494Y414586D01*
X619783Y417297D01*
X614359Y417297D01*
X611648Y420009D01*
X614359Y422721D01*
X622494Y422721D01*
X644391Y422721D02*
X649814Y428144D01*
X649814Y411874D01*
X644391Y411874D02*
X655237Y411874D01*
X660762Y411874D02*
X660762Y414586D01*
X663474Y414586D01*
X663474Y411874D01*
X660762Y411874D01*
X674371Y425432D02*
X679795Y428144D01*
X674371Y425432D02*
X668948Y420009D01*
X668948Y414586D01*
X671660Y411874D01*
X677083Y411874D01*
X679795Y414586D01*
X679795Y417297D01*
X677083Y420009D01*
X668948Y420009D01*
X701691Y422721D02*
X701691Y411874D01*
X701691Y422721D02*
X704403Y422721D01*
X707115Y420009D01*
X707115Y411874D01*
X707115Y420009D02*
X709826Y422721D01*
X712538Y420009D01*
X712538Y411874D01*
X718063Y411874D02*
X718063Y422721D01*
X720775Y422721D01*
X723486Y420009D01*
X723486Y411874D01*
X723486Y420009D02*
X726198Y422721D01*
X728909Y420009D01*
X728909Y411874D01*
X412393Y393339D02*
X401546Y393339D01*
X417918Y393339D02*
X428764Y393339D01*
X434289Y393339D02*
X445136Y393339D01*
X450661Y393339D02*
X461507Y393339D01*
X467032Y393339D02*
X477879Y393339D01*
X483404Y393339D02*
X494250Y393339D01*
X499775Y393339D02*
X510622Y393339D01*
X516147Y393339D02*
X526994Y393339D01*
X532519Y393339D02*
X543365Y393339D01*
X548890Y393339D02*
X559737Y393339D01*
X565262Y393339D02*
X576108Y393339D01*
X581633Y393339D02*
X592480Y393339D01*
X598005Y393339D02*
X608851Y393339D01*
X614376Y393339D02*
X625223Y393339D01*
X630748Y393339D02*
X641594Y393339D01*
X647119Y393339D02*
X657966Y393339D01*
X663491Y393339D02*
X674338Y393339D01*
X679863Y393339D02*
X690709Y393339D01*
X696234Y393339D02*
X707081Y393339D01*
X712606Y393339D02*
X723452Y393339D01*
X728977Y393339D02*
X739824Y393339D01*
X745349Y393339D02*
X756195Y393339D01*
X761720Y393339D02*
X772567Y393339D01*
X778092Y393339D02*
X788939Y393339D01*
X794464Y393339D02*
X805310Y393339D01*
X810835Y393339D02*
X821682Y393339D01*
X827207Y393339D02*
X838053Y393339D01*
X843578Y393339D02*
X854425Y393339D01*
X859950Y393339D02*
X870796Y393339D01*
X876321Y393339D02*
X887168Y393339D01*
X892693Y393339D02*
X903539Y393339D01*
X909064Y393339D02*
X919911Y393339D01*
X925436Y393339D02*
X936283Y393339D01*
X941808Y393339D02*
X952654Y393339D01*
X958179Y393339D02*
X969026Y393339D01*
X974551Y393339D02*
X985397Y393339D01*
X990922Y393339D02*
X1001769Y393339D01*
X1007294Y393339D02*
X1018140Y393339D01*
X1023665Y393339D02*
X1034512Y393339D01*
X1040037Y393339D02*
X1050884Y393339D01*
X1056409Y393339D02*
X1067255Y393339D01*
X1072780Y393339D02*
X1083627Y393339D01*
X1089152Y393339D02*
X1099998Y393339D01*
X1105523Y393339D02*
X1116370Y393339D01*
X1121895Y393339D02*
X1132741Y393339D01*
X1138266Y393339D02*
X1149113Y393339D01*
X1154638Y393339D02*
X1165484Y393339D01*
X1171009Y393339D02*
X1181856Y393339D01*
X1187381Y393339D02*
X1198228Y393339D01*
X1203753Y393339D02*
X1214599Y393339D01*
X1220124Y393339D02*
X1230971Y393339D01*
X1236496Y393339D02*
X1247342Y393339D01*
X1252867Y393339D02*
X1263714Y393339D01*
X1269239Y393339D02*
X1280085Y393339D01*
X1285610Y393339D02*
X1296457Y393339D01*
X1301982Y393339D02*
X1312829Y393339D01*
X1318354Y393339D02*
X1329200Y393339D01*
X412393Y342711D02*
X404258Y342711D01*
X401546Y339999D01*
X401546Y334576D01*
X404258Y331864D01*
X412393Y331864D01*
X420629Y331864D02*
X426053Y331864D01*
X428764Y334576D01*
X428764Y339999D01*
X426053Y342711D01*
X420629Y342711D01*
X417918Y339999D01*
X417918Y334576D01*
X420629Y331864D01*
X434289Y326441D02*
X434289Y342711D01*
X442424Y342711D01*
X445136Y339999D01*
X445136Y334576D01*
X442424Y331864D01*
X434289Y331864D01*
X450661Y326441D02*
X450661Y342711D01*
X458796Y342711D01*
X461507Y339999D01*
X461507Y334576D01*
X458796Y331864D01*
X450661Y331864D01*
X469744Y331864D02*
X475167Y331864D01*
X469744Y331864D02*
X467032Y334576D01*
X467032Y339999D01*
X469744Y342711D01*
X475167Y342711D01*
X477879Y339999D01*
X477879Y337287D01*
X467032Y337287D01*
X483404Y331864D02*
X483404Y342711D01*
X488827Y342711D02*
X483404Y337287D01*
X488827Y342711D02*
X491539Y342711D01*
X497047Y329152D02*
X507893Y329152D01*
X516130Y334576D02*
X516130Y345422D01*
X516130Y334576D02*
X518842Y331864D01*
X518842Y342711D02*
X513418Y342711D01*
X527044Y331864D02*
X532468Y331864D01*
X535179Y334576D01*
X535179Y339999D01*
X532468Y342711D01*
X527044Y342711D01*
X524333Y339999D01*
X524333Y334576D01*
X527044Y331864D01*
X540704Y326441D02*
X540704Y342711D01*
X548839Y342711D01*
X551551Y339999D01*
X551551Y334576D01*
X548839Y331864D01*
X540704Y331864D01*
X557076Y329152D02*
X567922Y329152D01*
X573447Y348134D02*
X576159Y348134D01*
X576159Y331864D01*
X573447Y331864D02*
X578871Y331864D01*
X584362Y342711D02*
X589785Y348134D01*
X589785Y331864D01*
X584362Y331864D02*
X595208Y331864D01*
X600733Y331864D02*
X600733Y334576D01*
X603445Y334576D01*
X603445Y331864D01*
X600733Y331864D01*
X614342Y326441D02*
X617054Y326441D01*
X619766Y329152D01*
X619766Y342711D01*
X611631Y342711D01*
X608919Y339999D01*
X608919Y334576D01*
X611631Y331864D01*
X619766Y331864D01*
X625291Y331864D02*
X625291Y348134D01*
X625291Y331864D02*
X633426Y331864D01*
X636137Y334576D01*
X636137Y339999D01*
X633426Y342711D01*
X625291Y342711D01*
X641662Y342711D02*
X641662Y331864D01*
X641662Y337287D02*
X647086Y342711D01*
X649797Y342711D01*
X671677Y342711D02*
X674388Y342711D01*
X674388Y339999D01*
X671677Y339999D01*
X671677Y342711D01*
X671677Y334576D02*
X674388Y334576D01*
X674388Y331864D01*
X671677Y331864D01*
X671677Y334576D01*
X701657Y331864D02*
X701657Y348134D01*
X696234Y348134D02*
X707081Y348134D01*
X715317Y331864D02*
X720741Y331864D01*
X723452Y334576D01*
X723452Y339999D01*
X720741Y342711D01*
X715317Y342711D01*
X712606Y339999D01*
X712606Y334576D01*
X715317Y331864D01*
X728977Y326441D02*
X728977Y342711D01*
X737112Y342711D01*
X739824Y339999D01*
X739824Y334576D01*
X737112Y331864D01*
X728977Y331864D01*
X769855Y348134D02*
X772567Y345422D01*
X769855Y348134D02*
X764432Y348134D01*
X761720Y345422D01*
X761720Y334576D01*
X764432Y331864D01*
X769855Y331864D01*
X772567Y334576D01*
X780804Y331864D02*
X786227Y331864D01*
X788939Y334576D01*
X788939Y339999D01*
X786227Y342711D01*
X780804Y342711D01*
X778092Y339999D01*
X778092Y334576D01*
X780804Y331864D01*
X794464Y331864D02*
X794464Y342711D01*
X802598Y342711D01*
X805310Y339999D01*
X805310Y331864D01*
X821682Y331864D02*
X821682Y348134D01*
X821682Y331864D02*
X813547Y331864D01*
X810835Y334576D01*
X810835Y339999D01*
X813547Y342711D01*
X821682Y342711D01*
X827207Y342711D02*
X827207Y334576D01*
X829918Y331864D01*
X838053Y331864D01*
X838053Y342711D01*
X846290Y342711D02*
X854425Y342711D01*
X846290Y342711D02*
X843578Y339999D01*
X843578Y334576D01*
X846290Y331864D01*
X854425Y331864D01*
X862661Y334576D02*
X862661Y345422D01*
X862661Y334576D02*
X865373Y331864D01*
X865373Y342711D02*
X859950Y342711D01*
X873576Y331864D02*
X878999Y331864D01*
X881711Y334576D01*
X881711Y339999D01*
X878999Y342711D01*
X873576Y342711D01*
X870864Y339999D01*
X870864Y334576D01*
X873576Y331864D01*
X887236Y331864D02*
X887236Y342711D01*
X892659Y342711D02*
X887236Y337287D01*
X892659Y342711D02*
X895371Y342711D01*
X917250Y339999D02*
X928097Y339999D01*
X958128Y348134D02*
X960840Y345422D01*
X958128Y348134D02*
X952705Y348134D01*
X949993Y345422D01*
X949993Y334576D01*
X952705Y331864D01*
X958128Y331864D01*
X960840Y334576D01*
X969077Y331864D02*
X974500Y331864D01*
X977212Y334576D01*
X977212Y339999D01*
X974500Y342711D01*
X969077Y342711D01*
X966365Y339999D01*
X966365Y334576D01*
X969077Y331864D01*
X982736Y326441D02*
X982736Y342711D01*
X990871Y342711D01*
X993583Y339999D01*
X993583Y334576D01*
X990871Y331864D01*
X982736Y331864D01*
X999108Y326441D02*
X999108Y342711D01*
X1007243Y342711D01*
X1009955Y339999D01*
X1009955Y334576D01*
X1007243Y331864D01*
X999108Y331864D01*
X1018191Y331864D02*
X1023615Y331864D01*
X1018191Y331864D02*
X1015480Y334576D01*
X1015480Y339999D01*
X1018191Y342711D01*
X1023615Y342711D01*
X1026326Y339999D01*
X1026326Y337287D01*
X1015480Y337287D01*
X1031851Y331864D02*
X1031851Y342711D01*
X1037274Y342711D02*
X1031851Y337287D01*
X1037274Y342711D02*
X1039986Y342711D01*
X1045494Y342711D02*
X1048206Y342711D01*
X1048206Y339999D01*
X1045494Y339999D01*
X1045494Y342711D01*
X1045494Y334576D02*
X1048206Y334576D01*
X1048206Y331864D01*
X1045494Y331864D01*
X1045494Y334576D01*
X1075475Y331864D02*
X1075475Y348134D01*
X1080898Y348134D02*
X1070051Y348134D01*
X1086423Y348134D02*
X1086423Y331864D01*
X1086423Y339999D02*
X1089135Y342711D01*
X1094558Y342711D01*
X1097270Y339999D01*
X1097270Y331864D01*
X1102795Y342711D02*
X1105506Y342711D01*
X1105506Y331864D01*
X1102795Y331864D02*
X1108218Y331864D01*
X1105506Y348134D02*
X1105506Y350846D01*
X1116421Y342711D02*
X1124556Y342711D01*
X1116421Y342711D02*
X1113709Y339999D01*
X1113709Y334576D01*
X1116421Y331864D01*
X1124556Y331864D01*
X1130081Y331864D02*
X1130081Y348134D01*
X1130081Y337287D02*
X1138215Y331864D01*
X1130081Y337287D02*
X1138215Y342711D01*
X1143724Y342711D02*
X1143724Y331864D01*
X1143724Y342711D02*
X1151858Y342711D01*
X1154570Y339999D01*
X1154570Y331864D01*
X1162807Y331864D02*
X1168230Y331864D01*
X1162807Y331864D02*
X1160095Y334576D01*
X1160095Y339999D01*
X1162807Y342711D01*
X1168230Y342711D01*
X1170942Y339999D01*
X1170942Y337287D01*
X1160095Y337287D01*
X1176467Y331864D02*
X1184602Y331864D01*
X1187313Y334576D01*
X1184602Y337287D01*
X1179178Y337287D01*
X1176467Y339999D01*
X1179178Y342711D01*
X1187313Y342711D01*
X1192838Y331864D02*
X1200973Y331864D01*
X1203685Y334576D01*
X1200973Y337287D01*
X1195550Y337287D01*
X1192838Y339999D01*
X1195550Y342711D01*
X1203685Y342711D01*
X1225581Y345422D02*
X1225581Y334576D01*
X1225581Y345422D02*
X1228293Y348134D01*
X1233716Y348134D01*
X1236428Y345422D01*
X1236428Y334576D01*
X1233716Y331864D01*
X1228293Y331864D01*
X1225581Y334576D01*
X1236428Y345422D01*
X1241953Y334576D02*
X1241953Y331864D01*
X1241953Y334576D02*
X1244665Y334576D01*
X1244665Y331864D01*
X1241953Y331864D01*
X1250139Y334576D02*
X1250139Y345422D01*
X1252850Y348134D01*
X1258274Y348134D01*
X1260985Y345422D01*
X1260985Y334576D01*
X1258274Y331864D01*
X1252850Y331864D01*
X1250139Y334576D01*
X1260985Y345422D01*
X1266510Y345422D02*
X1269222Y348134D01*
X1274645Y348134D01*
X1277357Y345422D01*
X1277357Y342711D01*
X1274645Y339999D01*
X1271934Y339999D01*
X1274645Y339999D02*
X1277357Y337287D01*
X1277357Y334576D01*
X1274645Y331864D01*
X1269222Y331864D01*
X1266510Y334576D01*
X1282882Y348134D02*
X1293728Y348134D01*
X1282882Y348134D02*
X1282882Y339999D01*
X1288305Y342711D01*
X1291017Y342711D01*
X1293728Y339999D01*
X1293728Y334576D01*
X1291017Y331864D01*
X1285593Y331864D01*
X1282882Y334576D01*
X1315625Y331864D02*
X1315625Y342711D01*
X1318337Y342711D01*
X1321048Y339999D01*
X1321048Y331864D01*
X1321048Y339999D02*
X1323760Y342711D01*
X1326472Y339999D01*
X1326472Y331864D01*
X1331996Y331864D02*
X1331996Y342711D01*
X1334708Y342711D01*
X1337420Y339999D01*
X1337420Y331864D01*
X1337420Y339999D02*
X1340131Y342711D01*
X1342843Y339999D01*
X1342843Y331864D01*
X516147Y294794D02*
X516147Y278524D01*
X524282Y278524D01*
X526994Y281236D01*
X526994Y292082D01*
X524282Y294794D01*
X516147Y294794D01*
X532519Y289371D02*
X535230Y289371D01*
X535230Y278524D01*
X532519Y278524D02*
X537942Y278524D01*
X535230Y294794D02*
X535230Y297506D01*
X546145Y278524D02*
X551568Y278524D01*
X546145Y278524D02*
X543433Y281236D01*
X543433Y286659D01*
X546145Y289371D01*
X551568Y289371D01*
X554279Y286659D01*
X554279Y283947D01*
X543433Y283947D01*
X559804Y294794D02*
X562516Y294794D01*
X562516Y278524D01*
X559804Y278524D02*
X565228Y278524D01*
X573430Y278524D02*
X578854Y278524D01*
X573430Y278524D02*
X570719Y281236D01*
X570719Y286659D01*
X573430Y289371D01*
X578854Y289371D01*
X581565Y286659D01*
X581565Y283947D01*
X570719Y283947D01*
X589802Y289371D02*
X597937Y289371D01*
X589802Y289371D02*
X587090Y286659D01*
X587090Y281236D01*
X589802Y278524D01*
X597937Y278524D01*
X606174Y281236D02*
X606174Y292082D01*
X606174Y281236D02*
X608885Y278524D01*
X608885Y289371D02*
X603462Y289371D01*
X614376Y289371D02*
X614376Y278524D01*
X614376Y283947D02*
X619800Y289371D01*
X622511Y289371D01*
X628019Y289371D02*
X630731Y289371D01*
X630731Y278524D01*
X628019Y278524D02*
X633443Y278524D01*
X630731Y294794D02*
X630731Y297506D01*
X641645Y289371D02*
X649780Y289371D01*
X641645Y289371D02*
X638934Y286659D01*
X638934Y281236D01*
X641645Y278524D01*
X649780Y278524D01*
X671677Y286659D02*
X682523Y286659D01*
X704420Y278524D02*
X704420Y294794D01*
X715267Y294794D01*
X709843Y286659D02*
X704420Y286659D01*
X720791Y278524D02*
X720791Y294794D01*
X728926Y294794D01*
X731638Y292082D01*
X731638Y286659D01*
X728926Y283947D01*
X720791Y283947D01*
X726215Y283947D02*
X731638Y278524D01*
X737163Y286659D02*
X748010Y286659D01*
X761670Y278524D02*
X761670Y294794D01*
X753535Y286659D01*
X764381Y286659D01*
X769906Y289371D02*
X772618Y289371D01*
X772618Y286659D01*
X769906Y286659D01*
X769906Y289371D01*
X769906Y281236D02*
X772618Y281236D01*
X772618Y278524D01*
X769906Y278524D01*
X769906Y281236D01*
X799887Y278524D02*
X799887Y294794D01*
X794464Y294794D02*
X805310Y294794D01*
X810835Y294794D02*
X810835Y278524D01*
X810835Y286659D02*
X813547Y289371D01*
X818970Y289371D01*
X821682Y286659D01*
X821682Y278524D01*
X827207Y289371D02*
X829918Y289371D01*
X829918Y278524D01*
X827207Y278524D02*
X832630Y278524D01*
X829918Y294794D02*
X829918Y297506D01*
X840833Y289371D02*
X848968Y289371D01*
X840833Y289371D02*
X838121Y286659D01*
X838121Y281236D01*
X840833Y278524D01*
X848968Y278524D01*
X854493Y278524D02*
X854493Y294794D01*
X854493Y283947D02*
X862628Y278524D01*
X854493Y283947D02*
X862628Y289371D01*
X868136Y289371D02*
X868136Y278524D01*
X868136Y289371D02*
X876270Y289371D01*
X878982Y286659D01*
X878982Y278524D01*
X887219Y278524D02*
X892642Y278524D01*
X887219Y278524D02*
X884507Y281236D01*
X884507Y286659D01*
X887219Y289371D01*
X892642Y289371D01*
X895354Y286659D01*
X895354Y283947D01*
X884507Y283947D01*
X900879Y278524D02*
X909014Y278524D01*
X911725Y281236D01*
X909014Y283947D01*
X903590Y283947D01*
X900879Y286659D01*
X903590Y289371D01*
X911725Y289371D01*
X917250Y278524D02*
X925385Y278524D01*
X928097Y281236D01*
X925385Y283947D01*
X919962Y283947D01*
X917250Y286659D01*
X919962Y289371D01*
X928097Y289371D01*
X949993Y292082D02*
X949993Y281236D01*
X949993Y292082D02*
X952705Y294794D01*
X958128Y294794D01*
X960840Y292082D01*
X960840Y281236D01*
X958128Y278524D01*
X952705Y278524D01*
X949993Y281236D01*
X960840Y292082D01*
X966365Y281236D02*
X966365Y278524D01*
X966365Y281236D02*
X969077Y281236D01*
X969077Y278524D01*
X966365Y278524D01*
X974551Y289371D02*
X979974Y294794D01*
X979974Y278524D01*
X974551Y278524D02*
X985397Y278524D01*
X990922Y294794D02*
X1001769Y294794D01*
X1001769Y292082D01*
X990922Y281236D01*
X990922Y278524D01*
X1007294Y294794D02*
X1018140Y294794D01*
X1007294Y294794D02*
X1007294Y286659D01*
X1012717Y289371D01*
X1015429Y289371D01*
X1018140Y286659D01*
X1018140Y281236D01*
X1015429Y278524D01*
X1010005Y278524D01*
X1007294Y281236D01*
X1040037Y278524D02*
X1040037Y289371D01*
X1042749Y289371D01*
X1045460Y286659D01*
X1045460Y278524D01*
X1045460Y286659D02*
X1048172Y289371D01*
X1050884Y286659D01*
X1050884Y278524D01*
X1056409Y278524D02*
X1056409Y289371D01*
X1059120Y289371D01*
X1061832Y286659D01*
X1061832Y278524D01*
X1061832Y286659D02*
X1064543Y289371D01*
X1067255Y286659D01*
X1067255Y278524D01*
X412393Y236031D02*
X404258Y236031D01*
X401546Y233319D01*
X401546Y227896D01*
X404258Y225184D01*
X412393Y225184D01*
X420629Y225184D02*
X426053Y225184D01*
X428764Y227896D01*
X428764Y233319D01*
X426053Y236031D01*
X420629Y236031D01*
X417918Y233319D01*
X417918Y227896D01*
X420629Y225184D01*
X434289Y219761D02*
X434289Y236031D01*
X442424Y236031D01*
X445136Y233319D01*
X445136Y227896D01*
X442424Y225184D01*
X434289Y225184D01*
X450661Y219761D02*
X450661Y236031D01*
X458796Y236031D01*
X461507Y233319D01*
X461507Y227896D01*
X458796Y225184D01*
X450661Y225184D01*
X469744Y225184D02*
X475167Y225184D01*
X469744Y225184D02*
X467032Y227896D01*
X467032Y233319D01*
X469744Y236031D01*
X475167Y236031D01*
X477879Y233319D01*
X477879Y230607D01*
X467032Y230607D01*
X483404Y225184D02*
X483404Y236031D01*
X488827Y236031D02*
X483404Y230607D01*
X488827Y236031D02*
X491539Y236031D01*
X497047Y222472D02*
X507893Y222472D01*
X513418Y236031D02*
X516130Y236031D01*
X516130Y225184D01*
X513418Y225184D02*
X518842Y225184D01*
X516130Y241454D02*
X516130Y244166D01*
X524333Y236031D02*
X524333Y225184D01*
X524333Y236031D02*
X532468Y236031D01*
X535179Y233319D01*
X535179Y225184D01*
X540704Y225184D02*
X540704Y236031D01*
X548839Y236031D01*
X551551Y233319D01*
X551551Y225184D01*
X559787Y225184D02*
X565211Y225184D01*
X559787Y225184D02*
X557076Y227896D01*
X557076Y233319D01*
X559787Y236031D01*
X565211Y236031D01*
X567922Y233319D01*
X567922Y230607D01*
X557076Y230607D01*
X573447Y225184D02*
X573447Y236031D01*
X573447Y230607D02*
X578871Y236031D01*
X581582Y236031D01*
X587090Y222472D02*
X597937Y222472D01*
X603462Y241454D02*
X606174Y241454D01*
X606174Y225184D01*
X608885Y225184D02*
X603462Y225184D01*
X614376Y225184D02*
X625223Y225184D01*
X614376Y225184D02*
X625223Y236031D01*
X625223Y238742D01*
X622511Y241454D01*
X617088Y241454D01*
X614376Y238742D01*
X630748Y227896D02*
X630748Y225184D01*
X630748Y227896D02*
X633460Y227896D01*
X633460Y225184D01*
X630748Y225184D01*
X644357Y219761D02*
X647069Y219761D01*
X649780Y222472D01*
X649780Y236031D01*
X641645Y236031D01*
X638934Y233319D01*
X638934Y227896D01*
X641645Y225184D01*
X649780Y225184D01*
X655305Y225184D02*
X655305Y241454D01*
X655305Y225184D02*
X663440Y225184D01*
X666152Y227896D01*
X666152Y233319D01*
X663440Y236031D01*
X655305Y236031D01*
X671677Y236031D02*
X671677Y225184D01*
X671677Y230607D02*
X677100Y236031D01*
X679812Y236031D01*
X701691Y236031D02*
X704403Y236031D01*
X704403Y233319D01*
X701691Y233319D01*
X701691Y236031D01*
X701691Y227896D02*
X704403Y227896D01*
X704403Y225184D01*
X701691Y225184D01*
X701691Y227896D01*
X734384Y241454D02*
X737095Y238742D01*
X734384Y241454D02*
X728960Y241454D01*
X726249Y238742D01*
X726249Y227896D01*
X728960Y225184D01*
X734384Y225184D01*
X737095Y227896D01*
X737095Y233319D01*
X731672Y233319D01*
X742620Y225184D02*
X742620Y241454D01*
X753467Y225184D01*
X753467Y241454D01*
X758992Y241454D02*
X758992Y225184D01*
X767127Y225184D01*
X769838Y227896D01*
X769838Y238742D01*
X767127Y241454D01*
X758992Y241454D01*
X791735Y241454D02*
X791735Y225184D01*
X791735Y241454D02*
X799870Y241454D01*
X802582Y238742D01*
X802582Y233319D01*
X799870Y230607D01*
X791735Y230607D01*
X808106Y241454D02*
X810818Y241454D01*
X810818Y225184D01*
X808106Y225184D02*
X813530Y225184D01*
X821732Y236031D02*
X827156Y236031D01*
X829867Y233319D01*
X829867Y225184D01*
X821732Y225184D01*
X819021Y227896D01*
X821732Y230607D01*
X829867Y230607D01*
X835392Y225184D02*
X835392Y236031D01*
X843527Y236031D01*
X846239Y233319D01*
X846239Y225184D01*
X854476Y225184D02*
X859899Y225184D01*
X854476Y225184D02*
X851764Y227896D01*
X851764Y233319D01*
X854476Y236031D01*
X859899Y236031D01*
X862611Y233319D01*
X862611Y230607D01*
X851764Y230607D01*
X917250Y233319D02*
X928097Y233319D01*
X958128Y241454D02*
X960840Y238742D01*
X958128Y241454D02*
X952705Y241454D01*
X949993Y238742D01*
X949993Y227896D01*
X952705Y225184D01*
X958128Y225184D01*
X960840Y227896D01*
X969077Y225184D02*
X974500Y225184D01*
X977212Y227896D01*
X977212Y233319D01*
X974500Y236031D01*
X969077Y236031D01*
X966365Y233319D01*
X966365Y227896D01*
X969077Y225184D01*
X982736Y219761D02*
X982736Y236031D01*
X990871Y236031D01*
X993583Y233319D01*
X993583Y227896D01*
X990871Y225184D01*
X982736Y225184D01*
X999108Y219761D02*
X999108Y236031D01*
X1007243Y236031D01*
X1009955Y233319D01*
X1009955Y227896D01*
X1007243Y225184D01*
X999108Y225184D01*
X1018191Y225184D02*
X1023615Y225184D01*
X1018191Y225184D02*
X1015480Y227896D01*
X1015480Y233319D01*
X1018191Y236031D01*
X1023615Y236031D01*
X1026326Y233319D01*
X1026326Y230607D01*
X1015480Y230607D01*
X1031851Y225184D02*
X1031851Y236031D01*
X1037274Y236031D02*
X1031851Y230607D01*
X1037274Y236031D02*
X1039986Y236031D01*
X1045494Y236031D02*
X1048206Y236031D01*
X1048206Y233319D01*
X1045494Y233319D01*
X1045494Y236031D01*
X1045494Y227896D02*
X1048206Y227896D01*
X1048206Y225184D01*
X1045494Y225184D01*
X1045494Y227896D01*
X1075475Y225184D02*
X1075475Y241454D01*
X1080898Y241454D02*
X1070051Y241454D01*
X1086423Y241454D02*
X1086423Y225184D01*
X1086423Y233319D02*
X1089135Y236031D01*
X1094558Y236031D01*
X1097270Y233319D01*
X1097270Y225184D01*
X1102795Y236031D02*
X1105506Y236031D01*
X1105506Y225184D01*
X1102795Y225184D02*
X1108218Y225184D01*
X1105506Y241454D02*
X1105506Y244166D01*
X1116421Y236031D02*
X1124556Y236031D01*
X1116421Y236031D02*
X1113709Y233319D01*
X1113709Y227896D01*
X1116421Y225184D01*
X1124556Y225184D01*
X1130081Y225184D02*
X1130081Y241454D01*
X1130081Y230607D02*
X1138215Y225184D01*
X1130081Y230607D02*
X1138215Y236031D01*
X1143724Y236031D02*
X1143724Y225184D01*
X1143724Y236031D02*
X1151858Y236031D01*
X1154570Y233319D01*
X1154570Y225184D01*
X1162807Y225184D02*
X1168230Y225184D01*
X1162807Y225184D02*
X1160095Y227896D01*
X1160095Y233319D01*
X1162807Y236031D01*
X1168230Y236031D01*
X1170942Y233319D01*
X1170942Y230607D01*
X1160095Y230607D01*
X1176467Y225184D02*
X1184602Y225184D01*
X1187313Y227896D01*
X1184602Y230607D01*
X1179178Y230607D01*
X1176467Y233319D01*
X1179178Y236031D01*
X1187313Y236031D01*
X1192838Y225184D02*
X1200973Y225184D01*
X1203685Y227896D01*
X1200973Y230607D01*
X1195550Y230607D01*
X1192838Y233319D01*
X1195550Y236031D01*
X1203685Y236031D01*
X1225581Y238742D02*
X1225581Y227896D01*
X1225581Y238742D02*
X1228293Y241454D01*
X1233716Y241454D01*
X1236428Y238742D01*
X1236428Y227896D01*
X1233716Y225184D01*
X1228293Y225184D01*
X1225581Y227896D01*
X1236428Y238742D01*
X1241953Y227896D02*
X1241953Y225184D01*
X1241953Y227896D02*
X1244665Y227896D01*
X1244665Y225184D01*
X1241953Y225184D01*
X1250139Y227896D02*
X1250139Y238742D01*
X1252850Y241454D01*
X1258274Y241454D01*
X1260985Y238742D01*
X1260985Y227896D01*
X1258274Y225184D01*
X1252850Y225184D01*
X1250139Y227896D01*
X1260985Y238742D01*
X1266510Y238742D02*
X1269222Y241454D01*
X1274645Y241454D01*
X1277357Y238742D01*
X1277357Y236031D01*
X1274645Y233319D01*
X1271934Y233319D01*
X1274645Y233319D02*
X1277357Y230607D01*
X1277357Y227896D01*
X1274645Y225184D01*
X1269222Y225184D01*
X1266510Y227896D01*
X1282882Y241454D02*
X1293728Y241454D01*
X1282882Y241454D02*
X1282882Y233319D01*
X1288305Y236031D01*
X1291017Y236031D01*
X1293728Y233319D01*
X1293728Y227896D01*
X1291017Y225184D01*
X1285593Y225184D01*
X1282882Y227896D01*
X1315625Y225184D02*
X1315625Y236031D01*
X1318337Y236031D01*
X1321048Y233319D01*
X1321048Y225184D01*
X1321048Y233319D02*
X1323760Y236031D01*
X1326472Y233319D01*
X1326472Y225184D01*
X1331996Y225184D02*
X1331996Y236031D01*
X1334708Y236031D01*
X1337420Y233319D01*
X1337420Y225184D01*
X1337420Y233319D02*
X1340131Y236031D01*
X1342843Y233319D01*
X1342843Y225184D01*
X516147Y188114D02*
X516147Y171844D01*
X524282Y171844D01*
X526994Y174556D01*
X526994Y185402D01*
X524282Y188114D01*
X516147Y188114D01*
X532519Y182691D02*
X535230Y182691D01*
X535230Y171844D01*
X532519Y171844D02*
X537942Y171844D01*
X535230Y188114D02*
X535230Y190826D01*
X546145Y171844D02*
X551568Y171844D01*
X546145Y171844D02*
X543433Y174556D01*
X543433Y179979D01*
X546145Y182691D01*
X551568Y182691D01*
X554279Y179979D01*
X554279Y177267D01*
X543433Y177267D01*
X559804Y188114D02*
X562516Y188114D01*
X562516Y171844D01*
X559804Y171844D02*
X565228Y171844D01*
X573430Y171844D02*
X578854Y171844D01*
X573430Y171844D02*
X570719Y174556D01*
X570719Y179979D01*
X573430Y182691D01*
X578854Y182691D01*
X581565Y179979D01*
X581565Y177267D01*
X570719Y177267D01*
X589802Y182691D02*
X597937Y182691D01*
X589802Y182691D02*
X587090Y179979D01*
X587090Y174556D01*
X589802Y171844D01*
X597937Y171844D01*
X606174Y174556D02*
X606174Y185402D01*
X606174Y174556D02*
X608885Y171844D01*
X608885Y182691D02*
X603462Y182691D01*
X614376Y182691D02*
X614376Y171844D01*
X614376Y177267D02*
X619800Y182691D01*
X622511Y182691D01*
X628019Y182691D02*
X630731Y182691D01*
X630731Y171844D01*
X628019Y171844D02*
X633443Y171844D01*
X630731Y188114D02*
X630731Y190826D01*
X641645Y182691D02*
X649780Y182691D01*
X641645Y182691D02*
X638934Y179979D01*
X638934Y174556D01*
X641645Y171844D01*
X649780Y171844D01*
X671677Y179979D02*
X682523Y179979D01*
X704420Y171844D02*
X704420Y188114D01*
X715267Y188114D01*
X709843Y179979D02*
X704420Y179979D01*
X720791Y171844D02*
X720791Y188114D01*
X728926Y188114D01*
X731638Y185402D01*
X731638Y179979D01*
X728926Y177267D01*
X720791Y177267D01*
X726215Y177267D02*
X731638Y171844D01*
X737163Y179979D02*
X748010Y179979D01*
X761670Y171844D02*
X761670Y188114D01*
X753535Y179979D01*
X764381Y179979D01*
X769906Y182691D02*
X772618Y182691D01*
X772618Y179979D01*
X769906Y179979D01*
X769906Y182691D01*
X769906Y174556D02*
X772618Y174556D01*
X772618Y171844D01*
X769906Y171844D01*
X769906Y174556D01*
X799887Y171844D02*
X799887Y188114D01*
X794464Y188114D02*
X805310Y188114D01*
X810835Y188114D02*
X810835Y171844D01*
X810835Y179979D02*
X813547Y182691D01*
X818970Y182691D01*
X821682Y179979D01*
X821682Y171844D01*
X827207Y182691D02*
X829918Y182691D01*
X829918Y171844D01*
X827207Y171844D02*
X832630Y171844D01*
X829918Y188114D02*
X829918Y190826D01*
X840833Y182691D02*
X848968Y182691D01*
X840833Y182691D02*
X838121Y179979D01*
X838121Y174556D01*
X840833Y171844D01*
X848968Y171844D01*
X854493Y171844D02*
X854493Y188114D01*
X854493Y177267D02*
X862628Y171844D01*
X854493Y177267D02*
X862628Y182691D01*
X868136Y182691D02*
X868136Y171844D01*
X868136Y182691D02*
X876270Y182691D01*
X878982Y179979D01*
X878982Y171844D01*
X887219Y171844D02*
X892642Y171844D01*
X887219Y171844D02*
X884507Y174556D01*
X884507Y179979D01*
X887219Y182691D01*
X892642Y182691D01*
X895354Y179979D01*
X895354Y177267D01*
X884507Y177267D01*
X900879Y171844D02*
X909014Y171844D01*
X911725Y174556D01*
X909014Y177267D01*
X903590Y177267D01*
X900879Y179979D01*
X903590Y182691D01*
X911725Y182691D01*
X917250Y171844D02*
X925385Y171844D01*
X928097Y174556D01*
X925385Y177267D01*
X919962Y177267D01*
X917250Y179979D01*
X919962Y182691D01*
X928097Y182691D01*
X949993Y182691D02*
X955417Y188114D01*
X955417Y171844D01*
X960840Y171844D02*
X949993Y171844D01*
X966365Y171844D02*
X966365Y174556D01*
X969077Y174556D01*
X969077Y171844D01*
X966365Y171844D01*
X974551Y182691D02*
X979974Y188114D01*
X979974Y171844D01*
X974551Y171844D02*
X985397Y171844D01*
X990922Y182691D02*
X996346Y188114D01*
X996346Y171844D01*
X1001769Y171844D02*
X990922Y171844D01*
X1023665Y171844D02*
X1023665Y182691D01*
X1026377Y182691D01*
X1029089Y179979D01*
X1029089Y171844D01*
X1029089Y179979D02*
X1031800Y182691D01*
X1034512Y179979D01*
X1034512Y171844D01*
X1040037Y171844D02*
X1040037Y182691D01*
X1042749Y182691D01*
X1045460Y179979D01*
X1045460Y171844D01*
X1045460Y179979D02*
X1048172Y182691D01*
X1050884Y179979D01*
X1050884Y171844D01*
X412393Y129351D02*
X404258Y129351D01*
X401546Y126639D01*
X401546Y121216D01*
X404258Y118504D01*
X412393Y118504D01*
X420629Y118504D02*
X426053Y118504D01*
X428764Y121216D01*
X428764Y126639D01*
X426053Y129351D01*
X420629Y129351D01*
X417918Y126639D01*
X417918Y121216D01*
X420629Y118504D01*
X434289Y113081D02*
X434289Y129351D01*
X442424Y129351D01*
X445136Y126639D01*
X445136Y121216D01*
X442424Y118504D01*
X434289Y118504D01*
X450661Y113081D02*
X450661Y129351D01*
X458796Y129351D01*
X461507Y126639D01*
X461507Y121216D01*
X458796Y118504D01*
X450661Y118504D01*
X469744Y118504D02*
X475167Y118504D01*
X469744Y118504D02*
X467032Y121216D01*
X467032Y126639D01*
X469744Y129351D01*
X475167Y129351D01*
X477879Y126639D01*
X477879Y123927D01*
X467032Y123927D01*
X483404Y118504D02*
X483404Y129351D01*
X488827Y129351D02*
X483404Y123927D01*
X488827Y129351D02*
X491539Y129351D01*
X497047Y115792D02*
X507893Y115792D01*
X513418Y129351D02*
X516130Y129351D01*
X516130Y118504D01*
X513418Y118504D02*
X518842Y118504D01*
X516130Y134774D02*
X516130Y137486D01*
X524333Y129351D02*
X524333Y118504D01*
X524333Y129351D02*
X532468Y129351D01*
X535179Y126639D01*
X535179Y118504D01*
X540704Y118504D02*
X540704Y129351D01*
X548839Y129351D01*
X551551Y126639D01*
X551551Y118504D01*
X559787Y118504D02*
X565211Y118504D01*
X559787Y118504D02*
X557076Y121216D01*
X557076Y126639D01*
X559787Y129351D01*
X565211Y129351D01*
X567922Y126639D01*
X567922Y123927D01*
X557076Y123927D01*
X573447Y118504D02*
X573447Y129351D01*
X573447Y123927D02*
X578871Y129351D01*
X581582Y129351D01*
X587090Y115792D02*
X597937Y115792D01*
X603462Y134774D02*
X606174Y134774D01*
X606174Y118504D01*
X608885Y118504D02*
X603462Y118504D01*
X614376Y132062D02*
X617088Y134774D01*
X622511Y134774D01*
X625223Y132062D01*
X625223Y129351D01*
X622511Y126639D01*
X619800Y126639D01*
X622511Y126639D02*
X625223Y123927D01*
X625223Y121216D01*
X622511Y118504D01*
X617088Y118504D01*
X614376Y121216D01*
X630748Y121216D02*
X630748Y118504D01*
X630748Y121216D02*
X633460Y121216D01*
X633460Y118504D01*
X630748Y118504D01*
X644357Y113081D02*
X647069Y113081D01*
X649780Y115792D01*
X649780Y129351D01*
X641645Y129351D01*
X638934Y126639D01*
X638934Y121216D01*
X641645Y118504D01*
X649780Y118504D01*
X655305Y118504D02*
X655305Y134774D01*
X655305Y118504D02*
X663440Y118504D01*
X666152Y121216D01*
X666152Y126639D01*
X663440Y129351D01*
X655305Y129351D01*
X671677Y129351D02*
X671677Y118504D01*
X671677Y123927D02*
X677100Y129351D01*
X679812Y129351D01*
X701691Y129351D02*
X704403Y129351D01*
X704403Y126639D01*
X701691Y126639D01*
X701691Y129351D01*
X701691Y121216D02*
X704403Y121216D01*
X704403Y118504D01*
X701691Y118504D01*
X701691Y121216D01*
X726249Y123927D02*
X726249Y134774D01*
X726249Y123927D02*
X731672Y118504D01*
X737095Y123927D01*
X737095Y134774D01*
X742620Y134774D02*
X742620Y118504D01*
X750755Y118504D01*
X753467Y121216D01*
X753467Y132062D01*
X750755Y134774D01*
X742620Y134774D01*
X758992Y134774D02*
X758992Y118504D01*
X767127Y118504D01*
X769838Y121216D01*
X769838Y132062D01*
X767127Y134774D01*
X758992Y134774D01*
X791735Y134774D02*
X791735Y118504D01*
X791735Y134774D02*
X799870Y134774D01*
X802582Y132062D01*
X802582Y126639D01*
X799870Y123927D01*
X791735Y123927D01*
X808106Y134774D02*
X810818Y134774D01*
X810818Y118504D01*
X808106Y118504D02*
X813530Y118504D01*
X821732Y129351D02*
X827156Y129351D01*
X829867Y126639D01*
X829867Y118504D01*
X821732Y118504D01*
X819021Y121216D01*
X821732Y123927D01*
X829867Y123927D01*
X835392Y118504D02*
X835392Y129351D01*
X843527Y129351D01*
X846239Y126639D01*
X846239Y118504D01*
X854476Y118504D02*
X859899Y118504D01*
X854476Y118504D02*
X851764Y121216D01*
X851764Y126639D01*
X854476Y129351D01*
X859899Y129351D01*
X862611Y126639D01*
X862611Y123927D01*
X851764Y123927D01*
X884507Y126639D02*
X895354Y126639D01*
X925385Y134774D02*
X928097Y132062D01*
X925385Y134774D02*
X919962Y134774D01*
X917250Y132062D01*
X917250Y121216D01*
X919962Y118504D01*
X925385Y118504D01*
X928097Y121216D01*
X936333Y118504D02*
X941757Y118504D01*
X944468Y121216D01*
X944468Y126639D01*
X941757Y129351D01*
X936333Y129351D01*
X933622Y126639D01*
X933622Y121216D01*
X936333Y118504D01*
X949993Y113081D02*
X949993Y129351D01*
X958128Y129351D01*
X960840Y126639D01*
X960840Y121216D01*
X958128Y118504D01*
X949993Y118504D01*
X966365Y113081D02*
X966365Y129351D01*
X974500Y129351D01*
X977212Y126639D01*
X977212Y121216D01*
X974500Y118504D01*
X966365Y118504D01*
X985448Y118504D02*
X990871Y118504D01*
X985448Y118504D02*
X982736Y121216D01*
X982736Y126639D01*
X985448Y129351D01*
X990871Y129351D01*
X993583Y126639D01*
X993583Y123927D01*
X982736Y123927D01*
X999108Y118504D02*
X999108Y129351D01*
X1004531Y129351D02*
X999108Y123927D01*
X1004531Y129351D02*
X1007243Y129351D01*
X1012751Y129351D02*
X1015463Y129351D01*
X1015463Y126639D01*
X1012751Y126639D01*
X1012751Y129351D01*
X1012751Y121216D02*
X1015463Y121216D01*
X1015463Y118504D01*
X1012751Y118504D01*
X1012751Y121216D01*
X1042732Y118504D02*
X1042732Y134774D01*
X1048155Y134774D02*
X1037308Y134774D01*
X1053680Y134774D02*
X1053680Y118504D01*
X1053680Y126639D02*
X1056392Y129351D01*
X1061815Y129351D01*
X1064527Y126639D01*
X1064527Y118504D01*
X1070051Y129351D02*
X1072763Y129351D01*
X1072763Y118504D01*
X1070051Y118504D02*
X1075475Y118504D01*
X1072763Y134774D02*
X1072763Y137486D01*
X1083677Y129351D02*
X1091812Y129351D01*
X1083677Y129351D02*
X1080966Y126639D01*
X1080966Y121216D01*
X1083677Y118504D01*
X1091812Y118504D01*
X1097337Y118504D02*
X1097337Y134774D01*
X1097337Y123927D02*
X1105472Y118504D01*
X1097337Y123927D02*
X1105472Y129351D01*
X1110980Y129351D02*
X1110980Y118504D01*
X1110980Y129351D02*
X1119115Y129351D01*
X1121827Y126639D01*
X1121827Y118504D01*
X1130064Y118504D02*
X1135487Y118504D01*
X1130064Y118504D02*
X1127352Y121216D01*
X1127352Y126639D01*
X1130064Y129351D01*
X1135487Y129351D01*
X1138199Y126639D01*
X1138199Y123927D01*
X1127352Y123927D01*
X1143724Y118504D02*
X1151858Y118504D01*
X1154570Y121216D01*
X1151858Y123927D01*
X1146435Y123927D01*
X1143724Y126639D01*
X1146435Y129351D01*
X1154570Y129351D01*
X1160095Y118504D02*
X1168230Y118504D01*
X1170942Y121216D01*
X1168230Y123927D01*
X1162807Y123927D01*
X1160095Y126639D01*
X1162807Y129351D01*
X1170942Y129351D01*
X1192838Y132062D02*
X1192838Y121216D01*
X1192838Y132062D02*
X1195550Y134774D01*
X1200973Y134774D01*
X1203685Y132062D01*
X1203685Y121216D01*
X1200973Y118504D01*
X1195550Y118504D01*
X1192838Y121216D01*
X1203685Y132062D01*
X1209210Y121216D02*
X1209210Y118504D01*
X1209210Y121216D02*
X1211921Y121216D01*
X1211921Y118504D01*
X1209210Y118504D01*
X1217396Y121216D02*
X1217396Y132062D01*
X1220107Y134774D01*
X1225530Y134774D01*
X1228242Y132062D01*
X1228242Y121216D01*
X1225530Y118504D01*
X1220107Y118504D01*
X1217396Y121216D01*
X1228242Y132062D01*
X1233767Y132062D02*
X1236479Y134774D01*
X1241902Y134774D01*
X1244614Y132062D01*
X1244614Y129351D01*
X1241902Y126639D01*
X1239190Y126639D01*
X1241902Y126639D02*
X1244614Y123927D01*
X1244614Y121216D01*
X1241902Y118504D01*
X1236479Y118504D01*
X1233767Y121216D01*
X1250139Y134774D02*
X1260985Y134774D01*
X1250139Y134774D02*
X1250139Y126639D01*
X1255562Y129351D01*
X1258274Y129351D01*
X1260985Y126639D01*
X1260985Y121216D01*
X1258274Y118504D01*
X1252850Y118504D01*
X1250139Y121216D01*
X1282882Y118504D02*
X1282882Y129351D01*
X1285593Y129351D01*
X1288305Y126639D01*
X1288305Y118504D01*
X1288305Y126639D02*
X1291017Y129351D01*
X1293728Y126639D01*
X1293728Y118504D01*
X1299253Y118504D02*
X1299253Y129351D01*
X1301965Y129351D01*
X1304677Y126639D01*
X1304677Y118504D01*
X1304677Y126639D02*
X1307388Y129351D01*
X1310100Y126639D01*
X1310100Y118504D01*
X516147Y81434D02*
X516147Y65164D01*
X524282Y65164D01*
X526994Y67876D01*
X526994Y78722D01*
X524282Y81434D01*
X516147Y81434D01*
X532519Y76011D02*
X535230Y76011D01*
X535230Y65164D01*
X532519Y65164D02*
X537942Y65164D01*
X535230Y81434D02*
X535230Y84146D01*
X546145Y65164D02*
X551568Y65164D01*
X546145Y65164D02*
X543433Y67876D01*
X543433Y73299D01*
X546145Y76011D01*
X551568Y76011D01*
X554279Y73299D01*
X554279Y70587D01*
X543433Y70587D01*
X559804Y81434D02*
X562516Y81434D01*
X562516Y65164D01*
X559804Y65164D02*
X565228Y65164D01*
X573430Y65164D02*
X578854Y65164D01*
X573430Y65164D02*
X570719Y67876D01*
X570719Y73299D01*
X573430Y76011D01*
X578854Y76011D01*
X581565Y73299D01*
X581565Y70587D01*
X570719Y70587D01*
X589802Y76011D02*
X597937Y76011D01*
X589802Y76011D02*
X587090Y73299D01*
X587090Y67876D01*
X589802Y65164D01*
X597937Y65164D01*
X606174Y67876D02*
X606174Y78722D01*
X606174Y67876D02*
X608885Y65164D01*
X608885Y76011D02*
X603462Y76011D01*
X614376Y76011D02*
X614376Y65164D01*
X614376Y70587D02*
X619800Y76011D01*
X622511Y76011D01*
X628019Y76011D02*
X630731Y76011D01*
X630731Y65164D01*
X628019Y65164D02*
X633443Y65164D01*
X630731Y81434D02*
X630731Y84146D01*
X641645Y76011D02*
X649780Y76011D01*
X641645Y76011D02*
X638934Y73299D01*
X638934Y67876D01*
X641645Y65164D01*
X649780Y65164D01*
X671677Y73299D02*
X682523Y73299D01*
X704420Y65164D02*
X704420Y81434D01*
X715267Y81434D01*
X709843Y73299D02*
X704420Y73299D01*
X720791Y65164D02*
X720791Y81434D01*
X728926Y81434D01*
X731638Y78722D01*
X731638Y73299D01*
X728926Y70587D01*
X720791Y70587D01*
X726215Y70587D02*
X731638Y65164D01*
X737163Y73299D02*
X748010Y73299D01*
X761670Y65164D02*
X761670Y81434D01*
X753535Y73299D01*
X764381Y73299D01*
X769906Y76011D02*
X772618Y76011D01*
X772618Y73299D01*
X769906Y73299D01*
X769906Y76011D01*
X769906Y67876D02*
X772618Y67876D01*
X772618Y65164D01*
X769906Y65164D01*
X769906Y67876D01*
X799887Y65164D02*
X799887Y81434D01*
X794464Y81434D02*
X805310Y81434D01*
X810835Y81434D02*
X810835Y65164D01*
X810835Y73299D02*
X813547Y76011D01*
X818970Y76011D01*
X821682Y73299D01*
X821682Y65164D01*
X827207Y76011D02*
X829918Y76011D01*
X829918Y65164D01*
X827207Y65164D02*
X832630Y65164D01*
X829918Y81434D02*
X829918Y84146D01*
X840833Y76011D02*
X848968Y76011D01*
X840833Y76011D02*
X838121Y73299D01*
X838121Y67876D01*
X840833Y65164D01*
X848968Y65164D01*
X854493Y65164D02*
X854493Y81434D01*
X854493Y70587D02*
X862628Y65164D01*
X854493Y70587D02*
X862628Y76011D01*
X868136Y76011D02*
X868136Y65164D01*
X868136Y76011D02*
X876270Y76011D01*
X878982Y73299D01*
X878982Y65164D01*
X887219Y65164D02*
X892642Y65164D01*
X887219Y65164D02*
X884507Y67876D01*
X884507Y73299D01*
X887219Y76011D01*
X892642Y76011D01*
X895354Y73299D01*
X895354Y70587D01*
X884507Y70587D01*
X900879Y65164D02*
X909014Y65164D01*
X911725Y67876D01*
X909014Y70587D01*
X903590Y70587D01*
X900879Y73299D01*
X903590Y76011D01*
X911725Y76011D01*
X917250Y65164D02*
X925385Y65164D01*
X928097Y67876D01*
X925385Y70587D01*
X919962Y70587D01*
X917250Y73299D01*
X919962Y76011D01*
X928097Y76011D01*
X949993Y78722D02*
X949993Y67876D01*
X949993Y78722D02*
X952705Y81434D01*
X958128Y81434D01*
X960840Y78722D01*
X960840Y67876D01*
X958128Y65164D01*
X952705Y65164D01*
X949993Y67876D01*
X960840Y78722D01*
X966365Y67876D02*
X966365Y65164D01*
X966365Y67876D02*
X969077Y67876D01*
X969077Y65164D01*
X966365Y65164D01*
X974551Y76011D02*
X979974Y81434D01*
X979974Y65164D01*
X974551Y65164D02*
X985397Y65164D01*
X990922Y81434D02*
X1001769Y81434D01*
X1001769Y78722D01*
X990922Y67876D01*
X990922Y65164D01*
X1007294Y81434D02*
X1018140Y81434D01*
X1007294Y81434D02*
X1007294Y73299D01*
X1012717Y76011D01*
X1015429Y76011D01*
X1018140Y73299D01*
X1018140Y67876D01*
X1015429Y65164D01*
X1010005Y65164D01*
X1007294Y67876D01*
X1040037Y65164D02*
X1040037Y76011D01*
X1042749Y76011D01*
X1045460Y73299D01*
X1045460Y65164D01*
X1045460Y73299D02*
X1048172Y76011D01*
X1050884Y73299D01*
X1050884Y65164D01*
X1056409Y65164D02*
X1056409Y76011D01*
X1059120Y76011D01*
X1061832Y73299D01*
X1061832Y65164D01*
X1061832Y73299D02*
X1064543Y76011D01*
X1067255Y73299D01*
X1067255Y65164D01*
X412393Y22671D02*
X404258Y22671D01*
X401546Y19959D01*
X401546Y14536D01*
X404258Y11824D01*
X412393Y11824D01*
X420629Y11824D02*
X426053Y11824D01*
X428764Y14536D01*
X428764Y19959D01*
X426053Y22671D01*
X420629Y22671D01*
X417918Y19959D01*
X417918Y14536D01*
X420629Y11824D01*
X434289Y6401D02*
X434289Y22671D01*
X442424Y22671D01*
X445136Y19959D01*
X445136Y14536D01*
X442424Y11824D01*
X434289Y11824D01*
X450661Y6401D02*
X450661Y22671D01*
X458796Y22671D01*
X461507Y19959D01*
X461507Y14536D01*
X458796Y11824D01*
X450661Y11824D01*
X469744Y11824D02*
X475167Y11824D01*
X469744Y11824D02*
X467032Y14536D01*
X467032Y19959D01*
X469744Y22671D01*
X475167Y22671D01*
X477879Y19959D01*
X477879Y17247D01*
X467032Y17247D01*
X483404Y11824D02*
X483404Y22671D01*
X488827Y22671D02*
X483404Y17247D01*
X488827Y22671D02*
X491539Y22671D01*
X497047Y9112D02*
X507893Y9112D01*
X513418Y11824D02*
X513418Y28094D01*
X513418Y11824D02*
X521553Y11824D01*
X524265Y14536D01*
X524265Y19959D01*
X521553Y22671D01*
X513418Y22671D01*
X532502Y11824D02*
X537925Y11824D01*
X540637Y14536D01*
X540637Y19959D01*
X537925Y22671D01*
X532502Y22671D01*
X529790Y19959D01*
X529790Y14536D01*
X532502Y11824D01*
X548873Y14536D02*
X548873Y25382D01*
X548873Y14536D02*
X551585Y11824D01*
X551585Y22671D02*
X546161Y22671D01*
X559787Y25382D02*
X559787Y14536D01*
X562499Y11824D01*
X562499Y22671D02*
X557076Y22671D01*
X570702Y11824D02*
X576125Y11824D01*
X578837Y14536D01*
X578837Y19959D01*
X576125Y22671D01*
X570702Y22671D01*
X567990Y19959D01*
X567990Y14536D01*
X570702Y11824D01*
X584362Y11824D02*
X584362Y22671D01*
X587073Y22671D01*
X589785Y19959D01*
X589785Y11824D01*
X589785Y19959D02*
X592497Y22671D01*
X595208Y19959D01*
X595208Y11824D01*
X600733Y9112D02*
X611580Y9112D01*
X617105Y28094D02*
X619817Y28094D01*
X619817Y11824D01*
X622528Y11824D02*
X617105Y11824D01*
X636154Y11824D02*
X636154Y28094D01*
X628019Y19959D01*
X638866Y19959D01*
X644391Y14536D02*
X644391Y11824D01*
X644391Y14536D02*
X647102Y14536D01*
X647102Y11824D01*
X644391Y11824D01*
X658000Y6401D02*
X660712Y6401D01*
X663423Y9112D01*
X663423Y22671D01*
X655288Y22671D01*
X652577Y19959D01*
X652577Y14536D01*
X655288Y11824D01*
X663423Y11824D01*
X668948Y11824D02*
X668948Y28094D01*
X668948Y11824D02*
X677083Y11824D01*
X679795Y14536D01*
X679795Y19959D01*
X677083Y22671D01*
X668948Y22671D01*
X685320Y22671D02*
X685320Y11824D01*
X685320Y17247D02*
X690743Y22671D01*
X693455Y22671D01*
X715334Y22671D02*
X718046Y22671D01*
X718046Y19959D01*
X715334Y19959D01*
X715334Y22671D01*
X715334Y14536D02*
X718046Y14536D01*
X718046Y11824D01*
X715334Y11824D01*
X715334Y14536D01*
X739892Y11824D02*
X739892Y28094D01*
X748027Y28094D01*
X750738Y25382D01*
X750738Y22671D01*
X748027Y19959D01*
X750738Y17247D01*
X750738Y14536D01*
X748027Y11824D01*
X739892Y11824D01*
X739892Y19959D02*
X748027Y19959D01*
X758975Y11824D02*
X764398Y11824D01*
X767110Y14536D01*
X767110Y19959D01*
X764398Y22671D01*
X758975Y22671D01*
X756263Y19959D01*
X756263Y14536D01*
X758975Y11824D01*
X775346Y14536D02*
X775346Y25382D01*
X775346Y14536D02*
X778058Y11824D01*
X778058Y22671D02*
X772635Y22671D01*
X786261Y25382D02*
X786261Y14536D01*
X788972Y11824D01*
X788972Y22671D02*
X783549Y22671D01*
X797175Y11824D02*
X802598Y11824D01*
X805310Y14536D01*
X805310Y19959D01*
X802598Y22671D01*
X797175Y22671D01*
X794464Y19959D01*
X794464Y14536D01*
X797175Y11824D01*
X810835Y11824D02*
X810835Y22671D01*
X813547Y22671D01*
X816258Y19959D01*
X816258Y11824D01*
X816258Y19959D02*
X818970Y22671D01*
X821682Y19959D01*
X821682Y11824D01*
X851713Y28094D02*
X854425Y25382D01*
X851713Y28094D02*
X846290Y28094D01*
X843578Y25382D01*
X843578Y14536D01*
X846290Y11824D01*
X851713Y11824D01*
X854425Y14536D01*
X862661Y11824D02*
X868085Y11824D01*
X870796Y14536D01*
X870796Y19959D01*
X868085Y22671D01*
X862661Y22671D01*
X859950Y19959D01*
X859950Y14536D01*
X862661Y11824D01*
X876321Y11824D02*
X876321Y22671D01*
X884456Y22671D01*
X887168Y19959D01*
X887168Y11824D01*
X903539Y11824D02*
X903539Y28094D01*
X903539Y11824D02*
X895405Y11824D01*
X892693Y14536D01*
X892693Y19959D01*
X895405Y22671D01*
X903539Y22671D01*
X909064Y22671D02*
X909064Y14536D01*
X911776Y11824D01*
X919911Y11824D01*
X919911Y22671D01*
X928148Y22671D02*
X936283Y22671D01*
X928148Y22671D02*
X925436Y19959D01*
X925436Y14536D01*
X928148Y11824D01*
X936283Y11824D01*
X944519Y14536D02*
X944519Y25382D01*
X944519Y14536D02*
X947231Y11824D01*
X947231Y22671D02*
X941808Y22671D01*
X955434Y11824D02*
X960857Y11824D01*
X963569Y14536D01*
X963569Y19959D01*
X960857Y22671D01*
X955434Y22671D01*
X952722Y19959D01*
X952722Y14536D01*
X955434Y11824D01*
X969094Y11824D02*
X969094Y22671D01*
X974517Y22671D02*
X969094Y17247D01*
X974517Y22671D02*
X977228Y22671D01*
X999108Y19959D02*
X1009955Y19959D01*
X1039986Y28094D02*
X1042698Y25382D01*
X1039986Y28094D02*
X1034563Y28094D01*
X1031851Y25382D01*
X1031851Y14536D01*
X1034563Y11824D01*
X1039986Y11824D01*
X1042698Y14536D01*
X1050934Y11824D02*
X1056358Y11824D01*
X1059069Y14536D01*
X1059069Y19959D01*
X1056358Y22671D01*
X1050934Y22671D01*
X1048223Y19959D01*
X1048223Y14536D01*
X1050934Y11824D01*
X1064594Y6401D02*
X1064594Y22671D01*
X1072729Y22671D01*
X1075441Y19959D01*
X1075441Y14536D01*
X1072729Y11824D01*
X1064594Y11824D01*
X1080966Y6401D02*
X1080966Y22671D01*
X1089101Y22671D01*
X1091812Y19959D01*
X1091812Y14536D01*
X1089101Y11824D01*
X1080966Y11824D01*
X1100049Y11824D02*
X1105472Y11824D01*
X1100049Y11824D02*
X1097337Y14536D01*
X1097337Y19959D01*
X1100049Y22671D01*
X1105472Y22671D01*
X1108184Y19959D01*
X1108184Y17247D01*
X1097337Y17247D01*
X1113709Y11824D02*
X1113709Y22671D01*
X1119132Y22671D02*
X1113709Y17247D01*
X1119132Y22671D02*
X1121844Y22671D01*
X1127352Y22671D02*
X1130064Y22671D01*
X1130064Y19959D01*
X1127352Y19959D01*
X1127352Y22671D01*
X1127352Y14536D02*
X1130064Y14536D01*
X1130064Y11824D01*
X1127352Y11824D01*
X1127352Y14536D01*
X1157333Y11824D02*
X1157333Y28094D01*
X1162756Y28094D02*
X1151909Y28094D01*
X1168281Y28094D02*
X1168281Y11824D01*
X1168281Y19959D02*
X1170992Y22671D01*
X1176416Y22671D01*
X1179127Y19959D01*
X1179127Y11824D01*
X1184652Y22671D02*
X1187364Y22671D01*
X1187364Y11824D01*
X1184652Y11824D02*
X1190076Y11824D01*
X1187364Y28094D02*
X1187364Y30806D01*
X1198278Y22671D02*
X1206413Y22671D01*
X1198278Y22671D02*
X1195567Y19959D01*
X1195567Y14536D01*
X1198278Y11824D01*
X1206413Y11824D01*
X1211938Y11824D02*
X1211938Y28094D01*
X1211938Y17247D02*
X1220073Y11824D01*
X1211938Y17247D02*
X1220073Y22671D01*
X1225581Y22671D02*
X1225581Y11824D01*
X1225581Y22671D02*
X1233716Y22671D01*
X1236428Y19959D01*
X1236428Y11824D01*
X1244665Y11824D02*
X1250088Y11824D01*
X1244665Y11824D02*
X1241953Y14536D01*
X1241953Y19959D01*
X1244665Y22671D01*
X1250088Y22671D01*
X1252799Y19959D01*
X1252799Y17247D01*
X1241953Y17247D01*
X1258324Y11824D02*
X1266459Y11824D01*
X1269171Y14536D01*
X1266459Y17247D01*
X1261036Y17247D01*
X1258324Y19959D01*
X1261036Y22671D01*
X1269171Y22671D01*
X1274696Y11824D02*
X1282831Y11824D01*
X1285543Y14536D01*
X1282831Y17247D01*
X1277408Y17247D01*
X1274696Y19959D01*
X1277408Y22671D01*
X1285543Y22671D01*
X1307439Y25382D02*
X1307439Y14536D01*
X1307439Y25382D02*
X1310151Y28094D01*
X1315574Y28094D01*
X1318286Y25382D01*
X1318286Y14536D01*
X1315574Y11824D01*
X1310151Y11824D01*
X1307439Y14536D01*
X1318286Y25382D01*
X1323811Y14536D02*
X1323811Y11824D01*
X1323811Y14536D02*
X1326522Y14536D01*
X1326522Y11824D01*
X1323811Y11824D01*
X1331996Y14536D02*
X1331996Y25382D01*
X1334708Y28094D01*
X1340131Y28094D01*
X1342843Y25382D01*
X1342843Y14536D01*
X1340131Y11824D01*
X1334708Y11824D01*
X1331996Y14536D01*
X1342843Y25382D01*
X1348368Y25382D02*
X1351080Y28094D01*
X1356503Y28094D01*
X1359215Y25382D01*
X1359215Y22671D01*
X1356503Y19959D01*
X1353791Y19959D01*
X1356503Y19959D02*
X1359215Y17247D01*
X1359215Y14536D01*
X1356503Y11824D01*
X1351080Y11824D01*
X1348368Y14536D01*
X1364740Y28094D02*
X1375586Y28094D01*
X1364740Y28094D02*
X1364740Y19959D01*
X1370163Y22671D01*
X1372875Y22671D01*
X1375586Y19959D01*
X1375586Y14536D01*
X1372875Y11824D01*
X1367451Y11824D01*
X1364740Y14536D01*
X1397483Y11824D02*
X1397483Y22671D01*
X1400194Y22671D01*
X1402906Y19959D01*
X1402906Y11824D01*
X1402906Y19959D02*
X1405618Y22671D01*
X1408329Y19959D01*
X1408329Y11824D01*
X1413854Y11824D02*
X1413854Y22671D01*
X1416566Y22671D01*
X1419278Y19959D01*
X1419278Y11824D01*
X1419278Y19959D02*
X1421989Y22671D01*
X1424701Y19959D01*
X1424701Y11824D01*
M02*
