G04 EAGLE Gerber X2 export*
%TF.Part,Single*%
%TF.FileFunction,Paste,Bot*%
%TF.FilePolarity,Positive*%
%TF.GenerationSoftware,Autodesk,EAGLE,8.6.3*%
%TF.CreationDate,2018-03-24T11:36:11Z*%
G75*
%MOMM*%
%FSLAX34Y34*%
%LPD*%
%AMOC8*
5,1,8,0,0,1.08239X$1,22.5*%
G01*
%ADD10R,1.000000X1.100000*%
%ADD11R,1.500000X1.300000*%
%ADD12C,0.124994*%
%ADD13R,5.699988X5.699988*%
%ADD14R,1.399997X0.400000*%
%ADD15R,1.300000X1.500000*%
%ADD16R,1.100000X1.000000*%


D10*
X238895Y224050D03*
X238895Y241050D03*
D11*
X239572Y170600D03*
X239572Y189600D03*
D10*
X258889Y181496D03*
X275889Y181496D03*
D12*
X188061Y228437D02*
X188061Y229687D01*
X193811Y229687D01*
X193811Y228437D01*
X188061Y228437D01*
X188061Y229686D02*
X193811Y229686D01*
X188061Y224687D02*
X188061Y223437D01*
X188061Y224687D02*
X193811Y224687D01*
X193811Y223437D01*
X188061Y223437D01*
X188061Y224686D02*
X193811Y224686D01*
X188061Y219687D02*
X188061Y218437D01*
X188061Y219687D02*
X193811Y219687D01*
X193811Y218437D01*
X188061Y218437D01*
X188061Y219686D02*
X193811Y219686D01*
X188061Y214687D02*
X188061Y213437D01*
X188061Y214687D02*
X193811Y214687D01*
X193811Y213437D01*
X188061Y213437D01*
X188061Y214686D02*
X193811Y214686D01*
X188061Y209687D02*
X188061Y208437D01*
X188061Y209687D02*
X193811Y209687D01*
X193811Y208437D01*
X188061Y208437D01*
X188061Y209686D02*
X193811Y209686D01*
X188061Y204687D02*
X188061Y203437D01*
X188061Y204687D02*
X193811Y204687D01*
X193811Y203437D01*
X188061Y203437D01*
X188061Y204686D02*
X193811Y204686D01*
X188061Y199687D02*
X188061Y198437D01*
X188061Y199687D02*
X193811Y199687D01*
X193811Y198437D01*
X188061Y198437D01*
X188061Y199686D02*
X193811Y199686D01*
X188061Y194687D02*
X188061Y193437D01*
X188061Y194687D02*
X193811Y194687D01*
X193811Y193437D01*
X188061Y193437D01*
X188061Y194686D02*
X193811Y194686D01*
X188061Y189687D02*
X188061Y188437D01*
X188061Y189687D02*
X193811Y189687D01*
X193811Y188437D01*
X188061Y188437D01*
X188061Y189686D02*
X193811Y189686D01*
X188061Y184687D02*
X188061Y183437D01*
X188061Y184687D02*
X193811Y184687D01*
X193811Y183437D01*
X188061Y183437D01*
X188061Y184686D02*
X193811Y184686D01*
X188061Y179687D02*
X188061Y178437D01*
X188061Y179687D02*
X193811Y179687D01*
X193811Y178437D01*
X188061Y178437D01*
X188061Y179686D02*
X193811Y179686D01*
X188061Y174687D02*
X188061Y173437D01*
X188061Y174687D02*
X193811Y174687D01*
X193811Y173437D01*
X188061Y173437D01*
X188061Y174686D02*
X193811Y174686D01*
X184561Y169937D02*
X183311Y169937D01*
X184561Y169937D02*
X184561Y164187D01*
X183311Y164187D01*
X183311Y169937D01*
X183311Y165436D02*
X184561Y165436D01*
X184561Y166685D02*
X183311Y166685D01*
X183311Y167934D02*
X184561Y167934D01*
X184561Y169183D02*
X183311Y169183D01*
X179561Y169937D02*
X178311Y169937D01*
X179561Y169937D02*
X179561Y164187D01*
X178311Y164187D01*
X178311Y169937D01*
X178311Y165436D02*
X179561Y165436D01*
X179561Y166685D02*
X178311Y166685D01*
X178311Y167934D02*
X179561Y167934D01*
X179561Y169183D02*
X178311Y169183D01*
X174561Y169937D02*
X173311Y169937D01*
X174561Y169937D02*
X174561Y164187D01*
X173311Y164187D01*
X173311Y169937D01*
X173311Y165436D02*
X174561Y165436D01*
X174561Y166685D02*
X173311Y166685D01*
X173311Y167934D02*
X174561Y167934D01*
X174561Y169183D02*
X173311Y169183D01*
X169561Y169937D02*
X168311Y169937D01*
X169561Y169937D02*
X169561Y164187D01*
X168311Y164187D01*
X168311Y169937D01*
X168311Y165436D02*
X169561Y165436D01*
X169561Y166685D02*
X168311Y166685D01*
X168311Y167934D02*
X169561Y167934D01*
X169561Y169183D02*
X168311Y169183D01*
X164561Y169937D02*
X163311Y169937D01*
X164561Y169937D02*
X164561Y164187D01*
X163311Y164187D01*
X163311Y169937D01*
X163311Y165436D02*
X164561Y165436D01*
X164561Y166685D02*
X163311Y166685D01*
X163311Y167934D02*
X164561Y167934D01*
X164561Y169183D02*
X163311Y169183D01*
X159561Y169937D02*
X158311Y169937D01*
X159561Y169937D02*
X159561Y164187D01*
X158311Y164187D01*
X158311Y169937D01*
X158311Y165436D02*
X159561Y165436D01*
X159561Y166685D02*
X158311Y166685D01*
X158311Y167934D02*
X159561Y167934D01*
X159561Y169183D02*
X158311Y169183D01*
X154561Y169937D02*
X153311Y169937D01*
X154561Y169937D02*
X154561Y164187D01*
X153311Y164187D01*
X153311Y169937D01*
X153311Y165436D02*
X154561Y165436D01*
X154561Y166685D02*
X153311Y166685D01*
X153311Y167934D02*
X154561Y167934D01*
X154561Y169183D02*
X153311Y169183D01*
X149561Y169937D02*
X148311Y169937D01*
X149561Y169937D02*
X149561Y164187D01*
X148311Y164187D01*
X148311Y169937D01*
X148311Y165436D02*
X149561Y165436D01*
X149561Y166685D02*
X148311Y166685D01*
X148311Y167934D02*
X149561Y167934D01*
X149561Y169183D02*
X148311Y169183D01*
X144561Y169937D02*
X143311Y169937D01*
X144561Y169937D02*
X144561Y164187D01*
X143311Y164187D01*
X143311Y169937D01*
X143311Y165436D02*
X144561Y165436D01*
X144561Y166685D02*
X143311Y166685D01*
X143311Y167934D02*
X144561Y167934D01*
X144561Y169183D02*
X143311Y169183D01*
X139561Y169937D02*
X138311Y169937D01*
X139561Y169937D02*
X139561Y164187D01*
X138311Y164187D01*
X138311Y169937D01*
X138311Y165436D02*
X139561Y165436D01*
X139561Y166685D02*
X138311Y166685D01*
X138311Y167934D02*
X139561Y167934D01*
X139561Y169183D02*
X138311Y169183D01*
X134561Y169937D02*
X133311Y169937D01*
X134561Y169937D02*
X134561Y164187D01*
X133311Y164187D01*
X133311Y169937D01*
X133311Y165436D02*
X134561Y165436D01*
X134561Y166685D02*
X133311Y166685D01*
X133311Y167934D02*
X134561Y167934D01*
X134561Y169183D02*
X133311Y169183D01*
X129561Y169937D02*
X128311Y169937D01*
X129561Y169937D02*
X129561Y164187D01*
X128311Y164187D01*
X128311Y169937D01*
X128311Y165436D02*
X129561Y165436D01*
X129561Y166685D02*
X128311Y166685D01*
X128311Y167934D02*
X129561Y167934D01*
X129561Y169183D02*
X128311Y169183D01*
X124811Y173437D02*
X124811Y174687D01*
X124811Y173437D02*
X119061Y173437D01*
X119061Y174687D01*
X124811Y174687D01*
X124811Y174686D02*
X119061Y174686D01*
X124811Y178437D02*
X124811Y179687D01*
X124811Y178437D02*
X119061Y178437D01*
X119061Y179687D01*
X124811Y179687D01*
X124811Y179686D02*
X119061Y179686D01*
X124811Y183437D02*
X124811Y184687D01*
X124811Y183437D02*
X119061Y183437D01*
X119061Y184687D01*
X124811Y184687D01*
X124811Y184686D02*
X119061Y184686D01*
X124811Y188437D02*
X124811Y189687D01*
X124811Y188437D02*
X119061Y188437D01*
X119061Y189687D01*
X124811Y189687D01*
X124811Y189686D02*
X119061Y189686D01*
X124811Y193437D02*
X124811Y194687D01*
X124811Y193437D02*
X119061Y193437D01*
X119061Y194687D01*
X124811Y194687D01*
X124811Y194686D02*
X119061Y194686D01*
X124811Y198437D02*
X124811Y199687D01*
X124811Y198437D02*
X119061Y198437D01*
X119061Y199687D01*
X124811Y199687D01*
X124811Y199686D02*
X119061Y199686D01*
X124811Y203437D02*
X124811Y204687D01*
X124811Y203437D02*
X119061Y203437D01*
X119061Y204687D01*
X124811Y204687D01*
X124811Y204686D02*
X119061Y204686D01*
X124811Y208437D02*
X124811Y209687D01*
X124811Y208437D02*
X119061Y208437D01*
X119061Y209687D01*
X124811Y209687D01*
X124811Y209686D02*
X119061Y209686D01*
X124811Y213437D02*
X124811Y214687D01*
X124811Y213437D02*
X119061Y213437D01*
X119061Y214687D01*
X124811Y214687D01*
X124811Y214686D02*
X119061Y214686D01*
X124811Y218437D02*
X124811Y219687D01*
X124811Y218437D02*
X119061Y218437D01*
X119061Y219687D01*
X124811Y219687D01*
X124811Y219686D02*
X119061Y219686D01*
X124811Y223437D02*
X124811Y224687D01*
X124811Y223437D02*
X119061Y223437D01*
X119061Y224687D01*
X124811Y224687D01*
X124811Y224686D02*
X119061Y224686D01*
X124811Y228437D02*
X124811Y229687D01*
X124811Y228437D02*
X119061Y228437D01*
X119061Y229687D01*
X124811Y229687D01*
X124811Y229686D02*
X119061Y229686D01*
X128311Y233187D02*
X129561Y233187D01*
X128311Y233187D02*
X128311Y238937D01*
X129561Y238937D01*
X129561Y233187D01*
X129561Y234436D02*
X128311Y234436D01*
X128311Y235685D02*
X129561Y235685D01*
X129561Y236934D02*
X128311Y236934D01*
X128311Y238183D02*
X129561Y238183D01*
X133311Y233187D02*
X134561Y233187D01*
X133311Y233187D02*
X133311Y238937D01*
X134561Y238937D01*
X134561Y233187D01*
X134561Y234436D02*
X133311Y234436D01*
X133311Y235685D02*
X134561Y235685D01*
X134561Y236934D02*
X133311Y236934D01*
X133311Y238183D02*
X134561Y238183D01*
X138311Y233187D02*
X139561Y233187D01*
X138311Y233187D02*
X138311Y238937D01*
X139561Y238937D01*
X139561Y233187D01*
X139561Y234436D02*
X138311Y234436D01*
X138311Y235685D02*
X139561Y235685D01*
X139561Y236934D02*
X138311Y236934D01*
X138311Y238183D02*
X139561Y238183D01*
X143311Y233187D02*
X144561Y233187D01*
X143311Y233187D02*
X143311Y238937D01*
X144561Y238937D01*
X144561Y233187D01*
X144561Y234436D02*
X143311Y234436D01*
X143311Y235685D02*
X144561Y235685D01*
X144561Y236934D02*
X143311Y236934D01*
X143311Y238183D02*
X144561Y238183D01*
X148311Y233187D02*
X149561Y233187D01*
X148311Y233187D02*
X148311Y238937D01*
X149561Y238937D01*
X149561Y233187D01*
X149561Y234436D02*
X148311Y234436D01*
X148311Y235685D02*
X149561Y235685D01*
X149561Y236934D02*
X148311Y236934D01*
X148311Y238183D02*
X149561Y238183D01*
X153311Y233187D02*
X154561Y233187D01*
X153311Y233187D02*
X153311Y238937D01*
X154561Y238937D01*
X154561Y233187D01*
X154561Y234436D02*
X153311Y234436D01*
X153311Y235685D02*
X154561Y235685D01*
X154561Y236934D02*
X153311Y236934D01*
X153311Y238183D02*
X154561Y238183D01*
X158311Y233187D02*
X159561Y233187D01*
X158311Y233187D02*
X158311Y238937D01*
X159561Y238937D01*
X159561Y233187D01*
X159561Y234436D02*
X158311Y234436D01*
X158311Y235685D02*
X159561Y235685D01*
X159561Y236934D02*
X158311Y236934D01*
X158311Y238183D02*
X159561Y238183D01*
X163311Y233187D02*
X164561Y233187D01*
X163311Y233187D02*
X163311Y238937D01*
X164561Y238937D01*
X164561Y233187D01*
X164561Y234436D02*
X163311Y234436D01*
X163311Y235685D02*
X164561Y235685D01*
X164561Y236934D02*
X163311Y236934D01*
X163311Y238183D02*
X164561Y238183D01*
X168311Y233187D02*
X169561Y233187D01*
X168311Y233187D02*
X168311Y238937D01*
X169561Y238937D01*
X169561Y233187D01*
X169561Y234436D02*
X168311Y234436D01*
X168311Y235685D02*
X169561Y235685D01*
X169561Y236934D02*
X168311Y236934D01*
X168311Y238183D02*
X169561Y238183D01*
X173311Y233187D02*
X174561Y233187D01*
X173311Y233187D02*
X173311Y238937D01*
X174561Y238937D01*
X174561Y233187D01*
X174561Y234436D02*
X173311Y234436D01*
X173311Y235685D02*
X174561Y235685D01*
X174561Y236934D02*
X173311Y236934D01*
X173311Y238183D02*
X174561Y238183D01*
X178311Y233187D02*
X179561Y233187D01*
X178311Y233187D02*
X178311Y238937D01*
X179561Y238937D01*
X179561Y233187D01*
X179561Y234436D02*
X178311Y234436D01*
X178311Y235685D02*
X179561Y235685D01*
X179561Y236934D02*
X178311Y236934D01*
X178311Y238183D02*
X179561Y238183D01*
X183311Y233187D02*
X184561Y233187D01*
X183311Y233187D02*
X183311Y238937D01*
X184561Y238937D01*
X184561Y233187D01*
X184561Y234436D02*
X183311Y234436D01*
X183311Y235685D02*
X184561Y235685D01*
X184561Y236934D02*
X183311Y236934D01*
X183311Y238183D02*
X184561Y238183D01*
D13*
X156436Y201562D03*
D14*
X213010Y224992D03*
X213010Y212992D03*
X213010Y200992D03*
D10*
X221504Y280810D03*
X204504Y280810D03*
D11*
X88618Y241277D03*
X88618Y260277D03*
D15*
X75766Y161684D03*
X56766Y161684D03*
D10*
X218920Y169086D03*
X218920Y186086D03*
X109446Y236242D03*
X109446Y253242D03*
X95730Y176788D03*
X95730Y159788D03*
X188186Y248942D03*
X188186Y265942D03*
D16*
X205086Y246520D03*
X222086Y246520D03*
X259814Y215650D03*
X259814Y198650D03*
D11*
X232890Y81014D03*
X232890Y62014D03*
X295882Y107226D03*
X295882Y126226D03*
D15*
X290954Y148730D03*
X309954Y148730D03*
M02*
